<svg xmlns="http://www.w3.org/2000/svg" xmlns:xlink="http://www.w3.org/1999/xlink" viewBox="0 0 477.11 440"><defs><style>.cls-1{fill:none;}.cls-2{clip-path:url(#clip-path);}.cls-3{fill:#f2f2f2;}.cls-4{fill:#fff;}.cls-5{fill:#e6e6e5;}.cls-6{fill:#ccc;}.cls-7{fill:#555ea9;}</style><clipPath id="clip-path"><rect class="cls-1" width="477.11" height="440"/></clipPath></defs><g id="레이어_2" data-name="레이어 2"><g id="레이어_1-2" data-name="레이어 1"><g id="그룹_268" data-name="그룹 268"><g id="그룹_267" data-name="그룹 267"><g class="cls-2"><g id="그룹_266" data-name="그룹 266"><path id="패스_355" data-name="패스 355" class="cls-3" d="M271.9,1,254.62,5.49,41.79,60.38,24.51,64.83A32.72,32.72,0,0,0,1,104.63L75.94,395.11a32.72,32.72,0,0,0,39.8,23.48h.05l247.3-63.78h0A32.71,32.71,0,0,0,386.61,315L311.7,24.51A32.72,32.72,0,0,0,271.9,1"/><path id="패스_356" data-name="패스 356" class="cls-4" d="M274.25,10.14l-20.46,5.28L47.32,68.66,26.86,73.94a23.3,23.3,0,0,0-16.72,28.34L85.05,392.76a23.29,23.29,0,0,0,28.34,16.72h0l247.3-63.77h0a23.3,23.3,0,0,0,16.72-28.34L302.59,26.86a23.3,23.3,0,0,0-28.34-16.72"/><path id="패스_357" data-name="패스 357" class="cls-3" d="M258.8,104.21,133.7,136.47A5.44,5.44,0,0,1,131,125.93l125.1-32.25a5.44,5.44,0,0,1,2.72,10.53"/><path id="패스_358" data-name="패스 358" class="cls-3" d="M285.11,116.39,138.28,154.25a5.44,5.44,0,0,1-2.9-10.49l.17,0h0L282.4,105.85a5.44,5.44,0,1,1,2.88,10.5l-.16,0Z"/><path id="패스_359" data-name="패스 359" class="cls-3" d="M279.35,183.89l-125.1,32.26a5.44,5.44,0,0,1-2.73-10.53h0l125.1-32.27a5.44,5.44,0,0,1,2.73,10.54h0Z"/><path id="패스_360" data-name="패스 360" class="cls-3" d="M305.67,196.07,158.83,233.93a5.44,5.44,0,1,1-2.83-10.5l.1,0h0L303,185.53a5.44,5.44,0,0,1,2.72,10.53"/><path id="패스_361" data-name="패스 361" class="cls-3" d="M299.9,263.58,174.8,295.84a5.44,5.44,0,0,1-2.72-10.54L297.18,253a5.44,5.44,0,0,1,2.72,10.54"/><path id="패스_362" data-name="패스 362" class="cls-3" d="M326.22,275.75,179.38,313.62a5.44,5.44,0,0,1-2.74-10.53h0L323.5,265.22a5.44,5.44,0,0,1,2.72,10.53"/><path id="패스_363" data-name="패스 363" class="cls-5" d="M112.34,169.55,68.07,181a2.61,2.61,0,0,1-3.18-1.88L54.73,139.68a2.6,2.6,0,0,1,1.87-3.17l44.27-11.42a2.61,2.61,0,0,1,3.18,1.87l10.16,39.42a2.6,2.6,0,0,1-1.87,3.17"/><path id="패스_364" data-name="패스 364" class="cls-5" d="M132.89,249.23,88.62,260.65a2.61,2.61,0,0,1-3.18-1.87L75.28,219.37a2.6,2.6,0,0,1,1.87-3.18h0l44.27-11.41a2.61,2.61,0,0,1,3.18,1.87l10.16,39.41a2.61,2.61,0,0,1-1.87,3.18"/><path id="패스_365" data-name="패스 365" class="cls-5" d="M153.44,328.92l-44.27,11.41a2.61,2.61,0,0,1-3.18-1.87L95.83,299.05a2.62,2.62,0,0,1,1.87-3.18L142,284.46a2.61,2.61,0,0,1,3.18,1.87l10.17,39.41a2.62,2.62,0,0,1-1.88,3.18"/><path id="패스_366" data-name="패스 366" class="cls-5" d="M444.44,74.67H189a32.7,32.7,0,0,0-32.67,32.67v300A32.71,32.71,0,0,0,189,440H444.44a32.71,32.71,0,0,0,32.67-32.67v-300a32.71,32.71,0,0,0-32.67-32.67"/><path id="패스_367" data-name="패스 367" class="cls-4" d="M444.44,84.07H189a23.31,23.31,0,0,0-23.27,23.27v300A23.3,23.3,0,0,0,189,430.59H444.44a23.3,23.3,0,0,0,23.27-23.26v-300a23.31,23.31,0,0,0-23.27-23.27"/><path id="패스_368" data-name="패스 368" class="cls-5" d="M406,248.91H276.79a5.44,5.44,0,0,1,0-10.88H406a5.44,5.44,0,0,1,0,10.88"/><path id="패스_369" data-name="패스 369" class="cls-5" d="M428.43,267.28H276.79a5.44,5.44,0,0,1-.15-10.88H428.43a5.44,5.44,0,0,1,0,10.88"/><path id="패스_370" data-name="패스 370" class="cls-5" d="M406,331.21H276.79a5.44,5.44,0,0,1,0-10.88H406a5.44,5.44,0,0,1,0,10.88"/><path id="패스_371" data-name="패스 371" class="cls-5" d="M428.43,349.57H276.8a5.44,5.44,0,0,1,0-10.88H428.43a5.44,5.44,0,1,1,.15,10.88h-.15"/><path id="패스_372" data-name="패스 372" class="cls-5" d="M247.86,275.62H202.13a2.61,2.61,0,0,1-2.6-2.61v-40.7a2.6,2.6,0,0,1,2.6-2.61h45.73a2.62,2.62,0,0,1,2.61,2.61V273a2.62,2.62,0,0,1-2.61,2.61"/><path id="패스_373" data-name="패스 373" class="cls-5" d="M247.86,357.91H202.13a2.61,2.61,0,0,1-2.6-2.61V314.6a2.6,2.6,0,0,1,2.6-2.61h45.73a2.62,2.62,0,0,1,2.61,2.61v40.7a2.62,2.62,0,0,1-2.61,2.61"/><path id="패스_374" data-name="패스 374" class="cls-6" d="M406.13,157.31H310.88a5.44,5.44,0,0,1-.15-10.88h95.4a5.44,5.44,0,0,1,0,10.88"/><path id="패스_375" data-name="패스 375" class="cls-6" d="M428.58,175.67H310.88a5.44,5.44,0,1,1-.14-10.88H428.58a5.44,5.44,0,1,1,.14,10.88Z"/><path id="패스_376" data-name="패스 376" class="cls-7" d="M289.8,197.92H202a2.6,2.6,0,0,1-2.61-2.6V126.78a2.6,2.6,0,0,1,2.61-2.6H289.8a2.6,2.6,0,0,1,2.61,2.6v68.54a2.6,2.6,0,0,1-2.61,2.6"/></g></g></g></g></g></g></svg>