<svg xmlns="http://www.w3.org/2000/svg" viewBox="0 0 312.42 296"><defs><style>.cls-1{fill:#ed7257}.cls-2{fill:#85ccc9}.cls-3{fill:#eeb73f}.cls-4{fill:#5a56a4}.cls-5{fill:#1e1e24}</style></defs><g id="레이어_2" data-name="레이어 2"><g id="레이어_1-2" data-name="레이어 1"><g id="그룹_263" data-name="그룹 263"><g id="그룹_262" data-name="그룹 262"><g id="dataintegrations"><g id="그룹_208" data-name="그룹 208"><path id="패스_316" data-name="패스 316" class="cls-1" d="M94.28 183.38a1.1 1.1 0 01-1.1-1.1V123.6a1.1 1.1 0 011.1-1.1 1.1 1.1 0 011.1 1.1l-.05 58.68a1.1 1.1 0 01-1.1 1.1z"/></g><g id="그룹_209" data-name="그룹 209"><path id="패스_317" data-name="패스 317" class="cls-1" d="M86.15 188.05a1.1 1.1 0 01-1.1-1.1l.06-58.14a1.1 1.1 0 011.1-1.1 1.1 1.1 0 011.1 1.1L87.25 187a1.1 1.1 0 01-1.1 1.1z"/></g><g id="그룹_210" data-name="그룹 210"><path id="패스_318" data-name="패스 318" class="cls-1" d="M78.08 192.72a1.1 1.1 0 01-1.1-1.1l.02-58.14a1.1 1.1 0 011.1-1.1 1.1 1.1 0 011.1 1.1l-.06 58.14a1.1 1.1 0 01-1.1 1.1z"/></g><g id="그룹_211" data-name="그룹 211"><path id="패스_319" data-name="패스 319" class="cls-1" d="M70 197.38a1.1 1.1 0 01-1.1-1.1v-57.59a1.11 1.11 0 011.1-1.1 1.1 1.1 0 011.1 1.1v57.59a1.1 1.1 0 01-1.1 1.1z"/></g><g id="그룹_212" data-name="그룹 212"><path id="패스_320" data-name="패스 320" class="cls-1" d="M61.94 202.05a1.1 1.1 0 01-1.1-1.1v-57.59a1.11 1.11 0 011.1-1.1 1.1 1.1 0 011.1 1.1L63 201a1.1 1.1 0 01-1.06 1.05z"/></g><g id="그룹_213" data-name="그룹 213"><path id="사각형_160" data-name="사각형 160" class="cls-2" d="M246.37 35.19h2.2v58.69h-2.2z"/></g><g id="그룹_214" data-name="그룹 214"><path id="사각형_161" data-name="사각형 161" class="cls-2" d="M238.3 40.41h2.2v58.14h-2.2z"/></g><g id="그룹_215" data-name="그룹 215"><path id="사각형_162" data-name="사각형 162" class="cls-2" d="M230.22 45.08h2.2v58.14h-2.2z"/></g><g id="그룹_216" data-name="그룹 216"><path id="사각형_163" data-name="사각형 163" class="cls-2" d="M222.1 50.3h2.2v57.59h-2.2z"/></g><g id="그룹_217" data-name="그룹 217"><path id="사각형_164" data-name="사각형 164" class="cls-2" d="M214.03 54.96h2.2v57.59h-2.2z"/></g><g id="그룹_218" data-name="그룹 218"><path id="사각형_165" data-name="사각형 165" class="cls-3" d="M246.37 211.45h2.2v58.69h-2.2z"/></g><g id="그룹_219" data-name="그룹 219"><path id="사각형_166" data-name="사각형 166" class="cls-3" d="M238.3 216.67h2.2v58.14h-2.2z"/></g><g id="그룹_220" data-name="그룹 220"><path id="사각형_167" data-name="사각형 167" class="cls-3" d="M230.22 221.34h2.2v58.14h-2.2z"/></g><g id="그룹_221" data-name="그룹 221"><path id="사각형_168" data-name="사각형 168" class="cls-3" d="M222.1 226.55h2.2v57.59h-2.2z"/></g><g id="그룹_222" data-name="그룹 222"><path id="사각형_169" data-name="사각형 169" class="cls-3" d="M214.03 231.22h2.2v57.59h-2.2z"/></g><g id="그룹_223" data-name="그룹 223"><path id="패스_321" data-name="패스 321" class="cls-4" d="M256.42 207.59a.37.37 0 01-.27-.05c-.11 0-.17-.06-.28-.11l-51.05-29.37a1.13 1.13 0 01-.55-.94v-58.8a.5.5 0 010-.27c0-.11.06-.17.11-.28a1 1 0 01.39-.38L255.87 88a1 1 0 011.1 0L308 117.39c.05.06.16.11.22.17s.11.16.16.22a.39.39 0 01.11.27c0 .11.06.16.06.27v58.8a1.08 1.08 0 01-.55.94l-51 29.37c-.11 0-.17.11-.28.11a.49.49 0 01-.3.05zm1.1-58v55.07l48.86-28.11V120.3zm-51.06 26.9l48.87 28.11v-55l-48.86-29.3zm1.1-58.08l48.87 29.26 48.86-29.26-48.86-28.14z"/></g><g id="그룹_224" data-name="그룹 224"><path id="패스_322" data-name="패스 322" class="cls-4" d="M52.16 207.59a.39.39 0 01-.28-.05c-.11 0-.16-.06-.27-.11L.55 178.06a1.13 1.13 0 01-.55-.94v-58.8a.43.43 0 01.06-.27c.05-.11.05-.17.11-.28a.82.82 0 01.16-.22c.06 0 .17-.11.22-.16L51.61 88a1 1 0 011.1 0l51.06 29.37s.16.11.22.16.11.17.16.22a.43.43 0 01.11.28c0 .11.06.16.06.27v58.8a1.08 1.08 0 01-.55.94L52.7 207.43c-.11 0-.16.11-.27.11a.52.52 0 01-.27.05zm1.1-58v55.07l48.86-28.11V120.3zM2.2 176.46l48.86 28.11v-55L2.2 120.3zm1.1-58.08l48.86 29.26L101 118.38 52.16 90.27z"/></g><g id="그룹_225" data-name="그룹 225"><path id="패스_323" data-name="패스 323" class="cls-4" d="M205.35 119.74a.43.43 0 01-.27-.06.55.55 0 01-.28-.11L153.75 90.2a1.13 1.13 0 01-.55-.93v-58.8a.54.54 0 01.05-.28c.06-.11.06-.16.11-.27a.92.92 0 01.17-.22c.05-.06.16-.11.22-.17L204.81.16a1 1 0 011.1 0l51 29.38c.05.05.16.11.22.16s.11.17.16.22a.4.4 0 01.11.27c0 .11.06.17.06.28v58.8a1.06 1.06 0 01-.55.93l-51.01 29.37a.55.55 0 01-.27.11.67.67 0 01-.28.06zm1.1-58v55.06l48.87-28.11V32.45zm-51 26.9l48.86 28.11v-55l-48.91-29.3zm1.1-58.09l48.86 29.26 48.86-29.26-48.92-28.13z"/></g><g id="그룹_226" data-name="그룹 226"><path id="패스_324" data-name="패스 324" class="cls-4" d="M103.22 119.74a.43.43 0 01-.27-.06.55.55 0 01-.28-.11L51.62 90.2a1.13 1.13 0 01-.55-.93v-58.8a.54.54 0 010-.28c.06-.11.06-.16.11-.27a.72.72 0 01.17-.22c.05-.06.16-.11.22-.17L102.67.16a1 1 0 011.1 0l51.06 29.38c0 .05.16.11.22.16s.11.17.16.22a.4.4 0 01.11.27c0 .11.06.17.06.28v58.8a1.06 1.06 0 01-.55.93l-51.06 29.37a.55.55 0 01-.28.11.6.6 0 01-.27.06zm1.1-58v55.06l48.86-28.11V32.45zm-51 26.9l48.86 28.11v-55l-48.91-29.3zm1.1-58.09l48.86 29.26 48.86-29.26-48.92-28.13z"/></g><g id="그룹_227" data-name="그룹 227"><path id="패스_325" data-name="패스 325" class="cls-4" d="M205.35 296a.43.43 0 01-.27-.06.55.55 0 01-.28-.11l-51.05-29.37a1.12 1.12 0 01-.55-.93v-58.8a.5.5 0 01.05-.27c.06-.11.06-.17.11-.28a.92.92 0 01.17-.22c.05-.05.16-.11.22-.16l51.06-29.37a1 1 0 011.1 0l51 29.37c.06 0 .17.11.22.16s.11.17.17.22a.41.41 0 01.11.28c0 .11.05.16.05.27v58.8a1 1 0 01-.55.93l-51.01 29.37a.55.55 0 01-.27.11.46.46 0 01-.28.06zm1.1-58v55l48.87-28.1v-56.19zm-51 26.9l48.81 28.1v-55l-48.86-29.29zm1.1-58.08l48.86 29.26 48.86-29.26-48.86-28.11z"/></g><g id="그룹_228" data-name="그룹 228"><path id="패스_326" data-name="패스 326" class="cls-4" d="M103.22 296a.43.43 0 01-.27-.06.55.55 0 01-.28-.11l-51.05-29.37a1.12 1.12 0 01-.55-.93v-58.8a.5.5 0 010-.27c.06-.11.06-.17.11-.28a.72.72 0 01.17-.22c.05-.05.16-.11.22-.16l51.05-29.37a1 1 0 011.1 0l51.06 29.37c.06 0 .17.11.22.16s.11.17.17.22a.46.46 0 01.11.28v59.07a1 1 0 01-.55.93l-51.06 29.37a.55.55 0 01-.28.11.42.42 0 01-.17.06zm1.1-58v55l48.86-28.1v-56.19zm-51 26.9l48.81 28.1v-55l-48.86-29.29zm1.1-58.08l48.86 29.26 48.86-29.26-48.86-28.11z"/></g><g id="그룹_229" data-name="그룹 229"><path id="패스_327" data-name="패스 327" class="cls-4" d="M298.53 183.38a1.1 1.1 0 01-1.1-1.1l.06-58.68a1.1 1.1 0 011.1-1.1 1.1 1.1 0 011.1 1.1l-.06 58.68a1.1 1.1 0 01-1.1 1.1z"/></g><g id="그룹_230" data-name="그룹 230"><path id="패스_328" data-name="패스 328" class="cls-4" d="M290.41 188.05a1.1 1.1 0 01-1.1-1.1l.05-58.14a1.1 1.1 0 011.1-1.1 1.1 1.1 0 011.1 1.1l-.05 58.19a1.1 1.1 0 01-1.1 1.05z"/></g><g id="그룹_231" data-name="그룹 231"><path id="패스_329" data-name="패스 329" class="cls-4" d="M282.34 192.72a1.1 1.1 0 01-1.1-1.1l.05-58.14a1.1 1.1 0 011.1-1.1 1.1 1.1 0 011.1 1.1l-.05 58.14a1.1 1.1 0 01-1.1 1.1z"/></g><g id="그룹_232" data-name="그룹 232"><path id="패스_330" data-name="패스 330" class="cls-4" d="M274.27 197.38a1.1 1.1 0 01-1.1-1.1l.05-57.59a1.1 1.1 0 011.1-1.1 1.1 1.1 0 011.1 1.1l-.05 57.59a1.1 1.1 0 01-1.1 1.1z"/></g><g id="그룹_233" data-name="그룹 233"><path id="패스_331" data-name="패스 331" class="cls-4" d="M266.19 202.05a1.1 1.1 0 01-1.1-1.1l.06-57.59a1.1 1.1 0 011.1-1.1 1.1 1.1 0 011.1 1.1l-.06 57.64a1.1 1.1 0 01-1.1 1.05z"/></g><g id="그룹_234" data-name="그룹 234"><path id="패스_332" data-name="패스 332" class="cls-4" d="M145.34 95.53a1.1 1.1 0 01-1.1-1.1l.06-58.69a1.1 1.1 0 011.1-1.1 1.1 1.1 0 011.1 1.1l-.06 58.69a1.1 1.1 0 01-1.1 1.1z"/></g><g id="그룹_235" data-name="그룹 235"><path id="패스_333" data-name="패스 333" class="cls-4" d="M137.21 100.19a1.1 1.1 0 01-1.1-1.1l.06-58.09a1.1 1.1 0 011.1-1.1 1.1 1.1 0 011.1 1.1l-.06 58.14a1.1 1.1 0 01-1.1 1.1z"/></g><g id="그룹_236" data-name="그룹 236"><path id="패스_334" data-name="패스 334" class="cls-4" d="M129.14 104.86a1.1 1.1 0 01-1.1-1.1l.06-58.13a1.1 1.1 0 011.1-1.1 1.1 1.1 0 011.1 1.1l-.06 58.13a1.1 1.1 0 01-1.1 1.1z"/></g><g id="그룹_237" data-name="그룹 237"><path id="패스_335" data-name="패스 335" class="cls-4" d="M121.07 109.53a1.1 1.1 0 01-1.1-1.1l.03-57.59a1.1 1.1 0 011.1-1.1 1.11 1.11 0 011.1 1.1l-.06 57.59a1.1 1.1 0 01-1.1 1.1z"/></g><g id="그룹_238" data-name="그룹 238"><path id="패스_336" data-name="패스 336" class="cls-4" d="M113 114.2a1.1 1.1 0 01-1.1-1.1l.1-57.59a1.1 1.1 0 011.1-1.1 1.1 1.1 0 011.1 1.1l-.06 57.59a1.1 1.1 0 01-1.14 1.1z"/></g><g id="그룹_239" data-name="그룹 239"><path id="사각형_170" data-name="사각형 170" class="cls-4" d="M144.24 212h2.2v58.69h-2.2z"/></g><g id="그룹_240" data-name="그룹 240"><path id="사각형_171" data-name="사각형 171" class="cls-4" d="M136.17 217.22h2.2v58.14h-2.2z"/></g><g id="그룹_241" data-name="그룹 241"><path id="사각형_172" data-name="사각형 172" class="cls-4" d="M128.1 221.88h2.2v58.14h-2.2z"/></g><g id="그룹_242" data-name="그룹 242"><path id="사각형_173" data-name="사각형 173" class="cls-4" d="M119.97 227.1h2.2v57.59h-2.2z"/></g><g id="그룹_243" data-name="그룹 243"><path id="사각형_174" data-name="사각형 174" class="cls-4" d="M111.9 231.77h2.2v57.59h-2.2z"/></g><g id="그룹_244" data-name="그룹 244"><path id="패스_337" data-name="패스 337" class="cls-4" d="M176.8 144.57h-.22l-10.21-2a1.1 1.1 0 01-.77-.55 1.09 1.09 0 01-.06-.93l3.47-9.72a1.11 1.11 0 012.08.77l-3 8.56 9 1.76a1.09 1.09 0 01.88 1.26 1.11 1.11 0 01-1.17.85z"/></g><g id="그룹_245" data-name="그룹 245"><path id="패스_338" data-name="패스 338" class="cls-4" d="M147.7 170.81a1.1 1.1 0 01-.82-1.81l6.53-7.68a1.14 1.14 0 01.82-.39 1 1 0 01.82.39l6.65 7.68a1.09 1.09 0 01-1.65 1.43l-5.82-6.7-5.71 6.7a1 1 0 01-.82.38z"/></g><g id="그룹_246" data-name="그룹 246"><path id="패스_339" data-name="패스 339" class="cls-4" d="M132.82 144.35a1.19 1.19 0 01-1.1-.88 1.08 1.08 0 01.85-1.26l8.73-1.65-3-8.29a1.12 1.12 0 01.7-1.41 1.11 1.11 0 011.39.64l3.4 9.5a1.35 1.35 0 01-.06.93 1.1 1.1 0 01-.77.55l-10 1.92a.34.34 0 00-.14-.05z"/></g><g id="그룹_247" data-name="그룹 247"><path id="패스_340" data-name="패스 340" class="cls-4" d="M154.29 208.15a1.1 1.1 0 01-1.1-1.1v-44.47a1.1 1.1 0 112.2 0v44.47a1.1 1.1 0 01-1.1 1.1z"/></g><g id="그룹_248" data-name="그룹 248"><circle id="타원_43" data-name="타원 43" class="cls-3" cx="154.29" cy="219.68" r="4.12"/><path id="패스_341" data-name="패스 341" class="cls-5" d="M154.29 224.62a4.94 4.94 0 114.94-4.94 4.94 4.94 0 01-4.94 4.94zm0-8.23a3.29 3.29 0 103.29 3.29 3.29 3.29 0 00-3.29-3.29z"/></g><g id="그룹_249" data-name="그룹 249"><circle id="타원_44" data-name="타원 44" class="cls-2" cx="103.22" cy="278.43" r="4.12"/><path id="패스_342" data-name="패스 342" class="cls-5" d="M103.23 283.37a4.94 4.94 0 114.94-4.94 4.95 4.95 0 01-4.94 4.94zm0-8.23a3.3 3.3 0 103.29 3.29 3.29 3.29 0 00-3.29-3.29z"/></g><g id="그룹_250" data-name="그룹 250"><circle id="타원_45" data-name="타원 45" class="cls-1" cx="23.06" cy="190.03" r="4.12"/><path id="패스_343" data-name="패스 343" class="cls-5" d="M23.06 195a4.94 4.94 0 114.94-5 4.94 4.94 0 01-4.94 5zm0-8.23a3.29 3.29 0 103.29 3.23 3.29 3.29 0 00-3.29-3.26z"/></g><g id="그룹_251" data-name="그룹 251"><circle id="타원_46" data-name="타원 46" class="cls-4" cx="231.16" cy="15.43" r="4.12"/><path id="패스_344" data-name="패스 344" class="cls-5" d="M231.16 20.37a4.94 4.94 0 114.94-4.94 4.94 4.94 0 01-4.94 4.94zm0-8.24a3.3 3.3 0 103.29 3.3 3.3 3.3 0 00-3.29-3.3z"/></g><g id="그룹_252" data-name="그룹 252"><circle id="타원_47" data-name="타원 47" class="cls-2" cx="205.35" cy="177.4" r="4.12"/><path id="패스_345" data-name="패스 345" class="cls-5" d="M205.35 182.34a4.94 4.94 0 114.94-4.94 4.94 4.94 0 01-4.94 4.94zm0-8.23a3.3 3.3 0 103.3 3.29 3.29 3.29 0 00-3.3-3.29z"/></g><g id="그룹_253" data-name="그룹 253"><circle id="타원_48" data-name="타원 48" class="cls-2" cx="205.35" cy="59.9" r="4.12"/><path id="패스_346" data-name="패스 346" class="cls-5" d="M205.35 64.84a4.94 4.94 0 114.94-4.94 4.94 4.94 0 01-4.94 4.94zm0-8.23a3.3 3.3 0 103.3 3.29 3.29 3.29 0 00-3.3-3.29z"/></g><g id="그룹_254" data-name="그룹 254"><circle id="타원_49" data-name="타원 49" class="cls-3" cx="241.04" cy="197.72" r="4.12"/><path id="패스_347" data-name="패스 347" class="cls-5" d="M241 202.66a4.94 4.94 0 114.94-4.94 4.94 4.94 0 01-4.94 4.94zm0-8.24a3.3 3.3 0 103.29 3.3 3.29 3.29 0 00-3.29-3.3z"/></g><g id="그룹_255" data-name="그룹 255"><circle id="타원_50" data-name="타원 50" class="cls-1" cx="187.78" cy="108.22" r="4.12"/><path id="패스_348" data-name="패스 348" class="cls-5" d="M187.78 113.16a4.94 4.94 0 114.94-4.94 4.94 4.94 0 01-4.94 4.94zm0-8.23a3.29 3.29 0 103.3 3.29 3.29 3.29 0 00-3.3-3.29z"/></g><g id="그룹_256" data-name="그룹 256"><circle id="타원_51" data-name="타원 51" class="cls-2" cx="29.65" cy="101.63" r="4.12"/><path id="패스_349" data-name="패스 349" class="cls-5" d="M29.65 106.57a4.94 4.94 0 114.94-4.94 4.92 4.92 0 01-4.9 4.94zm0-8.23a3.29 3.29 0 103.29 3.29 3.29 3.29 0 00-3.29-3.29z"/></g><g id="그룹_257" data-name="그룹 257"><circle id="타원_52" data-name="타원 52" class="cls-3" cx="77.42" cy="45.62" r="4.12"/><path id="패스_350" data-name="패스 350" class="cls-5" d="M77.42 50.56a4.94 4.94 0 114.94-4.94 4.92 4.92 0 01-4.9 4.94zm0-8.23a3.3 3.3 0 103.29 3.29 3.29 3.29 0 00-3.29-3.29z"/></g><g id="그룹_258" data-name="그룹 258"><path id="패스_351" data-name="패스 351" class="cls-4" d="M167.63 141.77a1.1 1.1 0 01-1.08-1.11 1.13 1.13 0 01.53-.93l38.32-22a1.08 1.08 0 011.1 1.87l-38.32 22a1.22 1.22 0 01-.55.17zm-25.58 0a1 1 0 01-.55-.17l-38.27-22a1.1 1.1 0 01-.38-1.49 1.09 1.09 0 011.48-.38l38.32 22a1.05 1.05 0 01.43 1.42.43.43 0 000 .07 1.13 1.13 0 01-1 .55z"/></g><g id="그룹_259" data-name="그룹 259"><circle id="타원_53" data-name="타원 53" class="cls-3" cx="116.4" cy="126.89" r="4.12"/><path id="패스_352" data-name="패스 352" class="cls-5" d="M116.4 131.83a4.94 4.94 0 114.94-4.94 4.91 4.91 0 01-4.9 4.94zm0-8.24a3.3 3.3 0 103.3 3.3 3.29 3.29 0 00-3.3-3.3z"/></g><g id="그룹_260" data-name="그룹 260"><path id="사각형_175" data-name="사각형 175" class="cls-2" d="M303.36 132.1h8.23v8.23h-8.23z"/><path id="패스_353" data-name="패스 353" class="cls-5" d="M311.59 141.16h-8.23a.84.84 0 01-.82-.82v-8.23a.85.85 0 01.82-.83h8.23a.85.85 0 01.83.83v8.23a.85.85 0 01-.83.82zm-7.41-1.64h6.59v-6.59h-6.59z"/></g><g id="그룹_261" data-name="그룹 261"><path id="사각형_176" data-name="사각형 176" class="cls-1" d="M99.11 163.4h8.23v8.23h-8.23z"/><path id="패스_354" data-name="패스 354" class="cls-5" d="M107.34 172.46h-8.23a.85.85 0 01-.83-.82v-8.24a.85.85 0 01.83-.82h8.23a.85.85 0 01.83.82v8.24a.85.85 0 01-.83.82zm-7.41-1.65h6.59v-6.59h-6.59z"/></g></g></g></g></g></g></svg>