<svg xmlns="http://www.w3.org/2000/svg" viewBox="0 0 417.32 103.81"><defs><style>.cls-1,.cls-3{fill:#fff}.cls-3{stroke:#fff;stroke-miterlimit:10}</style></defs><g id="레이어_2" data-name="레이어 2"><g id="레이어_1-2" data-name="레이어 1"><path class="cls-1" d="M27.72 40.37h26.95v26.95H27.72zm78.11 55.5l7.3-10.67q6.06 6.61 13.5 6.62a17.11 17.11 0 008.22-1.76c2.17-1.16 3.24-2.77 3.24-4.82q0-5.2-7.15-5.21a48.11 48.11 0 00-5.77.52 48.45 48.45 0 01-5.77.52q-11.93 0-11.91-10.06a9.65 9.65 0 012-5.66 12.77 12.77 0 014.62-4.08q-8.46-6.47-8.46-18.35a21.64 21.64 0 015.83-15.5 19 19 0 0114.34-6.12 19.89 19.89 0 0111.14 2.94l4.5-6.24 8 8.58-5.56 4.76a24.43 24.43 0 012.87 12.11q0 10-5.15 15.94a16.46 16.46 0 01-13 6 24.37 24.37 0 01-3.32-.3l-1.9-.34a10.83 10.83 0 00-2.4 1.14c-1.41.79-2.11 1.59-2.11 2.44q0 2.19 3.18 2.19a23.43 23.43 0 004.8-.83 24.87 24.87 0 015.78-.82q16.84 0 16.85 16a16.42 16.42 0 01-6.76 13.9 26.42 26.42 0 01-16.29 5 30.76 30.76 0 01-20.59-7.94M117.41 43a13.27 13.27 0 002.4 8.3 7.76 7.76 0 006.49 3.13 7.29 7.29 0 006.28-3c1.47-2 2.2-4.82 2.2-8.38a11.72 11.72 0 00-2.36-7.44 7.36 7.36 0 00-6.12-3.05 8 8 0 00-6.42 2.94 11.31 11.31 0 00-2.47 7.5m65.24-7.64a10.57 10.57 0 00-6.78-2.48c-2.67 0-5.05 1.44-7.13 4.3a17.44 17.44 0 00-3.12 10.5v33.18h-11.57V22.54h11.57v5.38a15.35 15.35 0 0112.88-6.41c3.94 0 6.95.71 9.05 2.13zm12.11 45.5V33.71h-6.41V22.54h18v58.32zM200.66 0a6.07 6.07 0 014.75 2.3 8.29 8.29 0 012 5.56 8.25 8.25 0 01-2 5.55 6 6 0 01-9.51 0 8.25 8.25 0 01-2-5.55 8.29 8.29 0 012-5.56 6.08 6.08 0 014.76-2.3m47.82 80.86v-3.55a11.17 11.17 0 01-4.86 3.22 18.82 18.82 0 01-7.06 1.36q-10.34 0-16.27-7.71t-5.93-21.53q0-13.8 6.8-22.47t17.07-8.68a19.79 19.79 0 0110.25 2.74V.79l11.57.21v79.86zm0-44.31a11.24 11.24 0 00-7.72-3.46q-6.93 0-10.67 4.95t-3.74 14.2q0 18.08 14.87 18.07a9.82 9.82 0 004.09-1.16 7.52 7.52 0 003.17-2.36zm17 15.01q0-13.32 6.54-21.68a20.85 20.85 0 0117.27-8.38q11.26 0 17.51 8.06t6.24 22q0 13.92-6.35 22.13t-17.4 8.2q-11.3 0-17.55-8.28t-6.26-22m12 0q0 19.17 11.82 19.17a9.76 9.76 0 008.59-5q3.17-5 3.17-14.19 0-18.9-11.76-18.89a9.8 9.8 0 00-8.62 5q-3.19 5-3.2 13.91M351 80.86V47.18q0-7.44-2.43-10.87t-7.92-3.43a10.77 10.77 0 00-5.42 1.69 13.11 13.11 0 00-4.51 4.18v42.11h-11.57V22.54h8.32L329.6 28q4.71-6.48 13.92-6.48 8.84 0 13.94 6.23t5.11 17.38v35.73zm65.34-25.02h-35.42q.31 7 4.06 10.82t10.07 3.86c5.25 0 9.26-1.58 12-4.76l4.47 10.34q-6.07 5.79-18.16 5.79-11.31 0-17.87-7.8t-6.56-21.77q0-13.74 7.23-22.28t17.35-8.54q10.77 0 17.29 7.56t6.52 19.22a44.17 44.17 0 01-1 7.56M381.54 45.5h24.19q-1.19-12.61-12-12.62-9.84 0-12.23 12.62"/><path d="M80.54 39.36H26.65v55h55v-55zm-1.13 52.77H28.88V41.6h50.53z" fill="#040000"/><path class="cls-1" d="M27.27 93.75V40H81v53.75zm1-1H80V41H28.26z"/><path class="cls-1" d="M81.53 39.49H26.77v54.76h54.76V39.49zM28.76 92.26V41.47h50.78v50.79z"/><path class="cls-3" d="M81.41 39.61v54.51H26.9V39.61h54.51M28.63 92.38h51v-51h-51v51m53-53h-55v55h55v-55zM28.88 92.13V41.6h50.53v50.53z"/><path class="cls-1" d="M2.54 67.89v-.99h51.65V15.25h.98v52.64H2.54z"/><path class="cls-1" d="M55.67 14.75h-1.98V66.4H2.04v1.99h53.63V14.75z"/><path class="cls-3" d="M55.55 14.88v53.39H2.16v-1.74h51.65V14.88h1.74m.25-.25h-2.24v51.65H1.91v2.24H55.8V14.63z"/><path class="cls-1" d="M27.51 93.75L1.09 67.28V13.85h53.56l26.42 26.46v53.44zM2.12 66.85l.14.14c.63.67 15.91 16 25 25l.7.7h52.11v-52l-.14-.15c-.82-.79-25.32-25.28-25.56-25.54l-.14-.15H2.12z"/><path class="cls-1" d="M54.44 14.35l26.13 26.17v47.94-47.91l-.27-.29c-.84-.87-25.3-25.36-25.58-25.6l-.29-.29H17.67h36.77M1.62 19.13v47.92l.27.29c.64.67 15.93 16 25 25l.56.56.3.29h35.41-35.44L1.59 67.07V19.13m53.24-5.78H.63v54.14L27.3 94.25h54.23V40.1L54.86 13.35zm24.71 78.91h-51.4C28 92 3.41 67.48 2.62 66.65V15.34h51.4c.18.18 24.72 24.72 25.52 25.57v51.35z"/><path class="cls-3" d="M54.76 13.47l26.65 26.65v54h-54L.75 67.47v-54h54M28.13 92.38h51.53V40.84l-.07-.07-25.48-25.49-.11-.07H2.5v51.54l.07.08c.76.75 25.3 25.3 25.48 25.48l.08.07m26.73-79.16H.5v54.35l26.8 26.8h54.36V40l-26.8-26.78zM28.23 92.13L2.75 66.65V15.46h51.18c.63.63 24.86 24.85 25.48 25.48v51.19z"/><path class="cls-1" transform="rotate(-45.04 14.767 27.406)" d="M14.27 9.55h.99v35.72h-.99z"/><path class="cls-1" d="M2.48 13.72l-1.41 1.41 25.97 25.96 1.41-1.4L2.48 13.72z"/><path class="cls-3" d="M2.48 13.9l25.79 25.79L27 40.92 1.25 15.13l1.23-1.23m0-.35L.9 15.13 27 41.27l1.59-1.58L2.48 13.55z"/><path class="cls-1" transform="rotate(-44.96 67.37 80.014)" d="M66.87 62.16h.99v35.71h-.99z"/><path class="cls-1" d="M55.09 66.34l-1.41 1.4L79.64 93.7l1.41-1.4-25.96-25.96z"/><path class="cls-3" d="M55.09 66.51L80.87 92.3l-1.23 1.22-25.78-25.78 1.23-1.23m0-.35l-1.58 1.58 26.13 26.14 1.59-1.58-26.14-26.14z"/></g></g></svg>