<svg xmlns="http://www.w3.org/2000/svg" viewBox="0 0 235.45 256"><g id="레이어_2" data-name="레이어 2"><g id="레이어_1-2" data-name="레이어 1"><g id="레이어_2-2" data-name="레이어 2"><g id="레이어_1-2-2" data-name="레이어 1-2" fill="#af2024"><path d="M235.45 226.47l-8.54-10.55a276.21 276.21 0 00-4.92-6.07l-5.25-6.46a24.52 24.52 0 01-3.59-6.34c-2.11-6.32-1.38-13.15 2.73-19.88 1.53-2.51 2.84-5 4.16-7.59a116.22 116.22 0 10-66.22 57.16c10.91-3.21 18.69-1.64 25.93 5.5L199 256zm-119-29.59a80.45 80.45 0 1180.44-80.45 80.43 80.43 0 01-80.45 80.45z"/><path d="M81.15 68.31h35.44q12 0 18.28 1.84A32.12 32.12 0 01149.35 79a42.12 42.12 0 019.17 15.56q3.14 9.2 3.14 22.7a63.34 63.34 0 01-2.94 20.44 42.49 42.49 0 01-10.29 17 34 34 0 01-13.63 7.67q-6.42 2-17.16 2H81.15zm19.39 16.25v63.61H115a52.88 52.88 0 0011.73-.92 18 18 0 007.83-4q3.1-2.81 5.07-9.27t2-17.58q0-11.15-2-17.1a21.86 21.86 0 00-5.5-9.3 18.39 18.39 0 00-9-4.52q-4.07-.93-15.92-.92z" stroke="#a62324" stroke-miterlimit="10" stroke-width="2"/></g></g></g></g></svg>