<svg id="hypai" xmlns="http://www.w3.org/2000/svg" width="66.049" height="24"><path id="패스_29" data-name="패스 29" d="M14.5.36v17.9h-3.609v-7.62H3.63v7.623H0V.36h3.63v7.1h7.26V.36z" transform="translate(0 -.104)" fill="#fff"/><path id="패스_30" data-name="패스 30" d="M37.456 7.2l-7.694 19.437h-5.577v-3.069h3.275l1.229-3.126L23.29 7.2h3.552l3.6 8.823 3.49-8.823z" transform="translate(-7.215 -2.637)" fill="#fff"/><path id="패스_31" data-name="패스 31" d="M58.429 6.37a5.906 5.906 0 01-6.216 6.01h-2.841v5.882H45.72V.36h6.493a5.9 5.9 0 016.216 6.01zm-3.374 0a2.607 2.607 0 00-2.842-2.735h-2.841v5.47h2.842a2.607 2.607 0 002.841-2.735z" transform="translate(-14.139 -.104)" fill="#fff"/><path id="패스_32" data-name="패스 32" d="M93.63.36v17.9H90V.36z" transform="translate(-27.582 -.104)" fill="#fff"/><path id="패스_33" data-name="패스 33" d="M71.835 0l-8.7 18.158h17.424zM73.6 14.833h-4.976l2.942-6.223.242-.533 3.311 6.756z" transform="translate(-19.803)" fill="#fff"/></svg>