<svg xmlns="http://www.w3.org/2000/svg" viewBox="0 0 477.11 440"><defs><clipPath id="clip-path"><path fill="none" d="M0 0h477.11v440H0z"/></clipPath><style>.cls-3{fill:#f2f2f2}.cls-4{fill:#fff}.cls-5{fill:#e6e6e5}.cls-6{fill:#ccc}</style></defs><g id="레이어_2" data-name="레이어 2"><g id="레이어_1-2" data-name="레이어 1"><g id="그룹_268" data-name="그룹 268"><g clip-path="url(#clip-path)" id="그룹_267" data-name="그룹 267"><g id="그룹_266" data-name="그룹 266"><path id="패스_355" data-name="패스 355" class="cls-3" d="M271.9 1l-17.28 4.49L41.79 60.38l-17.28 4.45A32.72 32.72 0 001 104.63l74.94 290.48a32.72 32.72 0 0039.8 23.48h.05l247.3-63.78A32.71 32.71 0 00386.61 315L311.7 24.51A32.72 32.72 0 00271.9 1"/><path id="패스_356" data-name="패스 356" class="cls-4" d="M274.25 10.14l-20.46 5.28L47.32 68.66l-20.46 5.28a23.3 23.3 0 00-16.72 28.34l74.91 290.48a23.29 23.29 0 0028.34 16.72l247.3-63.77a23.3 23.3 0 0016.72-28.34L302.59 26.86a23.3 23.3 0 00-28.34-16.72"/><path id="패스_357" data-name="패스 357" class="cls-3" d="M258.8 104.21l-125.1 32.26a5.44 5.44 0 01-2.7-10.54l125.1-32.25a5.44 5.44 0 012.72 10.53"/><path id="패스_358" data-name="패스 358" class="cls-3" d="M285.11 116.39l-146.83 37.86a5.44 5.44 0 01-2.9-10.49h.17l146.85-37.91a5.44 5.44 0 112.88 10.5h-.16z"/><path id="패스_359" data-name="패스 359" class="cls-3" d="M279.35 183.89l-125.1 32.26a5.44 5.44 0 01-2.73-10.53l125.1-32.27a5.44 5.44 0 012.73 10.54z"/><path id="패스_360" data-name="패스 360" class="cls-3" d="M305.67 196.07l-146.84 37.86a5.44 5.44 0 11-2.83-10.5h.1l146.9-37.9a5.44 5.44 0 012.72 10.53"/><path id="패스_361" data-name="패스 361" class="cls-3" d="M299.9 263.58l-125.1 32.26a5.44 5.44 0 01-2.72-10.54l125.1-32.3a5.44 5.44 0 012.72 10.54"/><path id="패스_362" data-name="패스 362" class="cls-3" d="M326.22 275.75l-146.84 37.87a5.44 5.44 0 01-2.74-10.53l146.86-37.87a5.44 5.44 0 012.72 10.53"/><path id="패스_363" data-name="패스 363" class="cls-5" d="M112.34 169.55L68.07 181a2.61 2.61 0 01-3.18-1.88l-10.16-39.44a2.6 2.6 0 011.87-3.17l44.27-11.42a2.61 2.61 0 013.18 1.87l10.16 39.42a2.6 2.6 0 01-1.87 3.17"/><path id="패스_364" data-name="패스 364" class="cls-5" d="M132.89 249.23l-44.27 11.42a2.61 2.61 0 01-3.18-1.87l-10.16-39.41a2.6 2.6 0 011.87-3.18l44.27-11.41a2.61 2.61 0 013.18 1.87l10.16 39.41a2.61 2.61 0 01-1.87 3.18"/><path id="패스_365" data-name="패스 365" class="cls-5" d="M153.44 328.92l-44.27 11.41a2.61 2.61 0 01-3.18-1.87l-10.16-39.41a2.62 2.62 0 011.87-3.18l44.3-11.41a2.61 2.61 0 013.18 1.87l10.17 39.41a2.62 2.62 0 01-1.88 3.18"/><path id="패스_366" data-name="패스 366" class="cls-5" d="M444.44 74.67H189a32.7 32.7 0 00-32.67 32.67v300A32.71 32.71 0 00189 440h255.44a32.71 32.71 0 0032.67-32.67v-300a32.71 32.71 0 00-32.67-32.67"/><path id="패스_367" data-name="패스 367" class="cls-4" d="M444.44 84.07H189a23.31 23.31 0 00-23.27 23.27v300A23.3 23.3 0 00189 430.59h255.44a23.3 23.3 0 0023.27-23.26v-300a23.31 23.31 0 00-23.27-23.27"/><path id="패스_368" data-name="패스 368" class="cls-5" d="M406 248.91H276.79a5.44 5.44 0 010-10.88H406a5.44 5.44 0 010 10.88"/><path id="패스_369" data-name="패스 369" class="cls-5" d="M428.43 267.28H276.79a5.44 5.44 0 01-.15-10.88h151.79a5.44 5.44 0 010 10.88"/><path id="패스_370" data-name="패스 370" class="cls-5" d="M406 331.21H276.79a5.44 5.44 0 010-10.88H406a5.44 5.44 0 010 10.88"/><path id="패스_371" data-name="패스 371" class="cls-5" d="M428.43 349.57H276.8a5.44 5.44 0 010-10.88h151.63a5.44 5.44 0 11.15 10.88h-.15"/><path id="패스_372" data-name="패스 372" class="cls-5" d="M247.86 275.62h-45.73a2.61 2.61 0 01-2.6-2.61v-40.7a2.6 2.6 0 012.6-2.61h45.73a2.62 2.62 0 012.61 2.61V273a2.62 2.62 0 01-2.61 2.61"/><path id="패스_373" data-name="패스 373" class="cls-5" d="M247.86 357.91h-45.73a2.61 2.61 0 01-2.6-2.61v-40.7a2.6 2.6 0 012.6-2.61h45.73a2.62 2.62 0 012.61 2.61v40.7a2.62 2.62 0 01-2.61 2.61"/><path id="패스_374" data-name="패스 374" class="cls-6" d="M406.13 157.31h-95.25a5.44 5.44 0 01-.15-10.88h95.4a5.44 5.44 0 010 10.88"/><path id="패스_375" data-name="패스 375" class="cls-6" d="M428.58 175.67h-117.7a5.44 5.44 0 11-.14-10.88h117.84a5.44 5.44 0 11.14 10.88z"/><path id="패스_376" data-name="패스 376" d="M289.8 197.92H202a2.6 2.6 0 01-2.61-2.6v-68.54a2.6 2.6 0 012.61-2.6h87.8a2.6 2.6 0 012.61 2.6v68.54a2.6 2.6 0 01-2.61 2.6" fill="#555ea9"/></g></g></g></g></g></svg>