<svg xmlns="http://www.w3.org/2000/svg" viewBox="0 0 1352 196"><defs><style>.cls-1{fill:#fff}.cls-2{fill:none;stroke:#e68011;stroke-width:5px}.cls-3{isolation:isolate}.cls-4{fill:#040000}</style></defs><g id="레이어_2" data-name="레이어 2"><g id="레이어_1-2" data-name="레이어 1"><g id="그룹_149" data-name="그룹 149"><g id="타원_5" data-name="타원 5"><circle class="cls-1" cx="98" cy="98" r="98"/><circle class="cls-2" cx="98" cy="98" r="95.5"/></g><g id="문서_분류" data-name="문서 분류" class="cls-3"><g class="cls-3"><path class="cls-4" d="M97.47 82.22h-8.71v4h-3.2v-4h-9.24v-2.56h21.15zm-18.66 2H82v4.14h13.1v2.59H78.81zm.15-15h15.79v8.5H79zm12.62 6v-3.46h-9.45v3.48zm16.33 2.51a10.65 10.65 0 001.87 3.6 8.14 8.14 0 003.12 2.36l-2 2.59a9.11 9.11 0 01-3.19-2.56 12.46 12.46 0 01-2.07-3.85 13.28 13.28 0 01-2.11 4.13 9.32 9.32 0 01-3.27 2.7l-2-2.64a8.53 8.53 0 003.2-2.51 11.49 11.49 0 001.94-3.74 15 15 0 00.64-4.34V70h3.28v3.45a15.41 15.41 0 00.59 4.28zm2.4-2.24h4.55v-7.26h3.2v23.16h-3.2V78.11h-4.55z"/></g><g class="cls-3"><path class="cls-4" d="M97.47 120.63h-8.71v3.73h-3.2v-3.73h-9.24v-2.54h21.15zm-18.66 1.9H82v3.81h13.13v2.59H78.81zM79 107h3.2v2.41h9.3V107h3.23v9.49H79zm12.5 6.9v-2.11h-9.26v2.11zm28.18 8.43h-4.87v7h-3.28v-7h-4.82v7h-3.23v-7h-5v-2.54h21.15zM101 106.92h16.27v6.72h-12.95v1.88h13.46v2.59H101v-6.83h12.88v-1.72H101z"/></g></g></g><g id="그룹_150" data-name="그룹 150"><g id="타원_5-2" data-name="타원 5-2"><circle class="cls-1" cx="387" cy="98" r="98"/><circle class="cls-2" cx="387" cy="98" r="95.5"/></g><g id="문서_이해" data-name="문서 이해" class="cls-3"><g class="cls-3"><path class="cls-4" d="M386.47 82.22h-8.71v4h-3.2v-4h-9.24v-2.56h21.15zm-18.66 2H371v4.14h13.1v2.59h-16.29zm.15-15h15.79v8.5H368zm12.62 6v-3.46h-9.45v3.48zm16.33 2.51a10.65 10.65 0 001.87 3.6 8.14 8.14 0 003.12 2.36l-2 2.59a9.11 9.11 0 01-3.19-2.56 12.46 12.46 0 01-2.07-3.85 13.28 13.28 0 01-2.11 4.13 9.32 9.32 0 01-3.27 2.7l-2-2.64a8.53 8.53 0 003.2-2.51 11.49 11.49 0 001.94-3.74 15 15 0 00.64-4.34V70h3.28v3.45a15.41 15.41 0 00.59 4.28zm2.4-2.24h4.55v-7.26h3.2v23.16h-3.2V78.11h-4.55z"/></g><g class="cls-3"><path class="cls-4" d="M366.81 111.74a6.62 6.62 0 012.17-2.87 5.21 5.21 0 013.17-1 5.11 5.11 0 013.12 1 6.68 6.68 0 012.16 2.87 12.37 12.37 0 010 8.7 6.65 6.65 0 01-2.16 2.88 5.11 5.11 0 01-3.12 1 5.21 5.21 0 01-3.17-1 6.6 6.6 0 01-2.17-2.88 12.52 12.52 0 010-8.7zm2.71 7.23a4 4 0 001.05 1.82 2.22 2.22 0 001.58.6 2.14 2.14 0 001.54-.6 4 4 0 001-1.82 11.74 11.74 0 000-5.77 4 4 0 00-1-1.81 2.19 2.19 0 00-1.54-.61 2.27 2.27 0 00-1.58.61 4 4 0 00-1.05 1.81 11.43 11.43 0 000 5.77zm15.17 10.42h-3.27v-23.16h3.27zm14.01-17.07h-11.17v-2.56h4v-2.89h3.2v2.89h4zm-10 3.7a5 5 0 018.87 0 6.42 6.42 0 010 5.67 4.77 4.77 0 01-1.81 2 5.17 5.17 0 01-5.23 0 4.81 4.81 0 01-1.83-2 6.42 6.42 0 010-5.67zm2.8 4.87a2.07 2.07 0 001.65.73 2 2 0 001.6-.74 3.14 3.14 0 00.63-2 3.63 3.63 0 00-.29-1.49 2.4 2.4 0 00-.79-1 2.06 2.06 0 00-1.15-.33 2 2 0 00-1.64.75 3.05 3.05 0 00-.62 2 3.09 3.09 0 00.63 2.08zm8.05-14.2h3v8.93h1.88v-9.39h3.07v23.11h-3.07v-11.13h-1.88v10.14h-3z"/></g></g></g><g id="그룹_151" data-name="그룹 151"><g id="타원_5-3" data-name="타원 5-3"><circle class="cls-1" cx="676" cy="98" r="98"/><circle class="cls-2" cx="676" cy="98" r="95.5"/></g><g id="데이터_추출" data-name="데이터 추출" class="cls-3"><g class="cls-3"><path class="cls-4" d="M644 70.85h8.84v2.59h-5.67V83.5c1.29 0 2.44-.06 3.44-.15a25.92 25.92 0 003.06-.44l.26 2.64a32 32 0 01-3.74.5c-1.25.09-2.78.13-4.59.13H644zm7.26 5.81h4.14v-8h3v21.63h-3v-11h-4.14zm12.06 14.68h-3.12V68.23h3.12zm3.6-17.6a6.55 6.55 0 012.17-2.87 5.19 5.19 0 013.17-1 5.1 5.1 0 013.11 1 6.7 6.7 0 012.17 2.87 12.52 12.52 0 010 8.7 6.67 6.67 0 01-2.17 2.88 5.1 5.1 0 01-3.11 1 5.19 5.19 0 01-3.17-1 6.52 6.52 0 01-2.17-2.88 12.52 12.52 0 010-8.7zm2.71 7.26a3.94 3.94 0 001 1.82 2.24 2.24 0 001.59.6 2.16 2.16 0 001.54-.6 4 4 0 001-1.82 11.43 11.43 0 000-5.77 4 4 0 00-1-1.81 2.21 2.21 0 00-1.54-.61 2.3 2.3 0 00-1.59.61 3.9 3.9 0 00-1 1.81 11.43 11.43 0 000 5.77zm15.17 10.39h-3.28V68.23h3.28zm3.93-21.23h10.79v2.62H692v3.83h6.73v2.54H692v4.37c1.75 0 3.28-.07 4.62-.15s2.67-.23 4-.44l.33 2.59c-1.59.24-3.17.4-4.76.49s-3.44.14-5.59.15h-1.83zm18.43 21.23H704V79h-4.1v-2.62h4.1v-8.15h3.2z"/></g><g class="cls-3"><path class="cls-4" d="M675.42 122.71h-9v6.65h-3.2v-6.65h-8.92v-2.64h21.08zm-16-7.43a8 8 0 002.65-1.76 4.19 4.19 0 001.17-2.08h-7v-2.54h7v-2.64h3.2v2.64h7v2.54h-6.93a4.12 4.12 0 001.13 2.07 7.91 7.91 0 002.64 1.77 13.41 13.41 0 004 1l-1.17 2.53a13.91 13.91 0 01-5-1.42 9 9 0 01-3.28-2.73 9.08 9.08 0 01-3.29 2.73 14.5 14.5 0 01-5 1.42l-1.17-2.53a13.56 13.56 0 004.02-1zm38.16 3.16h-8.89v1.45h6.37v5.64h-12.87v1.27h13.48v2.38H679v-5.84h12.85v-1.14H679v-2.31h6.48v-1.45h-8.86v-2.36h21zm-15-6.24a4.18 4.18 0 002.44-1.78h-6.47V108h6.88v-1.82h3.2V108h6.93v2.39h-6.54a4.22 4.22 0 002.44 1.78 17.34 17.34 0 005.24.86l-.94 2.39a19.93 19.93 0 01-5.41-.94 7.38 7.38 0 01-3.32-2.1 7.47 7.47 0 01-3.33 2.1 20 20 0 01-5.43.94l-.89-2.39a17.11 17.11 0 005.24-.83z"/></g></g></g><g id="그룹_152" data-name="그룹 152"><g id="타원_5-4" data-name="타원 5-4"><circle class="cls-1" cx="965" cy="98" r="98"/><circle class="cls-2" cx="965" cy="98" r="95.5"/></g><g id="문서_검증" data-name="문서 검증" class="cls-3"><g class="cls-3"><path class="cls-4" d="M964.47 82.22h-8.71v4h-3.2v-4h-9.24v-2.56h21.15zm-18.66 2H949v4.14h13.1v2.59h-16.29zm.15-15h15.79v8.5H946zm12.62 6v-3.46h-9.45v3.48zm16.33 2.51a10.65 10.65 0 001.87 3.6 8.14 8.14 0 003.12 2.36l-2 2.59a9.11 9.11 0 01-3.19-2.56 12.46 12.46 0 01-2.07-3.85 13.28 13.28 0 01-2.11 4.13 9.32 9.32 0 01-3.27 2.7l-2-2.64a8.61 8.61 0 003.2-2.51 11.49 11.49 0 001.94-3.74 15 15 0 00.64-4.34V70h3.28v3.45a15.41 15.41 0 00.59 4.28zm2.4-2.24h4.55v-7.26h3.2v23.16h-3.2V78.11h-4.55z"/></g><g class="cls-3"><path class="cls-4" d="M954.1 113a11.39 11.39 0 01-3.6 4.09 18.23 18.23 0 01-5.76 2.64l-1.27-2.52a15.09 15.09 0 005.84-2.82 7 7 0 002.55-4.18h-7.14v-2.59h10.61a11.58 11.58 0 01-1.23 5.38zm-6.59 7.13h15.31v9h-15.31zm12.11 6.43v-3.89h-8.94v3.89zm-4.14-14.78h4.11v-5.48h3.23v12.92h-3.23v-4.8h-4.11zm31.15 7.7h-21.07v-2.61h21.07zm-16.51-6.71a7.82 7.82 0 002.44-1.28 3.58 3.58 0 001.18-1.6h-6.26v-2.59h17.25v2.59h-6.31a3.36 3.36 0 001.17 1.58 8 8 0 002.46 1.29 15.25 15.25 0 003.69.73L984.6 116a14.6 14.6 0 01-5.39-1.44 7.23 7.23 0 01-3.14-2.86 7.23 7.23 0 01-3.12 2.86 14.49 14.49 0 01-5.39 1.44l-1.07-2.54a15.44 15.44 0 003.63-.69zm-1.18 10a6.35 6.35 0 012.79-1.47 16.26 16.26 0 014.34-.51 15.94 15.94 0 014.3.51 6.27 6.27 0 012.77 1.47 3.22 3.22 0 010 4.63 6.16 6.16 0 01-2.77 1.45 16.38 16.38 0 01-4.3.5 16.71 16.71 0 01-4.34-.5 6.24 6.24 0 01-2.79-1.45 3.25 3.25 0 010-4.63zm3.52 3.63a11.27 11.27 0 003.61.43q4.78 0 4.8-1.75c0-1.18-1.61-1.78-4.8-1.78a11.21 11.21 0 00-3.61.44c-.8.29-1.2.74-1.19 1.34s.39 1.02 1.19 1.31z"/></g></g></g><g id="그룹_153" data-name="그룹 153"><g id="타원_5-5" data-name="타원 5-5"><circle cx="1254" cy="98" r="98" fill="#e68011"/><circle class="cls-2" cx="1254" cy="98" r="95.5"/></g><g id="문서인식_자동화" data-name="문서인식 자동화" class="cls-3"><g class="cls-3"><path class="cls-1" d="M1231.26 82.22h-8.71v4h-3.2v-4h-9.24v-2.56h21.15zm-18.66 2h3.22v4.14h13.1v2.59h-16.32zm.15-15h15.79v8.5h-15.79zm12.62 6v-3.46h-9.45v3.48zm16.33 2.51a10.65 10.65 0 001.87 3.6 8.14 8.14 0 003.12 2.36l-2 2.59a9.11 9.11 0 01-3.19-2.56 12.46 12.46 0 01-2.07-3.85 13.28 13.28 0 01-2.13 4.12 9.32 9.32 0 01-3.27 2.7l-2-2.64a8.61 8.61 0 003.2-2.51 11.49 11.49 0 001.94-3.74 15 15 0 00.64-4.34V70h3.28v3.45a15.41 15.41 0 00.61 4.28zm2.4-2.24h4.55v-7.26h3.2v23.16h-3.2V78.11h-4.55zm11.65-2.94a5.8 5.8 0 012.28-2.08 7.29 7.29 0 016.4 0 5.76 5.76 0 012.29 2.08 5.48 5.48 0 01.84 3 5.57 5.57 0 01-.84 3 5.78 5.78 0 01-2.29 2.09 6.83 6.83 0 01-3.2.75 6.9 6.9 0 01-3.21-.75 5.82 5.82 0 01-2.28-2.09 5.65 5.65 0 01-.83-3 5.48 5.48 0 01.84-3zm2.73 4.62a2.6 2.6 0 001.12 1.06 3.59 3.59 0 001.63.36 3.46 3.46 0 001.6-.36 2.64 2.64 0 001.11-1.06 3.07 3.07 0 00.42-1.63 3 3 0 00-.42-1.6 2.74 2.74 0 00-1.12-1 3.21 3.21 0 00-1.59-.35 3.34 3.34 0 00-1.63.35 2.68 2.68 0 00-1.12 1 3 3 0 00-.39 1.6 3.05 3.05 0 00.39 1.63zm-.06 6h3.27v5.15h12.82v2.59h-16.09zm15.48 1.67h-3.25V68.26h3.25zm12.3-10.5a6.66 6.66 0 001.8 2.4 8.23 8.23 0 003.06 1.6l-1.62 2.54a9.49 9.49 0 01-3.32-1.8 8.59 8.59 0 01-2.17-2.8 9 9 0 01-2.22 3 9.14 9.14 0 01-3.41 1.92l-1.63-2.54a8.51 8.51 0 003.1-1.71 7.12 7.12 0 001.86-2.53 7.51 7.51 0 00.6-2.94V69.3h3.38v2.21a6.85 6.85 0 00.57 2.83zm-6 8.67h15.89v8.33h-3.25V85.6h-12.64zm12.64-14.78h3.25V82h-3.25z"/></g><g class="cls-3"><path class="cls-1" d="M1230.41 116.17a10.64 10.64 0 001.92 3.34 8.92 8.92 0 003.1 2.36l-1.8 2.54a9.37 9.37 0 01-3.25-2.51 13.06 13.06 0 01-2.2-3.8 13.87 13.87 0 01-2.22 4.17 9.4 9.4 0 01-3.37 2.72l-1.88-2.56a9 9 0 003.16-2.45 11.2 11.2 0 002-3.54 12.14 12.14 0 00.68-3.91v-1.42h-4.9v-2.65h12.8v2.65h-4.65v1.42a10.39 10.39 0 00.61 3.64zm5.81-9.94h3.25V115h3.4v2.72h-3.4v11.58h-3.25zm28.36 13.46h-21.13v-2.54h9v-2H1246v-7.92h16v2.51h-12.8v2.87h12.92v2.54h-6.55v2h9zm-17.75 3.11a6.24 6.24 0 012.78-1.45 16.82 16.82 0 014.35-.49 16.5 16.5 0 014.31.49 6.21 6.21 0 012.76 1.45 3.19 3.19 0 011 2.32 3.15 3.15 0 01-1 2.3 6.21 6.21 0 01-2.76 1.45 16.5 16.5 0 01-4.31.49 16.69 16.69 0 01-4.34-.49 6.34 6.34 0 01-2.79-1.45 3.24 3.24 0 010-4.62zm3.52 3.66a11.21 11.21 0 003.61.44q4.79 0 4.8-1.78c0-.59-.42-1-1.22-1.34a10.54 10.54 0 00-3.58-.46 10.86 10.86 0 00-3.6.45q-1.21.45-1.2 1.35c-.01.6.39 1.05 1.19 1.34zm20.74-3.7v-2a6.12 6.12 0 01-2.09-.76 4.21 4.21 0 01-1.41-1.44 4 4 0 01.22-4.18 4.69 4.69 0 012-1.54 7.61 7.61 0 013-.54 7.5 7.5 0 012.93.54 4.81 4.81 0 012 1.54 3.75 3.75 0 01.74 2.26 3.83 3.83 0 01-.52 1.92 4.24 4.24 0 01-1.43 1.46 5.89 5.89 0 01-2.14.81v1.87c2.06-.11 3.86-.28 5.39-.5l.2 2.36a52.61 52.61 0 01-6.31.75c-2.17.13-4.47.19-6.88.19h-.93l-.43-2.64c2.39-.05 4.29-.07 5.66-.1zm-5.25-14h5.25v-2.43h3.25v2.43h5.21v2.54h-13.71zm5 9.19a3.29 3.29 0 001.92.49 3.18 3.18 0 001.88-.49 1.61 1.61 0 00.69-1.39 1.58 1.58 0 00-.7-1.37 3.24 3.24 0 00-1.87-.51 3.35 3.35 0 00-1.91.51 1.54 1.54 0 00-.7 1.37 1.56 1.56 0 00.67 1.44zm13.32-2.36h3v2.7h-3v11h-3.27v-23.06h3.27z"/></g></g></g><g id="_" class="cls-3"><g class="cls-3"><path class="cls-4" d="M241.41 102.24h-4.75v-3.18h4.75v-4.75h3.18v4.75h4.74v3.18h-4.74V107h-3.18z"/></g></g><g id="_2" data-name="2" class="cls-3"><g class="cls-3"><path class="cls-4" d="M530.41 102.24h-4.74v-3.18h4.74v-4.75h3.18v4.75h4.75v3.18h-4.75V107h-3.18z"/></g></g><g id="_3" data-name="3" class="cls-3"><g class="cls-3"><path class="cls-4" d="M819.41 102.24h-4.74v-3.18h4.74v-4.75h3.18v4.75h4.75v3.18h-4.75V107h-3.18z"/></g></g><g id="_4" data-name="4" class="cls-3"><g class="cls-3"><path class="cls-4" d="M1103.84 96.12h12.34v3.12h-12.34zm0 5.94h12.34v3.12h-12.34z"/></g></g></g></g></svg>