<svg xmlns="http://www.w3.org/2000/svg" viewBox="0 0 338 644.99"><defs><style>.cls-2,.cls-7{fill:none;stroke:#e68011}.cls-2{stroke-width:3px}.cls-3{fill:#fff}.cls-4{fill:#e68011}.cls-5{isolation:isolate}.cls-6{fill:#040000}</style></defs><g id="레이어_2" data-name="레이어 2"><g id="레이어_1-2" data-name="레이어 1"><rect id="사각형_143" data-name="사각형 143" y="92.42" width="338" height="455" rx="7" fill="#f7f7f7"/><path id="선_81" data-name="선 81" class="cls-2" d="M38.93 12.34V633.5"/><g id="타원_71" data-name="타원 71"><circle class="cls-3" cx="39.5" cy="8.92" r="7.5"/><circle class="cls-2" cx="39.5" cy="8.92" r="6"/></g><g id="타원_72" data-name="타원 72"><circle class="cls-4" cx="39" cy="130.42" r="13"/><circle class="cls-2" cx="39" cy="130.42" r="11.5"/></g><g id="타원_73" data-name="타원 73"><circle class="cls-4" cx="39.5" cy="256.92" r="13.5"/><circle class="cls-2" cx="39.5" cy="256.92" r="12"/></g><g id="타원_74" data-name="타원 74"><circle class="cls-4" cx="39" cy="384.42" r="13"/><circle class="cls-2" cx="39" cy="384.42" r="11.5"/></g><g id="타원_75" data-name="타원 75"><ellipse class="cls-4" cx="39" cy="510.92" rx="13" ry="13.5"/><ellipse class="cls-2" cx="39" cy="510.92" rx="11.5" ry="12"/></g><g id="타원_76" data-name="타원 76"><circle class="cls-4" cx="38.5" cy="632.92" r="7.5"/><circle class="cls-2" cx="38.5" cy="632.92" r="6"/></g><g id="다각형_10" data-name="다각형 10"><path class="cls-4" d="M36.38 61.92h5.49a1.5 1.5 0 011.3.74 1.47 1.47 0 010 1.49L40.43 69a1.49 1.49 0 01-2.61 0l-2.75-4.88a1.47 1.47 0 010-1.49 1.5 1.5 0 011.31-.71z"/><path class="cls-4" d="M39.13 68.3l2.74-4.88h-5.49l2.74 4.88m0 3a3 3 0 01-2.62-1.53l-2.75-4.88a3 3 0 012.62-4.47h5.49a3 3 0 012.62 4.47l-2.75 4.88a3 3 0 01-2.6 1.53z"/></g><g id="다각형_11" data-name="다각형 11"><path class="cls-4" d="M36.05 187.92h5.72a1.49 1.49 0 011.3 2.23l-2.86 5.08a1.49 1.49 0 01-2.61 0l-2.86-5.08a1.47 1.47 0 010-1.49 1.5 1.5 0 011.31-.74z"/><path class="cls-4" d="M38.91 194.5l2.86-5.08h-5.72l2.86 5.08m0 3a3 3 0 01-2.62-1.5l-2.86-5.08a3 3 0 012.62-4.47h5.72a3 3 0 012.61 4.47L41.52 196a3 3 0 01-2.61 1.5z"/></g><g id="다각형_12" data-name="다각형 12"><path class="cls-4" d="M36.38 315.92h5.49a1.5 1.5 0 011.3.74 1.47 1.47 0 010 1.49L40.43 323a1.49 1.49 0 01-2.61 0l-2.75-4.88a1.47 1.47 0 010-1.49 1.5 1.5 0 011.31-.71z"/><path class="cls-4" d="M39.13 322.3l2.74-4.88h-5.49l2.74 4.88m0 3a3 3 0 01-2.62-1.53l-2.75-4.88a3 3 0 012.62-4.47h5.49a3 3 0 012.62 4.47l-2.75 4.88a3 3 0 01-2.6 1.53z"/></g><g id="다각형_13" data-name="다각형 13"><path class="cls-4" d="M36.38 441.92h5.49a1.5 1.5 0 011.3.74 1.47 1.47 0 010 1.49L40.43 449a1.49 1.49 0 01-2.61 0l-2.75-4.88a1.47 1.47 0 010-1.49 1.5 1.5 0 011.31-.71z"/><path class="cls-4" d="M39.13 448.3l2.74-4.88h-5.49l2.74 4.88m0 3a3 3 0 01-2.62-1.53l-2.75-4.88a3 3 0 012.62-4.47h5.49a3 3 0 012.62 4.47l-2.75 4.88a3 3 0 01-2.6 1.53z"/></g><g id="다각형_14" data-name="다각형 14"><path class="cls-4" d="M36.38 569.92h5.49a1.5 1.5 0 011.3.74 1.47 1.47 0 010 1.49L40.43 577a1.49 1.49 0 01-2.61 0l-2.75-4.88a1.47 1.47 0 010-1.49 1.5 1.5 0 011.31-.71z"/><path class="cls-4" d="M39.13 576.3l2.74-4.88h-5.49l2.74 4.88m0 3a3 3 0 01-2.62-1.53l-2.75-4.88a3 3 0 012.62-4.47h5.49a3 3 0 012.62 4.47l-2.75 4.88a3 3 0 01-2.6 1.53z"/></g><g id="그룹_400" data-name="그룹 400"><g id="file-earmark-check"><path id="패스_277" data-name="패스 277" class="cls-3" d="M42.84 129.72a.42.42 0 00.11-.57l-.11-.11a.75.75 0 00-.88 0l-3.24 2.53-1.41-1.1a.77.77 0 00-.87 0 .42.42 0 00-.11.57.57.57 0 00.11.11l1.84 1.43a.74.74 0 00.87 0z"/><path id="패스_278" data-name="패스 278" class="cls-3" d="M45.67 135v-7.85l-4.75-3.71h-5.8a1.93 1.93 0 00-2.12 1.65V135a1.93 1.93 0 002.12 1.65h8.44a1.92 1.92 0 002.11-1.65zm-4.75-9.08a1.44 1.44 0 001.58 1.23h2.12V135a1 1 0 01-1.06.83h-8.44a1 1 0 01-1.06-.83v-9.91a1 1 0 011.06-.83h5.8z"/></g></g><g id="file-earmark-binary"><path id="패스_279" data-name="패스 279" class="cls-3" d="M39 259.23c0 1.35-.6 2.11-1.66 2.11s-1.66-.76-1.66-2.11.6-2.11 1.66-2.11 1.66.76 1.66 2.11zm-1.66-1.54c-.59 0-.91.54-.91 1.54a1.93 1.93 0 000 .24l1.7-1.09a.81.81 0 00-.8-.69zm-.8 2.4a.81.81 0 00.8.68c.59 0 .9-.53.9-1.54a1.93 1.93 0 000-.24zm6.6.6v.57h-3.23v-.57h1.28v-2.78l-1.24.71V258l1.3-.75H42v3.47h1.22z"/><path id="패스_280" data-name="패스 280" class="cls-3" d="M45.85 261.63v-7.3l-4.44-3.46H36a1.81 1.81 0 00-2 1.54v9.22a1.8 1.8 0 002 1.53h7.9a1.79 1.79 0 001.95-1.53zm-4.44-8.46a1.35 1.35 0 001.48 1.15h2v7.3a.91.91 0 01-1 .77H36a.91.91 0 01-1-.77v-9.21a.9.9 0 011-.77h5.43z"/></g><path id="file-earmark-break" class="cls-3" d="M44.09 381.54v3.57h-.8v-3.57h-1.58a1.19 1.19 0 01-1.19-1.18v-1.59h-4.35a.79.79 0 00-.79.8v5.54h-.8v-5.54a1.59 1.59 0 011.59-1.57h4.35zm-.8 5.94h.8v1.59a1.59 1.59 0 01-1.59 1.58h-6.33a1.59 1.59 0 01-1.59-1.58v-1.59h.8v1.59a.79.79 0 00.79.79h6.33a.79.79 0 00.79-.79zm-9.89-1.58a.4.4 0 10-.11.79h12a.41.41 0 00.46-.34.4.4 0 00-.34-.45h-12z"/><path id="fonts" class="cls-3" d="M34.1 506.41h10.72l.1 2.41h-.6c-.33-1.52-1-1.75-3.39-1.81h-.54v7.66c0 .65.18.8 1.64.9v.51h-5.14v-.51c1.46-.1 1.65-.26 1.65-.9V507H38c-2.43.06-3.06.29-3.39 1.8H34z"/><g id="RPA" class="cls-5"><g class="cls-5"><path class="cls-6" d="M79.23 2.69h5a5.51 5.51 0 012.46.51 3.63 3.63 0 011.56 1.44 4.35 4.35 0 01.54 2.2 4.18 4.18 0 01-.58 2.23 3.6 3.6 0 01-1.67 1.4l2.7 4.95h-2.92l-2.44-4.52h-2v4.52h-2.65zm4.5 6.06c1.56 0 2.33-.63 2.32-1.91a1.78 1.78 0 00-.57-1.47 2.65 2.65 0 00-1.75-.52h-1.86v3.9zm6.71-6.06h5a5.2 5.2 0 012.44.54 3.84 3.84 0 011.57 1.52A4.52 4.52 0 01100 7a4.4 4.4 0 01-.55 2.24 3.8 3.8 0 01-1.59 1.51 5.34 5.34 0 01-2.48.54h-2.3v4.15h-2.64zm4.5 6.45a2.38 2.38 0 001.74-.58A2.1 2.1 0 0097.26 7a2 2 0 00-.58-1.55 2.46 2.46 0 00-1.74-.58h-1.86v4.27zm4.37 6.28l4.41-12.73h3.39l4.4 12.73h-2.83l-1-2.94h-4.61l-1 2.94zm7.74-5l-1.59-4.87h-.09l-1.59 4.87z"/></g></g><g id="RPA-2" class="cls-5"><g class="cls-5"><path class="cls-6" d="M79.23 626.69h5a5.51 5.51 0 012.46.51 3.59 3.59 0 011.56 1.45 4.28 4.28 0 01.54 2.19 4.18 4.18 0 01-.58 2.23 3.6 3.6 0 01-1.67 1.4l2.7 4.95h-2.92l-2.44-4.52h-2v4.52h-2.65zm4.5 6.06c1.56 0 2.33-.63 2.32-1.91a1.78 1.78 0 00-.57-1.47 2.65 2.65 0 00-1.75-.52h-1.86v3.9zm6.71-6.06h5a5.2 5.2 0 012.44.54 3.84 3.84 0 011.57 1.52A4.52 4.52 0 01100 631a4.47 4.47 0 01-.55 2.25 3.84 3.84 0 01-1.59 1.5 5.34 5.34 0 01-2.48.54h-2.3v4.15h-2.64zm4.5 6.45a2.38 2.38 0 001.74-.58 2.1 2.1 0 00.58-1.58 2 2 0 00-.58-1.55 2.46 2.46 0 00-1.74-.58h-1.86v4.29zm4.37 6.28l4.41-12.73h3.39l4.4 12.73h-2.83l-1-2.94h-4.61l-1 2.94zm7.74-5l-1.59-4.86h-.09l-1.59 4.86z"/></g></g><g id="문서_변환" data-name="문서 변환" class="cls-5"><g class="cls-5"><path class="cls-6" d="M94.63 122.72h-6v2.76h-2.24v-2.76H80V121h14.63zm-12.92 1.37H84V127h9v1.79H81.71zm.11-10.35h10.93v5.89H81.82zm8.73 4.15v-2.41H84v2.41zm11.33 1.72a7.05 7.05 0 001.3 2.49 5.5 5.5 0 002.15 1.64l-1.37 1.8a6.56 6.56 0 01-2.21-1.78 8.79 8.79 0 01-1.43-2.66 9.37 9.37 0 01-1.47 2.9 6.57 6.57 0 01-2.27 1.87L95.17 124a5.9 5.9 0 002.22-1.74 7.79 7.79 0 001.34-2.59 10 10 0 00.45-3v-2.39h2.27v2.39a10.63 10.63 0 00.43 2.94zm1.66-1.55h3.15v-5h2.21v16h-2.21v-9.19h-3.15z"/></g><g class="cls-5"><path class="cls-6" d="M93.49 144.85h-2.23V141h-3v1.37h-7.57v-8.23h2.25v2.46h3.15v-2.46h2.21v1.64h3v-2.68h2.23zm-10.65-1.18h2.27V147h8.71v1.79h-11zm3.25-3.11v-2.3h-3.15v2.3zm5.17-1.41v-1.61h-3v1.61zm7.85 3.03v-.93a4.08 4.08 0 01-2.07-.8 1.92 1.92 0 01-.74-1.56 2 2 0 01.48-1.34 3 3 0 011.36-.86 6.56 6.56 0 012.08-.3 6.43 6.43 0 012.06.3 3 3 0 011.37.86 1.94 1.94 0 01.49 1.34 2 2 0 01-.75 1.55 4 4 0 01-2 .81v.82c1.43-.09 2.72-.21 3.87-.38l.16 1.54a32.39 32.39 0 01-4.58.56c-1.58.09-3.35.15-5.33.16l-.23-1.72c1.42 0 2.72-.02 3.83-.05zm-3.46-7.84h3.46V133h2.23v1.36h3.47v1.6h-9.16zm1.83 10.35h2.25V147h9v1.79H97.48zm1.41-5.11a2.78 2.78 0 001.28.24 3.08 3.08 0 001.35-.24.75.75 0 00.47-.69.82.82 0 00-.46-.75 2.75 2.75 0 00-1.31-.25 2.81 2.81 0 00-1.33.25.81.81 0 00-.45.75.77.77 0 00.45.69zm9.31-1.29h2v1.85h-2v5.38H106V133h2.25z"/></g></g><g id="문서_분류" data-name="문서 분류" class="cls-5"><g class="cls-5"><path class="cls-6" d="M90.63 248.72h-6v2.76h-2.24v-2.76H76V247h14.63zm-12.92 1.37H80V253h9v1.79H77.71zm.11-10.35h10.93v5.89H77.82zm8.73 4.15v-2.41H80v2.41zm11.33 1.72a7.05 7.05 0 001.3 2.49 5.5 5.5 0 002.15 1.64l-1.37 1.8a6.56 6.56 0 01-2.21-1.78 8.79 8.79 0 01-1.43-2.66 9.37 9.37 0 01-1.47 2.9 6.57 6.57 0 01-2.27 1.87L91.17 250a5.9 5.9 0 002.22-1.74 7.79 7.79 0 001.34-2.59 10 10 0 00.45-3v-2.39h2.27v2.39a10.63 10.63 0 00.43 2.94zm1.66-1.55h3.15v-5h2.21v16h-2.21v-9.19h-3.15z"/></g><g class="cls-5"><path class="cls-6" d="M90.63 269h-6v2.59h-2.24V269H76v-1.75h14.63zm-12.92 1.32h2.22V273H89v1.79H77.71zm.16-10.77h2.22v1.67h6.41v-1.67h2.23v6.57H77.87zm8.63 4.8v-1.46h-6.41v1.46zm19.5 5.83h-3.38V275h-2.27v-4.85H97V275h-2.19v-4.85h-3.43v-1.76H106zm-13-10.67h11.27v4.66h-9v1.3h9.32v1.79H93.12v-4.72H102v-1.2h-9z"/></g></g><g id="전처리_및_구조분석" data-name="전처리 및 구조분석" class="cls-5"><g class="cls-5"><path class="cls-6" d="M78.52 374a5 5 0 001.29-1.75 5.29 5.29 0 00.43-2V370H77v-1.79h8.7V370h-3.18v.26a4.61 4.61 0 00.4 1.88 4.82 4.82 0 001.23 1.65 5.56 5.56 0 002 1.13l-1.11 1.78a6.19 6.19 0 01-2.22-1.25 5.87 5.87 0 01-1.46-1.93 6.49 6.49 0 01-1.53 2.15 6.37 6.37 0 01-2.3 1.33l-1.14-1.83a5.61 5.61 0 002.13-1.17zm.82 3.75h2.25V381h8.75v1.79h-11zm10.62 1h-2.24V373h-2.61v-1.81h2.61v-4.13H90zm3.94-1.99a7.19 7.19 0 001.29-2.24 7.66 7.66 0 00.44-2.47v-.62h-3.32v-1.79h3.32v-2.25h2.25v2.25h3.24v1.79h-3.26v.62a6.73 6.73 0 00.43 2.36 6.86 6.86 0 001.32 2.15 6.23 6.23 0 002.14 1.52l-1.2 1.72a6.38 6.38 0 01-2.29-1.62 7.81 7.81 0 01-1.5-2.49 8.49 8.49 0 01-1.5 2.65 6.24 6.24 0 01-2.26 1.71l-1.18-1.73a5.92 5.92 0 002.08-1.56zm11.49 6.31h-2.25V375h-2.89v-1.79h2.89V367h2.25zm2.72-14.7h7.61v6.17h-5.27v2.94c1.28 0 2.47-.06 3.55-.13s2.18-.21 3.3-.4l.19 1.81a33 33 0 01-3.68.45c-1.22.08-2.64.11-4.24.11h-1.45v-6.55h5.31v-2.59h-5.32zm12.57 14.7h-2.24V367h2.24zm14.6-8.33h-7.83V368h7.83zm-4.35 6a5.23 5.23 0 001.74-1 2.29 2.29 0 00.76-1.15H129V377h4.55v-1.32h2.25V377h4.55v1.67h-4.48a2.26 2.26 0 00.75 1.12 5.58 5.58 0 001.73 1 10.74 10.74 0 002.62.56l-.76 1.69a10.42 10.42 0 01-3.35-.83 5.86 5.86 0 01-2.18-1.63 5.59 5.59 0 01-2.18 1.62 10.28 10.28 0 01-3.38.84l-.77-1.69a10 10 0 002.58-.57zM133 373v-3.24h-3.37V373zm4.75-5.94H140v9.07h-2.23z"/></g><g class="cls-5"><path class="cls-6" d="M89.36 389.41c0 1 0 2-.08 2.73a25.79 25.79 0 01-.33 2.63h2.11v1.81h-6.24v6.47h-2.25v-6.47h-6.1v-1.81h10.2a18.51 18.51 0 00.36-2.53c.06-.76.09-1.59.1-2.48h-9V388h11.23zm17.15 11.76H91.87v-1.81h6.19v-3.57h2.25v3.57h6.2zm-11.22-7.41a5.86 5.86 0 001.9-1.66 4.22 4.22 0 00.78-2h-4.89v-1.81h12.15v1.81h-4.87a4 4 0 00.78 2 5.69 5.69 0 001.93 1.62 8.52 8.52 0 002.9.92l-.88 1.78a9.9 9.9 0 01-3.61-1.35 6.56 6.56 0 01-2.31-2.41 6.6 6.6 0 01-2.27 2.47 9.18 9.18 0 01-3.55 1.37l-.88-1.77a8.53 8.53 0 002.82-.97zm26.6 3.24h-6v2.59h-2.22V397h-6.39v-1.75h14.64zM109 398.32h2.21V401h9.09v1.79H109zm.16-10.77h2.21v1.67h6.42v-1.67H120v6.57h-10.87zm8.63 4.8v-1.46h-6.42v1.46zm11.21-.86a4.61 4.61 0 001.21 1.66 5.71 5.71 0 002 1.11L131.1 396a6 6 0 01-2.1-1.2 6.08 6.08 0 01-1.42-1.94 6.35 6.35 0 01-3.76 3.46l-1.22-1.79a5.82 5.82 0 002.15-1.2 4.9 4.9 0 001.27-1.79 6 6 0 00.42-2.15v-1.53h2.26v1.67a5 5 0 00.3 1.96zm-3.89 5.8h11V403h-2.23v-4h-8.76zm5.79-7.29h3v-3h2.23v9.52h-2.23v-4.71h-3z"/></g></g><g id="문자인식_및_검증" data-name="문자인식 및 검증" class="cls-5"><g class="cls-5"><path class="cls-6" d="M91.1 502.72h-6v2.76h-2.24v-2.76h-6.4V501H91.1zm-12.92 1.37h2.23V507h9.07v1.79h-11.3zm.11-10.35h10.93v5.89H78.29zm8.71 4.15v-2.41h-6.52v2.41zm11.21 2.03a7.46 7.46 0 001.34 2.31 6.23 6.23 0 002.15 1.64l-1.25 1.75a6.36 6.36 0 01-2.25-1.73 8.88 8.88 0 01-1.52-2.63 9.49 9.49 0 01-1.55 2.88A6.29 6.29 0 0192.8 506l-1.3-1.78a6.24 6.24 0 002.19-1.69 8 8 0 001.37-2.45 8.83 8.83 0 00.47-2.71v-1h-3.4v-1.83H101v1.83h-3.22v1a7.46 7.46 0 00.43 2.55zm4-6.88h2.25v6.1h2.36V501h-2.36v8h-2.25zm5.88 2.96a3.93 3.93 0 011.58-1.44 5 5 0 014.43 0 3.86 3.86 0 011.58 1.44 3.76 3.76 0 01.58 2.07 3.86 3.86 0 01-.58 2.1 3.93 3.93 0 01-1.58 1.44 4.68 4.68 0 01-2.21.52 4.73 4.73 0 01-2.23-.52 4 4 0 01-1.57-1.44 3.86 3.86 0 01-.58-2.1 3.76 3.76 0 01.58-2.07zm1.89 3.2a1.89 1.89 0 00.78.73 2.41 2.41 0 001.13.25A2.34 2.34 0 00113 500a1.93 1.93 0 00.77-.73 2.18 2.18 0 00.29-1.13 2.14 2.14 0 00-.29-1.11 1.9 1.9 0 00-.77-.72 2.25 2.25 0 00-1.1-.24 2.29 2.29 0 00-1.13.24 1.87 1.87 0 00-.78.72 2 2 0 00-.27 1.11 2.08 2.08 0 00.28 1.09zm0 4.16h2.26V507h8.88v1.79h-11.18zm10.72 1.16h-2.25v-11.46h2.25zm8.49-7.25a4.5 4.5 0 001.25 1.66 5.68 5.68 0 002.12 1.1l-1.13 1.76a6.32 6.32 0 01-2.29-1.24 6 6 0 01-1.51-1.94 6.39 6.39 0 01-1.53 2.1 6.54 6.54 0 01-2.37 1.33l-1.12-1.76a5.84 5.84 0 002.14-1.19 4.91 4.91 0 001.29-1.75 5.09 5.09 0 00.42-2v-1.53h2.33v1.53a4.88 4.88 0 00.4 1.93zm-4.14 6h11V509h-2.25v-4h-8.75zM133.8 493h2.25v9.54h-2.25zm16.87 7.74h-7.82V494h7.82zm-4.34 6a5.45 5.45 0 001.74-1 2.26 2.26 0 00.75-1.15h-4.48V503h4.55v-1.32h2.25V503h4.56v1.67h-4.48a2.14 2.14 0 00.75 1.12 5.52 5.52 0 001.72 1 10.85 10.85 0 002.62.56l-.75 1.69a10.35 10.35 0 01-3.35-.83 5.86 5.86 0 01-2.18-1.63 5.63 5.63 0 01-2.19 1.62 10.22 10.22 0 01-3.37.84l-.78-1.69a10.1 10.1 0 002.64-.57zm2.11-7.8v-3.24h-3.38v3.3zm4.74-5.94h2.24v9.07h-2.24z"/></g><g class="cls-5"><path class="cls-6" d="M83.92 517.7a7.9 7.9 0 01-2.49 2.83 12.55 12.55 0 01-4 1.82l-.88-1.74a10.34 10.34 0 004-2 4.86 4.86 0 001.76-2.9h-5V514h7.35a8 8 0 01-.74 3.7zm-4.56 4.94H90v6.2H79.36zm8.38 4.44v-2.69h-6.19v2.69zm-2.86-10.23h2.84v-3.79H90V522h-2.28v-3.32h-2.84zm21.58 5.36H91.87v-1.81h14.59zM95 517.56a5.44 5.44 0 001.69-.88 2.5 2.5 0 00.82-1.11h-4.3v-1.79h11.93v1.79h-4.37a2.48 2.48 0 00.82 1.1 5.49 5.49 0 001.7.89 10.38 10.38 0 002.55.5l-.79 1.76a10.08 10.08 0 01-3.73-1 5 5 0 01-2.17-2 5 5 0 01-2.16 2 10 10 0 01-3.73 1l-.74-1.76a10.13 10.13 0 002.48-.5zm-.82 6.92a4.46 4.46 0 011.93-1 11.58 11.58 0 013-.35 11.34 11.34 0 013 .35 4.38 4.38 0 011.91 1 2.23 2.23 0 01.68 1.6 2.19 2.19 0 01-.68 1.6 4.17 4.17 0 01-1.91 1 11.37 11.37 0 01-3 .34 11.61 11.61 0 01-3-.34 4.25 4.25 0 01-1.93-1 2.14 2.14 0 01-.67-1.6 2.18 2.18 0 01.7-1.6zm2.47 2.52a7.78 7.78 0 002.5.3c2.21 0 3.31-.4 3.32-1.21s-1.11-1.23-3.32-1.23a7.78 7.78 0 00-2.5.3c-.56.21-.83.51-.83.93s.27.71.83.91z"/></g></g><g id="처리_대상_문서_요청_및_전달" data-name="처리 대상 문서 요청 및 전달" class="cls-5"><g class="cls-5"><path class="cls-6" d="M192.82 9.79a5.23 5.23 0 001-1.74 5.91 5.91 0 00.35-1.92v-.48h-2.59V4.26h2.59V2.51h1.75v1.75h2.51v1.39h-2.53v.48a5.2 5.2 0 00.34 1.87 5.25 5.25 0 001 1.67 4.83 4.83 0 001.66 1.18l-.9 1.31a5.07 5.07 0 01-1.78-1.26A6.2 6.2 0 01195 9a6.54 6.54 0 01-1.16 2 4.82 4.82 0 01-1.78 1.33l-.88-1.33a4.52 4.52 0 001.64-1.21zm8.93 4.91H200V8.41h-2.24V7H200V2.23h1.75zm2.11-11.43h5.92v4.8h-4.11v2.28c1 0 1.93 0 2.77-.1s1.69-.16 2.57-.31l.15 1.41a28.44 28.44 0 01-2.87.35q-1.42.09-3.3.09h-1.12v-5.1H208v-2h-4.14zm9.77 11.43h-1.74V2.23h1.74zm4.97-11.03h4.64v1.41h-2.89v5.31c.65 0 1.25 0 1.8-.08s1.1-.12 1.67-.22l.13 1.43a16.73 16.73 0 01-2.07.26c-.68.05-1.49.07-2.42.08h-.86zm10.41 11h-1.66V8.43h-1.2v5.64h-1.6V2.44h1.6V7h1.2V2.23H229zm6.04-9a3.62 3.62 0 00.95 1.25 4.53 4.53 0 001.59.84l-.93 1.35a4.63 4.63 0 01-2.78-2.37 5.1 5.1 0 01-1.15 1.66 4.63 4.63 0 01-1.77 1l-1-1.37a4.46 4.46 0 001.67-1 4.15 4.15 0 001-1.42A4.54 4.54 0 00233 4V2.89h1.75v1.3a3.57 3.57 0 00.3 1.48zm-2.8 5.33a3.34 3.34 0 011.48-.83 8.08 8.08 0 012.27-.31 7.74 7.74 0 012.23.29 3.27 3.27 0 011.46.83 1.89 1.89 0 010 2.58 3.18 3.18 0 01-1.46.83 7.76 7.76 0 01-2.23.28 8.1 8.1 0 01-2.27-.28 3.25 3.25 0 01-1.48-.83 1.89 1.89 0 010-2.58zm1.87 2.07a5.31 5.31 0 001.88.26c1.65 0 2.48-.35 2.48-1 0-.34-.21-.6-.64-.77a4.85 4.85 0 00-1.84-.27 5 5 0 00-1.87.27c-.44.17-.65.43-.64.77s.2.54.63.72zm4.21-10.82h1.75v2.89h1.68v1.45h-1.68v3h-1.75zm18.3 7.52h-4.69v2.14h-1.73V9.77h-5V8.38h11.39zm-10 1.06h1.73v2.23h7.06v1.4h-8.79zm.08-8h8.5v4.53h-8.5zM253.45 6V4.13h-5.08V6zm8.8 1.35a5.48 5.48 0 001 1.93 4.24 4.24 0 001.68 1.28L263.87 12a4.89 4.89 0 01-1.72-1.37A6.89 6.89 0 01261 8.5a7.29 7.29 0 01-1.15 2.22 5.09 5.09 0 01-1.76 1.45L257 10.75a4.57 4.57 0 001.73-1.35 6.15 6.15 0 001-2 7.87 7.87 0 00.35-2.33V3.19h1.76v1.86a8.31 8.31 0 00.41 2.3zm1.29-1.21H266V2.23h1.72V14.7H266V7.55h-2.45zm20.11 7.08h-11.39v-1.43h2.54v-3a3.34 3.34 0 01-1.14-1.1 2.69 2.69 0 01-.4-1.46 2.75 2.75 0 01.6-1.75 4 4 0 011.66-1.18 7.12 7.12 0 014.82 0A4 4 0 01282 4.43a2.7 2.7 0 01.61 1.75 2.74 2.74 0 01-.4 1.44 3.28 3.28 0 01-1.1 1.09v3.08h2.53zm-8.31-6a2.31 2.31 0 001 .68 4.55 4.55 0 001.55.24 4.59 4.59 0 001.55-.24 2.36 2.36 0 001-.68 1.59 1.59 0 00.38-1.05 1.65 1.65 0 00-.37-1.06 2.43 2.43 0 00-1-.68 4.82 4.82 0 00-1.55-.23 4.55 4.55 0 00-1.55.24 2.29 2.29 0 00-1 .67 1.64 1.64 0 00-.35 1.07 1.63 1.63 0 00.34 1.05zm4 4.56V9.37a7.27 7.27 0 01-1.42.14 8.22 8.22 0 01-1.41-.13v2.41zm11.97-6.88h-2.51a2.74 2.74 0 00.34 1.27 3.27 3.27 0 001 1.09 4.84 4.84 0 001.62.73l-.81 1.34a5 5 0 01-1.79-.82A4.22 4.22 0 01288 7.17a4.54 4.54 0 01-1.17 1.54 5.14 5.14 0 01-1.83.95l-.82-1.36a4.59 4.59 0 001.61-.8 3.47 3.47 0 001-1.2 3.16 3.16 0 00.33-1.4h-2.5V3.53h2.5V2.18h1.76v1.35h2.49zm-4.62 6.1a3.46 3.46 0 011.48-.8 9.8 9.8 0 014.57 0 3.57 3.57 0 011.49.8 1.74 1.74 0 01.51 1.26 1.81 1.81 0 01-.51 1.29 3.37 3.37 0 01-1.49.81 8.2 8.2 0 01-2.29.28 8.05 8.05 0 01-2.27-.28 3.31 3.31 0 01-1.49-.81 1.82 1.82 0 01-.52-1.29 1.71 1.71 0 01.52-1.26zm1.87 2.05a6.79 6.79 0 003.79 0c.44-.18.65-.44.66-.79s-.22-.58-.65-.74a5.5 5.5 0 00-1.91-.25 5.41 5.41 0 00-1.89.25c-.44.17-.65.42-.65.74s.22.64.65.82zm2.38-7.51h2V2.23h1.73v7.52H293V7h-2zM306 8.22h-6.09V3H306zm-3.38 4.7a4.06 4.06 0 001.35-.75 1.76 1.76 0 00.59-.9h-3.49V10h3.55V9h1.75v1h3.54v1.3h-3.51a1.69 1.69 0 00.58.87 4.36 4.36 0 001.35.76 8 8 0 002 .43l-.58 1.32a7.87 7.87 0 01-2.61-.65 4.43 4.43 0 01-1.69-1.27 4.47 4.47 0 01-1.7 1.27 8.52 8.52 0 01-2.63.65l-.6-1.32a7.74 7.74 0 002.08-.44zm1.64-6.07V4.34h-2.63v2.51zm3.69-4.62h1.74v7.06h-1.74zm7.95 5.39a3.93 3.93 0 001-1.36 4 4 0 00.33-1.59v-.2h-2.5V3.08h6.76v1.39H319v.21a3.58 3.58 0 00.31 1.46 3.66 3.66 0 001 1.28 4.37 4.37 0 001.59.88l-.9 1.38a4.93 4.93 0 01-1.73-1 4.9 4.9 0 01-1.14-1.5 4.92 4.92 0 01-1.13 1.7 4.78 4.78 0 01-1.82 1.06l-.89-1.42a4.42 4.42 0 001.61-.9zm.64 2.91h1.75v2.53h6.81v1.4h-8.56zm8.26.79h-1.74V6.87h-2V5.46h2V2.25h1.74zm7.5-7.06h-3.86v2.51c1.11 0 2 0 2.76-.1a17.6 17.6 0 002.18-.31l.18 1.35a14.61 14.61 0 01-2.23.34c-.77 0-1.81.07-3.11.07h-1.51V2.88h5.59zm-4.42 4.67h8.26v3.43h-6.52v.78h6.88v1.4h-8.59v-3.49h6.49v-.74h-6.52zm6.51-6.7h1.75v2.35h1.68V6h-1.68v2.43h-1.75z"/></g></g><g id="내부_시스템_자동_입력" data-name="내부 시스템 자동 입력" class="cls-5"><g class="cls-5"><path class="cls-6" d="M221.84 628.61h1.75v6.5a19.89 19.89 0 003.29-.34l.18 1.5a25 25 0 01-4.37.37h-.85zm10.23 11.06h-1.69v-6.22h-1.16v5.62h-1.64v-11.63h1.64v4.61h1.16v-4.82h1.69zm12.6-3.89h-4.87v3.89h-1.72v-3.89h-4.8v-1.37h11.39zm-10-8.07h1.72v1.44h5.22v-1.44h1.75v5.5h-8.69zm6.94 4.1v-1.3h-5.22v1.3zm11.92.5a5.77 5.77 0 001.06 1.93 4.55 4.55 0 001.73 1.28l-1 1.39a4.94 4.94 0 01-1.79-1.35 7 7 0 01-1.19-2.07 7 7 0 01-1.21 2.26 5 5 0 01-1.88 1.46l-1-1.45a4.54 4.54 0 001.78-1.32 6.15 6.15 0 001.09-2 8.1 8.1 0 00.37-2.37v-1.86h1.76v1.86a6.89 6.89 0 00.28 2.24zm3.46-5.08h1.77v12.47H257zm3.31 9.48h11.39v1.43H260.3zm7.07-6a4.81 4.81 0 001.54 1.54 6.22 6.22 0 002.37.89l-.77 1.44a7 7 0 01-2.78-1.17 5.66 5.66 0 01-1.81-2.07 5.93 5.93 0 01-1.81 2.07 7 7 0 01-2.77 1.17l-.75-1.44a6.23 6.23 0 002.33-.9 4.91 4.91 0 001.53-1.55 3.65 3.65 0 00.54-1.81V628h1.86v.9a3.49 3.49 0 00.52 1.8zm10.12-1.33h-3.07v1H277v1.34h-2.61v1.09c.7 0 1.33 0 1.86-.07s1.08-.11 1.64-.2l.18 1.36a18.65 18.65 0 01-1.91.22c-.62 0-1.38.06-2.27.06h-1.17V628h4.74zm-3 5.77H283v4.39h-8.49zm6.77 3v-1.62h-5v1.62zm-3.67-7.91h1.26v-2.81h1.66v7.15h-1.66v-3h-1.26zm3.74-3H283v7.43h-1.7zm10.91 5.35a5.67 5.67 0 001 1.79 4.56 4.56 0 001.67 1.27L294 637a5 5 0 01-1.75-1.35 7 7 0 01-1.19-2 7.14 7.14 0 01-1.2 2.25 5 5 0 01-1.81 1.47L287 636a4.86 4.86 0 001.7-1.32 6.07 6.07 0 001.06-1.91 6.74 6.74 0 00.37-2.11v-.76h-2.64v-1.42h6.89v1.42h-2.5v.76a5.72 5.72 0 00.36 1.93zm3.13-5.36h1.75V632H299v1.46h-1.83v6.23h-1.75zm15.27 7.25h-11.38v-1.37h4.84v-1.06h-3.46v-4.27h8.63v1.35h-6.89v1.55h7v1.37h-3.53v1.06h4.83zm-9.56 1.68a3.33 3.33 0 011.5-.79 9.44 9.44 0 012.34-.26 9.22 9.22 0 012.32.26 3.24 3.24 0 011.49.79 1.72 1.72 0 010 2.48 3.33 3.33 0 01-1.49.78 10.15 10.15 0 01-4.65 0 3.32 3.32 0 01-1.5-.78 1.66 1.66 0 01-.53-1.24 1.71 1.71 0 01.52-1.24zm1.9 2a6.26 6.26 0 001.94.23c1.72 0 2.58-.32 2.59-1 0-.31-.23-.56-.66-.72a7.61 7.61 0 00-3.87 0c-.43.16-.64.4-.64.72s.21.61.66.74zm12.02-8.99a2.92 2.92 0 011.22-1 3.9 3.9 0 011.74-.37 4 4 0 011.73.37 3 3 0 011.22 1 2.7 2.7 0 01.45 1.54 2.59 2.59 0 01-.45 1.49 3 3 0 01-1.22 1 4 4 0 01-1.73.38 3.9 3.9 0 01-1.74-.38 2.9 2.9 0 01-1.22-1 2.59 2.59 0 01-.45-1.49 2.7 2.7 0 01.45-1.54zm1.47 2.32a1.25 1.25 0 00.6.51 2.08 2.08 0 00.89.18 2 2 0 00.86-.18 1.37 1.37 0 00.82-1.29 1.39 1.39 0 00-.22-.8 1.47 1.47 0 00-.6-.53 2 2 0 00-.86-.18 2.08 2.08 0 00-.89.18 1.35 1.35 0 00-.6.53 1.47 1.47 0 00-.21.8 1.42 1.42 0 00.16.78zm0 3h1.72v1.16H323v-1.16h1.74v5.07h-8.34zm6.59 3.66V637h-4.87v1.15zm1.74-4.21H323v-6.69h1.75zm7.44-2.1h-3.76v1.33c1 0 1.75 0 2.37-.07a16.69 16.69 0 001.85-.23l.16 1.39a17.91 17.91 0 01-2.11.24q-1.08.06-3.06.06h-.93v-4h3.73v-1.22h-3.76V628h5.51zm-4.06 3.62h8.58v4.21H335v-2.81h-6.84zm4.78-3.85H335v-1.26h-2V629h2v-1.72h1.74v7.65H335V633h-2z"/></g></g><g id="그룹_401" data-name="그룹 401"><g id="PDF_TIFF_등_다양한_파일_형태를_PNG이미지_파일로_변환" data-name="PDF TIFF 등 다양한 파일 형태를 PNG이미지 파일로 변환" class="cls-5"><g class="cls-5"><path class="cls-6" d="M150.83 104.52h3.88a4 4 0 011.9.42 2.9 2.9 0 011.22 1.18 3.49 3.49 0 01.42 1.73 3.54 3.54 0 01-.42 1.75 3 3 0 01-1.24 1.17 4.13 4.13 0 01-1.93.42h-1.78v3.23h-2zm3.5 5a1.87 1.87 0 001.35-.46 1.63 1.63 0 00.46-1.23 1.59 1.59 0 00-.46-1.2 1.87 1.87 0 00-1.35-.45h-1.45v3.34zm5.08 4.9v-9.9h3.53a5.22 5.22 0 012.57.59 4 4 0 011.66 1.7 6.39 6.39 0 010 5.3 4 4 0 01-1.67 1.71 5.27 5.27 0 01-2.59.6zm3.41-1.77a2.79 2.79 0 002.15-.78 4.39 4.39 0 000-4.82 2.78 2.78 0 00-2.14-.77h-1.37v6.37zm6.27-8.13h6.52v1.69h-4.47v2.41h4.05v1.69h-4.05v4.11h-2zm8.18 12.78h-1.45l.68-3.9h1.94zm5.15-12.78h8.11v1.69h-3v8.21h-2v-8.21h-3zm11.29 9.9h-2.05v-9.9h2.05zm1.53-9.9h6.52v1.69h-4.47v2.41h4.05v1.69h-4.05v4.11h-2zm7.76 0h6.52v1.69H205v2.41h4v1.69h-4v4.11h-2zm21.71 5.82h-11.38v-1.42h11.38zm-9.55 1.8a3.32 3.32 0 011.5-.78 10.15 10.15 0 014.65 0 3.19 3.19 0 011.49.78 1.72 1.72 0 010 2.48 3.29 3.29 0 01-1.49.79 10.53 10.53 0 01-4.65 0 3.28 3.28 0 01-1.5-.79 1.72 1.72 0 010-2.48zm-.45-8.58h8.63V105h-6.89v1.69h7V108h-8.7zm4.29 10.79c1.72 0 2.58-.33 2.59-1 0-.32-.23-.56-.67-.72a5.82 5.82 0 00-1.92-.24 6 6 0 00-1.94.24c-.43.16-.64.4-.64.72-.01.65.85 1 2.58 1zm9.87-9.97h5.84v1.41h-4.1v5.45c.95 0 1.81 0 2.58-.1s1.57-.16 2.37-.29l.19 1.46a22.46 22.46 0 01-2.54.29c-.84.05-1.81.08-2.92.08h-1.42zm9.33 3.47h1.8v1.43h-1.8v6.42h-1.75v-12.47h1.75zm2.67-2.48a2.89 2.89 0 011.22-1.07 3.87 3.87 0 011.75-.38 3.79 3.79 0 011.73.38 3 3 0 011.22 1.07 2.83 2.83 0 01.44 1.55 2.87 2.87 0 01-.44 1.56 3.09 3.09 0 01-1.22 1.07 3.92 3.92 0 01-1.73.38 4 4 0 01-1.75-.38 3 3 0 01-1.22-1.07 2.79 2.79 0 01-.45-1.56 2.76 2.76 0 01.45-1.55zm1.52 6.53a3.36 3.36 0 011.48-.85 7.71 7.71 0 012.27-.3 7.36 7.36 0 012.22.3 3.34 3.34 0 011.46.85 1.93 1.93 0 01.51 1.33 1.88 1.88 0 01-.51 1.31 3.22 3.22 0 01-1.47.84 7.36 7.36 0 01-2.21.29 7.73 7.73 0 01-2.27-.29 3.26 3.26 0 01-1.48-.84 1.84 1.84 0 01-.52-1.31 1.89 1.89 0 01.52-1.33zm0-4.16a1.37 1.37 0 00.6.54 2.23 2.23 0 00.88.19 2.13 2.13 0 00.86-.19 1.55 1.55 0 00.61-2.17 1.48 1.48 0 00-.61-.55 1.84 1.84 0 00-.86-.18 1.93 1.93 0 00-.88.18 1.43 1.43 0 00-.6.54 1.5 1.5 0 00-.22.82 1.46 1.46 0 00.19.82zm3.78 6.55c1.65 0 2.47-.35 2.47-1.06a.89.89 0 00-.63-.82 5 5 0 00-1.84-.28 5.2 5.2 0 00-1.88.28.89.89 0 00-.64.82c-.04.71.79 1.06 2.49 1.06zm5.68-8.09h-1.61v1.28h1.61v1.44h-1.61v1.59h-1.75v-7.28h1.75v1.55h1.61zm.45-1.66h2.83v-1.32h1.73v1.32h2.82v1.39h-7.38zm1 3a2.63 2.63 0 011.1-.85 4 4 0 011.6-.3 4 4 0 011.59.3 2.57 2.57 0 011.08.85 2.24 2.24 0 010 2.51 2.5 2.5 0 01-1.09.83 4 4 0 01-1.59.3 4 4 0 01-1.6-.3 2.61 2.61 0 01-1.1-.84 2.06 2.06 0 01-.39-1.24 2.14 2.14 0 01.39-1.29zm.81 4.31h1.74v2.24h6.78v1.4h-8.53zm.88-2.27a1.7 1.7 0 001 .27 1.77 1.77 0 001-.27.91.91 0 00.38-.78.94.94 0 00-.37-.8 1.7 1.7 0 00-1-.29 1.64 1.64 0 00-1 .29.9.9 0 00-.37.79.87.87 0 00.37.76zm7.19-2.49h1.68v1.42h-1.68v4h-1.75v-9.28h1.75zm12.26-1.31h-1.11v5.42c.56 0 1.05-.09 1.48-.15l.1 1.26a28.39 28.39 0 01-3.54.39c-1.23.07-2.56.11-4 .12l-.19-1.43h1.42v-5.61h-1.1v-1.4h6.94zm-2.79 5.53v-5.53h-1.37v5.58zm3.76-8.08h1.75V108H279v1.42h-1.83v6.29h-1.75zm9.13.77a2.9 2.9 0 011.19 1 2.57 2.57 0 01.44 1.47 2.53 2.53 0 01-.44 1.45 2.88 2.88 0 01-1.19 1 3.91 3.91 0 01-1.69.37 4 4 0 01-1.72-.37 2.91 2.91 0 01-1.2-1 2.52 2.52 0 01-.43-1.45 2.56 2.56 0 01.43-1.47 2.93 2.93 0 011.2-1 4 4 0 011.72-.36 3.91 3.91 0 011.69.36zm-3.14 3.24a1.33 1.33 0 00.58.49 2.32 2.32 0 00.87.18 2.25 2.25 0 00.84-.18 1.33 1.33 0 00.58-.49 1.41 1.41 0 000-1.51 1.35 1.35 0 00-.58-.5 2.07 2.07 0 00-.84-.17 2.13 2.13 0 00-.86.17 1.41 1.41 0 00-.59 2zm0 2.79h8.35v3.37h-6.65v.81h7v1.37h-8.7v-3.45h6.6v-.76h-6.62zm6.6-6.76h1.75v6.24H288zm13.3 2.49h-6.92v-1.38h2.68v-1.26h1.73v1.26h2.51zm-5.95 1.54a2.47 2.47 0 011-.83 3.68 3.68 0 011.52-.3 3.63 3.63 0 011.51.3 2.44 2.44 0 011.05.83 2.07 2.07 0 010 2.42 2.4 2.4 0 01-1.05.81 4.1 4.1 0 01-3 0 2.43 2.43 0 01-1-.81 2.21 2.21 0 010-2.42zm1.49 5a3.27 3.27 0 011.48-.75 10.21 10.21 0 014.58 0 3.38 3.38 0 011.48.75 1.57 1.57 0 01.53 1.18 1.54 1.54 0 01-.53 1.16 3.37 3.37 0 01-1.49.75 8.52 8.52 0 01-2.28.26 8.64 8.64 0 01-2.29-.26 3.32 3.32 0 01-1.48-.75 1.53 1.53 0 01-.52-1.16 1.56 1.56 0 01.52-1.16zm.12-3a1.49 1.49 0 001 .27 1.56 1.56 0 001-.27.89.89 0 00.36-.76.9.9 0 00-.36-.76 1.63 1.63 0 00-1-.28 1.56 1.56 0 00-1 .28 1 1 0 000 1.52zm1.82 4.87a5.74 5.74 0 001.83.22 5.54 5.54 0 001.8-.22c.41-.14.62-.36.62-.64 0-.57-.8-.86-2.42-.88a6.35 6.35 0 00-1.84.23c-.41.14-.62.36-.62.65s.21.47.63.61zm2.63-5.68h1.69v-1.1h-1.67V106h1.67v-2.74h1.74v7.93h-1.74v-1.31h-1.69zm10.4-2.58h-3.41v1.88h3.16v1.33h-3.16v2.25q1.13 0 2-.06c.55 0 1.11-.09 1.69-.18l.12 1.43a20.3 20.3 0 01-2 .22h-3.4v-8.3h5.08zm.9-2.5h1.64v4.65h1.08v-4.83h1.67v12.44h-1.67v-6.22h-1.08v5.65h-1.64zm16.93 6.7h-11.38v-1.3h11.38zm-10.08.61h8.72v2.94h-7v.72h7.34v1.18h-9.08v-3h7v-.63h-7zm.09-7.27h8.61v2.93h-6.85v.67h7.07v1.17h-8.8v-3h6.83v-.63h-6.86z"/></g><g class="cls-5"><path class="cls-6" d="M200.36 124.52h3.88a4 4 0 011.9.42 2.92 2.92 0 011.23 1.18 3.49 3.49 0 01.42 1.73 3.54 3.54 0 01-.43 1.75 3 3 0 01-1.24 1.17 4.13 4.13 0 01-1.93.42h-1.78v3.23h-2zm3.5 5a1.87 1.87 0 001.35-.46 1.63 1.63 0 00.46-1.23 1.59 1.59 0 00-.46-1.2 1.87 1.87 0 00-1.35-.45h-1.45v3.34zm13.34 4.9h-1.77l-4.35-6.29H211v6.29h-2.06v-9.9h1.81l4.32 6.29h.1v-6.29h2zm7.35-7.82a2.29 2.29 0 00-1.35-.4 2.38 2.38 0 00-1.35.39 2.58 2.58 0 00-.9 1.11 4.41 4.41 0 00-.32 1.75 4.48 4.48 0 00.32 1.77 2.3 2.3 0 00.89 1.12 2.43 2.43 0 001.38.39 2.65 2.65 0 001.2-.25 2 2 0 00.79-.71 2.23 2.23 0 00.29-1.09h-2.15v-1.54h4.13v1.23a4.4 4.4 0 01-.54 2.22 3.69 3.69 0 01-1.52 1.46 4.84 4.84 0 01-2.22.5 4.69 4.69 0 01-2.44-.62 4.23 4.23 0 01-1.64-1.76 6.5 6.5 0 010-5.41 4.24 4.24 0 011.68-1.76 4.59 4.59 0 012.36-.61 4.81 4.81 0 012 .42 4 4 0 011.49 1.18 3.71 3.71 0 01.72 1.72h-2.08a2.08 2.08 0 00-.74-1.11zm4.62-.4a3.53 3.53 0 011.17-1.55 2.84 2.84 0 011.7-.54 2.76 2.76 0 011.68.54 3.61 3.61 0 011.17 1.55 6.73 6.73 0 010 4.68 3.64 3.64 0 01-1.17 1.56 2.76 2.76 0 01-1.72.56 2.84 2.84 0 01-1.7-.54 3.56 3.56 0 01-1.17-1.56 6.73 6.73 0 010-4.68zm1.46 3.89a2.15 2.15 0 00.56 1 1.19 1.19 0 00.85.32 1.11 1.11 0 00.83-.32 2.15 2.15 0 00.56-1 5.4 5.4 0 00.2-1.55 5.31 5.31 0 00-.2-1.55 2.15 2.15 0 00-.56-1 1.16 1.16 0 00-.83-.33 1.25 1.25 0 00-.85.33 2.15 2.15 0 00-.56 1 5.31 5.31 0 00-.2 1.55 5.4 5.4 0 00.2 1.55zm8.17 5.61H237v-12.47h1.77zm8.2-2.99h-6v-8.36h6zm-1.7-1.38v-5.61h-2.6v5.61zm3.72-8.1h1.77v12.47H249zm8.45 5.42a5.51 5.51 0 001.06 1.79 4.52 4.52 0 001.71 1.21l-.94 1.35a5 5 0 01-1.83-1.32 6.68 6.68 0 01-1.21-2 7.21 7.21 0 01-1.21 2.22 5.11 5.11 0 01-1.85 1.46l-1-1.38a4.64 4.64 0 001.71-1.3 5.94 5.94 0 001.07-1.9 6.9 6.9 0 00.35-2.14v-.76h-2.64v-1.42h7v1.42h-2.6v.76a6.15 6.15 0 00.38 2.01zm3.48-5.42h1.77v12.44H261zm13.49 2.55h-1.11v5.42c.56 0 1.05-.09 1.48-.15l.1 1.26a28.39 28.39 0 01-3.54.39c-1.23.07-2.56.11-4 .12l-.19-1.43h1.42v-5.61h-1.1v-1.4h6.94zm-2.79 5.53v-5.53h-1.37v5.58zm3.76-8.08h1.75V128H279v1.42h-1.83v6.29h-1.75zm9.13.77a2.9 2.9 0 011.19 1 2.57 2.57 0 01.44 1.47 2.53 2.53 0 01-.44 1.45 2.88 2.88 0 01-1.19 1 3.91 3.91 0 01-1.69.37 4 4 0 01-1.72-.37 2.91 2.91 0 01-1.2-1 2.52 2.52 0 01-.43-1.45 2.56 2.56 0 01.43-1.47 2.93 2.93 0 011.2-1 4 4 0 011.72-.36 3.91 3.91 0 011.69.36zm-3.14 3.24a1.33 1.33 0 00.58.49 2.32 2.32 0 00.87.18 2.25 2.25 0 00.84-.18 1.33 1.33 0 00.58-.49 1.41 1.41 0 000-1.51 1.35 1.35 0 00-.58-.5 2.07 2.07 0 00-.84-.17 2.13 2.13 0 00-.86.17 1.41 1.41 0 00-.59 2zm0 2.79h8.35v3.37h-6.65v.81h7v1.37h-8.7v-3.45h6.6v-.76h-6.62zm6.6-6.76h1.75v6.24H288zm14.65 11.02h-11.39v-1.43h4.8V131h-3.48v-4.2h7v-1.37h-7.06V124h8.78v4.13h-7v1.39h7.3V131h-3.8v1.88h4.85zm14.15-1.87h-1.74v-3h-2.3v1.07h-5.92v-6.4h1.75V126H311v-1.92h1.72v1.27h2.3v-2.07h1.74zm-8.29-.92h1.76v2.56h6.79v1.4h-8.55zm2.53-2.42v-1.79h-2.45v1.79zm4-1.09v-1.26h-2.3V128zm6.11 2.35v-.72a3.15 3.15 0 01-1.61-.62 1.48 1.48 0 01-.57-1.21 1.55 1.55 0 01.37-1.05 2.39 2.39 0 011.06-.67 5.23 5.23 0 011.62-.23 5.14 5.14 0 011.6.23 2.39 2.39 0 011.06.67 1.51 1.51 0 01.38 1.05 1.49 1.49 0 01-.58 1.2 3.17 3.17 0 01-1.59.63v.64c1.11-.07 2.11-.17 3-.3l.12 1.2a25.65 25.65 0 01-3.56.44c-1.23.07-2.61.11-4.15.12l-.18-1.34c1.16 0 2.16-.01 3.03-.04zm-2.69-6.1h2.69v-1h1.74v1h2.69v1.25h-7.12zm1.42 8.06h1.75v1.76h7v1.4h-8.77zm1.1-4a2.12 2.12 0 001 .19 2.24 2.24 0 001-.19.59.59 0 00.38-.53.66.66 0 00-.37-.59 2.11 2.11 0 00-1-.19 2.22 2.22 0 00-1 .19.62.62 0 00-.34.59.57.57 0 00.35.55zm7.24-1h1.59v1.44h-1.59v4.18h-1.75v-9.71h1.75z"/></g></g><g id="그룹_329" data-name="그룹 329"><path id="선_58" data-name="선 58" class="cls-7" d="M241.86 152.65h8"/><g id="PDF_Extractor" data-name="PDF Extractor" class="cls-5"><g class="cls-5"><path class="cls-4" d="M254.55 147.93h3.33a3.47 3.47 0 011.63.36 2.55 2.55 0 011 1 3 3 0 01.36 1.48 3 3 0 01-.36 1.5 2.53 2.53 0 01-1.07 1 3.53 3.53 0 01-1.65.36h-1.52v2.77h-1.76zm3 4.3a1.6 1.6 0 001.16-.39 1.42 1.42 0 00.39-1.05 1.37 1.37 0 00-.39-1 1.69 1.69 0 00-1.16-.39h-1.24v2.86zm4.35 4.19v-8.49h3a4.5 4.5 0 012.2.51 3.39 3.39 0 011.42 1.46 4.83 4.83 0 01.49 2.26 4.92 4.92 0 01-.49 2.28 3.44 3.44 0 01-1.43 1.47 4.62 4.62 0 01-2.23.51zm2.92-1.52a2.41 2.41 0 001.85-.66 3 3 0 00.61-2.08 2.92 2.92 0 00-.61-2 2.36 2.36 0 00-1.84-.67h-1.17v5.46zm5.38-6.97h5.59v1.45H272v2.07h3.47v1.45H272v3.52h-1.8zm9.27 0h5.7v1.45h-3.94v2.07h3.65v1.45h-3.65v2.1h3.95v1.46h-5.71zm9.53 4.36l1.21-2.24H292l-1.86 3.18 1.91 3.19h-1.78L289 154.2l-1.24 2.22H286l1.9-3.19-1.9-3.18h1.8zm7.23-.94H295v3.11a.64.64 0 00.15.49.61.61 0 00.45.15h.69v1.37a6.27 6.27 0 01-.94.06 2.36 2.36 0 01-1.53-.45 1.6 1.6 0 01-.55-1.34v-3.36h-.88v-1.3h.88v-1.52H295v1.52h1.2zm.97-1.3h1.67v1.1h.07a1.73 1.73 0 01.58-.88 1.53 1.53 0 011-.31 2.38 2.38 0 01.55.06v1.54a1.93 1.93 0 00-.34-.06h-.4a1.48 1.48 0 00-.7.17 1.23 1.23 0 00-.49.47 1.4 1.4 0 00-.17.68v3.63h-1.77zm4.73 3.15a3.24 3.24 0 011.71-.52c.43 0 1-.06 1.58-.08v-.52a.75.75 0 00-.27-.62 1.16 1.16 0 00-.75-.22 1.19 1.19 0 00-.71.19.76.76 0 00-.34.51h-1.66a2 2 0 01.39-1 2.26 2.26 0 01.94-.7 3.69 3.69 0 011.43-.26 3.85 3.85 0 011.34.23 2.1 2.1 0 011 .71 1.93 1.93 0 01.37 1.22v4.29h-1.66v-.88a1.87 1.87 0 01-.72.73 2.15 2.15 0 01-1.15.26 2.43 2.43 0 01-1.1-.21 1.79 1.79 0 01-.75-.64 2 2 0 01-.27-1.05 1.66 1.66 0 01.62-1.44zm1.27 1.94a1.18 1.18 0 00.69.2 1.46 1.46 0 00.69-.16 1.22 1.22 0 00.47-.43 1.06 1.06 0 00.17-.61v-.46c-.52 0-1 0-1.3.08a1.24 1.24 0 00-.72.25.69.69 0 00-.26.58.63.63 0 00.26.55zm6.14.99a2.81 2.81 0 01-1.08-1.16 4.11 4.11 0 010-3.43 2.75 2.75 0 011.08-1.16A3.27 3.27 0 01311 150a3.31 3.31 0 011.44.3 2.35 2.35 0 011 .85 2.4 2.4 0 01.39 1.26h-1.63a1.31 1.31 0 00-.38-.77 1.13 1.13 0 00-.79-.29 1.22 1.22 0 00-.73.23 1.39 1.39 0 00-.48.66 2.59 2.59 0 00-.17 1 2.73 2.73 0 00.17 1 1.39 1.39 0 00.48.66 1.16 1.16 0 00.73.23 1.12 1.12 0 00.78-.28 1.22 1.22 0 00.39-.77h1.63a2.47 2.47 0 01-.39 1.27 2.35 2.35 0 01-1 .86 3.29 3.29 0 01-1.45.3 3.21 3.21 0 01-1.65-.38zm8.8-4.78H317v3.11a.57.57 0 00.15.49.6.6 0 00.44.15h.69v1.37a6.17 6.17 0 01-.94.06 2.36 2.36 0 01-1.53-.45 1.62 1.62 0 01-.55-1.34v-3.36h-.88v-1.3h.88v-1.52H317v1.52h1.19zm2.11 4.78a2.69 2.69 0 01-1.08-1.16 4.08 4.08 0 010-3.44 2.73 2.73 0 011.08-1.15 3.55 3.55 0 013.31 0 2.81 2.81 0 011.09 1.15 4.08 4.08 0 010 3.44 2.78 2.78 0 01-1.09 1.16 3.55 3.55 0 01-3.31 0zm.45-1.87a1.57 1.57 0 00.47.69 1.17 1.17 0 00.75.25 1.15 1.15 0 00.73-.25 1.58 1.58 0 00.46-.68 3 3 0 00.16-1 3.23 3.23 0 00-.16-1 1.52 1.52 0 00-.45-.7 1.2 1.2 0 00-1.49 0 1.52 1.52 0 00-.47.69 3.15 3.15 0 00-.15 1 3.11 3.11 0 00.15 1zm5.3-4.21h1.68v1.1h.07a1.67 1.67 0 01.58-.88 1.51 1.51 0 011-.31 2.44 2.44 0 01.55.06v1.54a2.12 2.12 0 00-.34-.06h-.4a1.48 1.48 0 00-.7.17 1.23 1.23 0 00-.49.47 1.4 1.4 0 00-.17.68v3.63H326z"/></g></g></g></g><g id="그룹_402" data-name="그룹 402"><g id="문서_분류_신경망을_통해_문서_종류_분류_필요문서_여부_확인" data-name="문서 분류 신경망을 통해 문서 종류 분류 필요문서 여부 확인" class="cls-5"><g class="cls-5"><path class="cls-6" d="M209.66 237.77H205v2.14h-1.72v-2.14h-5v-1.39h11.39zm-10 1.06h1.74v2.23h7.05v1.4h-8.79zm.09-8.05h8.5v4.58h-8.5zm6.79 3.23v-1.88h-5.14V234zm8.74 1.34a5.65 5.65 0 001 1.93 4.39 4.39 0 001.68 1.28L216.9 240a4.94 4.94 0 01-1.71-1.37 6.7 6.7 0 01-1.12-2.08 7.27 7.27 0 01-1.14 2.22 5 5 0 01-1.77 1.45l-1.09-1.42a4.65 4.65 0 001.73-1.35 6.35 6.35 0 001-2 8.21 8.21 0 00.35-2.33v-1.86H215v1.86a8.3 8.3 0 00.28 2.23zm1.3-1.21H219v-3.91h1.73v12.47H219v-7.15h-2.44zm20.09 3.86H232v2h-1.72v-2h-5v-1.36h11.39zm-10 1h1.72v2.05h7.07v1.4h-8.79zm.12-8.38h1.73v1.3h5v-1.3h1.73v5.11h-8.45zm6.72 3.73v-1.13h-5v1.13zm15.12 4.55H246v3.77h-1.76v-3.77h-2.6v3.77h-1.74v-3.77h-2.66v-1.37h11.39zm-10.08-8.3h8.76v3.62h-6.95v1h7.24v1.39h-9V233h6.93v-1h-7zm15.38 4.67a4.06 4.06 0 001-1.45 4.61 4.61 0 00.32-1.69v-1.2h1.82v1.2a4.49 4.49 0 00.3 1.63 3.78 3.78 0 001 1.37 4.42 4.42 0 001.63.87l-.89 1.37a5 5 0 01-1.76-1 4.94 4.94 0 01-1.16-1.58 5.31 5.31 0 01-1.19 1.71 4.79 4.79 0 01-1.82 1.09l-.9-1.38a4.37 4.37 0 001.65-.94zm.45 3.18h1.76v2.61h6.91v1.4h-8.67zm8.34.87H261v-9.07h1.75zm12.02-1.91H273v-1.22h-2.8v-1.39h2.8v-1.19h-2.67q-1.17 3-5.29 4.07l-.68-1.38a7.76 7.76 0 003.2-1.52 3.75 3.75 0 001.31-2.31H265v-1.39h5.74a6.92 6.92 0 01-.09 1.16H273v-2h1.73zm-7.86 1.34a3.38 3.38 0 011.49-.88 8.14 8.14 0 014.45 0 3.5 3.5 0 011.49.88 1.9 1.9 0 01.53 1.33 1.94 1.94 0 01-.53 1.34 3.55 3.55 0 01-1.5.89 7.06 7.06 0 01-2.21.31 7.15 7.15 0 01-2.23-.31 3.3 3.3 0 01-1.49-.89 1.92 1.92 0 01-.53-1.34 1.9 1.9 0 01.53-1.33zm1.86 2.19a4.62 4.62 0 001.86.3 4.46 4.46 0 001.83-.3.9.9 0 000-1.73 4.34 4.34 0 00-1.83-.28 4.47 4.47 0 00-1.85.28 1 1 0 00-.66.87.93.93 0 00.65.86zm13.82-4.25h-6v-5.56h6zm-4.29 2.22a3.31 3.31 0 011.48-.85 8 8 0 012.27-.29 7.69 7.69 0 012.21.29 3.38 3.38 0 011.47.85 2 2 0 010 2.64 3.24 3.24 0 01-1.46.84 7.36 7.36 0 01-2.22.3 7.66 7.66 0 01-2.27-.3 3.21 3.21 0 01-1.48-.84 1.94 1.94 0 010-2.64zm2.57-3.62v-2.77h-2.53v2.77zm1.18 6c1.64 0 2.47-.36 2.47-1.08a.87.87 0 00-.63-.81 4.85 4.85 0 00-1.84-.27 4.79 4.79 0 00-1.88.28c-.43.18-.65.45-.64.8-.01.79.82 1.1 2.5 1.1zm2.32-11.08h1.75v2.82h1.68v1.41h-1.68v3h-1.75zm3.84 5.04h11.35v1.38h-11.35zm8.12-4.59a3.46 3.46 0 011.54.72 1.47 1.47 0 01.54 1.15 1.51 1.51 0 01-.54 1.17 3.68 3.68 0 01-1.54.72 12.63 12.63 0 01-4.9 0 3.67 3.67 0 01-1.55-.72 1.51 1.51 0 01-.54-1.17 1.47 1.47 0 01.54-1.15 3.45 3.45 0 011.55-.72 12.13 12.13 0 014.9 0zm-6.81 6.7h8.65v3.17h-6.93v.75h7.26v1.31h-9v-3.28h6.92v-.68h-6.93zm2.31-4.18a10.66 10.66 0 004.11 0c.44-.13.66-.35.66-.65 0-.57-.9-.85-2.72-.85a7 7 0 00-2 .22c-.45.14-.67.35-.67.63s.18.52.62.65zm22.77 4.82H303.2v-1.37h4.8v-.76h-3.39v-5.35h8.63v1.34h-6.88v.7H313v1.26h-6.59v.71h7v1.34h-3.59v.76h4.81zm-9.54 1.5a3.39 3.39 0 011.49-.7 10.13 10.13 0 012.36-.22 10 10 0 012.34.22 3.52 3.52 0 011.48.7 1.5 1.5 0 01.52 1.11 1.69 1.69 0 01-1.14 1.53 7.63 7.63 0 01-3.2.52 7.76 7.76 0 01-3.23-.52 1.66 1.66 0 01-1.13-1.53 1.44 1.44 0 01.48-1.1zm1.87 1.69a7.33 7.33 0 002 .19 7.17 7.17 0 001.95-.19c.42-.12.63-.31.64-.58s-.21-.44-.62-.56a6.78 6.78 0 00-1.89-.19 8.31 8.31 0 00-2 .18c-.44.12-.65.31-.65.57s.15.47.57.59zm14.28-7.68h-6v-1.38h2.16v-1.56h1.72v1.56h2.13zm-5.37 2a2.83 2.83 0 011-1.05 2.71 2.71 0 011.41-.38 2.66 2.66 0 011.41.38 2.75 2.75 0 011 1.05 3.52 3.52 0 010 3.06 2.71 2.71 0 01-1 1.06 2.65 2.65 0 01-1.41.37 2.7 2.7 0 01-1.41-.37 2.78 2.78 0 01-1-1.06 3.52 3.52 0 010-3.06zm1.51 2.62a1.08 1.08 0 00.88.4 1.06 1.06 0 00.87-.4 1.71 1.71 0 00.34-1.09 1.81 1.81 0 00-.16-.8 1.18 1.18 0 00-.43-.52 1 1 0 00-.62-.19 1.1 1.1 0 00-.88.41A1.68 1.68 0 00317 237a1.63 1.63 0 00.32 1.12zm4.33-7.64h1.63v4.81h1v-5.06h1.65v12.44h-1.65v-6h-1v5.45h-1.63z"/></g><g class="cls-5"><path class="cls-6" d="M154.86 257.77h-4.69v2.14h-1.72v-2.14h-5v-1.39h11.39zm-10.05 1.06h1.73v2.23h7.06v1.4h-8.79zm.08-8h8.5v4.58h-8.5zm6.8 3.23v-1.88h-5.09V254zm8.79 1.29a5.48 5.48 0 001 1.93 4.24 4.24 0 001.68 1.28L162.1 260a5 5 0 01-1.72-1.37 6.89 6.89 0 01-1.11-2.08 7.29 7.29 0 01-1.15 2.22 5 5 0 01-1.76 1.45l-1.1-1.42a4.57 4.57 0 001.74-1.4 6.15 6.15 0 001-2 7.87 7.87 0 00.35-2.33v-1.86h1.76v1.86a8.31 8.31 0 00.37 2.28zm1.29-1.21h2.45v-3.91h1.72v12.47h-1.72v-7.15h-2.45zm15.23 2.04h4.83v1.41h-11.34v-1.41h4.8v-1.49H177zm-4.09-2.53a4.32 4.32 0 001.31-.68 1.92 1.92 0 00.65-.84h-3.35v-1.36h9.28v1.36h-3.38a1.85 1.85 0 00.65.84 4.32 4.32 0 001.31.68 8.64 8.64 0 002 .38l-.61 1.37a7.83 7.83 0 01-2.9-.78 3.87 3.87 0 01-1.68-1.52 3.89 3.89 0 01-1.67 1.52 7.77 7.77 0 01-2.88.78L171 254a8.44 8.44 0 001.92-.35zm-.61 5.63a3.3 3.3 0 011.5-.75 9.33 9.33 0 012.34-.26 9.16 9.16 0 012.32.26 3.37 3.37 0 011.49.75 1.58 1.58 0 01.52 1.19 1.62 1.62 0 01-.52 1.2 3.37 3.37 0 01-1.49.75 9.2 9.2 0 01-2.32.25 9.37 9.37 0 01-2.34-.25 3.3 3.3 0 01-1.5-.75 1.58 1.58 0 01-.52-1.2 1.55 1.55 0 01.53-1.19zm1.89 1.87a6.28 6.28 0 002 .23c1.72 0 2.58-.31 2.58-.91s-.86-.87-2.58-.87a6.65 6.65 0 00-2 .21c-.43.15-.64.37-.64.66s.22.53.65.68zm19.63-2.25h-2.62v3.77h-1.77v-3.77h-2.59v3.77h-1.74v-3.77h-2.67v-1.37h11.39zm-10.07-8.3h8.76v3.62h-7v1h7.25v1.39h-9V253h6.93v-1h-7zm25.12 7.4h-4.69v2h-1.72v-2h-5v-1.36h11.39zm-10.05 1h1.72v2.05h7.07v1.4h-8.79zm.12-8.38h1.73v1.3h5v-1.3h1.73v5.11h-8.45zm6.72 3.73v-1.13h-5v1.13zm15.17 4.55h-2.63v3.77h-1.76v-3.77h-2.6v3.77h-1.73v-3.77h-2.67v-1.37h11.39zm-10.08-8.3h8.77v3.62h-7v1h7.24v1.39h-9V253h6.94v-1h-7zm12.11 13.7h-1.45l.69-3.9h1.9zm6.62-9.3v-2.67h-1V251h6.77v1.32h-1v2.49c.53-.05 1-.09 1.5-.15l.09 1.25a48.92 48.92 0 01-7.47.46l-.19-1.37zm.44 2.12h8.46v3.32h-6.71v.78h7.05v1.38h-8.78v-3.4h6.72v-.73h-6.74zm2.61-2.2v-2.59h-1.38V255zm5.85 1.71h-1.75v-6.39h1.75zm12.9 4.59h-11.39v-1.43h2.55v-3.05a3.17 3.17 0 01-1.14-1.1 2.7 2.7 0 01-.41-1.46 2.75 2.75 0 01.6-1.75 4 4 0 011.67-1.18 7.1 7.1 0 014.81 0 4.14 4.14 0 011.68 1.18 2.7 2.7 0 01.61 1.75 2.83 2.83 0 01-.4 1.44 3.31 3.31 0 01-1.11 1.09v3.08h2.53zm-8.3-6a2.27 2.27 0 001 .68 4.65 4.65 0 001.56.24 4.53 4.53 0 001.54-.24 2.34 2.34 0 001-.68 1.69 1.69 0 000-2.11 2.39 2.39 0 00-1-.68 4.86 4.86 0 00-1.55-.23 4.65 4.65 0 00-1.56.24 2.26 2.26 0 00-1 .67 1.69 1.69 0 000 2.11zm4 4.56v-2.42a7.35 7.35 0 01-1.42.14 8.22 8.22 0 01-1.41-.13v2.41zm16.25-2.01h-4.69v2.14h-1.72v-2.14h-5v-1.39h11.39zm-10.05 1.06h1.74v2.23H262v1.4h-8.79zm.08-8h8.51v4.58h-8.51zm6.8 3.23v-1.88H255V254zm8.79 1.29a5.65 5.65 0 001 1.93 4.24 4.24 0 001.68 1.28l-1.06 1.44a5 5 0 01-1.72-1.37 6.89 6.89 0 01-1.11-2.08 7.29 7.29 0 01-1.15 2.22 4.92 4.92 0 01-1.76 1.45l-1.09-1.42a4.62 4.62 0 001.72-1.35 6 6 0 001-2 7.87 7.87 0 00.35-2.33v-1.86h1.77v1.86a7.94 7.94 0 00.37 2.23zm1.29-1.21h2.45v-3.91h1.72v12.47h-1.72v-7.15h-2.45zm13.67-2.6a3.28 3.28 0 011.1 1.25h2.73v-2.56h1.72v12.47h-1.72V258H285a3.55 3.55 0 01-1.13 1.43 2.74 2.74 0 01-1.62.51 2.76 2.76 0 01-1.68-.54 3.51 3.51 0 01-1.14-1.56 6.88 6.88 0 010-4.68 3.48 3.48 0 011.14-1.55 2.89 2.89 0 013.2-.11zm-2.89 5.55a2.14 2.14 0 00.55 1 1.12 1.12 0 00.82.32 1.09 1.09 0 00.82-.32 2.14 2.14 0 00.55-1 5.43 5.43 0 00.19-1.55 5.33 5.33 0 00-.19-1.55 2.14 2.14 0 00-.55-1 1.14 1.14 0 00-.82-.33 1.17 1.17 0 00-.82.33 2.14 2.14 0 00-.55 1 6.42 6.42 0 000 3.1zm4.6-1.55a7.8 7.8 0 01-.08 1.1h2.2v-2.44h-2.25a6.22 6.22 0 01.13 1.34zm16.67 3.24h-4.86v3.89h-1.73v-3.89h-4.79v-1.37h11.38zm-10.05-8.07h1.73v1.44h5.22v-1.44h1.75v5.5h-8.7zm6.95 4.1v-1.3h-5.22v1.3zm9.66 2.26v-.7a3.15 3.15 0 01-1.61-.62 1.46 1.46 0 01-.58-1.18 1.44 1.44 0 01.38-1 2.27 2.27 0 011.07-.65 5.93 5.93 0 013.2 0 2.32 2.32 0 011.07.65 1.44 1.44 0 01.38 1 1.49 1.49 0 01-.58 1.18 3.2 3.2 0 01-1.59.61v.64c1.18-.07 2.18-.15 3-.26l.13 1.21a32.06 32.06 0 01-3.62.4c-1.24.06-2.61.09-4.09.09l-.18-1.35c1.27.01 2.27 0 3.02-.02zm-2.69-5.92h2.69v-1h1.74v1h2.69v1.27h-7.12zm1.25 8h8.51v3.47h-1.75v-2.13h-6.76zm1.27-4.11a2.19 2.19 0 001 .19 2.24 2.24 0 001-.19.58.58 0 00.37-.52c0-.47-.46-.7-1.38-.7s-1.38.23-1.38.7a.57.57 0 00.39.57zm7.24-1.29h1.58v1.44h-1.58v3.46h-1.75v-8.45h1.75zm2.65-1.19a3.14 3.14 0 011.22-1.12 3.7 3.7 0 011.73-.4 3.66 3.66 0 011.72.4 3.1 3.1 0 011.23 1.12 3 3 0 01.45 1.61 3 3 0 01-1.68 2.75 3.67 3.67 0 01-1.72.41 3.71 3.71 0 01-1.73-.41 3 3 0 01-1.23-1.12 3.08 3.08 0 01-.44-1.63 3 3 0 01.45-1.61zm1.47 2.49a1.38 1.38 0 00.6.57 1.93 1.93 0 00.88.19 1.84 1.84 0 00.86-.19 1.49 1.49 0 00.6-.57 1.67 1.67 0 00.22-.88 1.6 1.6 0 00-.22-.86 1.52 1.52 0 00-.61-.57 1.83 1.83 0 00-.85-.18 1.93 1.93 0 00-.88.18 1.44 1.44 0 00-.6.57 1.51 1.51 0 00-.21.86 1.58 1.58 0 00.21.88zm0 3.24h1.77v2.77h6.9v1.4h-8.71zm8.34.9h-1.75v-8.94h1.75z"/></g></g><g id="그룹_329-2" data-name="그룹 329-2"><path id="선_58-2" data-name="선 58-2" class="cls-7" d="M229.86 279.65h8"/><g id="Object_Detector" data-name="Object Detector" class="cls-5"><g class="cls-5"><path class="cls-4" d="M249.87 281.51a3.53 3.53 0 01-1.41 1.5 4.24 4.24 0 01-4.07 0 3.55 3.55 0 01-1.42-1.5 5 5 0 01-.52-2.34 5 5 0 01.52-2.33 3.64 3.64 0 011.42-1.51 4.24 4.24 0 014.07 0 3.62 3.62 0 011.41 1.51 5.5 5.5 0 010 4.67zm-5.36-.82a2 2 0 001.92 1.28 2 2 0 001.14-.33 2 2 0 00.76-.95 4.57 4.57 0 000-3 2.08 2.08 0 00-.76-.95 2.15 2.15 0 00-1.14-.33 2.19 2.19 0 00-1.16.33 2.08 2.08 0 00-.76.95 4.57 4.57 0 000 3zm7.02-5.76h1.74v3.19a2.26 2.26 0 01.66-.82 1.88 1.88 0 011.16-.33 2.38 2.38 0 011.31.37 2.57 2.57 0 01.93 1.11 4.2 4.2 0 01.35 1.79 4.14 4.14 0 01-.34 1.77 2.57 2.57 0 01-.93 1.13 2.4 2.4 0 01-1.32.38 1.93 1.93 0 01-1.15-.32 2.33 2.33 0 01-.67-.8h-.07v1h-1.71zm1.86 6.29a1.55 1.55 0 00.46.68 1.16 1.16 0 00.73.24 1.18 1.18 0 001-.52 2.36 2.36 0 00.36-1.37 2.43 2.43 0 00-.35-1.38 1.24 1.24 0 00-2 0 2.31 2.31 0 00-.36 1.36 2.78 2.78 0 00.16.99zm7.06-4.17v6.68a1.92 1.92 0 01-.62 1.57 2.83 2.83 0 01-1.77.51h-.35v-1.35h.23a.86.86 0 00.59-.19.74.74 0 00.18-.55v-6.66zm-1.36-.95a1 1 0 01-.34-.32.78.78 0 01-.13-.44.76.76 0 01.13-.44.9.9 0 01.34-.33 1 1 0 01.48-.12 1 1 0 01.47.12.9.9 0 01.34.33.84.84 0 01.13.44.87.87 0 01-.13.44 1 1 0 01-.34.32 1 1 0 01-.47.12 1 1 0 01-.48-.12zm3.79 7.04a2.59 2.59 0 01-1.08-1.14 4.13 4.13 0 010-3.46 2.85 2.85 0 011.07-1.16 3.42 3.42 0 013.15-.05 2.56 2.56 0 011.07 1.09 3.68 3.68 0 01.39 1.77v.5h-4.35a1.77 1.77 0 00.18.82 1.21 1.21 0 00.51.54 1.49 1.49 0 00.77.19 1.6 1.6 0 00.75-.17 1 1 0 00.44-.47h1.65a2.26 2.26 0 01-.5 1 2.59 2.59 0 01-1 .67 3.77 3.77 0 01-1.38.24 3.34 3.34 0 01-1.67-.37zm3-3.54a1.41 1.41 0 00-.17-.69 1.18 1.18 0 00-.47-.47 1.37 1.37 0 00-.68-.17 1.4 1.4 0 00-.7.18 1.19 1.19 0 00-.49.48 1.38 1.38 0 00-.2.67zm3.76 3.53a2.81 2.81 0 01-1.08-1.16 3.78 3.78 0 01-.37-1.72 3.65 3.65 0 01.38-1.71 2.75 2.75 0 011.08-1.16 3.27 3.27 0 011.66-.41 3.31 3.31 0 011.44.3 2.42 2.42 0 011.38 2.11h-1.63a1.27 1.27 0 00-.39-.77 1.09 1.09 0 00-.78-.29 1.22 1.22 0 00-.73.23 1.39 1.39 0 00-.48.66 2.59 2.59 0 00-.17 1 2.73 2.73 0 00.17 1 1.39 1.39 0 00.48.66 1.14 1.14 0 00.73.23 1.12 1.12 0 00.78-.28 1.27 1.27 0 00.39-.77h1.63a2.47 2.47 0 01-.39 1.27 2.42 2.42 0 01-1 .86 3.29 3.29 0 01-1.45.3 3.21 3.21 0 01-1.65-.35zm8.8-4.78h-1.2v3.11a.54.54 0 00.6.64h.69v1.37a6.17 6.17 0 01-.94.06 2.36 2.36 0 01-1.53-.45 1.62 1.62 0 01-.55-1.34v-3.36h-.88v-1.3h.88v-1.52h1.73v1.52h1.2zm3.65 5.07v-8.49h3a4.5 4.5 0 012.2.51 3.34 3.34 0 011.42 1.46 4.83 4.83 0 01.5 2.26 4.92 4.92 0 01-.5 2.28 3.38 3.38 0 01-1.43 1.47 4.55 4.55 0 01-2.22.51zm2.91-1.52a2.39 2.39 0 001.84-.66 3 3 0 00.62-2.08 2.92 2.92 0 00-.61-2.05 2.36 2.36 0 00-1.84-.67h-1.17v5.46zm6.56 1.24a2.56 2.56 0 01-1.09-1.14 4.13 4.13 0 010-3.46 2.85 2.85 0 011.07-1.16 3.42 3.42 0 013.15-.05 2.56 2.56 0 011.07 1.09 3.68 3.68 0 01.39 1.77v.5h-4.35a1.77 1.77 0 00.18.82 1.21 1.21 0 00.51.54 1.5 1.5 0 00.78.19 1.56 1.56 0 00.74-.17 1 1 0 00.44-.47h1.65a2.26 2.26 0 01-.5 1 2.45 2.45 0 01-1 .67 3.7 3.7 0 01-1.38.24 3.3 3.3 0 01-1.66-.37zm2.95-3.54a1.41 1.41 0 00-.17-.69 1.16 1.16 0 00-.46-.47 1.4 1.4 0 00-.68-.17 1.38 1.38 0 00-.7.18 1.22 1.22 0 00-.5.48 1.38 1.38 0 00-.2.67zm5.96-1.25h-1.19v3.11a.57.57 0 00.15.49.6.6 0 00.44.15h.69v1.37a6.17 6.17 0 01-.94.06 2.36 2.36 0 01-1.53-.45 1.62 1.62 0 01-.55-1.34v-3.36h-.88v-1.3h.88v-1.52h1.74v1.52h1.19zm2.11 4.79a2.59 2.59 0 01-1.08-1.14 4.13 4.13 0 010-3.46 2.85 2.85 0 011.07-1.16 3.42 3.42 0 013.15-.05 2.56 2.56 0 011.07 1.09 3.68 3.68 0 01.39 1.77v.5h-4.35a1.77 1.77 0 00.18.82 1.21 1.21 0 00.51.54 1.49 1.49 0 00.77.19 1.6 1.6 0 00.75-.17 1 1 0 00.44-.47h1.65a2.26 2.26 0 01-.5 1 2.59 2.59 0 01-1 .67 3.77 3.77 0 01-1.38.24 3.34 3.34 0 01-1.67-.37zm3-3.54a1.41 1.41 0 00-.17-.69 1.18 1.18 0 00-.47-.47 1.37 1.37 0 00-.68-.17 1.4 1.4 0 00-.7.18 1.19 1.19 0 00-.49.48 1.38 1.38 0 00-.2.67zm3.76 3.53a2.81 2.81 0 01-1.08-1.16 4.11 4.11 0 010-3.43 2.75 2.75 0 011.08-1.16A3.27 3.27 0 01311 277a3.31 3.31 0 011.44.3 2.35 2.35 0 011 .85 2.4 2.4 0 01.39 1.26h-1.63a1.31 1.31 0 00-.38-.77 1.13 1.13 0 00-.79-.29 1.22 1.22 0 00-.73.23 1.39 1.39 0 00-.48.66 2.59 2.59 0 00-.17 1 2.73 2.73 0 00.17 1 1.39 1.39 0 00.48.66 1.16 1.16 0 00.73.23 1.12 1.12 0 00.78-.28 1.22 1.22 0 00.39-.77h1.63a2.47 2.47 0 01-.39 1.27 2.35 2.35 0 01-1 .86 3.29 3.29 0 01-1.45.3 3.21 3.21 0 01-1.65-.38zm8.8-4.78H317v3.11a.57.57 0 00.15.49.6.6 0 00.44.15h.69v1.37a6.17 6.17 0 01-.94.06 2.36 2.36 0 01-1.53-.45 1.62 1.62 0 01-.55-1.34v-3.36h-.88v-1.3h.88v-1.52H317v1.52h1.19zm2.11 4.78a2.69 2.69 0 01-1.08-1.16 4.08 4.08 0 010-3.44 2.73 2.73 0 011.08-1.15 3.55 3.55 0 013.31 0 2.81 2.81 0 011.09 1.15 4.08 4.08 0 010 3.44 2.78 2.78 0 01-1.09 1.16 3.55 3.55 0 01-3.31 0zm.45-1.87a1.57 1.57 0 00.47.69 1.17 1.17 0 00.75.25 1.15 1.15 0 00.73-.25 1.58 1.58 0 00.46-.68 3 3 0 00.16-1 3.23 3.23 0 00-.16-1 1.52 1.52 0 00-.45-.7 1.2 1.2 0 00-1.49 0 1.52 1.52 0 00-.47.69 3.15 3.15 0 00-.15 1 3.11 3.11 0 00.15 1zm5.3-4.21h1.68v1.1h.07a1.67 1.67 0 01.58-.88 1.51 1.51 0 011-.31 2.44 2.44 0 01.55.06v1.54a2.12 2.12 0 00-.34-.06h-.4a1.48 1.48 0 00-.7.17 1.23 1.23 0 00-.49.47 1.4 1.4 0 00-.17.68v3.63H326z"/></g></g></g></g><g id="그룹_403" data-name="그룹 403"><g id="문서_구조_분석_및_이미지_전처리_관심_영역_추출" data-name="문서 구조 분석 및 이미지 전처리 관심 영역 추출" class="cls-5"><g class="cls-5"><path class="cls-6" d="M248.63 364.77h-4.69v2.14h-1.72v-2.14h-5v-1.38h11.39zm-10 1.06h1.73v2.23h7.06v1.4h-8.79zm.08-8.05h8.5v4.58h-8.5zm6.8 3.23v-1.88h-5.09V361zm8.74 1.34a5.48 5.48 0 001 1.93 4.24 4.24 0 001.68 1.28l-1.06 1.44a4.86 4.86 0 01-1.72-1.37 6.89 6.89 0 01-1.15-2.13 7.29 7.29 0 01-1.15 2.22 4.9 4.9 0 01-1.76 1.45l-1.1-1.42a4.57 4.57 0 001.73-1.35 6.15 6.15 0 001-2 7.87 7.87 0 00.35-2.33v-1.86h1.76v1.86a8.31 8.31 0 00.42 2.28zm1.29-1.21H258v-3.91h1.72v12.47H258v-7.15h-2.45zm18.74-2.06c0 .81 0 1.52-.06 2.12a18.52 18.52 0 01-.26 2.05h1.65v1.41h-4.86v5H269v-5h-4.74v-1.41h7.93a16 16 0 00.28-2c0-.59.07-1.24.07-1.93h-7V358h8.72zm13.33 9.15h-11.39v-1.41H281V364h1.75v2.78h4.83zm-8.73-5.77a4.44 4.44 0 001.47-1.29 3.17 3.17 0 00.61-1.59h-3.8v-1.4h9.45v1.4h-3.79a3.1 3.1 0 00.61 1.58 4.2 4.2 0 001.5 1.26 6.76 6.76 0 002.25.72l-.68 1.38a7.54 7.54 0 01-2.81-1 5.07 5.07 0 01-1.79-1.87 5.22 5.22 0 01-1.77 1.92 7.21 7.21 0 01-2.76 1.07l-.69-1.38a6.57 6.57 0 002.2-.8zm23.76 2.54H298v2h-1.72v-2h-5v-1.36h11.39zm-10.05 1h1.72v2.05h7.07v1.4h-8.79zm.12-8.38h1.73v1.3h5v-1.3h1.73v5.11h-8.45zm6.72 3.73v-1.13h-5v1.13zm8.76-.65a3.63 3.63 0 00.94 1.29 4.32 4.32 0 001.59.86l-.93 1.38a4.61 4.61 0 01-2.78-2.47 4.85 4.85 0 01-1.16 1.63 4.92 4.92 0 01-1.77 1.06l-.94-1.39a4.57 4.57 0 001.67-.93 3.74 3.74 0 001-1.4 4.43 4.43 0 00.32-1.67v-1.18h1.77v1.29a3.61 3.61 0 00.29 1.53zm-3 4.5h8.55v4.47H312v-3.09h-6.81zm4.48-5.66H312v-2.31h1.74v7.41H312V361h-2.33zm15.33 3.68h-6.1V358h6.1zm-3.37 4.7a4.16 4.16 0 001.35-.75 1.83 1.83 0 00.59-.9h-3.49V365h3.54v-1h1.75v1h3.54v1.3h-3.48a1.75 1.75 0 00.58.88 4.5 4.5 0 001.34.75 8.13 8.13 0 002 .43l-.59 1.32a7.81 7.81 0 01-2.6-.65 4.47 4.47 0 01-1.7-1.27 4.32 4.32 0 01-1.7 1.27 8.45 8.45 0 01-2.62.65l-.6-1.32a7.83 7.83 0 002.07-.44zm1.64-6.07v-2.51h-2.63v2.51zm3.69-4.62h1.73v7.06h-1.73z"/></g><g class="cls-5"><path class="cls-6" d="M171.28 380.2a3.53 3.53 0 011.17-1.55 2.82 2.82 0 011.7-.54 2.76 2.76 0 011.68.54 3.69 3.69 0 011.17 1.55 6 6 0 01.42 2.34 6.12 6.12 0 01-.42 2.35 3.75 3.75 0 01-1.17 1.55 2.76 2.76 0 01-1.68.54 2.82 2.82 0 01-1.7-.54 3.59 3.59 0 01-1.17-1.55 6.12 6.12 0 01-.42-2.35 6 6 0 01.42-2.34zm1.46 3.89a2.15 2.15 0 00.56 1 1.23 1.23 0 00.85.33 1.18 1.18 0 00.83-.33 2.15 2.15 0 00.56-1 5.4 5.4 0 00.2-1.55 5.31 5.31 0 00-.2-1.55 2.15 2.15 0 00-.56-1 1.18 1.18 0 00-.83-.33 1.23 1.23 0 00-.85.33 2.15 2.15 0 00-.56 1 5 5 0 00-.2 1.55 5.07 5.07 0 00.2 1.55zm8.17 5.61h-1.77v-12.47h1.77zm8.17-2.99h-6v-8.36h6zm-1.7-1.38v-5.61h-2.57v5.61zm3.72-8.1h1.77v12.47h-1.77zm8.48 5.42a5.51 5.51 0 001.06 1.79 4.52 4.52 0 001.71 1.21l-.94 1.37a5 5 0 01-1.83-1.32 6.31 6.31 0 01-1.21-2 7.21 7.21 0 01-1.21 2.22 5.19 5.19 0 01-1.85 1.46l-1-1.38a4.64 4.64 0 001.71-1.3 5.91 5.91 0 001.06-1.9 6.59 6.59 0 00.36-2.14v-.76h-2.64v-1.42h7v1.42h-2.6v.76a6.15 6.15 0 00.38 1.99zm3.48-5.42h1.77v12.44h-1.77zm7.99 5.39a3.9 3.9 0 001-1.36 4.16 4.16 0 00.34-1.59v-.19h-2.5v-1.4h6.75v1.4h-2.47v.2a3.41 3.41 0 00.3 1.46 3.66 3.66 0 001 1.28 4.23 4.23 0 001.59.88l-.86 1.38a4.74 4.74 0 01-1.72-1 4.9 4.9 0 01-1.14-1.5 5.21 5.21 0 01-1.19 1.66 4.9 4.9 0 01-1.83 1.06l-.88-1.42a4.35 4.35 0 001.61-.86zm.63 2.91h1.75v2.53h6.81v1.4h-8.56zm8.26.79h-1.74v-4.45h-2v-1.41h2v-3.21h1.74zm3.06-1.53a5.43 5.43 0 001-1.74 6.17 6.17 0 00.34-1.92v-.48h-2.59v-1.39h2.59v-1.75h1.75v1.75h2.51v1.39h-2.53v.48a5.2 5.2 0 00.34 1.84 5.25 5.25 0 001 1.67 4.78 4.78 0 001.67 1.18l-.93 1.34a5 5 0 01-1.78-1.26 6.42 6.42 0 01-1.18-1.93 6.35 6.35 0 01-1.16 2 4.74 4.74 0 01-1.78 1.33l-.91-1.34a4.49 4.49 0 001.66-1.17zm8.94 4.91h-1.75v-6.29h-2.25V382h2.25v-4.79h1.75zm2.06-11.43h6v4.8h-4.1v2.28c1 0 1.92 0 2.76-.1s1.69-.16 2.57-.31l.15 1.41a25.65 25.65 0 01-2.86.35c-1 .06-2.06.09-3.31.09H234v-5.1h4.13v-2H234zm9.77 11.43h-1.73v-12.47h1.73zm3.01 1.6h-1.45l.69-3.9H248zm7.22-7.85V381h1.74v2.38a36.69 36.69 0 003.67-.32l.1 1.26a29.19 29.19 0 01-3.62.42c-1.25.07-2.6.11-4 .11l-.15-1.39zm4.83-4.54c0 .64 0 1.24-.05 1.8a13.63 13.63 0 01-.24 1.85l-1.71-.16a16 16 0 00.29-2.84h-4.69v-1.42h6.4zm-5.31 6.8h1.75v2.35h7v1.4h-8.74zm6.56-8.48h1.8V381h1.5v1.46h-1.5v4.06h-1.8zm5.37 4.56a3.83 3.83 0 001-1.34 3.75 3.75 0 00.33-1.55v-1.2h1.82v1.2a3.28 3.28 0 00.31 1.48 3.39 3.39 0 001 1.25 4.58 4.58 0 001.63.85l-.85 1.33a4.84 4.84 0 01-1.79-.93 4.54 4.54 0 01-1.18-1.47 4.89 4.89 0 01-1.2 1.61 5.16 5.16 0 01-1.86 1l-.85-1.37a4.48 4.48 0 001.64-.86zm.44 3h8.34v4.71h-8.34zm6.63 3.31v-1.92h-4.91v1.92zm1.71-3.88h-1.75v-7h1.75zm9.47-6.06a3 3 0 011.09.71h2.82v-1.64h1.74v7.29h-1.74V383h-2.84a3.08 3.08 0 01-1.08.71 3.87 3.87 0 01-1.37.25 3.54 3.54 0 01-1.69-.4 2.94 2.94 0 01-1.18-1.08 3 3 0 011.18-4.21 3.54 3.54 0 011.69-.4 3.72 3.72 0 011.38.29zm-2.81 3.62a1.32 1.32 0 00.58.54 1.84 1.84 0 00.86.19 1.79 1.79 0 00.84-.19 1.37 1.37 0 00.58-.54 1.6 1.6 0 00.25-.78 1.64 1.64 0 00-.21-.84 1.51 1.51 0 00-.58-.54 1.86 1.86 0 00-.84-.18 2 2 0 00-.86.18 1.44 1.44 0 00-.58.54 1.64 1.64 0 00-.21.84 1.6 1.6 0 00.17.78zm.44 4.13a3.3 3.3 0 011.49-.84 9.07 9.07 0 014.55 0 3.19 3.19 0 011.49.84 1.91 1.91 0 010 2.64 3.19 3.19 0 01-1.49.84 9.38 9.38 0 01-4.55 0 3.3 3.3 0 01-1.49-.84 1.94 1.94 0 010-2.64zm1.86 2.13a5 5 0 001.9.28A5.07 5.07 0 00287 388a.91.91 0 00.66-.81.94.94 0 00-.66-.84 6.72 6.72 0 00-3.84 0 .91.91 0 00-.66.84c.02.4.24.67.69.81zm2.42-7.09a3.23 3.23 0 01-.07.69h2.07v-1.39h-2.08a2.68 2.68 0 01.08.75zm5.79-1.57a3 3 0 011.18-1.08 3.49 3.49 0 011.69-.4 3.79 3.79 0 011.4.26 3.05 3.05 0 011.1.74h2.8v-1.67h1.74v7.36h-1.74V383h-2.8a3.12 3.12 0 01-1.09.75 3.55 3.55 0 01-1.39.27 3.51 3.51 0 01-1.69-.4 2.84 2.84 0 01-1.19-1.11 3.13 3.13 0 010-3.15zm1.45 2.42a1.36 1.36 0 00.58.56 1.84 1.84 0 00.86.19 1.75 1.75 0 00.83-.19 1.36 1.36 0 00.58-.56 1.6 1.6 0 00.22-.86 1.51 1.51 0 00-.22-.83 1.4 1.4 0 00-.58-.55 1.75 1.75 0 00-.83-.19 1.84 1.84 0 00-.86.19 1.44 1.44 0 00-.58.54 1.64 1.64 0 00-.21.84 1.69 1.69 0 00.21.86zm8.46 7.87h-1.74v-3.15h-6.81v-1.37h8.55zm-1.74-8.05v-1.31h-2.06a3.06 3.06 0 01.06.63 3.14 3.14 0 01-.07.68zm17.64 4.49h-4.82v3.58h-1.73v-3.58h-4.79v-1.43h11.34zm-8.63-4a4.4 4.4 0 001.43-.95 2.28 2.28 0 00.63-1.12h-3.75v-1.37h3.77v-1.42h1.73v1.42h3.78V380h-3.73a2.25 2.25 0 00.61 1.11 4.31 4.31 0 001.42 1 7.21 7.21 0 002.14.54L316 384a7.33 7.33 0 01-2.67-.76 5 5 0 01-1.77-1.47 4.82 4.82 0 01-1.77 1.47 7.76 7.76 0 01-2.7.76l-.63-1.36a7.21 7.21 0 002.12-.53zm20.56 1.7h-4.78v.78h3.43v3h-6.93v.69h7.26v1.28h-9v-3.14h6.92v-.62h-6.93v-1.24h3.48v-.78h-4.77v-1.27h11.29zm-8.05-3.36a2.27 2.27 0 001.31-1h-3.48v-1.25h3.7v-1h1.73v1h3.73v1.29h-3.52a2.3 2.3 0 001.31 1 9.37 9.37 0 002.82.46l-.5 1.29a10.42 10.42 0 01-2.91-.51 4 4 0 01-1.8-1.13 3.9 3.9 0 01-1.79 1.13 10.5 10.5 0 01-2.92.51l-.48-1.29a9.17 9.17 0 002.8-.5z"/></g></g><g id="그룹_329-3" data-name="그룹 329-3"><path id="선_58-3" data-name="선 58-3" class="cls-7" d="M211.03 406.65h8"/><g id="Image_Classifier_등_" data-name="Image Classifier 등" class="cls-5"><g class="cls-5"><path class="cls-4" d="M225.17 410.42h-1.76v-8.49h1.76zm1.27-6.37h1.66v1.12h.07a1.7 1.7 0 01.67-.88 1.88 1.88 0 011.1-.32 1.93 1.93 0 011.11.32 1.55 1.55 0 01.62.88h.06a1.64 1.64 0 01.71-.87 2.22 2.22 0 011.21-.33 2.12 2.12 0 011 .26 1.67 1.67 0 01.7.74 2.52 2.52 0 01.26 1.17v4.28h-1.74v-3.94a1.05 1.05 0 00-.27-.8 1 1 0 00-.72-.28.94.94 0 00-.76.31 1.15 1.15 0 00-.28.82v3.89h-1.68v-4a1 1 0 00-.27-.75.94.94 0 00-.72-.28 1 1 0 00-.53.15 1 1 0 00-.38.42 1.39 1.39 0 00-.13.63v3.82h-1.74zm10.79 3.15a3.2 3.2 0 011.7-.52c.43 0 1-.06 1.59-.08v-.52a.82.82 0 00-.27-.62 1.2 1.2 0 00-.75-.22 1.22 1.22 0 00-.72.19.8.8 0 00-.34.51h-1.65a1.85 1.85 0 01.39-1 2.28 2.28 0 01.94-.7 3.64 3.64 0 011.42-.26 3.9 3.9 0 011.35.23 2.15 2.15 0 011 .71 1.93 1.93 0 01.37 1.22v4.29h-1.66v-.88a1.78 1.78 0 01-.71.73 2.2 2.2 0 01-1.15.26 2.4 2.4 0 01-1.1-.21 1.68 1.68 0 01-.75-.64 1.92 1.92 0 01-.27-1 1.62 1.62 0 01.61-1.49zm1.26 1.94a1.2 1.2 0 00.69.2 1.41 1.41 0 00.69-.16 1.19 1.19 0 00.48-.43 1.14 1.14 0 00.17-.61v-.46c-.53 0-1 .05-1.3.08a1.3 1.3 0 00-.73.25.72.72 0 00-.26.58.65.65 0 00.26.55zm6.3 3.55a2.29 2.29 0 01-1-.7 1.81 1.81 0 01-.42-1.05h1.71a.8.8 0 00.4.56 1.82 1.82 0 00.87.18 1.56 1.56 0 001-.29 1.22 1.22 0 00.36-.94v-1.16h-.09a1.63 1.63 0 01-.65.74 2 2 0 01-1.16.29 2.49 2.49 0 01-1.33-.34 2.32 2.32 0 01-.92-1.05 4 4 0 01-.34-1.74 4.06 4.06 0 01.34-1.76 2.53 2.53 0 01.94-1.09 2.38 2.38 0 011.31-.37 1.84 1.84 0 011.16.34 2 2 0 01.65.81h.07v-1.07h1.73v6.44a2.22 2.22 0 01-.4 1.34 2.39 2.39 0 01-1.08.83 4.47 4.47 0 01-1.62.28 4.34 4.34 0 01-1.53-.25zm.54-4.16a1.27 1.27 0 002 0 2.14 2.14 0 00.36-1.32 2.32 2.32 0 00-.36-1.37 1.17 1.17 0 00-1-.5 1.14 1.14 0 00-1 .51 2.31 2.31 0 00-.35 1.34 2.26 2.26 0 00.35 1.34zm6.5 1.61a2.67 2.67 0 01-1.09-1.14 4.23 4.23 0 010-3.46 2.88 2.88 0 011.08-1.16 3.14 3.14 0 011.62-.41 3.2 3.2 0 011.53.36 2.56 2.56 0 011.07 1.09 3.68 3.68 0 01.39 1.77v.5h-4.35a1.77 1.77 0 00.18.82 1.21 1.21 0 00.51.54 1.49 1.49 0 00.77.19 1.6 1.6 0 00.75-.17 1 1 0 00.44-.47h1.65a2.18 2.18 0 01-.51 1 2.5 2.5 0 01-1 .68 3.77 3.77 0 01-1.38.24 3.32 3.32 0 01-1.66-.38zm2.95-3.54a1.41 1.41 0 00-.16-.69 1.18 1.18 0 00-.47-.47 1.45 1.45 0 00-1.38 0 1.26 1.26 0 00-.49.48 1.38 1.38 0 00-.2.67zm10.36-2.82a2 2 0 00-1.24-.41 2 2 0 00-1.93 1.3 3.79 3.79 0 00-.27 1.5 3.87 3.87 0 00.28 1.53 2.08 2.08 0 00.76.95 2.15 2.15 0 001.14.33 2.1 2.1 0 001.24-.39 1.64 1.64 0 00.63-1.07h1.78A3.4 3.4 0 01267 409a3.25 3.25 0 01-1.27 1.1 3.86 3.86 0 01-1.83.41 4.06 4.06 0 01-2-.51 3.66 3.66 0 01-1.4-1.51 5 5 0 01-.51-2.34 5 5 0 01.51-2.33 3.75 3.75 0 011.41-1.51 4.06 4.06 0 012-.52 4.25 4.25 0 011.77.37 3.16 3.16 0 011.29 1.05 3.52 3.52 0 01.61 1.66h-1.78a1.67 1.67 0 00-.66-1.09zm5.2 6.64h-1.74v-8.49h1.74zm1.58-3.22a3.24 3.24 0 011.71-.52c.43 0 1-.06 1.58-.08v-.52a.75.75 0 00-.27-.62 1.16 1.16 0 00-.75-.22 1.19 1.19 0 00-.71.19.76.76 0 00-.34.51h-1.66a2 2 0 01.39-1 2.35 2.35 0 01.94-.7 3.69 3.69 0 011.43-.26 3.85 3.85 0 011.34.23 2.1 2.1 0 011 .71 1.93 1.93 0 01.37 1.22v4.29h-1.64v-.88a1.87 1.87 0 01-.72.73 2.15 2.15 0 01-1.15.26 2.43 2.43 0 01-1.1-.21 1.79 1.79 0 01-.75-.64 1.92 1.92 0 01-.27-1 1.67 1.67 0 01.6-1.49zm1.27 1.94a1.17 1.17 0 00.68.2 1.47 1.47 0 00.7-.16 1.22 1.22 0 00.47-.43 1.14 1.14 0 00.17-.61v-.46c-.52 0-1 .05-1.3.08a1.24 1.24 0 00-.72.25.69.69 0 00-.26.58.63.63 0 00.26.55zm8.25-3.73a1.22 1.22 0 00-.71-.21 1.41 1.41 0 00-.71.19.54.54 0 00-.28.46.52.52 0 00.19.39 1.44 1.44 0 00.63.25l1.14.24a2.77 2.77 0 011.38.61 1.45 1.45 0 01.46 1.11 1.74 1.74 0 01-.36 1.09 2.16 2.16 0 01-1 .74 3.74 3.74 0 01-1.47.27 4 4 0 01-1.47-.25 2.23 2.23 0 01-1-.7 2.17 2.17 0 01-.43-1.07h1.75a.8.8 0 00.35.56 1.36 1.36 0 00.78.2 1.4 1.4 0 00.76-.18.56.56 0 00.29-.49.48.48 0 00-.21-.4 1.59 1.59 0 00-.66-.25l-1-.21a2.66 2.66 0 01-1.37-.64 1.58 1.58 0 01-.5-1.12 1.73 1.73 0 01.33-1.05 2.07 2.07 0 01.93-.69 3.88 3.88 0 011.42-.24 3.71 3.71 0 011.39.24 2.25 2.25 0 01.93.68 2 2 0 01.38 1.05h-1.63a.81.81 0 00-.31-.58zm6.34 0a1.19 1.19 0 00-.7-.21 1.38 1.38 0 00-.71.19.52.52 0 00-.28.46.49.49 0 00.19.39 1.44 1.44 0 00.63.25l1.14.24a2.77 2.77 0 011.38.61 1.49 1.49 0 01.46 1.11 1.74 1.74 0 01-.36 1.09 2.16 2.16 0 01-1 .74 3.79 3.79 0 01-1.48.27 4 4 0 01-1.46-.25 2.1 2.1 0 01-1.41-1.77h1.75a.77.77 0 00.35.56 1.35 1.35 0 00.77.2 1.44 1.44 0 00.77-.18.56.56 0 00.29-.49.48.48 0 00-.21-.4 1.59 1.59 0 00-.66-.25l-1.05-.21a2.62 2.62 0 01-1.37-.64 1.54 1.54 0 01-.46-1.17 1.73 1.73 0 01.33-1.05 2.07 2.07 0 01.93-.69 3.88 3.88 0 011.42-.24 3.62 3.62 0 011.38.24 2.13 2.13 0 01.93.68 1.92 1.92 0 01.39 1.05h-1.63a.79.79 0 00-.33-.53zm3.45-2.31a1 1 0 01-.35-.32.87.87 0 01-.13-.44.84.84 0 01.13-.44.93.93 0 01.35-.33 1 1 0 01.94 0 .83.83 0 01.34.33.76.76 0 01.13.44.78.78 0 01-.13.44.88.88 0 01-.34.32 1 1 0 01-.94 0zm-.39.95h1.73v6.37h-1.73zm6.34 1.3h-1.26v5.07h-1.74v-5.07h-.9v-1.3h.9v-.48a2 2 0 01.56-1.51 2.14 2.14 0 011.53-.53 4.58 4.58 0 011 .11V403h-.53a1 1 0 00-.64.18.7.7 0 00-.21.57v.38h1.26zm1.3-2.25a1 1 0 01-.35-.32.78.78 0 01-.13-.44.76.76 0 01.13-.44.93.93 0 01.35-.33.94.94 0 01.47-.12 1 1 0 01.47.12.9.9 0 01.34.33.76.76 0 01.13.44.78.78 0 01-.13.44 1 1 0 01-.34.32 1 1 0 01-.47.12.94.94 0 01-.47-.12zm-.4.95h1.74v6.37h-1.74zm4.17 6.09a2.59 2.59 0 01-1.08-1.14 4.13 4.13 0 010-3.46 2.85 2.85 0 011.07-1.16 3.42 3.42 0 013.15-.05 2.56 2.56 0 011.07 1.09 3.68 3.68 0 01.39 1.77v.5h-4.35a1.77 1.77 0 00.18.82 1.21 1.21 0 00.51.54 1.49 1.49 0 00.77.19 1.6 1.6 0 00.75-.17 1 1 0 00.44-.47h1.65a2.26 2.26 0 01-.5 1 2.61 2.61 0 01-1 .68 3.77 3.77 0 01-1.38.24 3.34 3.34 0 01-1.67-.38zm3-3.54a1.41 1.41 0 00-.17-.69 1.18 1.18 0 00-.47-.47 1.37 1.37 0 00-.68-.17 1.4 1.4 0 00-.7.18 1.26 1.26 0 00-.49.48 1.38 1.38 0 00-.2.67zm2.57-2.55h1.67v1.1h.07a1.73 1.73 0 01.58-.88 1.53 1.53 0 011-.31 2.38 2.38 0 01.55.06v1.54l-.34-.06h-.4a1.48 1.48 0 00-.7.17 1.23 1.23 0 00-.49.47 1.41 1.41 0 00-.17.69v3.62h-1.73zm16.58 2.87h-9.75v-1.21h9.75zm-8.18 1.55a2.72 2.72 0 011.28-.67 7.83 7.83 0 012-.23 7.67 7.67 0 012 .22 2.87 2.87 0 011.28.67 1.45 1.45 0 01.45 1.07 1.47 1.47 0 01-.45 1.07 3 3 0 01-1.28.67 7.67 7.67 0 01-2 .22 7.86 7.86 0 01-2-.22 2.92 2.92 0 01-1.28-.67 1.47 1.47 0 01-.45-1.07 1.41 1.41 0 01.45-1.06zm-.38-7.36h7.39v1.21h-5.9v1.45h6V405h-7.45zm3.67 9.25c1.47 0 2.21-.28 2.21-.83 0-.27-.19-.48-.57-.62a4.94 4.94 0 00-1.64-.2 5.06 5.06 0 00-1.67.2c-.37.14-.55.35-.55.62 0 .55.71.83 2.22.83z"/></g></g></g></g><g id="그룹_404" data-name="그룹 404"><g id="커스텀_OCR_사용_및_결과에_대한_검증_네트워크" data-name="커스텀 OCR 사용 및 결과에 대한 검증 네트워크" class="cls-5"><g class="cls-5"><path class="cls-6" d="M226 489.16a8.12 8.12 0 01-1.68 3.08 11.16 11.16 0 01-3.36 2.55l-1-1.31a11.39 11.39 0 002.41-1.65 6.91 6.91 0 001.5-1.92l-3.61.32-.23-1.47 4.39-.26a9.8 9.8 0 00.28-1.68h-4v-1.4h5.74a13.85 13.85 0 01-.44 3.74zm.45-.14h2.39v-4.79h1.74v12.44h-1.74v-6.23h-2.39zm5.62 4.69h11.39v1.43h-11.39zm7.08-6a4.72 4.72 0 001.54 1.54 6.17 6.17 0 002.36.89l-.76 1.44a7 7 0 01-2.79-1.17 5.73 5.73 0 01-1.8-2.07 6 6 0 01-1.82 2.07 7 7 0 01-2.77 1.17l-.75-1.44a6.1 6.1 0 002.33-.9 4.71 4.71 0 001.53-1.55 3.45 3.45 0 00.54-1.81V485h1.86v.9a3.51 3.51 0 00.53 1.8zm5.47-2.77h5.69v1.37h-3.95v1h3.57v1.34h-3.57v1.06c1 0 1.79 0 2.44-.07a19 19 0 002-.23l.15 1.4a19.74 19.74 0 01-2.3.26c-.78 0-1.78.06-3 .06h-1zm1.53 7.11h8.37v4.49h-8.37zm6.66 3.09v-1.69h-4.91v1.69zm1.71-3.62h-1.74v-2.9h-2.13v-1.42h2.13v-3h1.74zm13.48 1.67a4.2 4.2 0 01-1.65 1.76 5 5 0 01-4.75 0 4.22 4.22 0 01-1.66-1.76 6.49 6.49 0 010-5.45 4.19 4.19 0 011.66-1.75 4.93 4.93 0 014.75 0 4.17 4.17 0 011.65 1.75 6.49 6.49 0 010 5.45zm-6.25-.95a2.36 2.36 0 00.88 1.11 2.4 2.4 0 001.35.38 2.36 2.36 0 001.33-.38 2.44 2.44 0 00.89-1.11 5.24 5.24 0 000-3.55 2.44 2.44 0 00-.89-1.11 2.36 2.36 0 00-1.33-.38 2.4 2.4 0 00-1.35.38 2.36 2.36 0 00-.88 1.11 5.08 5.08 0 000 3.55zm14.11-4.56a2.21 2.21 0 00-1.46-.48 2.38 2.38 0 00-1.35.39 2.46 2.46 0 00-.89 1.12 5.18 5.18 0 000 3.53 2.5 2.5 0 00.89 1.11 2.39 2.39 0 001.34.38 2.29 2.29 0 001.44-.45 1.91 1.91 0 00.73-1.24h2.08a3.94 3.94 0 01-.66 1.74 4 4 0 01-1.48 1.28 4.59 4.59 0 01-2.14.48A4.64 4.64 0 01272 495a4.12 4.12 0 01-1.64-1.76 6.49 6.49 0 010-5.45A4.17 4.17 0 01272 486a4.54 4.54 0 012.36-.61 4.82 4.82 0 012.07.43 3.75 3.75 0 011.5 1.23 4.11 4.11 0 01.71 1.92h-2.08a1.93 1.93 0 00-.7-1.29zm4.08-2.16h3.88a4.34 4.34 0 011.91.39 2.76 2.76 0 011.21 1.13 3.32 3.32 0 01.42 1.7 3.22 3.22 0 01-.45 1.74 2.75 2.75 0 01-1.3 1.09l2.11 3.85h-2.27l-1.9-3.52H282v3.52h-2.05zm3.5 4.71c1.21 0 1.81-.49 1.8-1.49a1.39 1.39 0 00-.44-1.14 2 2 0 00-1.36-.4H282v3zm12.72-.97a5.86 5.86 0 001 1.92 4.58 4.58 0 001.62 1.31l-1 1.4a5 5 0 01-1.66-1.36 6.85 6.85 0 01-1.09-2 7.35 7.35 0 01-1.15 2.19 5.18 5.18 0 01-1.76 1.44l-1.12-1.45a4.62 4.62 0 001.72-1.35 6.25 6.25 0 001-2 7.83 7.83 0 00.34-2.31v-1.86h1.75v1.86a7.77 7.77 0 00.35 2.21zm3.17-5h1.75V489h1.83v1.48h-1.83v6.16h-1.75zm15.24 7.26h-11.35v-1.39h2.56v-1.49a2.83 2.83 0 01-1.06-.77 1.67 1.67 0 01-.36-1.05 1.73 1.73 0 01.55-1.29 3.74 3.74 0 011.58-.83 10.08 10.08 0 014.8 0 3.81 3.81 0 011.58.83 1.73 1.73 0 01.55 1.29 1.64 1.64 0 01-.38 1.06 2.73 2.73 0 01-1.08.77v1.48h2.61zm-9.57 1.67a3.41 3.41 0 011.5-.76 9.48 9.48 0 012.34-.25 9.26 9.26 0 012.32.25 3.32 3.32 0 011.49.76 1.67 1.67 0 01.53 1.21 1.7 1.7 0 01-.53 1.24 3.32 3.32 0 01-1.49.76 9.22 9.22 0 01-2.32.26 9.33 9.33 0 01-2.34-.26 3.41 3.41 0 01-1.5-.76 1.69 1.69 0 01-.52-1.24 1.66 1.66 0 01.52-1.21zm1.82-5.61a5.69 5.69 0 002 .26 6.45 6.45 0 002.06-.25c.47-.18.71-.43.71-.77s-.24-.61-.71-.8a7.69 7.69 0 00-4 0c-.47.19-.7.45-.69.8s.21.59.67.76zm2 7.78a5.93 5.93 0 001.93-.24q.65-.24.66-.72c0-.6-.87-.9-2.59-.91a6.26 6.26 0 00-1.94.23c-.43.15-.64.38-.64.68q.05.96 2.64.96zm1.34-5.23v-1.05a10.11 10.11 0 01-1.32.07 12 12 0 01-1.36-.07v1.05zm14.84.09h-6.1V485h6.1zm-3.38 4.7a4.11 4.11 0 001.36-.75 1.83 1.83 0 00.59-.9h-3.49V492h3.54v-1h1.75v1h3.54v1.3h-3.48a1.69 1.69 0 00.58.88 4.5 4.5 0 001.34.75 8.13 8.13 0 002 .43l-.59 1.32a7.81 7.81 0 01-2.6-.65 4.47 4.47 0 01-1.7-1.27 4.39 4.39 0 01-1.7 1.27 8.45 8.45 0 01-2.62.65l-.61-1.32a7.66 7.66 0 002.07-.44zm1.65-6.07v-2.51h-2.63v2.51zm3.69-4.62h1.73v7.06h-1.73z"/></g><g class="cls-5"><path class="cls-6" d="M199.9 510.49h-1.74v-.95h-2.84v-1.33h2.84v-1.09h-2.7a5.21 5.21 0 01-1.9 2.3 9.54 9.54 0 01-3.41 1.36l-.59-1.42a7.37 7.37 0 003.14-1.24 3.07 3.07 0 001.26-2h-3.7v-1.41h5.63a6.23 6.23 0 01-.08 1.08h2.35v-1.56h1.74zm-8.27.46h8.27v3.4h-6.51v.82h6.78v1.38h-8.53v-3.49h6.51v-.75h-6.52zm11.92 1.76v-3.66h1.72v3.6c1.35 0 2.55-.15 3.61-.28l.11 1.3a31.34 31.34 0 01-3.34.36c-1.17.07-2.38.1-3.62.1h-.6l-.17-1.39c.81 0 1.57-.01 2.29-.03zm4.82-6.23v.18c0 .83 0 1.59-.07 2.27a23.09 23.09 0 01-.27 2.32l-1.72-.14c.13-.8.21-1.52.25-2.17s.07-1.33.08-2.07h-4.72v-1.39h6.45zm1.1-2.25h1.76v5h1.7v1.45h-1.7v6h-1.76zm4.3 3a3.61 3.61 0 01.95-1.57 2.16 2.16 0 012.75-.09 3 3 0 01.94 1.28 6.27 6.27 0 01.45 2h1v-4.43h1.64v11.68h-1.64v-5.88h-1a7 7 0 01-.43 2.1 3.24 3.24 0 01-.95 1.35 2.12 2.12 0 01-2.78-.08 3.55 3.55 0 01-.95-1.57 8.86 8.86 0 010-4.79zm1.56 4.53c.19.48.46.71.82.7s.64-.22.84-.69a5.73 5.73 0 00.29-2.1 6.11 6.11 0 00-.29-2.18c-.19-.48-.47-.73-.84-.73s-.63.24-.82.73a5.91 5.91 0 00-.27 2.13 6 6 0 00.27 2.14zm8.79 4.91h-1.67v-12.44h1.67zm4.61-11h4.64v1.41h-2.89v5.32q1 0 1.8-.09a16.83 16.83 0 001.68-.22l.12 1.43a16.73 16.73 0 01-2.07.26c-.68.05-1.48.07-2.41.08h-.87zm10.41 11h-1.66v-6.24h-1.2v5.64h-1.6v-11.63h1.6V509h1.2v-4.8h1.66zm1.2-11.12h2.83v-1.33h1.74v1.33h2.81v1.38h-7.38zm1 3a2.63 2.63 0 011.1-.85 4 4 0 011.6-.3 4 4 0 011.59.3 2.57 2.57 0 011.08.85 2.24 2.24 0 010 2.51 2.5 2.5 0 01-1.09.83 4 4 0 01-1.59.3 4 4 0 01-1.6-.3 2.61 2.61 0 01-1.1-.84 2.06 2.06 0 01-.39-1.24 2.14 2.14 0 01.39-1.3zm.81 4.31h1.74v2.24h6.78v1.4h-8.52zm.88-2.27a1.7 1.7 0 001 .27 1.77 1.77 0 001-.27.91.91 0 00.38-.78.94.94 0 00-.38-.79 1.7 1.7 0 00-1-.29 1.64 1.64 0 00-1 .29.9.9 0 00-.37.79.87.87 0 00.34.74zm7.19-2.49h1.68v1.42h-1.68v4h-1.75v-9.28h1.75zm10.96-.24a6.25 6.25 0 01-1.94 2.2 9.85 9.85 0 01-3.1 1.42l-.69-1.35a8 8 0 003.15-1.53 3.72 3.72 0 001.37-2.25h-3.85V505h5.72a6.28 6.28 0 01-.66 2.86zm-3.55 3.84h8.24v4.82h-8.24zm6.52 3.46v-2.1h-4.81v2.1zm-2.23-8h2.22v-2.95h1.73v7h-1.73v-2.59h-2.22zm16.77 4.21h-11.34V510h11.34zm-8.89-3.62a4.17 4.17 0 001.32-.69 1.91 1.91 0 00.63-.86h-3.37v-1.39h9.29v1.39h-3.4a2 2 0 00.63.86 4.45 4.45 0 001.33.69 8.67 8.67 0 002 .39l-.61 1.37a7.83 7.83 0 01-2.9-.78 3.82 3.82 0 01-1.69-1.54 3.84 3.84 0 01-1.68 1.54 7.83 7.83 0 01-2.9.78l-.58-1.37a8.4 8.4 0 001.93-.39zm-.63 5.38a3.43 3.43 0 011.5-.79 8.85 8.85 0 012.34-.27 8.67 8.67 0 012.31.27 3.34 3.34 0 011.49.79 1.74 1.74 0 010 2.5 3.33 3.33 0 01-1.49.78 8.7 8.7 0 01-2.31.26 8.89 8.89 0 01-2.34-.26 3.43 3.43 0 01-1.5-.78 1.74 1.74 0 010-2.5zm1.89 2a6.28 6.28 0 001.95.23c1.71 0 2.57-.31 2.58-.94s-.87-1-2.58-1a5.94 5.94 0 00-1.95.24c-.43.15-.64.39-.64.72s.21.55.64.71zm13.56-2.93c.61 0 1.19 0 1.73-.1a13.71 13.71 0 001.63-.25l.24 1.46a16.2 16.2 0 01-2 .31c-.66 0-1.4.07-2.24.07h-1.11v-8.27h1.75zm1.75-4h2.49v-3.7h1.65v11.66h-1.65v-6.55h-2.49zm5.17-3.94h1.64v12.44h-1.64zm2.81 9.54h11.39v1.43h-11.39zm10.15-1.8h-8.81v-6.89h8.71v1.41h-6.93v1.31h6.64v1.37h-6.64v1.42h7zm6.13-1.52a36.12 36.12 0 003.73-.3l.1 1.27a31.25 31.25 0 01-3.32.39v4.47h-1.77v-4.38h-2.9l-.21-1.42c1.61.04 3.07.02 4.37-.03zm-3.09-4.5a2.67 2.67 0 011.14-.91 4.27 4.27 0 013.29 0 2.8 2.8 0 011.14.91 2.17 2.17 0 01.42 1.32 2.28 2.28 0 01-.41 1.33 2.73 2.73 0 01-1.15.89 4.07 4.07 0 01-1.64.32 4.16 4.16 0 01-1.66-.32 2.66 2.66 0 01-1.13-.89 2.28 2.28 0 01-.41-1.33 2.22 2.22 0 01.41-1.3zm1.65 2.21a1.9 1.9 0 001.14.32 1.81 1.81 0 001.11-.32 1 1 0 00.43-.89 1.06 1.06 0 00-.43-.9 1.75 1.75 0 00-1.11-.34 1.84 1.84 0 00-1.14.34 1.08 1.08 0 00-.42.9 1.05 1.05 0 00.42.89zm7.74 8.48h-1.77v-2.74h-2.53v-1.32h2.53v-8.36h1.77zm1.34-2.91h11.35v1.42h-11.35zm10.19-7v2c0 .51-.07 1.17-.15 1.87s-.21 1.48-.39 2.32l-1.74-.16a22.61 22.61 0 00.48-2.79l-7.22.35-.21-1.39 7.52-.28v-2.06h-7.18v-1.39h8.89z"/></g></g><g id="그룹_329-4" data-name="그룹 329-4"><path id="패스_390" data-name="패스 390" class="cls-7" d="M246 533.65h8"/><g id="Gridone_OCR" data-name="Gridone OCR" class="cls-5"><g class="cls-5"><path class="cls-4" d="M263.81 530.72a2 2 0 00-1.15-.35 2.14 2.14 0 00-1.16.34 2.1 2.1 0 00-.77.95 3.79 3.79 0 00-.28 1.5 3.86 3.86 0 00.27 1.52 2.13 2.13 0 00.77 1 2.18 2.18 0 001.18.34 2.34 2.34 0 001-.22 1.68 1.68 0 00.68-.61 2 2 0 00.25-.93h-1.84v-1.33h3.53V534a3.74 3.74 0 01-.46 1.9 3.13 3.13 0 01-1.3 1.25 4.06 4.06 0 01-1.9.43 4 4 0 01-2.09-.53 3.56 3.56 0 01-1.41-1.51 5 5 0 01-.5-2.3 4.93 4.93 0 01.52-2.34 3.62 3.62 0 011.41-1.51 4 4 0 012-.53 4.09 4.09 0 011.73.37 3.37 3.37 0 011.28 1 3.1 3.1 0 01.61 1.47h-1.78a1.77 1.77 0 00-.59-.98zm3.65.33h1.67v1.1h.07a1.73 1.73 0 01.58-.88 1.55 1.55 0 011-.31 2.38 2.38 0 01.55.06v1.54l-.34-.06h-.4a1.48 1.48 0 00-.7.17 1.15 1.15 0 00-.48.47 1.31 1.31 0 00-.18.69v3.62h-1.73zm4.95-.95a1 1 0 01-.35-.32.87.87 0 01-.13-.44.84.84 0 01.13-.44.93.93 0 01.35-.33 1 1 0 01.94 0 .9.9 0 01.34.33.76.76 0 01.13.44.78.78 0 01-.13.44 1 1 0 01-.34.32 1 1 0 01-.94 0zm-.4.95h1.74v6.37H272zm3.99 6.09a2.63 2.63 0 01-.93-1.13 4.14 4.14 0 01-.34-1.77 4.2 4.2 0 01.35-1.79 2.57 2.57 0 01.93-1.11 2.47 2.47 0 011.31-.37 1.82 1.82 0 011.16.34 2.13 2.13 0 01.65.81h.05v-3.19h1.74v8.49h-1.71v-1h-.08a2.2 2.2 0 01-.66.8 1.93 1.93 0 01-1.15.32 2.4 2.4 0 01-1.32-.4zm.86-1.53a1.22 1.22 0 001.73.29 1.45 1.45 0 00.47-.67 2.76 2.76 0 00.16-1 2.3 2.3 0 00-.36-1.37 1.24 1.24 0 00-2 0 2.37 2.37 0 00-.35 1.35 2.52 2.52 0 00.35 1.4zm6.54 1.52a2.75 2.75 0 01-1.09-1.15 3.83 3.83 0 01-.38-1.73 3.79 3.79 0 01.38-1.72 2.75 2.75 0 011.09-1.15 3.26 3.26 0 011.65-.41 3.29 3.29 0 011.66.41 2.81 2.81 0 011.09 1.15 3.79 3.79 0 01.38 1.72 3.83 3.83 0 01-.38 1.73 2.81 2.81 0 01-1.09 1.15 3.2 3.2 0 01-1.66.42 3.16 3.16 0 01-1.65-.42zm.45-1.87a1.56 1.56 0 00.46.69 1.21 1.21 0 00.75.25 1.18 1.18 0 00.74-.25 1.61 1.61 0 00.46-.68 3 3 0 00.15-1 3.24 3.24 0 00-.15-1 1.46 1.46 0 00-.46-.7 1.11 1.11 0 00-.74-.25 1.15 1.15 0 00-.75.25 1.56 1.56 0 00-.46.69 2.89 2.89 0 00-.16 1 2.86 2.86 0 00.16 1zm7.04 2.16h-1.74v-6.37h1.65v1.12h.07a1.84 1.84 0 01.72-.88 2.18 2.18 0 011.19-.32 2.27 2.27 0 011.16.29 1.94 1.94 0 01.77.83 2.8 2.8 0 01.27 1.27v4.06h-1.73v-3.75a1.29 1.29 0 00-.31-.93 1.08 1.08 0 00-.84-.33 1.17 1.17 0 00-.88.35 1.38 1.38 0 00-.33 1zm6.52-.28a2.61 2.61 0 01-1.09-1.14 4.13 4.13 0 010-3.46 2.81 2.81 0 011.08-1.16 3.14 3.14 0 011.6-.38 3.2 3.2 0 011.53.36 2.54 2.54 0 011.06 1.09 3.68 3.68 0 01.39 1.77v.5h-4.34a1.9 1.9 0 00.17.82 1.21 1.21 0 00.51.54 1.5 1.5 0 00.78.19 1.53 1.53 0 00.74-.17 1 1 0 00.44-.47H302a2.28 2.28 0 01-.51 1 2.5 2.5 0 01-1 .68 3.77 3.77 0 01-1.38.24 3.32 3.32 0 01-1.7-.41zm2.95-3.54a1.41 1.41 0 00-.16-.69 1.25 1.25 0 00-.47-.47 1.4 1.4 0 00-.68-.17 1.38 1.38 0 00-.7.18 1.35 1.35 0 00-.5.48 1.38 1.38 0 00-.19.67zm12.55 1.91a3.7 3.7 0 01-1.42 1.51 4.32 4.32 0 01-4.07 0 3.62 3.62 0 01-1.41-1.51 4.93 4.93 0 01-.52-2.34 4.86 4.86 0 01.52-2.33 3.62 3.62 0 011.41-1.51 4.24 4.24 0 014.07 0 3.7 3.7 0 011.42 1.51 5.6 5.6 0 010 4.67zm-5.36-.82a2.11 2.11 0 00.76 1 2.18 2.18 0 001.15.33 2.1 2.1 0 001.15-.34 2 2 0 00.75-.95 4.41 4.41 0 000-3 2.06 2.06 0 00-.75-.95 2.17 2.17 0 00-2.3 0 2.08 2.08 0 00-.76.95 4.41 4.41 0 000 3zm12.09-3.91a2 2 0 00-1.25-.41 2.14 2.14 0 00-1.16.34 2.11 2.11 0 00-.76 1 3.79 3.79 0 00-.27 1.5 3.88 3.88 0 00.27 1.53 2.15 2.15 0 00.76.95 2.18 2.18 0 001.15.33 2.05 2.05 0 001.23-.39 1.64 1.64 0 00.63-1.07H322a3.18 3.18 0 01-.57 1.49 3.29 3.29 0 01-1.26 1.1 3.87 3.87 0 01-1.84.41 4 4 0 01-2-.51 3.62 3.62 0 01-1.41-1.51 5 5 0 01-.51-2.34 5 5 0 01.52-2.33 3.62 3.62 0 011.41-1.51 4 4 0 012-.52 4.18 4.18 0 011.77.37 3.16 3.16 0 011.29 1.05 3.52 3.52 0 01.61 1.66h-1.78a1.7 1.7 0 00-.59-1.14zm3.49-1.85h3.33a3.78 3.78 0 011.64.34 2.44 2.44 0 011 1 2.85 2.85 0 01.36 1.46 2.76 2.76 0 01-.39 1.49 2.43 2.43 0 01-1.11.93l1.8 3.3h-1.95l-1.62-3h-1.34v3h-1.76zm3 4.05c1 0 1.56-.43 1.55-1.28a1.21 1.21 0 00-.38-1 1.77 1.77 0 00-1.17-.35h-1.24V533z"/></g></g></g></g></g></g></svg>