<svg id="hypai" xmlns="http://www.w3.org/2000/svg" width="66.049" height="24" viewBox="0 0 66.049 24">
  <path id="패스_29" data-name="패스 29" d="M14.5.36v17.9H10.891V10.64H3.63v7.623H0V.36H3.63v7.1h7.26V.36Z" transform="translate(0 -0.104)" fill="#fff"/>
  <path id="패스_30" data-name="패스 30" d="M37.456,7.2,29.762,26.637H24.185V23.568H27.46l1.229-3.126L23.29,7.2h3.552l3.6,8.823L33.932,7.2Z" transform="translate(-7.215 -2.637)" fill="#fff"/>
  <path id="패스_31" data-name="패스 31" d="M58.429,6.37a5.906,5.906,0,0,1-6.216,6.01H49.372v5.882H45.72V.36h6.493A5.9,5.9,0,0,1,58.429,6.37Zm-3.374,0a2.607,2.607,0,0,0-2.842-2.735H49.372v5.47h2.842A2.607,2.607,0,0,0,55.055,6.37Z" transform="translate(-14.139 -0.104)" fill="#fff"/>
  <path id="패스_32" data-name="패스 32" d="M93.63.36v17.9H90V.36Z" transform="translate(-27.582 -0.104)" fill="#fff"/>
  <path id="패스_33" data-name="패스 33" d="M71.835,0l-8.7,18.158H80.559ZM73.6,14.833H68.624L71.566,8.61l.242-.533h0l3.311,6.756Z" transform="translate(-19.803)" fill="#fff"/>
</svg>
