<svg xmlns="http://www.w3.org/2000/svg" viewBox="0 0 417.32 103.81"><defs><style>.cls-1,.cls-3{fill:#fff;}.cls-2{fill:#040000;}.cls-3{stroke:#fff;stroke-miterlimit:10;}</style></defs><g id="레이어_2" data-name="레이어 2"><g id="레이어_1-2" data-name="레이어 1"><rect class="cls-1" x="27.72" y="40.37" width="26.95" height="26.95"/><path class="cls-1" d="M105.83,95.87l7.3-10.67q6.06,6.61,13.5,6.62a17.11,17.11,0,0,0,8.22-1.76c2.17-1.16,3.24-2.77,3.24-4.82q0-5.2-7.15-5.21a48.11,48.11,0,0,0-5.77.52,48.45,48.45,0,0,1-5.77.52q-11.93,0-11.91-10.06a9.65,9.65,0,0,1,2-5.66,12.77,12.77,0,0,1,4.62-4.08q-8.46-6.47-8.46-18.35a21.64,21.64,0,0,1,5.83-15.5,19,19,0,0,1,14.34-6.12,19.89,19.89,0,0,1,11.14,2.94L141.46,18l8,8.58-5.56,4.76a24.43,24.43,0,0,1,2.87,12.11q0,10-5.15,15.94a16.46,16.46,0,0,1-13,6,24.37,24.37,0,0,1-3.32-.3l-1.9-.34A10.83,10.83,0,0,0,121,65.89c-1.41.79-2.11,1.59-2.11,2.44q0,2.19,3.18,2.19a23.43,23.43,0,0,0,4.8-.83,24.87,24.87,0,0,1,5.78-.82q16.84,0,16.85,16a16.42,16.42,0,0,1-6.76,13.9,26.42,26.42,0,0,1-16.29,5,30.76,30.76,0,0,1-20.59-7.94M117.41,43a13.27,13.27,0,0,0,2.4,8.3,7.76,7.76,0,0,0,6.49,3.13,7.29,7.29,0,0,0,6.28-3c1.47-2,2.2-4.82,2.2-8.38a11.72,11.72,0,0,0-2.36-7.44,7.36,7.36,0,0,0-6.12-3.05,8,8,0,0,0-6.42,2.94A11.31,11.31,0,0,0,117.41,43"/><path class="cls-1" d="M182.65,35.36a10.57,10.57,0,0,0-6.78-2.48c-2.67,0-5.05,1.44-7.13,4.3a17.44,17.44,0,0,0-3.12,10.5V80.86H154.05V22.54h11.57v5.38a15.35,15.35,0,0,1,12.88-6.41c3.94,0,6.95.71,9.05,2.13Z"/><path class="cls-1" d="M194.76,80.86V33.71h-6.41V22.54h18V80.86ZM200.66,0a6.07,6.07,0,0,1,4.75,2.3,8.29,8.29,0,0,1,2,5.56,8.25,8.25,0,0,1-2,5.55,6,6,0,0,1-9.51,0,8.25,8.25,0,0,1-2-5.55,8.29,8.29,0,0,1,2-5.56A6.08,6.08,0,0,1,200.66,0"/><path class="cls-1" d="M248.48,80.86V77.31a11.17,11.17,0,0,1-4.86,3.22,18.82,18.82,0,0,1-7.06,1.36q-10.34,0-16.27-7.71t-5.93-21.53q0-13.8,6.8-22.47t17.07-8.68a19.79,19.79,0,0,1,10.25,2.74V.79L260.05,1V80.86Zm0-44.31a11.24,11.24,0,0,0-7.72-3.46q-6.93,0-10.67,4.95t-3.74,14.2q0,18.08,14.87,18.07a9.82,9.82,0,0,0,4.09-1.16,7.52,7.52,0,0,0,3.17-2.36Z"/><path class="cls-1" d="M265.48,51.56q0-13.32,6.54-21.68a20.85,20.85,0,0,1,17.27-8.38q11.26,0,17.51,8.06t6.24,22q0,13.92-6.35,22.13t-17.4,8.2q-11.3,0-17.55-8.28t-6.26-22m12,0q0,19.17,11.82,19.17a9.76,9.76,0,0,0,8.59-5q3.17-5,3.17-14.19,0-18.9-11.76-18.89a9.8,9.8,0,0,0-8.62,5q-3.19,5-3.2,13.91"/><path class="cls-1" d="M351,80.86V47.18q0-7.44-2.43-10.87t-7.92-3.43a10.77,10.77,0,0,0-5.42,1.69,13.11,13.11,0,0,0-4.51,4.18V80.86H319.15V22.54h8.32L329.6,28q4.71-6.48,13.92-6.48,8.84,0,13.94,6.23t5.11,17.38V80.86Z"/><path class="cls-1" d="M416.34,55.84H380.92q.31,7,4.06,10.82t10.07,3.86c5.25,0,9.26-1.58,12-4.76l4.47,10.34q-6.07,5.79-18.16,5.79-11.31,0-17.87-7.8t-6.56-21.77q0-13.74,7.23-22.28t17.35-8.54q10.77,0,17.29,7.56t6.52,19.22a44.17,44.17,0,0,1-1,7.56M381.54,45.5h24.19q-1.19-12.61-12-12.62-9.84,0-12.23,12.62"/><path class="cls-2" d="M80.54,39.36H26.65v55h55v-55ZM79.41,92.13H28.88V41.6H79.41Z"/><path class="cls-1" d="M27.27,93.75V40H81V93.75Zm1-1H80V41H28.26Z"/><path class="cls-1" d="M81.53,39.49H26.77V94.25H81.53V39.49ZM28.76,92.26V41.47H79.54V92.26Z"/><path class="cls-3" d="M81.41,39.61V94.12H26.9V39.61H81.41M28.63,92.38h51v-51h-51v51m53-53h-55v55h55v-55ZM28.88,92.13V41.6H79.41V92.13Z"/><polygon class="cls-1" points="2.54 67.89 2.54 66.9 54.19 66.9 54.19 15.25 55.17 15.25 55.17 67.89 2.54 67.89"/><polygon class="cls-1" points="55.67 14.75 53.69 14.75 53.69 66.4 2.04 66.4 2.04 68.39 55.67 68.39 55.67 14.75 55.67 14.75"/><path class="cls-3" d="M55.55,14.88V68.27H2.16V66.53H53.81V14.88h1.74m.25-.25H53.56V66.28H1.91v2.24H55.8V14.63Z"/><path class="cls-1" d="M27.51,93.75,1.09,67.28l0-53.43H54.65L81.07,40.31l0,53.44ZM2.12,66.85l.14.14c.63.67,15.91,16,25,25l.7.7,52.11,0v-52l-.14-.15C79.11,39.75,54.61,15.26,54.37,15l-.14-.15-52.11,0Z"/><path class="cls-1" d="M54.44,14.35,80.57,40.52l0,47.94V40.55l-.27-.29C79.46,39.39,55,14.9,54.72,14.66l-.29-.29H54l-36.33,0H54.44M1.62,19.13V67.05l.27.29c.64.67,15.93,16,25,25l.56.56.3.29h.41l35,0H27.72L1.59,67.07l0-47.94m53.24-5.78H.63l0,54.14L27.3,94.25H81.53l0-54.15L54.86,13.35ZM79.54,92.26l-51.4,0C28,92,3.41,67.48,2.62,66.65V15.34l51.4,0c.18.18,24.72,24.72,25.52,25.57V92.26Z"/><path class="cls-3" d="M54.76,13.47,81.41,40.12v54h-54L.75,67.47v-54h54M28.13,92.38H79.66V40.84l-.07-.07L54.11,15.28,54,15.21H2.5V66.75l.07.08c.76.75,25.3,25.3,25.48,25.48l.08.07M54.86,13.22H.5V67.57l26.8,26.8H81.66V40L54.86,13.22ZM28.23,92.13,2.75,66.65V15.46H53.93c.63.63,24.86,24.85,25.48,25.48V92.13Z"/><rect class="cls-1" x="14.27" y="9.55" width="0.99" height="35.72" transform="translate(-15.06 18.49) rotate(-45.04)"/><polygon class="cls-1" points="2.48 13.72 1.07 15.13 27.04 41.09 28.45 39.69 2.48 13.72 2.48 13.72"/><path class="cls-3" d="M2.48,13.9,28.27,39.69,27,40.92,1.25,15.13,2.48,13.9m0-.35L.9,15.13,27,41.27l1.59-1.58L2.48,13.55Z"/><rect class="cls-1" x="66.87" y="62.16" width="0.99" height="35.71" transform="translate(-36.84 71) rotate(-44.96)"/><polygon class="cls-1" points="55.09 66.34 53.68 67.74 79.64 93.7 81.05 92.3 55.09 66.34 55.09 66.34"/><path class="cls-3" d="M55.09,66.51,80.87,92.3l-1.23,1.22L53.86,67.74l1.23-1.23m0-.35-1.58,1.58L79.64,93.88l1.59-1.58L55.09,66.16Z"/></g></g></svg>