<svg xmlns="http://www.w3.org/2000/svg" viewBox="0 0 222 220"><defs><style>.cls-1{fill:#fff;}.cls-2{fill:none;stroke:#e68011;stroke-width:5px;}.cls-3{isolation:isolate;}.cls-4{fill:#040000;}.cls-5{fill:#e68011;}</style></defs><g id="레이어_2" data-name="레이어 2"><g id="레이어_1-2" data-name="레이어 1"><g id="그룹_395" data-name="그룹 395"><g id="그룹_149" data-name="그룹 149"><g id="타원_5" data-name="타원 5"><circle class="cls-1" cx="47" cy="47" r="47"/><circle class="cls-2" cx="47" cy="47" r="44.5"/></g><g id="문서_분류" data-name="문서 분류" class="cls-3"><g class="cls-3"><path class="cls-4" d="M46.76,40.87h-4v1.84H41.26V40.87H37V39.69h9.77Zm-8.62.91h1.49v1.91h6v1.2H38.14Zm.07-6.9H45.5v3.93H38.21ZM44,37.65V36H39.68v1.61Z"/><path class="cls-4" d="M51.57,38.8a5,5,0,0,0,.87,1.66,3.78,3.78,0,0,0,1.44,1.09L53,42.74a4.2,4.2,0,0,1-1.47-1.18,5.77,5.77,0,0,1-1-1.77,6.34,6.34,0,0,1-1,1.9A4.2,4.2,0,0,1,48,42.93l-.94-1.22a3.81,3.81,0,0,0,1.48-1.16,5.23,5.23,0,0,0,.9-1.72,7.39,7.39,0,0,0,.3-2v-1.6h1.51v1.6A7.16,7.16,0,0,0,51.57,38.8Zm1.11-1h2.1V34.41h1.48V45.1H54.78V39h-2.1Z"/></g><g class="cls-3"><path class="cls-4" d="M46.76,56.06h-4v1.72H41.26V56.06H37V54.89h9.77Zm-8.62.88h1.48v1.75h6.06v1.2H38.14Zm.11-7.19h1.47v1.12H44V49.75h1.49v4.39H38.25ZM44,53V52H39.72v1Z"/><path class="cls-4" d="M57,56.84H54.76v3.24H53.24V56.84H51v3.24H49.53V56.84H47.24V55.67H57Zm-8.64-7.11h7.51v3.1h-6v.87h6.21v1.2H48.4V51.74h6V51h-6Z"/></g></g></g><g id="그룹_324" data-name="그룹 324"><g id="타원_5-2" data-name="타원 5-2"><circle class="cls-1" cx="175" cy="47" r="47"/><circle class="cls-2" cx="175" cy="47" r="44.5"/></g><g id="문서_이해" data-name="문서 이해" class="cls-3"><g class="cls-3"><path class="cls-4" d="M174.76,40.87h-4v1.84h-1.48V40.87H165V39.69h9.77Zm-8.62.91h1.49v1.91h6.05v1.2h-7.54Zm.07-6.9h7.29v3.93h-7.29ZM172,37.65V36h-4.36v1.61Z"/><path class="cls-4" d="M179.57,38.8a5,5,0,0,0,.87,1.66,3.78,3.78,0,0,0,1.44,1.09L181,42.74a4.2,4.2,0,0,1-1.47-1.18,5.77,5.77,0,0,1-1-1.77,6.34,6.34,0,0,1-1,1.9A4.2,4.2,0,0,1,176,42.93l-.94-1.22a3.81,3.81,0,0,0,1.48-1.16,5.23,5.23,0,0,0,.9-1.72,7.39,7.39,0,0,0,.3-2v-1.6h1.51v1.6A7.16,7.16,0,0,0,179.57,38.8Zm1.11-1h2.1V34.41h1.48V45.1h-1.48V39h-2.1Z"/></g><g class="cls-3"><path class="cls-4" d="M165.68,52a3.07,3.07,0,0,1,1-1.33,2.45,2.45,0,0,1,1.47-.47,2.36,2.36,0,0,1,1.43.47,3,3,0,0,1,1,1.33,5.62,5.62,0,0,1,0,4,3,3,0,0,1-1,1.33,2.36,2.36,0,0,1-1.43.47,2.45,2.45,0,0,1-1.47-.47,3.07,3.07,0,0,1-1-1.33,5.76,5.76,0,0,1,0-4Zm1.25,3.33a1.89,1.89,0,0,0,.49.84,1,1,0,0,0,.73.28,1,1,0,0,0,.71-.28,2,2,0,0,0,.48-.84,5.29,5.29,0,0,0,0-2.66,2,2,0,0,0-.48-.84,1.06,1.06,0,0,0-.71-.28,1.09,1.09,0,0,0-.73.28,1.89,1.89,0,0,0-.49.84,5.29,5.29,0,0,0,0,2.66Zm7,4.81h-1.51V49.41h1.51Z"/><path class="cls-4" d="M180.4,52.23h-5.16V51h1.86V49.71h1.47V51h1.83Zm-4.6,1.7a2.28,2.28,0,0,1,.84-.9,2.24,2.24,0,0,1,1.21-.32,2.2,2.2,0,0,1,1.2.32,2.28,2.28,0,0,1,.84.9,2.78,2.78,0,0,1,.3,1.31,2.81,2.81,0,0,1-.3,1.31,2.15,2.15,0,0,1-.84.9,2.21,2.21,0,0,1-1.2.33,2.24,2.24,0,0,1-1.21-.33,2.15,2.15,0,0,1-.84-.9,2.7,2.7,0,0,1-.31-1.31A2.67,2.67,0,0,1,175.8,53.93Zm1.29,2.25a1,1,0,0,0,.76.33.91.91,0,0,0,.74-.34,1.43,1.43,0,0,0,.29-.93,1.67,1.67,0,0,0-.14-.69,1.16,1.16,0,0,0-.36-.45,1,1,0,0,0-.53-.15.93.93,0,0,0-.76.34,1.46,1.46,0,0,0-.29,1A1.43,1.43,0,0,0,177.09,56.18Zm3.71-6.56h1.39v4.13h.87V49.41h1.42V60.08h-1.42V54.94h-.87v4.68H180.8Z"/></g></g></g><g id="그룹_325" data-name="그룹 325"><g id="타원_5-3" data-name="타원 5-3"><circle class="cls-1" cx="47" cy="173" r="47"/><circle class="cls-2" cx="47" cy="173" r="44.5"/></g><g id="데이터_추출" data-name="데이터 추출" class="cls-3"><g class="cls-3"><path class="cls-4" d="M32.21,161.62h4.08v1.2H33.67v4.64c.6,0,1.12,0,1.59-.07s.93-.11,1.41-.2l.12,1.22a14.37,14.37,0,0,1-1.73.23c-.57,0-1.28.06-2.11.06h-.74Zm3.35,2.68h1.91v-3.7h1.39v10H37.47v-5.08H35.56Zm5.57,6.78H39.68V160.41h1.45Z"/><path class="cls-4" d="M42.81,163a3,3,0,0,1,1-1.33,2.42,2.42,0,0,1,1.46-.47,2.37,2.37,0,0,1,1.44.47,3.07,3.07,0,0,1,1,1.33,5.76,5.76,0,0,1,0,4,3.07,3.07,0,0,1-1,1.33,2.37,2.37,0,0,1-1.44.47,2.42,2.42,0,0,1-1.46-.47,3,3,0,0,1-1-1.33,5.76,5.76,0,0,1,0-4Zm1.25,3.33a1.79,1.79,0,0,0,.48.84,1,1,0,0,0,.73.28,1,1,0,0,0,.71-.28,1.79,1.79,0,0,0,.48-.84,5.29,5.29,0,0,0,0-2.66,1.71,1.71,0,0,0-.48-.83,1,1,0,0,0-.71-.29,1.05,1.05,0,0,0-.73.29,1.71,1.71,0,0,0-.48.83,5.29,5.29,0,0,0,0,2.66Zm7,4.81H49.55V160.41h1.51Z"/><path class="cls-4" d="M52.87,161.3h5v1.21H54.36v1.77h3.11v1.17H54.36v2c.81,0,1.52,0,2.13-.07s1.23-.1,1.86-.2l.15,1.19c-.74.11-1.47.19-2.2.23s-1.59.06-2.58.07h-.85Zm8.51,9.8H59.9v-5.72H58v-1.2H59.9v-3.77h1.48Z"/></g><g class="cls-3"><path class="cls-4" d="M46.73,183H42.6v3.07H41.12V183H37V181.8h9.72Zm-7.4-3.43a3.76,3.76,0,0,0,1.23-.81,2,2,0,0,0,.54-1H37.88v-1.18h3.24v-1.21H42.6v1.21h3.24v1.18h-3.2a2,2,0,0,0,.53,1,3.52,3.52,0,0,0,1.21.82,6,6,0,0,0,1.84.46l-.54,1.18a6.53,6.53,0,0,1-2.3-.66,4.23,4.23,0,0,1-1.51-1.26,4.26,4.26,0,0,1-1.52,1.26,6.87,6.87,0,0,1-2.31.66l-.54-1.18A6,6,0,0,0,39.33,179.59Z"/><path class="cls-4" d="M57,181.05h-4.1v.67H55.8v2.6H49.86v.59h6.22V186H48.39v-2.7h5.93v-.53H48.38v-1.06h3v-.67H47.28V180H57Zm-6.9-2.88a1.93,1.93,0,0,0,1.12-.82h-3v-1.1h3.18v-.85h1.48v.85h3.2v1.1H53a1.93,1.93,0,0,0,1.13.82,8.22,8.22,0,0,0,2.41.4l-.43,1.1a9,9,0,0,1-2.5-.44,3.39,3.39,0,0,1-1.53-1,3.37,3.37,0,0,1-1.54,1,9,9,0,0,1-2.51.44l-.41-1.1A8.28,8.28,0,0,0,50.06,178.17Z"/></g></g></g><g id="그룹_326" data-name="그룹 326"><g id="타원_5-4" data-name="타원 5-4"><circle class="cls-1" cx="175" cy="173" r="47"/><circle class="cls-2" cx="175" cy="173" r="44.5"/></g><g id="문서_검증" data-name="문서 검증" class="cls-3"><g class="cls-3"><path class="cls-4" d="M174.76,166.87h-4v1.84h-1.48v-1.84H165v-1.18h9.77Zm-8.62.91h1.49v1.91h6.05v1.2h-7.54Zm.07-6.9h7.29v3.93h-7.29Zm5.83,2.77V162h-4.36v1.61Z"/><path class="cls-4" d="M179.57,164.8a5,5,0,0,0,.87,1.66,3.78,3.78,0,0,0,1.44,1.09l-.92,1.2a4.34,4.34,0,0,1-1.47-1.19,5.77,5.77,0,0,1-1-1.77,6.34,6.34,0,0,1-1,1.9,4.2,4.2,0,0,1-1.51,1.24l-.94-1.22a3.81,3.81,0,0,0,1.48-1.16,5.23,5.23,0,0,0,.9-1.72,7.39,7.39,0,0,0,.3-2v-1.6h1.51v1.6A7.1,7.1,0,0,0,179.57,164.8Zm1.11-1h2.1v-3.36h1.48V171.1h-1.48V165h-2.1Z"/></g><g class="cls-3"><path class="cls-4" d="M170,178.52a5.24,5.24,0,0,1-1.66,1.89,8.25,8.25,0,0,1-2.66,1.21l-.59-1.16a6.81,6.81,0,0,0,2.7-1.3,3.25,3.25,0,0,0,1.18-1.93h-3.3V176h4.9A5.31,5.31,0,0,1,170,178.52Zm-3,3.29H174V186h-7.06Zm5.59,3V183h-4.13v1.8ZM170.61,178h1.9v-2.53H174v6h-1.48v-2.21h-1.9Z"/><path class="cls-4" d="M185,181.53h-9.72v-1.21H185Zm-7.62-3.1a3.51,3.51,0,0,0,1.13-.59,1.69,1.69,0,0,0,.55-.74h-2.89v-1.19h7.95v1.19h-2.91a1.56,1.56,0,0,0,.54.73,3.78,3.78,0,0,0,1.14.6,7.62,7.62,0,0,0,1.7.34l-.52,1.17a6.86,6.86,0,0,1-2.49-.67,3.3,3.3,0,0,1-1.45-1.32,3.33,3.33,0,0,1-1.44,1.32,6.86,6.86,0,0,1-2.49.67l-.49-1.17A6.83,6.83,0,0,0,177.36,178.43Zm-.54,4.61a3,3,0,0,1,1.29-.68,7.75,7.75,0,0,1,2-.23,7.58,7.58,0,0,1,2,.23,3,3,0,0,1,1.28.68,1.5,1.5,0,0,1,0,2.14,2.87,2.87,0,0,1-1.28.67,7.58,7.58,0,0,1-2,.23,7.75,7.75,0,0,1-2-.23,2.91,2.91,0,0,1-1.29-.67,1.5,1.5,0,0,1,0-2.14Zm1.62,1.68a5.35,5.35,0,0,0,1.67.2c1.47,0,2.21-.27,2.21-.81s-.74-.82-2.21-.82a5.35,5.35,0,0,0-1.67.2c-.37.14-.55.34-.55.62S178.07,184.59,178.44,184.72Z"/></g></g></g><g id="그룹_153" data-name="그룹 153"><g id="타원_5-5" data-name="타원 5-5"><ellipse class="cls-5" cx="111" cy="109.5" rx="59" ry="58.5"/><ellipse class="cls-2" cx="111" cy="109.5" rx="56.5" ry="56"/></g><g id="문서인식_자동화" data-name="문서인식 자동화" class="cls-3"><g class="cls-3"><path class="cls-1" d="M97,98.83H91.65v2.45h-2V98.83H84V97.25H97Zm-11.48,1.22h2v2.54h8.07v1.6h-10Zm.09-9.21h9.72v5.24H85.61Zm7.77,3.69V92.39H87.57v2.14Z"/><path class="cls-1" d="M103.43,96.06a6.52,6.52,0,0,0,1.15,2.22,4.9,4.9,0,0,0,1.92,1.45l-1.22,1.6a5.66,5.66,0,0,1-2-1.58,7.47,7.47,0,0,1-1.27-2.37,8.59,8.59,0,0,1-1.31,2.54,5.76,5.76,0,0,1-2,1.66L97.47,100a5.21,5.21,0,0,0,2-1.54,6.85,6.85,0,0,0,1.19-2.31,9.07,9.07,0,0,0,.4-2.66V91.31h2v2.13A9.07,9.07,0,0,0,103.43,96.06Zm1.48-1.37h2.79V90.22h2v14.25h-2V96.3h-2.79Z"/><path class="cls-1" d="M112.08,92.87a3.51,3.51,0,0,1,1.4-1.27,4.45,4.45,0,0,1,3.94,0,3.6,3.6,0,0,1,1.41,1.27,3.63,3.63,0,0,1,0,3.71,3.65,3.65,0,0,1-1.41,1.29,4.3,4.3,0,0,1-2,.46,4.37,4.37,0,0,1-2-.46,3.56,3.56,0,0,1-1.4-1.29,3.47,3.47,0,0,1-.51-1.86A3.38,3.38,0,0,1,112.08,92.87Zm1.68,2.85a1.55,1.55,0,0,0,.69.65,2.16,2.16,0,0,0,1,.22,2.11,2.11,0,0,0,1-.22,1.66,1.66,0,0,0,.69-.65,1.9,1.9,0,0,0,.25-1,1.87,1.87,0,0,0-.25-1,1.7,1.7,0,0,0-.69-.64,2.11,2.11,0,0,0-1-.22,2.16,2.16,0,0,0-1,.22,1.59,1.59,0,0,0-.69.64,1.87,1.87,0,0,0-.25,1A1.9,1.9,0,0,0,113.76,95.72Zm0,3.7h2v3.17h7.89v1.6h-9.9Zm9.53,1h-2V90.23h2Z"/><path class="cls-1" d="M130.81,94a4.12,4.12,0,0,0,1.11,1.48,5.13,5.13,0,0,0,1.89,1l-1,1.56a5.71,5.71,0,0,1-2-1.1,5.24,5.24,0,0,1-1.34-1.73A5.62,5.62,0,0,1,128.06,97a5.68,5.68,0,0,1-2.1,1.18l-1-1.56a5.27,5.27,0,0,0,1.91-1.06A4.24,4.24,0,0,0,128,94a4.51,4.51,0,0,0,.37-1.81V90.87h2.08v1.36A4.38,4.38,0,0,0,130.81,94Zm-3.68,5.33h9.79v5.13h-2v-3.53h-7.79Zm7.79-9.09h2V98.7h-2Z"/></g><g class="cls-3"><path class="cls-1" d="M96.48,120.33a6.53,6.53,0,0,0,1.18,2.06,5.57,5.57,0,0,0,1.91,1.45l-1.11,1.57a5.85,5.85,0,0,1-2-1.55,8.15,8.15,0,0,1-1.35-2.34,8.43,8.43,0,0,1-1.37,2.57,5.83,5.83,0,0,1-2.07,1.68l-1.16-1.58a5.64,5.64,0,0,0,1.95-1.51,7,7,0,0,0,1.21-2.18,7.78,7.78,0,0,0,.42-2.41v-.87h-3v-1.63H99v1.63H96.09v.87A6.3,6.3,0,0,0,96.48,120.33Zm3.58-6.11h2v5.42h2.09v1.67h-2.09v7.13h-2Z"/><path class="cls-1" d="M117.51,122.5h-13v-1.56H110v-1.22h-4v-4.88h9.86v1.55h-7.87v1.77h8v1.56h-4v1.22h5.52Zm-10.93,1.92a3.83,3.83,0,0,1,1.72-.9,10.48,10.48,0,0,1,2.68-.3,10.21,10.21,0,0,1,2.64.3,3.85,3.85,0,0,1,1.71.9,2,2,0,0,1,0,2.84,3.94,3.94,0,0,1-1.71.89,10.21,10.21,0,0,1-2.64.3,10.48,10.48,0,0,1-2.68-.3,3.94,3.94,0,0,1-1.71-.89,1.92,1.92,0,0,1-.6-1.42A2,2,0,0,1,106.58,124.42Zm2.17,2.25a6.91,6.91,0,0,0,2.23.27c2,0,2.94-.37,3-1.1,0-.36-.26-.64-.76-.82a6.41,6.41,0,0,0-2.19-.29,6.79,6.79,0,0,0-2.22.28c-.5.19-.74.46-.74.83S108.26,126.49,108.75,126.67Z"/><path class="cls-1" d="M121.52,124.39v-1.22a3.74,3.74,0,0,1-1.31-.51,2.47,2.47,0,0,1-.87-.89,2.33,2.33,0,0,1-.31-1.18,2.29,2.29,0,0,1,.45-1.39,2.82,2.82,0,0,1,1.23-.94,4.58,4.58,0,0,1,1.82-.34,4.5,4.5,0,0,1,1.81.34,3,3,0,0,1,1.24.94,2.37,2.37,0,0,1,.13,2.58,2.64,2.64,0,0,1-.87.89,3.66,3.66,0,0,1-1.32.5v1.15c1.26-.07,2.37-.17,3.31-.31l.13,1.46a32.08,32.08,0,0,1-3.89.46q-2,.12-4.23.12h-.57l-.27-1.63C119.5,124.42,120.68,124.41,121.52,124.39Zm-3.24-8.59h3.24v-1.5h2v1.5h3.2v1.56h-8.44Zm3.07,5.65a2,2,0,0,0,1.18.3,2,2,0,0,0,1.16-.3,1,1,0,0,0,.42-.86,1,1,0,0,0-.43-.84,2,2,0,0,0-1.15-.31,2.08,2.08,0,0,0-1.18.31.93.93,0,0,0-.42.84A1,1,0,0,0,121.35,121.45Zm8.2-1.45h1.86v1.66h-1.86v6.78h-2V114.22h2Z"/></g></g></g></g></g></g></svg>