<svg xmlns="http://www.w3.org/2000/svg" viewBox="0 0 338 644.99"><defs><style>.cls-1{fill:#f7f7f7;}.cls-2,.cls-7{fill:none;stroke:#e68011;}.cls-2{stroke-width:3px;}.cls-3{fill:#fff;}.cls-4{fill:#e68011;}.cls-5{isolation:isolate;}.cls-6{fill:#040000;}</style></defs><g id="레이어_2" data-name="레이어 2"><g id="레이어_1-2" data-name="레이어 1"><rect id="사각형_143" data-name="사각형 143" class="cls-1" y="92.42" width="338" height="455" rx="7"/><line id="선_81" data-name="선 81" class="cls-2" x1="38.93" y1="12.34" x2="38.93" y2="633.5"/><g id="타원_71" data-name="타원 71"><circle class="cls-3" cx="39.5" cy="8.92" r="7.5"/><circle class="cls-2" cx="39.5" cy="8.92" r="6"/></g><g id="타원_72" data-name="타원 72"><circle class="cls-4" cx="39" cy="130.42" r="13"/><circle class="cls-2" cx="39" cy="130.42" r="11.5"/></g><g id="타원_73" data-name="타원 73"><circle class="cls-4" cx="39.5" cy="256.92" r="13.5"/><circle class="cls-2" cx="39.5" cy="256.92" r="12"/></g><g id="타원_74" data-name="타원 74"><circle class="cls-4" cx="39" cy="384.42" r="13"/><circle class="cls-2" cx="39" cy="384.42" r="11.5"/></g><g id="타원_75" data-name="타원 75"><ellipse class="cls-4" cx="39" cy="510.92" rx="13" ry="13.5"/><ellipse class="cls-2" cx="39" cy="510.92" rx="11.5" ry="12"/></g><g id="타원_76" data-name="타원 76"><circle class="cls-4" cx="38.5" cy="632.92" r="7.5"/><circle class="cls-2" cx="38.5" cy="632.92" r="6"/></g><g id="다각형_10" data-name="다각형 10"><path class="cls-4" d="M36.38,61.92h5.49a1.5,1.5,0,0,1,1.3.74,1.47,1.47,0,0,1,0,1.49L40.43,69a1.49,1.49,0,0,1-2.61,0l-2.75-4.88a1.47,1.47,0,0,1,0-1.49A1.5,1.5,0,0,1,36.38,61.92Z"/><path class="cls-4" d="M39.13,68.3l2.74-4.88H36.38l2.74,4.88h0m0,3a3,3,0,0,1-2.62-1.53l-2.75-4.88a3,3,0,0,1,2.62-4.47h5.49a3,3,0,0,1,2.62,4.47l-2.75,4.88A3,3,0,0,1,39.13,71.3Z"/></g><g id="다각형_11" data-name="다각형 11"><path class="cls-4" d="M36.05,187.92h5.72a1.49,1.49,0,0,1,1.3,2.23l-2.86,5.08a1.49,1.49,0,0,1-2.61,0l-2.86-5.08a1.47,1.47,0,0,1,0-1.49A1.5,1.5,0,0,1,36.05,187.92Z"/><path class="cls-4" d="M38.91,194.5l2.86-5.08H36.05l2.86,5.08h0m0,3A3,3,0,0,1,36.29,196l-2.86-5.08a3,3,0,0,1,2.62-4.47h5.72a3,3,0,0,1,2.61,4.47L41.52,196A3,3,0,0,1,38.91,197.5Z"/></g><g id="다각형_12" data-name="다각형 12"><path class="cls-4" d="M36.38,315.92h5.49a1.5,1.5,0,0,1,1.3.74,1.47,1.47,0,0,1,0,1.49L40.43,323a1.49,1.49,0,0,1-2.61,0l-2.75-4.88a1.47,1.47,0,0,1,0-1.49A1.5,1.5,0,0,1,36.38,315.92Z"/><path class="cls-4" d="M39.13,322.3l2.74-4.88H36.38l2.74,4.88h0m0,3a3,3,0,0,1-2.62-1.53l-2.75-4.88a3,3,0,0,1,2.62-4.47h5.49a3,3,0,0,1,2.62,4.47l-2.75,4.88A3,3,0,0,1,39.13,325.3Z"/></g><g id="다각형_13" data-name="다각형 13"><path class="cls-4" d="M36.38,441.92h5.49a1.5,1.5,0,0,1,1.3.74,1.47,1.47,0,0,1,0,1.49L40.43,449a1.49,1.49,0,0,1-2.61,0l-2.75-4.88a1.47,1.47,0,0,1,0-1.49A1.5,1.5,0,0,1,36.38,441.92Z"/><path class="cls-4" d="M39.13,448.3l2.74-4.88H36.38l2.74,4.88h0m0,3a3,3,0,0,1-2.62-1.53l-2.75-4.88a3,3,0,0,1,2.62-4.47h5.49a3,3,0,0,1,2.62,4.47l-2.75,4.88A3,3,0,0,1,39.13,451.3Z"/></g><g id="다각형_14" data-name="다각형 14"><path class="cls-4" d="M36.38,569.92h5.49a1.5,1.5,0,0,1,1.3.74,1.47,1.47,0,0,1,0,1.49L40.43,577a1.49,1.49,0,0,1-2.61,0l-2.75-4.88a1.47,1.47,0,0,1,0-1.49A1.5,1.5,0,0,1,36.38,569.92Z"/><path class="cls-4" d="M39.13,576.3l2.74-4.88H36.38l2.74,4.88h0m0,3a3,3,0,0,1-2.62-1.53l-2.75-4.88a3,3,0,0,1,2.62-4.47h5.49a3,3,0,0,1,2.62,4.47l-2.75,4.88A3,3,0,0,1,39.13,579.3Z"/></g><g id="그룹_400" data-name="그룹 400"><g id="file-earmark-check"><path id="패스_277" data-name="패스 277" class="cls-3" d="M42.84,129.72a.42.42,0,0,0,.11-.57l-.11-.11a.75.75,0,0,0-.88,0l-3.24,2.53-1.41-1.1a.77.77,0,0,0-.87,0,.42.42,0,0,0-.11.57.57.57,0,0,0,.11.11l1.84,1.43a.74.74,0,0,0,.87,0Z"/><path id="패스_278" data-name="패스 278" class="cls-3" d="M45.67,135v-7.85l-4.75-3.71h-5.8A1.93,1.93,0,0,0,33,125.09V135a1.93,1.93,0,0,0,2.12,1.65h8.44A1.92,1.92,0,0,0,45.67,135Zm-4.75-9.08a1.44,1.44,0,0,0,1.58,1.23h2.12V135a1,1,0,0,1-1.06.83H35.12a1,1,0,0,1-1.06-.83v-9.91a1,1,0,0,1,1.06-.83h5.8Z"/></g></g><g id="file-earmark-binary"><path id="패스_279" data-name="패스 279" class="cls-3" d="M39,259.23c0,1.35-.6,2.11-1.66,2.11s-1.66-.76-1.66-2.11.6-2.11,1.66-2.11S39,257.88,39,259.23Zm-1.66-1.54c-.59,0-.91.54-.91,1.54a1.93,1.93,0,0,0,0,.24l1.7-1.09a.81.81,0,0,0-.8-.69Zm-.8,2.4a.81.81,0,0,0,.8.68c.59,0,.9-.53.9-1.54a1.93,1.93,0,0,0,0-.24Zm6.6.6v.57H39.91v-.57h1.28v-2.78h0l-1.24.71V258l1.3-.75H42v3.47h1.22Z"/><path id="패스_280" data-name="패스 280" class="cls-3" d="M45.85,261.63v-7.3l-4.44-3.46H36a1.81,1.81,0,0,0-2,1.54v9.22a1.8,1.8,0,0,0,2,1.53h7.9A1.79,1.79,0,0,0,45.85,261.63Zm-4.44-8.46a1.35,1.35,0,0,0,1.48,1.15h2v7.3a.91.91,0,0,1-1,.77H36a.91.91,0,0,1-1-.77v-9.21a.9.9,0,0,1,1-.77h5.43Z"/></g><path id="file-earmark-break" class="cls-3" d="M44.09,381.54v3.57h-.8v-3.57H41.71a1.19,1.19,0,0,1-1.19-1.18v-1.59H36.17a.79.79,0,0,0-.79.8h0v5.54h-.8v-5.54A1.59,1.59,0,0,1,36.17,378h4.35Zm-.8,5.94h.8v1.59a1.59,1.59,0,0,1-1.59,1.58H36.17a1.59,1.59,0,0,1-1.59-1.58v-1.59h.8v1.59a.79.79,0,0,0,.79.79H42.5a.79.79,0,0,0,.79-.79ZM33.4,385.9a.4.4,0,1,0-.11.79h12a.41.41,0,0,0,.46-.34.4.4,0,0,0-.34-.45h-12Z"/><path id="fonts" class="cls-3" d="M34.1,506.41H44.82l.1,2.41h-.6c-.33-1.52-1-1.75-3.39-1.81h-.54v7.66c0,.65.18.8,1.64.9v.51H36.89v-.51c1.46-.1,1.65-.26,1.65-.9V507H38c-2.43.06-3.06.29-3.39,1.8H34Z"/><g id="RPA" class="cls-5"><g class="cls-5"><path class="cls-6" d="M79.23,2.69h5a5.51,5.51,0,0,1,2.46.51,3.63,3.63,0,0,1,1.56,1.44,4.35,4.35,0,0,1,.54,2.2,4.18,4.18,0,0,1-.58,2.23,3.6,3.6,0,0,1-1.67,1.4l2.7,4.95H86.32L83.88,10.9h-2v4.52H79.23Zm4.5,6.06c1.56,0,2.33-.63,2.32-1.91a1.78,1.78,0,0,0-.57-1.47,2.65,2.65,0,0,0-1.75-.52H81.87v3.9Z"/><path class="cls-6" d="M90.44,2.69h5a5.2,5.2,0,0,1,2.44.54,3.84,3.84,0,0,1,1.57,1.52A4.52,4.52,0,0,1,100,7a4.4,4.4,0,0,1-.55,2.24,3.8,3.8,0,0,1-1.59,1.51,5.34,5.34,0,0,1-2.48.54H93.08v4.15H90.44Zm4.5,6.45a2.38,2.38,0,0,0,1.74-.58A2.1,2.1,0,0,0,97.26,7a2,2,0,0,0-.58-1.55,2.46,2.46,0,0,0-1.74-.58H93.08V9.14Z"/><path class="cls-6" d="M99.31,15.42l4.41-12.73h3.39l4.4,12.73h-2.83l-1-2.94h-4.61l-1,2.94Zm7.74-5-1.59-4.87h-.09l-1.59,4.87Z"/></g></g><g id="RPA-2" class="cls-5"><g class="cls-5"><path class="cls-6" d="M79.23,626.69h5a5.51,5.51,0,0,1,2.46.51,3.59,3.59,0,0,1,1.56,1.45,4.28,4.28,0,0,1,.54,2.19,4.18,4.18,0,0,1-.58,2.23,3.6,3.6,0,0,1-1.67,1.4l2.7,4.95H86.32l-2.44-4.52h-2v4.52H79.23Zm4.5,6.06c1.56,0,2.33-.63,2.32-1.91a1.78,1.78,0,0,0-.57-1.47,2.65,2.65,0,0,0-1.75-.52H81.87v3.9Z"/><path class="cls-6" d="M90.44,626.69h5a5.2,5.2,0,0,1,2.44.54,3.84,3.84,0,0,1,1.57,1.52A4.52,4.52,0,0,1,100,631a4.47,4.47,0,0,1-.55,2.25,3.84,3.84,0,0,1-1.59,1.5,5.34,5.34,0,0,1-2.48.54H93.08v4.15H90.44Zm4.5,6.45a2.38,2.38,0,0,0,1.74-.58,2.1,2.1,0,0,0,.58-1.58,2,2,0,0,0-.58-1.55,2.46,2.46,0,0,0-1.74-.58H93.08v4.29Z"/><path class="cls-6" d="M99.31,639.42l4.41-12.73h3.39l4.4,12.73h-2.83l-1-2.94h-4.61l-1,2.94Zm7.74-5-1.59-4.86h-.09l-1.59,4.86Z"/></g></g><g id="문서_변환" data-name="문서 변환" class="cls-5"><g class="cls-5"><path class="cls-6" d="M94.63,122.72h-6v2.76H86.39v-2.76H80V121H94.63Zm-12.92,1.37H84V127H93v1.79H81.71Zm.11-10.35H92.75v5.89H81.82Zm8.73,4.15v-2.41H84v2.41Z"/><path class="cls-6" d="M101.88,119.61a7.05,7.05,0,0,0,1.3,2.49,5.5,5.5,0,0,0,2.15,1.64l-1.37,1.8a6.56,6.56,0,0,1-2.21-1.78,8.79,8.79,0,0,1-1.43-2.66A9.37,9.37,0,0,1,98.85,124a6.57,6.57,0,0,1-2.27,1.87L95.17,124a5.9,5.9,0,0,0,2.22-1.74,7.79,7.79,0,0,0,1.34-2.59,10,10,0,0,0,.45-3v-2.39h2.27v2.39A10.63,10.63,0,0,0,101.88,119.61Zm1.66-1.55h3.15v-5h2.21v16h-2.21v-9.19h-3.15Z"/></g><g class="cls-5"><path class="cls-6" d="M93.49,144.85H91.26V141h-3v1.37H80.69v-8.23h2.25v2.46h3.15v-2.46H88.3v1.64h3v-2.68h2.23Zm-10.65-1.18h2.27V147h8.71v1.79h-11Zm3.25-3.11v-2.3H82.94v2.3Zm5.17-1.41v-1.61h-3v1.61Z"/><path class="cls-6" d="M99.11,142.18v-.93a4.08,4.08,0,0,1-2.07-.8,1.92,1.92,0,0,1-.74-1.56,2,2,0,0,1,.48-1.34,3,3,0,0,1,1.36-.86,6.56,6.56,0,0,1,2.08-.3,6.43,6.43,0,0,1,2.06.3,3,3,0,0,1,1.37.86,1.94,1.94,0,0,1,.49,1.34,2,2,0,0,1-.75,1.55,4,4,0,0,1-2,.81v.82c1.43-.09,2.72-.21,3.87-.38l.16,1.54a32.39,32.39,0,0,1-4.58.56c-1.58.09-3.35.15-5.33.16l-.23-1.72C96.7,142.23,98,142.21,99.11,142.18Zm-3.46-7.84h3.46V133h2.23v1.36h3.47v1.6H95.65Zm1.83,10.35h2.25V147h9v1.79H97.48Zm1.41-5.11a2.78,2.78,0,0,0,1.28.24,3.08,3.08,0,0,0,1.35-.24.75.75,0,0,0,.47-.69.82.82,0,0,0-.46-.75,2.75,2.75,0,0,0-1.31-.25,2.81,2.81,0,0,0-1.33.25.81.81,0,0,0-.45.75A.77.77,0,0,0,98.89,139.58Zm9.31-1.29h2v1.85h-2v5.38H106V133h2.25Z"/></g></g><g id="문서_분류" data-name="문서 분류" class="cls-5"><g class="cls-5"><path class="cls-6" d="M90.63,248.72h-6v2.76H82.39v-2.76H76V247H90.63Zm-12.92,1.37H80V253H89v1.79H77.71Zm.11-10.35H88.75v5.89H77.82Zm8.73,4.15v-2.41H80v2.41Z"/><path class="cls-6" d="M97.88,245.61a7.05,7.05,0,0,0,1.3,2.49,5.5,5.5,0,0,0,2.15,1.64l-1.37,1.8a6.56,6.56,0,0,1-2.21-1.78,8.79,8.79,0,0,1-1.43-2.66A9.37,9.37,0,0,1,94.85,250a6.57,6.57,0,0,1-2.27,1.87L91.17,250a5.9,5.9,0,0,0,2.22-1.74,7.79,7.79,0,0,0,1.34-2.59,10,10,0,0,0,.45-3v-2.39h2.27v2.39A10.63,10.63,0,0,0,97.88,245.61Zm1.66-1.55h3.15v-5h2.21v16h-2.21v-9.19H99.54Z"/></g><g class="cls-5"><path class="cls-6" d="M90.63,269h-6v2.59H82.39V269H76v-1.75H90.63Zm-12.92,1.32h2.22V273H89v1.79H77.71Zm.16-10.77h2.22v1.67H86.5v-1.67h2.23v6.57H77.87Zm8.63,4.8v-1.46H80.09v1.46Z"/><path class="cls-6" d="M106,270.18h-3.38V275h-2.27v-4.85H97V275H94.81v-4.85H91.38v-1.76H106Zm-13-10.67h11.27v4.66h-9v1.3h9.32v1.79H93.12v-4.72H102v-1.2h-9Z"/></g></g><g id="전처리_및_구조분석" data-name="전처리 및 구조분석" class="cls-5"><g class="cls-5"><path class="cls-6" d="M78.52,374a5,5,0,0,0,1.29-1.75,5.29,5.29,0,0,0,.43-2v-.25H77v-1.79H85.7v1.79H82.52v.26a4.61,4.61,0,0,0,.4,1.88,4.82,4.82,0,0,0,1.23,1.65,5.56,5.56,0,0,0,2,1.13l-1.11,1.78a6.19,6.19,0,0,1-2.22-1.25,5.87,5.87,0,0,1-1.46-1.93,6.49,6.49,0,0,1-1.53,2.15A6.37,6.37,0,0,1,77.53,377l-1.14-1.83A5.61,5.61,0,0,0,78.52,374Zm.82,3.75h2.25V381h8.75v1.79h-11Zm10.62,1H87.72V373H85.11v-1.81h2.61v-4.13H90Z"/><path class="cls-6" d="M93.9,376.76a7.19,7.19,0,0,0,1.29-2.24,7.66,7.66,0,0,0,.44-2.47v-.62H92.31v-1.79h3.32v-2.25h2.25v2.25h3.24v1.79H97.86v.62a6.73,6.73,0,0,0,.43,2.36,6.86,6.86,0,0,0,1.32,2.15,6.23,6.23,0,0,0,2.14,1.52l-1.2,1.72a6.38,6.38,0,0,1-2.29-1.62,7.81,7.81,0,0,1-1.5-2.49,8.49,8.49,0,0,1-1.5,2.65A6.24,6.24,0,0,1,93,380.05l-1.18-1.73A5.92,5.92,0,0,0,93.9,376.76Zm11.49,6.31h-2.25V375h-2.89v-1.79h2.89V367h2.25Z"/><path class="cls-6" d="M108.11,368.37h7.61v6.17h-5.27v2.94c1.28,0,2.47-.06,3.55-.13s2.18-.21,3.3-.4l.19,1.81a33,33,0,0,1-3.68.45c-1.22.08-2.64.11-4.24.11h-1.45v-6.55h5.31v-2.59h-5.32Zm12.57,14.7h-2.24V367h2.24Z"/><path class="cls-6" d="M135.28,374.74h-7.83V368h7.83Zm-4.35,6a5.23,5.23,0,0,0,1.74-1,2.29,2.29,0,0,0,.76-1.15H129V377h4.55v-1.32h2.25V377h4.55v1.67h-4.48a2.26,2.26,0,0,0,.75,1.12,5.58,5.58,0,0,0,1.73,1,10.74,10.74,0,0,0,2.62.56l-.76,1.69a10.42,10.42,0,0,1-3.35-.83,5.86,5.86,0,0,1-2.18-1.63,5.59,5.59,0,0,1-2.18,1.62,10.28,10.28,0,0,1-3.38.84l-.77-1.69A10,10,0,0,0,130.93,380.78ZM133,373v-3.24h-3.37V373Zm4.75-5.94H140v9.07h-2.23Z"/></g><g class="cls-5"><path class="cls-6" d="M89.36,389.41c0,1,0,2-.08,2.73a25.79,25.79,0,0,1-.33,2.63h2.11v1.81H84.82v6.47H82.57v-6.47h-6.1v-1.81h10.2a18.51,18.51,0,0,0,.36-2.53c.06-.76.09-1.59.1-2.48h-9V388H89.36Z"/><path class="cls-6" d="M106.51,401.17H91.87v-1.81h6.19v-3.57h2.25v3.57h6.2Zm-11.22-7.41a5.86,5.86,0,0,0,1.9-1.66,4.22,4.22,0,0,0,.78-2H93.08v-1.81h12.15v1.81h-4.87a4,4,0,0,0,.78,2,5.69,5.69,0,0,0,1.93,1.62,8.52,8.52,0,0,0,2.9.92l-.88,1.78a9.9,9.9,0,0,1-3.61-1.35,6.56,6.56,0,0,1-2.31-2.41,6.6,6.6,0,0,1-2.27,2.47,9.18,9.18,0,0,1-3.55,1.37l-.88-1.77A8.53,8.53,0,0,0,95.29,393.76Z"/><path class="cls-6" d="M121.89,397h-6v2.59h-2.22V397h-6.39v-1.75h14.64ZM109,398.32h2.21V401h9.09v1.79H109Zm.16-10.77h2.21v1.67h6.42v-1.67H120v6.57H109.13Zm8.63,4.8v-1.46h-6.42v1.46Z"/><path class="cls-6" d="M129,391.49a4.61,4.61,0,0,0,1.21,1.66,5.71,5.71,0,0,0,2,1.11L131.1,396A6,6,0,0,1,129,394.8a6.08,6.08,0,0,1-1.42-1.94,6.35,6.35,0,0,1-3.76,3.46l-1.22-1.79a5.82,5.82,0,0,0,2.15-1.2,4.9,4.9,0,0,0,1.27-1.79,6,6,0,0,0,.42-2.15v-1.53h2.26v1.67A5,5,0,0,0,129,391.49Zm-3.89,5.8h11V403h-2.23v-4h-8.76ZM130.9,390h3v-3h2.23v9.52h-2.23v-4.71h-3Z"/></g></g><g id="문자인식_및_검증" data-name="문자인식 및 검증" class="cls-5"><g class="cls-5"><path class="cls-6" d="M91.1,502.72h-6v2.76H82.86v-2.76h-6.4V501H91.1Zm-12.92,1.37h2.23V507h9.07v1.79H78.18Zm.11-10.35H89.22v5.89H78.29ZM87,497.89v-2.41H80.48v2.41Z"/><path class="cls-6" d="M98.21,499.92a7.46,7.46,0,0,0,1.34,2.31,6.23,6.23,0,0,0,2.15,1.64l-1.25,1.75a6.36,6.36,0,0,1-2.25-1.73,8.88,8.88,0,0,1-1.52-2.63,9.49,9.49,0,0,1-1.55,2.88A6.29,6.29,0,0,1,92.8,506l-1.3-1.78a6.24,6.24,0,0,0,2.19-1.69,8,8,0,0,0,1.37-2.45,8.83,8.83,0,0,0,.47-2.71v-1h-3.4v-1.83H101v1.83H97.78v1A7.46,7.46,0,0,0,98.21,499.92Zm4-6.88h2.25v6.1h2.36V501h-2.36v8h-2.25Z"/><path class="cls-6" d="M108.09,496a3.93,3.93,0,0,1,1.58-1.44,5,5,0,0,1,4.43,0,3.86,3.86,0,0,1,1.58,1.44,3.76,3.76,0,0,1,.58,2.07,3.86,3.86,0,0,1-.58,2.1,3.93,3.93,0,0,1-1.58,1.44,4.68,4.68,0,0,1-2.21.52,4.73,4.73,0,0,1-2.23-.52,4,4,0,0,1-1.57-1.44,3.86,3.86,0,0,1-.58-2.1A3.76,3.76,0,0,1,108.09,496Zm1.89,3.2a1.89,1.89,0,0,0,.78.73,2.41,2.41,0,0,0,1.13.25A2.34,2.34,0,0,0,113,500a1.93,1.93,0,0,0,.77-.73,2.18,2.18,0,0,0,.29-1.13,2.14,2.14,0,0,0-.29-1.11,1.9,1.9,0,0,0-.77-.72,2.25,2.25,0,0,0-1.1-.24,2.29,2.29,0,0,0-1.13.24,1.87,1.87,0,0,0-.78.72,2,2,0,0,0-.27,1.11A2.08,2.08,0,0,0,110,499.23Zm0,4.16h2.26V507h8.88v1.79H109.94Zm10.72,1.16h-2.25V493.06h2.25Z"/><path class="cls-6" d="M129.19,497.27a4.5,4.5,0,0,0,1.25,1.66,5.68,5.68,0,0,0,2.12,1.1l-1.13,1.76a6.32,6.32,0,0,1-2.29-1.24,6,6,0,0,1-1.51-1.94,6.39,6.39,0,0,1-1.53,2.1,6.54,6.54,0,0,1-2.37,1.33l-1.12-1.76a5.84,5.84,0,0,0,2.14-1.19,4.91,4.91,0,0,0,1.29-1.75,5.09,5.09,0,0,0,.42-2v-1.53h2.33v1.53A4.88,4.88,0,0,0,129.19,497.27Zm-4.14,6h11V509H133.8v-4h-8.75ZM133.8,493h2.25v9.54H133.8Z"/><path class="cls-6" d="M150.67,500.74h-7.82V494h7.82Zm-4.34,6a5.45,5.45,0,0,0,1.74-1,2.26,2.26,0,0,0,.75-1.15h-4.48V503h4.55v-1.32h2.25V503h4.56v1.67h-4.48a2.14,2.14,0,0,0,.75,1.12,5.52,5.52,0,0,0,1.72,1,10.85,10.85,0,0,0,2.62.56l-.75,1.69a10.35,10.35,0,0,1-3.35-.83,5.86,5.86,0,0,1-2.18-1.63,5.63,5.63,0,0,1-2.19,1.62,10.22,10.22,0,0,1-3.37.84l-.78-1.69A10.1,10.1,0,0,0,146.33,506.78Zm2.11-7.8v-3.24h-3.38V499Zm4.74-5.94h2.24v9.07h-2.24Z"/></g><g class="cls-5"><path class="cls-6" d="M83.92,517.7a7.9,7.9,0,0,1-2.49,2.83,12.55,12.55,0,0,1-4,1.82l-.88-1.74a10.34,10.34,0,0,0,4-2,4.86,4.86,0,0,0,1.76-2.9h-5V514h7.35A8,8,0,0,1,83.92,517.7Zm-4.56,4.94H90v6.2H79.36Zm8.38,4.44v-2.69H81.55v2.69Zm-2.86-10.23h2.84v-3.79H90V522H87.72v-3.32H84.88Z"/><path class="cls-6" d="M106.46,522.21H91.87V520.4h14.59ZM95,517.56a5.44,5.44,0,0,0,1.69-.88,2.5,2.5,0,0,0,.82-1.11H93.21v-1.79h11.93v1.79h-4.37a2.48,2.48,0,0,0,.82,1.1,5.49,5.49,0,0,0,1.7.89,10.38,10.38,0,0,0,2.55.5l-.79,1.76a10.08,10.08,0,0,1-3.73-1,5,5,0,0,1-2.17-2,5,5,0,0,1-2.16,2,10,10,0,0,1-3.73,1l-.74-1.76A10.13,10.13,0,0,0,95,517.56Zm-.82,6.92a4.46,4.46,0,0,1,1.93-1,11.58,11.58,0,0,1,3-.35,11.34,11.34,0,0,1,3,.35,4.38,4.38,0,0,1,1.91,1,2.23,2.23,0,0,1,.68,1.6,2.19,2.19,0,0,1-.68,1.6,4.17,4.17,0,0,1-1.91,1,11.37,11.37,0,0,1-3,.34,11.61,11.61,0,0,1-3-.34,4.25,4.25,0,0,1-1.93-1,2.14,2.14,0,0,1-.67-1.6A2.18,2.18,0,0,1,94.21,524.48ZM96.65,527a7.78,7.78,0,0,0,2.5.3c2.21,0,3.31-.4,3.32-1.21s-1.11-1.23-3.32-1.23a7.78,7.78,0,0,0-2.5.3c-.56.21-.83.51-.83.93S96.09,526.8,96.65,527Z"/></g></g><g id="처리_대상_문서_요청_및_전달" data-name="처리 대상 문서 요청 및 전달" class="cls-5"><g class="cls-5"><path class="cls-6" d="M192.82,9.79a5.23,5.23,0,0,0,1-1.74,5.91,5.91,0,0,0,.35-1.92V5.65h-2.59V4.26h2.59V2.51h1.75V4.26h2.51V5.65H195.9v.48A5.2,5.2,0,0,0,196.24,8a5.25,5.25,0,0,0,1,1.67,4.83,4.83,0,0,0,1.66,1.18L198,12.16a5.07,5.07,0,0,1-1.78-1.26A6.2,6.2,0,0,1,195,9a6.54,6.54,0,0,1-1.16,2,4.82,4.82,0,0,1-1.78,1.33L191.18,11A4.52,4.52,0,0,0,192.82,9.79Zm8.93,4.91H200V8.41h-2.24V7H200V2.23h1.75Z"/><path class="cls-6" d="M203.86,3.27h5.92v4.8h-4.11v2.28c1,0,1.93,0,2.77-.1s1.69-.16,2.57-.31l.15,1.41a28.44,28.44,0,0,1-2.87.35q-1.42.09-3.3.09h-1.12V6.69H208v-2h-4.14Zm9.77,11.43h-1.74V2.23h1.74Z"/><path class="cls-6" d="M218.6,3.67h4.64V5.08h-2.89v5.31c.65,0,1.25,0,1.8-.08s1.1-.12,1.67-.22l.13,1.43a16.73,16.73,0,0,1-2.07.26c-.68.05-1.49.07-2.42.08h-.86Zm10.41,11h-1.66V8.43h-1.2v5.64h-1.6V2.44h1.6V7h1.2V2.23H229Z"/><path class="cls-6" d="M235.05,5.67A3.62,3.62,0,0,0,236,6.92a4.53,4.53,0,0,0,1.59.84l-.93,1.35a4.63,4.63,0,0,1-2.78-2.37,5.1,5.1,0,0,1-1.15,1.66,4.63,4.63,0,0,1-1.77,1l-1-1.37a4.46,4.46,0,0,0,1.67-1,4.15,4.15,0,0,0,1-1.42A4.54,4.54,0,0,0,233,4V2.89h1.75v1.3A3.57,3.57,0,0,0,235.05,5.67ZM232.25,11a3.34,3.34,0,0,1,1.48-.83A8.08,8.08,0,0,1,236,9.86a7.74,7.74,0,0,1,2.23.29,3.27,3.27,0,0,1,1.46.83,1.89,1.89,0,0,1,0,2.58,3.18,3.18,0,0,1-1.46.83,7.76,7.76,0,0,1-2.23.28,8.1,8.1,0,0,1-2.27-.28,3.25,3.25,0,0,1-1.48-.83,1.89,1.89,0,0,1,0-2.58Zm1.87,2.07a5.31,5.31,0,0,0,1.88.26c1.65,0,2.48-.35,2.48-1,0-.34-.21-.6-.64-.77a4.85,4.85,0,0,0-1.84-.27,5,5,0,0,0-1.87.27c-.44.17-.65.43-.64.77S233.69,12.87,234.12,13.05Zm4.21-10.82h1.75V5.14h1.68V6.59h-1.68v3h-1.75Z"/><path class="cls-6" d="M256.63,9.77h-4.69v2.14h-1.73V9.77h-5V8.38h11.39Zm-10,1.06h1.73v2.23h7.06v1.4h-8.79Zm.08-8h8.5V7.36h-8.5ZM253.45,6V4.13h-5.08V6Z"/><path class="cls-6" d="M262.25,7.35a5.48,5.48,0,0,0,1,1.93,4.24,4.24,0,0,0,1.68,1.28L263.87,12a4.89,4.89,0,0,1-1.72-1.37A6.89,6.89,0,0,1,261,8.5a7.29,7.29,0,0,1-1.15,2.22,5.09,5.09,0,0,1-1.76,1.45L257,10.75a4.57,4.57,0,0,0,1.73-1.35,6.15,6.15,0,0,0,1-2,7.87,7.87,0,0,0,.35-2.33V3.19h1.76V5.05A8.31,8.31,0,0,0,262.25,7.35Zm1.29-1.21H266V2.23h1.72V14.7H266V7.55h-2.45Z"/><path class="cls-6" d="M283.65,13.22H272.26V11.79h2.54v-3a3.34,3.34,0,0,1-1.14-1.1,2.69,2.69,0,0,1-.4-1.46,2.75,2.75,0,0,1,.6-1.75,4,4,0,0,1,1.66-1.18,7.12,7.12,0,0,1,4.82,0A4,4,0,0,1,282,4.43a2.7,2.7,0,0,1,.61,1.75,2.74,2.74,0,0,1-.4,1.44,3.28,3.28,0,0,1-1.1,1.09v3.08h2.53Zm-8.31-6a2.31,2.31,0,0,0,1,.68,4.55,4.55,0,0,0,1.55.24,4.59,4.59,0,0,0,1.55-.24,2.36,2.36,0,0,0,1-.68,1.59,1.59,0,0,0,.38-1.05,1.65,1.65,0,0,0-.37-1.06,2.43,2.43,0,0,0-1-.68,4.82,4.82,0,0,0-1.55-.23,4.55,4.55,0,0,0-1.55.24,2.29,2.29,0,0,0-1,.67A1.64,1.64,0,0,0,275,6.18,1.63,1.63,0,0,0,275.34,7.23Zm4,4.56V9.37a7.27,7.27,0,0,1-1.42.14,8.22,8.22,0,0,1-1.41-.13v2.41Z"/><path class="cls-6" d="M291.31,4.9H288.8a2.74,2.74,0,0,0,.34,1.27,3.27,3.27,0,0,0,1,1.09,4.84,4.84,0,0,0,1.62.73l-.81,1.34a5,5,0,0,1-1.79-.82A4.22,4.22,0,0,1,288,7.17a4.54,4.54,0,0,1-1.17,1.54,5.14,5.14,0,0,1-1.83.95l-.82-1.36a4.59,4.59,0,0,0,1.61-.8,3.47,3.47,0,0,0,1-1.2,3.16,3.16,0,0,0,.33-1.4h-2.5V3.53h2.5V2.18h1.76V3.53h2.49ZM286.69,11a3.46,3.46,0,0,1,1.48-.8,9.8,9.8,0,0,1,4.57,0,3.57,3.57,0,0,1,1.49.8,1.74,1.74,0,0,1,.51,1.26,1.81,1.81,0,0,1-.51,1.29,3.37,3.37,0,0,1-1.49.81,8.2,8.2,0,0,1-2.29.28,8.05,8.05,0,0,1-2.27-.28,3.31,3.31,0,0,1-1.49-.81,1.82,1.82,0,0,1-.52-1.29A1.71,1.71,0,0,1,286.69,11Zm1.87,2.05a6.79,6.79,0,0,0,3.79,0c.44-.18.65-.44.66-.79s-.22-.58-.65-.74a5.5,5.5,0,0,0-1.91-.25,5.41,5.41,0,0,0-1.89.25c-.44.17-.65.42-.65.74S288.13,12.9,288.56,13.08Zm2.38-7.51h2V2.23h1.73V9.75H293V7h-2Z"/><path class="cls-6" d="M306,8.22h-6.09V3H306Zm-3.38,4.7a4.06,4.06,0,0,0,1.35-.75,1.76,1.76,0,0,0,.59-.9h-3.49V10h3.55V9h1.75v1h3.54v1.3H306.4a1.69,1.69,0,0,0,.58.87,4.36,4.36,0,0,0,1.35.76,8,8,0,0,0,2,.43l-.58,1.32a7.87,7.87,0,0,1-2.61-.65,4.43,4.43,0,0,1-1.69-1.27,4.47,4.47,0,0,1-1.7,1.27,8.52,8.52,0,0,1-2.63.65l-.6-1.32A7.74,7.74,0,0,0,302.6,12.92Zm1.64-6.07V4.34h-2.63V6.85Zm3.69-4.62h1.74V9.29h-1.74Z"/><path class="cls-6" d="M315.9,7.62a3.93,3.93,0,0,0,1-1.36,4,4,0,0,0,.33-1.59v-.2h-2.5V3.08h6.76V4.47H319v.21a3.58,3.58,0,0,0,.31,1.46,3.66,3.66,0,0,0,1,1.28,4.37,4.37,0,0,0,1.59.88L321,9.68a4.93,4.93,0,0,1-1.73-1,4.9,4.9,0,0,1-1.14-1.5A4.92,4.92,0,0,1,317,8.88a4.78,4.78,0,0,1-1.82,1.06l-.89-1.42A4.42,4.42,0,0,0,315.9,7.62Zm.64,2.91h1.75v2.53h6.81v1.4h-8.56Zm8.26.79h-1.74V6.87h-2V5.46h2V2.25h1.74Z"/><path class="cls-6" d="M332.3,4.26h-3.86V6.77c1.11,0,2,0,2.76-.1a17.6,17.6,0,0,0,2.18-.31l.18,1.35a14.61,14.61,0,0,1-2.23.34c-.77,0-1.81.07-3.11.07h-1.51V2.88h5.59Zm-4.42,4.67h8.26v3.43h-6.52v.78h6.88v1.4h-8.59V11.05h6.49v-.74h-6.52Zm6.51-6.7h1.75V4.58h1.68V6h-1.68V8.43h-1.75Z"/></g></g><g id="내부_시스템_자동_입력" data-name="내부 시스템 자동 입력" class="cls-5"><g class="cls-5"><path class="cls-6" d="M221.84,628.61h1.75v6.5a19.89,19.89,0,0,0,3.29-.34l.18,1.5a25,25,0,0,1-4.37.37h-.85Zm10.23,11.06h-1.69v-6.22h-1.16v5.62h-1.64V627.44h1.64v4.61h1.16v-4.82h1.69Z"/><path class="cls-6" d="M244.67,635.78H239.8v3.89h-1.72v-3.89h-4.8v-1.37h11.39Zm-10-8.07h1.72v1.44h5.22v-1.44h1.75v5.5h-8.69Zm6.94,4.1v-1.3h-5.22v1.3Z"/><path class="cls-6" d="M253.53,632.31a5.77,5.77,0,0,0,1.06,1.93,4.55,4.55,0,0,0,1.73,1.28l-1,1.39a4.94,4.94,0,0,1-1.79-1.35,7,7,0,0,1-1.19-2.07,7,7,0,0,1-1.21,2.26,5,5,0,0,1-1.88,1.46l-1-1.45a4.54,4.54,0,0,0,1.78-1.32,6.15,6.15,0,0,0,1.09-2,8.1,8.1,0,0,0,.37-2.37v-1.86h1.76v1.86A6.89,6.89,0,0,0,253.53,632.31Zm3.46-5.08h1.77V639.7H257Z"/><path class="cls-6" d="M260.3,636.71h11.39v1.43H260.3Zm7.07-6a4.81,4.81,0,0,0,1.54,1.54,6.22,6.22,0,0,0,2.37.89l-.77,1.44a7,7,0,0,1-2.78-1.17,5.66,5.66,0,0,1-1.81-2.07,5.93,5.93,0,0,1-1.81,2.07,7,7,0,0,1-2.77,1.17l-.75-1.44a6.23,6.23,0,0,0,2.33-.9,4.91,4.91,0,0,0,1.53-1.55,3.65,3.65,0,0,0,.54-1.81V628h1.86v.9A3.49,3.49,0,0,0,267.37,630.7Z"/><path class="cls-6" d="M277.49,629.38h-3.07v1H277v1.34h-2.61v1.09c.7,0,1.33,0,1.86-.07s1.08-.11,1.64-.2l.18,1.36a18.65,18.65,0,0,1-1.91.22c-.62,0-1.38.06-2.27.06h-1.17V628h4.74Zm-3,5.77H283v4.39h-8.49Zm6.77,3v-1.62h-5v1.62Zm-3.67-7.91h1.26v-2.81h1.66v7.15h-1.66v-3h-1.26Zm3.74-3H283v7.43H281.3Z"/><path class="cls-6" d="M292.24,632.59a5.67,5.67,0,0,0,1,1.79,4.56,4.56,0,0,0,1.67,1.27L294,637a5,5,0,0,1-1.75-1.35,7,7,0,0,1-1.19-2,7.14,7.14,0,0,1-1.2,2.25,5,5,0,0,1-1.81,1.47L287,636a4.86,4.86,0,0,0,1.7-1.32,6.07,6.07,0,0,0,1.06-1.91,6.74,6.74,0,0,0,.37-2.11v-.76h-2.64v-1.42h6.89v1.42h-2.5v.76A5.72,5.72,0,0,0,292.24,632.59Zm3.13-5.36h1.75V632H299v1.46h-1.83v6.23h-1.75Z"/><path class="cls-6" d="M310.64,634.48H299.26v-1.37h4.84v-1.06h-3.46v-4.27h8.63v1.35h-6.89v1.55h7v1.37h-3.53v1.06h4.83Zm-9.56,1.68a3.33,3.33,0,0,1,1.5-.79,9.44,9.44,0,0,1,2.34-.26,9.22,9.22,0,0,1,2.32.26,3.24,3.24,0,0,1,1.49.79,1.72,1.72,0,0,1,0,2.48,3.33,3.33,0,0,1-1.49.78,10.15,10.15,0,0,1-4.65,0,3.32,3.32,0,0,1-1.5-.78,1.66,1.66,0,0,1-.53-1.24A1.71,1.71,0,0,1,301.08,636.16Zm1.9,2a6.26,6.26,0,0,0,1.94.23c1.72,0,2.58-.32,2.59-1,0-.31-.23-.56-.66-.72a7.61,7.61,0,0,0-3.87,0c-.43.16-.64.4-.64.72S302.55,638,303,638.13Z"/><path class="cls-6" d="M315,629.17a2.92,2.92,0,0,1,1.22-1,3.9,3.9,0,0,1,1.74-.37,4,4,0,0,1,1.73.37,3,3,0,0,1,1.22,1,2.7,2.7,0,0,1,.45,1.54,2.59,2.59,0,0,1-.45,1.49,3,3,0,0,1-1.22,1,4,4,0,0,1-1.73.38,3.9,3.9,0,0,1-1.74-.38,2.9,2.9,0,0,1-1.22-1,2.59,2.59,0,0,1-.45-1.49A2.7,2.7,0,0,1,315,629.17Zm1.47,2.32a1.25,1.25,0,0,0,.6.51,2.08,2.08,0,0,0,.89.18,2,2,0,0,0,.86-.18,1.37,1.37,0,0,0,.82-1.29,1.39,1.39,0,0,0-.22-.8,1.47,1.47,0,0,0-.6-.53,2,2,0,0,0-.86-.18,2.08,2.08,0,0,0-.89.18,1.35,1.35,0,0,0-.6.53,1.47,1.47,0,0,0-.21.8A1.42,1.42,0,0,0,316.42,631.49Zm0,3h1.72v1.16H323v-1.16h1.74v5.07H316.4Zm6.59,3.66V637h-4.87v1.15Zm1.74-4.21H323v-6.69h1.75Z"/><path class="cls-6" d="M332.24,631.84h-3.76v1.33c1,0,1.75,0,2.37-.07a16.69,16.69,0,0,0,1.85-.23l.16,1.39a17.91,17.91,0,0,1-2.11.24q-1.08.06-3.06.06h-.93v-4h3.73v-1.22h-3.76V628h5.51Zm-4.06,3.62h8.58v4.21H335v-2.81h-6.84Zm4.78-3.85H335v-1.26H333V629H335v-1.72h1.74v7.65H335V633H333Z"/></g></g><g id="그룹_401" data-name="그룹 401"><g id="PDF_TIFF_등_다양한_파일_형태를_PNG이미지_파일로_변환" data-name="PDF TIFF 등 다양한 파일 형태를 PNG이미지 파일로 변환" class="cls-5"><g class="cls-5"><path class="cls-6" d="M150.83,104.52h3.88a4,4,0,0,1,1.9.42,2.9,2.9,0,0,1,1.22,1.18,3.49,3.49,0,0,1,.42,1.73,3.54,3.54,0,0,1-.42,1.75,3,3,0,0,1-1.24,1.17,4.13,4.13,0,0,1-1.93.42h-1.78v3.23h-2Zm3.5,5a1.87,1.87,0,0,0,1.35-.46,1.63,1.63,0,0,0,.46-1.23,1.59,1.59,0,0,0-.46-1.2,1.87,1.87,0,0,0-1.35-.45h-1.45v3.34Z"/><path class="cls-6" d="M159.41,114.42v-9.9h3.53a5.22,5.22,0,0,1,2.57.59,4,4,0,0,1,1.66,1.7,6.39,6.39,0,0,1,0,5.3,4,4,0,0,1-1.67,1.71,5.27,5.27,0,0,1-2.59.6Zm3.41-1.77a2.79,2.79,0,0,0,2.15-.78,4.39,4.39,0,0,0,0-4.82,2.78,2.78,0,0,0-2.14-.77h-1.37v6.37Z"/><path class="cls-6" d="M169.09,104.52h6.52v1.69h-4.47v2.41h4.05v1.69h-4.05v4.11h-2Z"/><path class="cls-6" d="M177.27,117.3h-1.45l.68-3.9h1.94Z"/><path class="cls-6" d="M182.42,104.52h8.11v1.69h-3v8.21h-2v-8.21h-3Z"/><path class="cls-6" d="M193.71,114.42h-2.05v-9.9h2.05Z"/><path class="cls-6" d="M195.24,104.52h6.52v1.69h-4.47v2.41h4.05v1.69h-4.05v4.11h-2Z"/><path class="cls-6" d="M203,104.52h6.52v1.69H205v2.41h4v1.69h-4v4.11H203Z"/><path class="cls-6" d="M224.71,110.34H213.33v-1.42h11.38Zm-9.55,1.8a3.32,3.32,0,0,1,1.5-.78,10.15,10.15,0,0,1,4.65,0,3.19,3.19,0,0,1,1.49.78,1.72,1.72,0,0,1,0,2.48,3.29,3.29,0,0,1-1.49.79,10.53,10.53,0,0,1-4.65,0,3.28,3.28,0,0,1-1.5-.79,1.72,1.72,0,0,1,0-2.48Zm-.45-8.58h8.63V105h-6.89v1.69h7V108h-8.7ZM219,114.35c1.72,0,2.58-.33,2.59-1,0-.32-.23-.56-.67-.72a5.82,5.82,0,0,0-1.92-.24,6,6,0,0,0-1.94.24c-.43.16-.64.4-.64.72C216.41,114,217.27,114.35,219,114.35Z"/><path class="cls-6" d="M228.87,104.38h5.84v1.41h-4.1v5.45c.95,0,1.81,0,2.58-.1s1.57-.16,2.37-.29l.19,1.46a22.46,22.46,0,0,1-2.54.29c-.84.05-1.81.08-2.92.08h-1.42Zm9.33,3.47H240v1.43H238.2v6.42h-1.75V103.23h1.75Z"/><path class="cls-6" d="M240.87,105.37a2.89,2.89,0,0,1,1.22-1.07,3.87,3.87,0,0,1,1.75-.38,3.79,3.79,0,0,1,1.73.38,3,3,0,0,1,1.22,1.07,2.83,2.83,0,0,1,.44,1.55,2.87,2.87,0,0,1-.44,1.56,3.09,3.09,0,0,1-1.22,1.07,3.92,3.92,0,0,1-1.73.38,4,4,0,0,1-1.75-.38,3,3,0,0,1-1.22-1.07,2.79,2.79,0,0,1-.45-1.56A2.76,2.76,0,0,1,240.87,105.37Zm1.52,6.53a3.36,3.36,0,0,1,1.48-.85,7.71,7.71,0,0,1,2.27-.3,7.36,7.36,0,0,1,2.22.3,3.34,3.34,0,0,1,1.46.85,1.93,1.93,0,0,1,.51,1.33,1.88,1.88,0,0,1-.51,1.31,3.22,3.22,0,0,1-1.47.84,7.36,7.36,0,0,1-2.21.29,7.73,7.73,0,0,1-2.27-.29,3.26,3.26,0,0,1-1.48-.84,1.84,1.84,0,0,1-.52-1.31A1.89,1.89,0,0,1,242.39,111.9Zm0-4.16a1.37,1.37,0,0,0,.6.54,2.23,2.23,0,0,0,.88.19,2.13,2.13,0,0,0,.86-.19,1.55,1.55,0,0,0,.61-2.17,1.48,1.48,0,0,0-.61-.55,1.84,1.84,0,0,0-.86-.18,1.93,1.93,0,0,0-.88.18,1.43,1.43,0,0,0-.6.54,1.5,1.5,0,0,0-.22.82A1.46,1.46,0,0,0,242.36,107.74Zm3.78,6.55c1.65,0,2.47-.35,2.47-1.06a.89.89,0,0,0-.63-.82,5,5,0,0,0-1.84-.28,5.2,5.2,0,0,0-1.88.28.89.89,0,0,0-.64.82C243.61,113.94,244.44,114.29,246.14,114.29Zm5.68-8.09h-1.61v1.28h1.61v1.44h-1.61v1.59h-1.75v-7.28h1.75v1.55h1.61Z"/><path class="cls-6" d="M252.3,104.54h2.83v-1.32h1.73v1.32h2.82v1.39H252.3Zm1,3a2.63,2.63,0,0,1,1.1-.85,4,4,0,0,1,1.6-.3,4,4,0,0,1,1.59.3,2.57,2.57,0,0,1,1.08.85,2.24,2.24,0,0,1,0,2.51,2.5,2.5,0,0,1-1.09.83,4,4,0,0,1-1.59.3,4,4,0,0,1-1.6-.3,2.61,2.61,0,0,1-1.1-.84,2.06,2.06,0,0,1-.39-1.24A2.14,2.14,0,0,1,253.29,107.51Zm.81,4.31h1.74v2.24h6.78v1.4H254.1Zm.88-2.27a1.7,1.7,0,0,0,1,.27,1.77,1.77,0,0,0,1-.27.91.91,0,0,0,.38-.78A.94.94,0,0,0,257,108a1.7,1.7,0,0,0-1-.29,1.64,1.64,0,0,0-1,.29.9.9,0,0,0-.37.79A.87.87,0,0,0,255,109.55Zm7.19-2.49h1.68v1.42h-1.68v4h-1.75v-9.28h1.75Z"/><path class="cls-6" d="M274.44,105.78h-1.11v5.42c.56,0,1.05-.09,1.48-.15l.1,1.26a28.39,28.39,0,0,1-3.54.39c-1.23.07-2.56.11-4,.12l-.19-1.43h1.42v-5.61h-1.1v-1.4h6.94Zm-2.79,5.53v-5.53h-1.37v5.58Zm3.76-8.08h1.75V108H279v1.42h-1.83v6.29h-1.75Z"/><path class="cls-6" d="M284.54,104a2.9,2.9,0,0,1,1.19,1,2.57,2.57,0,0,1,.44,1.47,2.53,2.53,0,0,1-.44,1.45,2.88,2.88,0,0,1-1.19,1,3.91,3.91,0,0,1-1.69.37,4,4,0,0,1-1.72-.37,2.91,2.91,0,0,1-1.2-1,2.52,2.52,0,0,1-.43-1.45,2.56,2.56,0,0,1,.43-1.47,2.93,2.93,0,0,1,1.2-1,4,4,0,0,1,1.72-.36A3.91,3.91,0,0,1,284.54,104Zm-3.14,3.24a1.33,1.33,0,0,0,.58.49,2.32,2.32,0,0,0,.87.18,2.25,2.25,0,0,0,.84-.18,1.33,1.33,0,0,0,.58-.49,1.41,1.41,0,0,0,0-1.51,1.35,1.35,0,0,0-.58-.5,2.07,2.07,0,0,0-.84-.17,2.13,2.13,0,0,0-.86.17,1.41,1.41,0,0,0-.59,2Zm0,2.79h8.35v3.37H283.1v.81h7v1.37H281.4v-3.45H288v-.76h-6.62Zm6.6-6.76h1.75v6.24H288Z"/><path class="cls-6" d="M301.3,105.76h-6.92v-1.38h2.68v-1.26h1.73v1.26h2.51Zm-5.95,1.54a2.47,2.47,0,0,1,1-.83,3.68,3.68,0,0,1,1.52-.3,3.63,3.63,0,0,1,1.51.3,2.44,2.44,0,0,1,1.05.83,2.07,2.07,0,0,1,0,2.42,2.4,2.4,0,0,1-1.05.81,4.1,4.1,0,0,1-3,0,2.43,2.43,0,0,1-1-.81,2.21,2.21,0,0,1,0-2.42Zm1.49,5a3.27,3.27,0,0,1,1.48-.75,10.21,10.21,0,0,1,4.58,0,3.38,3.38,0,0,1,1.48.75,1.57,1.57,0,0,1,.53,1.18,1.54,1.54,0,0,1-.53,1.16,3.37,3.37,0,0,1-1.49.75,8.52,8.52,0,0,1-2.28.26,8.64,8.64,0,0,1-2.29-.26,3.32,3.32,0,0,1-1.48-.75,1.53,1.53,0,0,1-.52-1.16A1.56,1.56,0,0,1,296.84,112.32Zm.12-3a1.49,1.49,0,0,0,1,.27,1.56,1.56,0,0,0,1-.27.89.89,0,0,0,.36-.76.9.9,0,0,0-.36-.76,1.63,1.63,0,0,0-1-.28,1.56,1.56,0,0,0-1,.28,1,1,0,0,0,0,1.52Zm1.82,4.87a5.74,5.74,0,0,0,1.83.22,5.54,5.54,0,0,0,1.8-.22c.41-.14.62-.36.62-.64,0-.57-.8-.86-2.42-.88a6.35,6.35,0,0,0-1.84.23c-.41.14-.62.36-.62.65S298.36,114,298.78,114.14Zm2.63-5.68h1.69v-1.1h-1.67V106h1.67v-2.74h1.74v7.93H303.1v-1.31h-1.69Z"/><path class="cls-6" d="M311.81,105.91H308.4v1.88h3.16v1.33H308.4v2.25q1.13,0,2-.06c.55,0,1.11-.09,1.69-.18l.12,1.43a20.3,20.3,0,0,1-2,.22c-.67,0-1.51,0-2.52,0h-.88v-8.3h5.08Zm.9-2.5h1.64v4.65h1.08v-4.83h1.67v12.44h-1.67v-6.22h-1.08v5.65h-1.64Z"/><path class="cls-6" d="M329.64,110.11H318.26v-1.3h11.38Zm-10.08.61h8.72v2.94h-7v.72h7.34v1.18h-9.08v-3h7v-.63h-7Zm.09-7.27h8.61v2.93h-6.85v.67h7.07v1.17h-8.8v-3h6.83v-.63h-6.86Z"/></g><g class="cls-5"><path class="cls-6" d="M200.36,124.52h3.88a4,4,0,0,1,1.9.42,2.92,2.92,0,0,1,1.23,1.18,3.49,3.49,0,0,1,.42,1.73,3.54,3.54,0,0,1-.43,1.75,3,3,0,0,1-1.24,1.17,4.13,4.13,0,0,1-1.93.42h-1.78v3.23h-2Zm3.5,5a1.87,1.87,0,0,0,1.35-.46,1.63,1.63,0,0,0,.46-1.23,1.59,1.59,0,0,0-.46-1.2,1.87,1.87,0,0,0-1.35-.45h-1.45v3.34Z"/><path class="cls-6" d="M217.2,134.42h-1.77l-4.35-6.29H211v6.29h-2.06v-9.9h1.81l4.32,6.29h.1v-6.29h2Z"/><path class="cls-6" d="M224.55,126.6a2.29,2.29,0,0,0-1.35-.4,2.38,2.38,0,0,0-1.35.39,2.58,2.58,0,0,0-.9,1.11,4.41,4.41,0,0,0-.32,1.75,4.48,4.48,0,0,0,.32,1.77,2.3,2.3,0,0,0,.89,1.12,2.43,2.43,0,0,0,1.38.39,2.65,2.65,0,0,0,1.2-.25,2,2,0,0,0,.79-.71,2.23,2.23,0,0,0,.29-1.09h-2.15v-1.54h4.13v1.23a4.4,4.4,0,0,1-.54,2.22,3.69,3.69,0,0,1-1.52,1.46,4.84,4.84,0,0,1-2.22.5,4.69,4.69,0,0,1-2.44-.62,4.23,4.23,0,0,1-1.64-1.76,6.5,6.5,0,0,1,0-5.41A4.24,4.24,0,0,1,220.8,125a4.59,4.59,0,0,1,2.36-.61,4.81,4.81,0,0,1,2,.42,4,4,0,0,1,1.49,1.18,3.71,3.71,0,0,1,.72,1.72h-2.08A2.08,2.08,0,0,0,224.55,126.6Z"/><path class="cls-6" d="M229.17,126.2a3.53,3.53,0,0,1,1.17-1.55,2.84,2.84,0,0,1,1.7-.54,2.76,2.76,0,0,1,1.68.54,3.61,3.61,0,0,1,1.17,1.55,6.73,6.73,0,0,1,0,4.68,3.64,3.64,0,0,1-1.17,1.56A2.76,2.76,0,0,1,232,133a2.84,2.84,0,0,1-1.7-.54,3.56,3.56,0,0,1-1.17-1.56,6.73,6.73,0,0,1,0-4.68Zm1.46,3.89a2.15,2.15,0,0,0,.56,1,1.19,1.19,0,0,0,.85.32,1.11,1.11,0,0,0,.83-.32,2.15,2.15,0,0,0,.56-1,5.4,5.4,0,0,0,.2-1.55,5.31,5.31,0,0,0-.2-1.55,2.15,2.15,0,0,0-.56-1,1.16,1.16,0,0,0-.83-.33,1.25,1.25,0,0,0-.85.33,2.15,2.15,0,0,0-.56,1,5.31,5.31,0,0,0-.2,1.55A5.4,5.4,0,0,0,230.63,130.09Zm8.17,5.61H237V123.23h1.77Z"/><path class="cls-6" d="M247,132.71h-6v-8.36h6Zm-1.7-1.38v-5.61H242.7v5.61Zm3.72-8.1h1.77V135.7H249Z"/><path class="cls-6" d="M257.47,128.65a5.51,5.51,0,0,0,1.06,1.79,4.52,4.52,0,0,0,1.71,1.21L259.3,133a5,5,0,0,1-1.83-1.32,6.68,6.68,0,0,1-1.21-2,7.21,7.21,0,0,1-1.21,2.22,5.11,5.11,0,0,1-1.85,1.46l-1-1.38a4.64,4.64,0,0,0,1.71-1.3,5.94,5.94,0,0,0,1.07-1.9,6.9,6.9,0,0,0,.35-2.14v-.76h-2.64v-1.42h7v1.42h-2.6v.76A6.15,6.15,0,0,0,257.47,128.65Zm3.48-5.42h1.77v12.44H261Z"/><path class="cls-6" d="M274.44,125.78h-1.11v5.42c.56,0,1.05-.09,1.48-.15l.1,1.26a28.39,28.39,0,0,1-3.54.39c-1.23.07-2.56.11-4,.12l-.19-1.43h1.42v-5.61h-1.1v-1.4h6.94Zm-2.79,5.53v-5.53h-1.37v5.58Zm3.76-8.08h1.75V128H279v1.42h-1.83v6.29h-1.75Z"/><path class="cls-6" d="M284.54,124a2.9,2.9,0,0,1,1.19,1,2.57,2.57,0,0,1,.44,1.47,2.53,2.53,0,0,1-.44,1.45,2.88,2.88,0,0,1-1.19,1,3.91,3.91,0,0,1-1.69.37,4,4,0,0,1-1.72-.37,2.91,2.91,0,0,1-1.2-1,2.52,2.52,0,0,1-.43-1.45,2.56,2.56,0,0,1,.43-1.47,2.93,2.93,0,0,1,1.2-1,4,4,0,0,1,1.72-.36A3.91,3.91,0,0,1,284.54,124Zm-3.14,3.24a1.33,1.33,0,0,0,.58.49,2.32,2.32,0,0,0,.87.18,2.25,2.25,0,0,0,.84-.18,1.33,1.33,0,0,0,.58-.49,1.41,1.41,0,0,0,0-1.51,1.35,1.35,0,0,0-.58-.5,2.07,2.07,0,0,0-.84-.17,2.13,2.13,0,0,0-.86.17,1.41,1.41,0,0,0-.59,2Zm0,2.79h8.35v3.37H283.1v.81h7v1.37H281.4v-3.45H288v-.76h-6.62Zm6.6-6.76h1.75v6.24H288Z"/><path class="cls-6" d="M302.65,134.29H291.26v-1.43h4.8V131h-3.48V126.8h7v-1.37h-7.06V124h8.78v4.13h-7v1.39h7.3V131H297.8v1.88h4.85Z"/><path class="cls-6" d="M316.8,132.42h-1.74v-3h-2.3v1.07h-5.92v-6.4h1.75V126H311v-1.92h1.72v1.27h2.3v-2.07h1.74Zm-8.29-.92h1.76v2.56h6.79v1.4h-8.55Zm2.53-2.42v-1.79h-2.45v1.79Zm4-1.09v-1.26h-2.3V128Z"/><path class="cls-6" d="M321.15,130.34v-.72a3.15,3.15,0,0,1-1.61-.62,1.48,1.48,0,0,1-.57-1.21,1.55,1.55,0,0,1,.37-1.05,2.39,2.39,0,0,1,1.06-.67,5.23,5.23,0,0,1,1.62-.23,5.14,5.14,0,0,1,1.6.23,2.39,2.39,0,0,1,1.06.67,1.51,1.51,0,0,1,.38,1.05,1.49,1.49,0,0,1-.58,1.2,3.17,3.17,0,0,1-1.59.63v.64c1.11-.07,2.11-.17,3-.3l.12,1.2a25.65,25.65,0,0,1-3.56.44c-1.23.07-2.61.11-4.15.12l-.18-1.34C319.28,130.38,320.28,130.37,321.15,130.34Zm-2.69-6.1h2.69v-1h1.74v1h2.69v1.25h-7.12Zm1.42,8.06h1.75v1.76h7v1.4h-8.77Zm1.1-4a2.12,2.12,0,0,0,1,.19,2.24,2.24,0,0,0,1-.19.59.59,0,0,0,.38-.53.66.66,0,0,0-.37-.59,2.11,2.11,0,0,0-1-.19,2.22,2.22,0,0,0-1,.19.62.62,0,0,0-.34.59A.57.57,0,0,0,321,128.32Zm7.24-1h1.59v1.44h-1.59v4.18h-1.75v-9.71h1.75Z"/></g></g><g id="그룹_329" data-name="그룹 329"><line id="선_58" data-name="선 58" class="cls-7" x1="241.86" y1="152.65" x2="249.86" y2="152.65"/><g id="PDF_Extractor" data-name="PDF Extractor" class="cls-5"><g class="cls-5"><path class="cls-4" d="M254.55,147.93h3.33a3.47,3.47,0,0,1,1.63.36,2.55,2.55,0,0,1,1,1,3,3,0,0,1,.36,1.48,3,3,0,0,1-.36,1.5,2.53,2.53,0,0,1-1.07,1,3.53,3.53,0,0,1-1.65.36h-1.52v2.77h-1.76Zm3,4.3a1.6,1.6,0,0,0,1.16-.39,1.42,1.42,0,0,0,.39-1.05,1.37,1.37,0,0,0-.39-1,1.69,1.69,0,0,0-1.16-.39h-1.24v2.86Z"/><path class="cls-4" d="M261.9,156.42v-8.49h3a4.5,4.5,0,0,1,2.2.51,3.39,3.39,0,0,1,1.42,1.46,4.83,4.83,0,0,1,.49,2.26,4.92,4.92,0,0,1-.49,2.28,3.44,3.44,0,0,1-1.43,1.47,4.62,4.62,0,0,1-2.23.51Zm2.92-1.52a2.41,2.41,0,0,0,1.85-.66,3,3,0,0,0,.61-2.08,2.92,2.92,0,0,0-.61-2,2.36,2.36,0,0,0-1.84-.67h-1.17v5.46Z"/><path class="cls-4" d="M270.2,147.93h5.59v1.45H272v2.07h3.47v1.45H272v3.52H270.2Z"/><path class="cls-4" d="M279.47,147.93h5.7v1.45h-3.94v2.07h3.65v1.45h-3.65V155h3.95v1.46h-5.71Z"/><path class="cls-4" d="M289,152.29l1.21-2.24H292l-1.86,3.18,1.91,3.19h-1.78L289,154.2l-1.24,2.22H286l1.9-3.19L286,150.05h1.8Z"/><path class="cls-4" d="M296.23,151.35H295v3.11a.64.64,0,0,0,.15.49.61.61,0,0,0,.45.15l.69,0v1.37a6.27,6.27,0,0,1-.94.06,2.36,2.36,0,0,1-1.53-.45,1.6,1.6,0,0,1-.55-1.34v-3.36h-.88v-1.3h.88v-1.52H295v1.52h1.2Z"/><path class="cls-4" d="M297.2,150.05h1.67v1.1h.07a1.73,1.73,0,0,1,.58-.88,1.53,1.53,0,0,1,1-.31,2.38,2.38,0,0,1,.55.06v1.54a1.93,1.93,0,0,0-.34-.06l-.4,0a1.48,1.48,0,0,0-.7.17,1.23,1.23,0,0,0-.49.47,1.4,1.4,0,0,0-.17.68v3.63H297.2Z"/><path class="cls-4" d="M301.93,153.2a3.24,3.24,0,0,1,1.71-.52c.43,0,1-.06,1.58-.08v-.52a.75.75,0,0,0-.27-.62,1.16,1.16,0,0,0-.75-.22,1.19,1.19,0,0,0-.71.19.76.76,0,0,0-.34.51h-1.66a2,2,0,0,1,.39-1,2.26,2.26,0,0,1,.94-.7,3.69,3.69,0,0,1,1.43-.26,3.85,3.85,0,0,1,1.34.23,2.1,2.1,0,0,1,1,.71,1.93,1.93,0,0,1,.37,1.22v4.29H305.3v-.88h0a1.87,1.87,0,0,1-.72.73,2.15,2.15,0,0,1-1.15.26,2.43,2.43,0,0,1-1.1-.21,1.79,1.79,0,0,1-.75-.64,2,2,0,0,1-.27-1.05A1.66,1.66,0,0,1,301.93,153.2Zm1.27,1.94a1.18,1.18,0,0,0,.69.2,1.46,1.46,0,0,0,.69-.16,1.22,1.22,0,0,0,.47-.43,1.06,1.06,0,0,0,.17-.61v-.46c-.52,0-1,0-1.3.08a1.24,1.24,0,0,0-.72.25.69.69,0,0,0-.26.58A.63.63,0,0,0,303.2,155.14Z"/><path class="cls-4" d="M309.34,156.13a2.81,2.81,0,0,1-1.08-1.16,4.11,4.11,0,0,1,0-3.43,2.75,2.75,0,0,1,1.08-1.16A3.27,3.27,0,0,1,311,150a3.31,3.31,0,0,1,1.44.3,2.35,2.35,0,0,1,1,.85,2.4,2.4,0,0,1,.39,1.26H312.2a1.31,1.31,0,0,0-.38-.77,1.13,1.13,0,0,0-.79-.29,1.22,1.22,0,0,0-.73.23,1.39,1.39,0,0,0-.48.66,2.59,2.59,0,0,0-.17,1,2.73,2.73,0,0,0,.17,1,1.39,1.39,0,0,0,.48.66,1.16,1.16,0,0,0,.73.23,1.12,1.12,0,0,0,.78-.28,1.22,1.22,0,0,0,.39-.77h1.63a2.47,2.47,0,0,1-.39,1.27,2.35,2.35,0,0,1-1,.86,3.29,3.29,0,0,1-1.45.3A3.21,3.21,0,0,1,309.34,156.13Z"/><path class="cls-4" d="M318.14,151.35H317v3.11a.57.57,0,0,0,.15.49.6.6,0,0,0,.44.15l.69,0v1.37a6.17,6.17,0,0,1-.94.06,2.36,2.36,0,0,1-1.53-.45,1.62,1.62,0,0,1-.55-1.34v-3.36h-.88v-1.3h.88v-1.52H317v1.52h1.19Z"/><path class="cls-4" d="M320.25,156.13a2.69,2.69,0,0,1-1.08-1.16,4.08,4.08,0,0,1,0-3.44,2.73,2.73,0,0,1,1.08-1.15,3.55,3.55,0,0,1,3.31,0,2.81,2.81,0,0,1,1.09,1.15,4.08,4.08,0,0,1,0,3.44,2.78,2.78,0,0,1-1.09,1.16,3.55,3.55,0,0,1-3.31,0Zm.45-1.87a1.57,1.57,0,0,0,.47.69,1.17,1.17,0,0,0,.75.25,1.15,1.15,0,0,0,.73-.25,1.58,1.58,0,0,0,.46-.68,3,3,0,0,0,.16-1,3.23,3.23,0,0,0-.16-1,1.52,1.52,0,0,0-.45-.7,1.2,1.2,0,0,0-1.49,0,1.52,1.52,0,0,0-.47.69,3.15,3.15,0,0,0-.15,1A3.11,3.11,0,0,0,320.7,154.26Z"/><path class="cls-4" d="M326,150.05h1.68v1.1h.07a1.67,1.67,0,0,1,.58-.88,1.51,1.51,0,0,1,1-.31,2.44,2.44,0,0,1,.55.06v1.54a2.12,2.12,0,0,0-.34-.06l-.4,0a1.48,1.48,0,0,0-.7.17,1.23,1.23,0,0,0-.49.47,1.4,1.4,0,0,0-.17.68v3.63H326Z"/></g></g></g></g><g id="그룹_402" data-name="그룹 402"><g id="문서_분류_신경망을_통해_문서_종류_분류_필요문서_여부_확인" data-name="문서 분류 신경망을 통해 문서 종류 분류 필요문서 여부 확인" class="cls-5"><g class="cls-5"><path class="cls-6" d="M209.66,237.77H205v2.14h-1.72v-2.14h-5v-1.39h11.39Zm-10,1.06h1.74v2.23h7.05v1.4h-8.79Zm.09-8.05h8.5v4.58h-8.5Zm6.79,3.23v-1.88H201.4V234Z"/><path class="cls-6" d="M215.28,235.35a5.65,5.65,0,0,0,1,1.93,4.39,4.39,0,0,0,1.68,1.28L216.9,240a4.94,4.94,0,0,1-1.71-1.37,6.7,6.7,0,0,1-1.12-2.08,7.27,7.27,0,0,1-1.14,2.22,5,5,0,0,1-1.77,1.45l-1.09-1.42a4.65,4.65,0,0,0,1.73-1.35,6.35,6.35,0,0,0,1-2,8.21,8.21,0,0,0,.35-2.33v-1.86H215v1.86A8.3,8.3,0,0,0,215.28,235.35Zm1.3-1.21H219v-3.91h1.73V242.7H219v-7.15h-2.44Z"/><path class="cls-6" d="M236.67,238H232v2h-1.72v-2h-5v-1.36h11.39Zm-10,1h1.72v2.05h7.07v1.4h-8.79Zm.12-8.38h1.73v1.3h5v-1.3h1.73v5.11h-8.45Zm6.72,3.73v-1.13h-5v1.13Z"/><path class="cls-6" d="M248.63,238.9H246v3.77h-1.76V238.9h-2.6v3.77H239.9V238.9h-2.66v-1.37h11.39Zm-10.08-8.3h8.76v3.62h-6.95v1h7.24v1.39h-9V233h6.93V232h-7Z"/><path class="cls-6" d="M253.93,235.27a4.06,4.06,0,0,0,1-1.45,4.61,4.61,0,0,0,.32-1.69v-1.2h1.82v1.2a4.49,4.49,0,0,0,.3,1.63,3.78,3.78,0,0,0,1,1.37A4.42,4.42,0,0,0,260,236l-.89,1.37a5,5,0,0,1-1.76-1,4.94,4.94,0,0,1-1.16-1.58,5.31,5.31,0,0,1-1.19,1.71,4.79,4.79,0,0,1-1.82,1.09l-.9-1.38A4.37,4.37,0,0,0,253.93,235.27Zm.45,3.18h1.76v2.61h6.91v1.4h-8.67Zm8.34.87H261v-9.07h1.75Z"/><path class="cls-6" d="M274.74,237.41H273v-1.22h-2.8V234.8H273v-1.19h-2.67q-1.17,3-5.29,4.07l-.68-1.38a7.76,7.76,0,0,0,3.2-1.52,3.75,3.75,0,0,0,1.31-2.31H265v-1.39h5.74a6.92,6.92,0,0,1-.09,1.16H273v-2h1.73Zm-7.86,1.34a3.38,3.38,0,0,1,1.49-.88,8.14,8.14,0,0,1,4.45,0,3.5,3.5,0,0,1,1.49.88,1.9,1.9,0,0,1,.53,1.33,1.94,1.94,0,0,1-.53,1.34,3.55,3.55,0,0,1-1.5.89,7.06,7.06,0,0,1-2.21.31,7.15,7.15,0,0,1-2.23-.31,3.3,3.3,0,0,1-1.49-.89,1.92,1.92,0,0,1-.53-1.34A1.9,1.9,0,0,1,266.88,238.75Zm1.86,2.19a4.62,4.62,0,0,0,1.86.3,4.46,4.46,0,0,0,1.83-.3.9.9,0,0,0,0-1.73,4.34,4.34,0,0,0-1.83-.28,4.47,4.47,0,0,0-1.85.28,1,1,0,0,0-.66.87A.93.93,0,0,0,268.74,240.94Z"/><path class="cls-6" d="M282.56,236.69h-6v-5.56h6Zm-4.29,2.22a3.31,3.31,0,0,1,1.48-.85,8,8,0,0,1,2.27-.29,7.69,7.69,0,0,1,2.21.29,3.38,3.38,0,0,1,1.47.85,2,2,0,0,1,0,2.64,3.24,3.24,0,0,1-1.46.84,7.36,7.36,0,0,1-2.22.3,7.66,7.66,0,0,1-2.27-.3,3.21,3.21,0,0,1-1.48-.84,1.94,1.94,0,0,1,0-2.64Zm2.57-3.62v-2.77h-2.53v2.77Zm1.18,6c1.64,0,2.47-.36,2.47-1.08a.87.87,0,0,0-.63-.81,4.85,4.85,0,0,0-1.84-.27,4.79,4.79,0,0,0-1.88.28c-.43.18-.65.45-.64.8C279.49,241,280.32,241.31,282,241.31Zm2.32-11.08h1.75v2.82h1.68v1.41h-1.68v3h-1.75Z"/><path class="cls-6" d="M288.18,235.25h11.35v1.38H288.18Zm8.12-4.59a3.46,3.46,0,0,1,1.54.72,1.47,1.47,0,0,1,.54,1.15,1.51,1.51,0,0,1-.54,1.17,3.68,3.68,0,0,1-1.54.72,12.63,12.63,0,0,1-4.9,0,3.67,3.67,0,0,1-1.55-.72,1.51,1.51,0,0,1-.54-1.17,1.47,1.47,0,0,1,.54-1.15,3.45,3.45,0,0,1,1.55-.72,12.13,12.13,0,0,1,4.9,0Zm-6.81,6.7h8.65v3.17h-6.93v.75h7.26v1.31h-9v-3.28h6.92v-.68h-6.93Zm2.31-4.18a10.66,10.66,0,0,0,4.11,0c.44-.13.66-.35.66-.65,0-.57-.9-.85-2.72-.85a7,7,0,0,0-2,.22c-.45.14-.67.35-.67.63S291.36,233.05,291.8,233.18Z"/><path class="cls-6" d="M314.57,238H303.2v-1.37H308v-.76h-3.39v-5.35h8.63v1.34h-6.88v.7H313v1.26h-6.59v.71h7v1.34h-3.59v.76h4.81Zm-9.54,1.5a3.39,3.39,0,0,1,1.49-.7,10.13,10.13,0,0,1,2.36-.22,10,10,0,0,1,2.34.22,3.52,3.52,0,0,1,1.48.7,1.5,1.5,0,0,1,.52,1.11,1.69,1.69,0,0,1-1.14,1.53,7.63,7.63,0,0,1-3.2.52,7.76,7.76,0,0,1-3.23-.52,1.66,1.66,0,0,1-1.13-1.53A1.44,1.44,0,0,1,305,239.51Zm1.87,1.69a7.33,7.33,0,0,0,2,.19,7.17,7.17,0,0,0,1.95-.19c.42-.12.63-.31.64-.58s-.21-.44-.62-.56a6.78,6.78,0,0,0-1.89-.19,8.31,8.31,0,0,0-2,.18c-.44.12-.65.31-.65.57S306.48,241.08,306.9,241.2Z"/><path class="cls-6" d="M321.18,233.51h-6v-1.38h2.16v-1.56h1.72v1.56h2.13Zm-5.37,2a2.83,2.83,0,0,1,1-1.05,2.71,2.71,0,0,1,1.41-.38,2.66,2.66,0,0,1,1.41.38,2.75,2.75,0,0,1,1,1.05,3.52,3.52,0,0,1,0,3.06,2.71,2.71,0,0,1-1,1.06,2.65,2.65,0,0,1-1.41.37,2.7,2.7,0,0,1-1.41-.37,2.78,2.78,0,0,1-1-1.06,3.52,3.52,0,0,1,0-3.06Zm1.51,2.62a1.08,1.08,0,0,0,.88.4,1.06,1.06,0,0,0,.87-.4,1.71,1.71,0,0,0,.34-1.09,1.81,1.81,0,0,0-.16-.8,1.18,1.18,0,0,0-.43-.52,1,1,0,0,0-.62-.19,1.1,1.1,0,0,0-.88.41A1.68,1.68,0,0,0,317,237,1.63,1.63,0,0,0,317.32,238.12Zm4.33-7.64h1.63v4.81h1v-5.06h1.65v12.44h-1.65v-6h-1v5.45h-1.63Z"/></g><g class="cls-5"><path class="cls-6" d="M154.86,257.77h-4.69v2.14h-1.72v-2.14h-5v-1.39h11.39Zm-10.05,1.06h1.73v2.23h7.06v1.4h-8.79Zm.08-8h8.5v4.58h-8.5Zm6.8,3.23v-1.88H146.6V254Z"/><path class="cls-6" d="M160.48,255.35a5.48,5.48,0,0,0,1,1.93,4.24,4.24,0,0,0,1.68,1.28L162.1,260a5,5,0,0,1-1.72-1.37,6.89,6.89,0,0,1-1.11-2.08,7.29,7.29,0,0,1-1.15,2.22,5,5,0,0,1-1.76,1.45l-1.1-1.42A4.57,4.57,0,0,0,157,257.4a6.15,6.15,0,0,0,1-2,7.87,7.87,0,0,0,.35-2.33v-1.86h1.76v1.86A8.31,8.31,0,0,0,160.48,255.35Zm1.29-1.21h2.45v-3.91h1.72V262.7h-1.72v-7.15h-2.45Z"/><path class="cls-6" d="M177,256.18h4.83v1.41H170.49v-1.41h4.8v-1.49H177Zm-4.09-2.53a4.32,4.32,0,0,0,1.31-.68,1.92,1.92,0,0,0,.65-.84h-3.35v-1.36h9.28v1.36h-3.38a1.85,1.85,0,0,0,.65.84,4.32,4.32,0,0,0,1.31.68,8.64,8.64,0,0,0,2,.38l-.61,1.37a7.83,7.83,0,0,1-2.9-.78,3.87,3.87,0,0,1-1.68-1.52,3.89,3.89,0,0,1-1.67,1.52,7.77,7.77,0,0,1-2.88.78L171,254A8.44,8.44,0,0,0,172.92,253.65Zm-.61,5.63a3.3,3.3,0,0,1,1.5-.75,9.33,9.33,0,0,1,2.34-.26,9.16,9.16,0,0,1,2.32.26,3.37,3.37,0,0,1,1.49.75,1.58,1.58,0,0,1,.52,1.19,1.62,1.62,0,0,1-.52,1.2,3.37,3.37,0,0,1-1.49.75,9.2,9.2,0,0,1-2.32.25,9.37,9.37,0,0,1-2.34-.25,3.3,3.3,0,0,1-1.5-.75,1.58,1.58,0,0,1-.52-1.2A1.55,1.55,0,0,1,172.31,259.28Zm1.89,1.87a6.28,6.28,0,0,0,2,.23c1.72,0,2.58-.31,2.58-.91s-.86-.87-2.58-.87a6.65,6.65,0,0,0-2,.21c-.43.15-.64.37-.64.66S173.77,261,174.2,261.15Z"/><path class="cls-6" d="M193.82,258.9H191.2v3.77h-1.77V258.9h-2.59v3.77H185.1V258.9h-2.67v-1.37h11.39Zm-10.07-8.3h8.76v3.62h-7v1h7.25v1.39h-9V253h6.93V252h-7Z"/><path class="cls-6" d="M208.87,258h-4.69v2h-1.72v-2h-5v-1.36h11.39Zm-10.05,1h1.72v2.05h7.07v1.4h-8.79Zm.12-8.38h1.73v1.3h5v-1.3h1.73v5.11h-8.45Zm6.72,3.73v-1.13h-5v1.13Z"/><path class="cls-6" d="M220.83,258.9H218.2v3.77h-1.76V258.9h-2.6v3.77h-1.73V258.9h-2.67v-1.37h11.39Zm-10.08-8.3h8.77v3.62h-7v1h7.24v1.39h-9V253h6.94V252h-7Z"/><path class="cls-6" d="M222.86,264.3h-1.45l.69-3.9H224Z"/><path class="cls-6" d="M229.48,255v-2.67h-1V251h6.77v1.32h-1v2.49c.53-.05,1-.09,1.5-.15l.09,1.25a48.92,48.92,0,0,1-7.47.46l-.19-1.37Zm.44,2.12h8.46v3.32h-6.71v.78h7.05v1.38h-8.78v-3.4h6.72v-.73h-6.74Zm2.61-2.2v-2.59h-1.38V255Zm5.85,1.71h-1.75v-6.39h1.75Z"/><path class="cls-6" d="M251.28,261.22H239.89v-1.43h2.55v-3.05a3.17,3.17,0,0,1-1.14-1.1,2.7,2.7,0,0,1-.41-1.46,2.75,2.75,0,0,1,.6-1.75,4,4,0,0,1,1.67-1.18,7.1,7.1,0,0,1,4.81,0,4.14,4.14,0,0,1,1.68,1.18,2.7,2.7,0,0,1,.61,1.75,2.83,2.83,0,0,1-.4,1.44,3.31,3.31,0,0,1-1.11,1.09v3.08h2.53Zm-8.3-6a2.27,2.27,0,0,0,1,.68,4.65,4.65,0,0,0,1.56.24,4.53,4.53,0,0,0,1.54-.24,2.34,2.34,0,0,0,1-.68,1.69,1.69,0,0,0,0-2.11,2.39,2.39,0,0,0-1-.68,4.86,4.86,0,0,0-1.55-.23,4.65,4.65,0,0,0-1.56.24,2.26,2.26,0,0,0-1,.67,1.69,1.69,0,0,0,0,2.11Zm4,4.56v-2.42a7.35,7.35,0,0,1-1.42.14,8.22,8.22,0,0,1-1.41-.13v2.41Z"/><path class="cls-6" d="M263.23,257.77h-4.69v2.14h-1.72v-2.14h-5v-1.39h11.39Zm-10.05,1.06h1.74v2.23H262v1.4h-8.79Zm.08-8h8.51v4.58h-8.51Zm6.8,3.23v-1.88H255V254Z"/><path class="cls-6" d="M268.85,255.35a5.65,5.65,0,0,0,1,1.93,4.24,4.24,0,0,0,1.68,1.28L270.47,260a5,5,0,0,1-1.72-1.37,6.89,6.89,0,0,1-1.11-2.08,7.29,7.29,0,0,1-1.15,2.22,4.92,4.92,0,0,1-1.76,1.45l-1.09-1.42a4.62,4.62,0,0,0,1.72-1.35,6,6,0,0,0,1-2,7.87,7.87,0,0,0,.35-2.33v-1.86h1.77v1.86A7.94,7.94,0,0,0,268.85,255.35Zm1.29-1.21h2.45v-3.91h1.72V262.7h-1.72v-7.15h-2.45Z"/><path class="cls-6" d="M283.81,251.54a3.28,3.28,0,0,1,1.1,1.25h2.73v-2.56h1.72V262.7h-1.72V258H285a3.55,3.55,0,0,1-1.13,1.43,2.74,2.74,0,0,1-1.62.51,2.76,2.76,0,0,1-1.68-.54,3.51,3.51,0,0,1-1.14-1.56,6.88,6.88,0,0,1,0-4.68,3.48,3.48,0,0,1,1.14-1.55,2.89,2.89,0,0,1,3.2-.11Zm-2.89,5.55a2.14,2.14,0,0,0,.55,1,1.12,1.12,0,0,0,.82.32,1.09,1.09,0,0,0,.82-.32,2.14,2.14,0,0,0,.55-1,5.43,5.43,0,0,0,.19-1.55,5.33,5.33,0,0,0-.19-1.55,2.14,2.14,0,0,0-.55-1,1.14,1.14,0,0,0-.82-.33,1.17,1.17,0,0,0-.82.33,2.14,2.14,0,0,0-.55,1,6.42,6.42,0,0,0,0,3.1Zm4.6-1.55a7.8,7.8,0,0,1-.08,1.1h2.2V254.2h-2.25A6.22,6.22,0,0,1,285.52,255.54Z"/><path class="cls-6" d="M302.19,258.78h-4.86v3.89H295.6v-3.89h-4.79v-1.37h11.38Zm-10.05-8.07h1.73v1.44h5.22v-1.44h1.75v5.5h-8.7Zm6.95,4.1v-1.3h-5.22v1.3Z"/><path class="cls-6" d="M308.75,257.07v-.7a3.15,3.15,0,0,1-1.61-.62,1.46,1.46,0,0,1-.58-1.18,1.44,1.44,0,0,1,.38-1,2.27,2.27,0,0,1,1.07-.65,5.93,5.93,0,0,1,3.2,0,2.32,2.32,0,0,1,1.07.65,1.44,1.44,0,0,1,.38,1,1.49,1.49,0,0,1-.58,1.18,3.2,3.2,0,0,1-1.59.61V257c1.18-.07,2.18-.15,3-.26l.13,1.21a32.06,32.06,0,0,1-3.62.4c-1.24.06-2.61.09-4.09.09l-.18-1.35C307,257.1,308,257.09,308.75,257.07Zm-2.69-5.92h2.69v-1h1.74v1h2.69v1.27h-7.12Zm1.25,8h8.51v3.47h-1.75v-2.13h-6.76Zm1.27-4.11a2.19,2.19,0,0,0,1,.19,2.24,2.24,0,0,0,1-.19.58.58,0,0,0,.37-.52c0-.47-.46-.7-1.38-.7s-1.38.23-1.38.7A.57.57,0,0,0,308.58,255.09Zm7.24-1.29h1.58v1.44h-1.58v3.46h-1.75v-8.45h1.75Z"/><path class="cls-6" d="M318.47,252.56a3.14,3.14,0,0,1,1.22-1.12,3.7,3.7,0,0,1,1.73-.4,3.66,3.66,0,0,1,1.72.4,3.1,3.1,0,0,1,1.23,1.12,3,3,0,0,1,.45,1.61,3,3,0,0,1-1.68,2.75,3.67,3.67,0,0,1-1.72.41,3.71,3.71,0,0,1-1.73-.41,3,3,0,0,1-1.23-1.12,3.08,3.08,0,0,1-.44-1.63A3,3,0,0,1,318.47,252.56Zm1.47,2.49a1.38,1.38,0,0,0,.6.57,1.93,1.93,0,0,0,.88.19,1.84,1.84,0,0,0,.86-.19,1.49,1.49,0,0,0,.6-.57,1.67,1.67,0,0,0,.22-.88,1.6,1.6,0,0,0-.22-.86,1.52,1.52,0,0,0-.61-.57,1.83,1.83,0,0,0-.85-.18,1.93,1.93,0,0,0-.88.18,1.44,1.44,0,0,0-.6.57,1.51,1.51,0,0,0-.21.86A1.58,1.58,0,0,0,319.94,255.05Zm0,3.24h1.77v2.77h6.9v1.4H319.9Zm8.34.9h-1.75v-8.94h1.75Z"/></g></g><g id="그룹_329-2" data-name="그룹 329-2"><line id="선_58-2" data-name="선 58-2" class="cls-7" x1="229.86" y1="279.65" x2="237.86" y2="279.65"/><g id="Object_Detector" data-name="Object Detector" class="cls-5"><g class="cls-5"><path class="cls-4" d="M249.87,281.51a3.53,3.53,0,0,1-1.41,1.5,4.24,4.24,0,0,1-4.07,0,3.55,3.55,0,0,1-1.42-1.5,5,5,0,0,1-.52-2.34,5,5,0,0,1,.52-2.33,3.64,3.64,0,0,1,1.42-1.51,4.24,4.24,0,0,1,4.07,0,3.62,3.62,0,0,1,1.41,1.51,5.5,5.5,0,0,1,0,4.67Zm-5.36-.82a2,2,0,0,0,1.92,1.28,2,2,0,0,0,1.14-.33,2,2,0,0,0,.76-.95,4.57,4.57,0,0,0,0-3,2.08,2.08,0,0,0-.76-.95,2.15,2.15,0,0,0-1.14-.33,2.19,2.19,0,0,0-1.16.33,2.08,2.08,0,0,0-.76.95,4.57,4.57,0,0,0,0,3Z"/><path class="cls-4" d="M251.53,274.93h1.74v3.19h0a2.26,2.26,0,0,1,.66-.82,1.88,1.88,0,0,1,1.16-.33,2.38,2.38,0,0,1,1.31.37,2.57,2.57,0,0,1,.93,1.11,4.2,4.2,0,0,1,.35,1.79,4.14,4.14,0,0,1-.34,1.77,2.57,2.57,0,0,1-.93,1.13,2.4,2.4,0,0,1-1.32.38,1.93,1.93,0,0,1-1.15-.32,2.33,2.33,0,0,1-.67-.8h-.07v1h-1.71Zm1.86,6.29a1.55,1.55,0,0,0,.46.68,1.16,1.16,0,0,0,.73.24,1.18,1.18,0,0,0,1-.52,2.36,2.36,0,0,0,.36-1.37,2.43,2.43,0,0,0-.35-1.38,1.24,1.24,0,0,0-2,0,2.31,2.31,0,0,0-.36,1.36A2.78,2.78,0,0,0,253.39,281.22Z"/><path class="cls-4" d="M260.45,277.05v6.68a1.92,1.92,0,0,1-.62,1.57,2.83,2.83,0,0,1-1.77.51l-.35,0v-1.35h.23a.86.86,0,0,0,.59-.19.74.74,0,0,0,.18-.55v-6.66Zm-1.36-.95a1,1,0,0,1-.34-.32.78.78,0,0,1-.13-.44.76.76,0,0,1,.13-.44.9.9,0,0,1,.34-.33,1,1,0,0,1,.48-.12,1,1,0,0,1,.47.12.9.9,0,0,1,.34.33.84.84,0,0,1,.13.44.87.87,0,0,1-.13.44,1,1,0,0,1-.34.32,1,1,0,0,1-.47.12A1,1,0,0,1,259.09,276.1Z"/><path class="cls-4" d="M262.88,283.14A2.59,2.59,0,0,1,261.8,282a4.13,4.13,0,0,1,0-3.46,2.85,2.85,0,0,1,1.07-1.16,3.42,3.42,0,0,1,3.15-.05,2.56,2.56,0,0,1,1.07,1.09,3.68,3.68,0,0,1,.39,1.77v.5h-4.35a1.77,1.77,0,0,0,.18.82,1.21,1.21,0,0,0,.51.54,1.49,1.49,0,0,0,.77.19,1.6,1.6,0,0,0,.75-.17,1,1,0,0,0,.44-.47h1.65a2.26,2.26,0,0,1-.5,1,2.59,2.59,0,0,1-1,.67,3.77,3.77,0,0,1-1.38.24A3.34,3.34,0,0,1,262.88,283.14Zm3-3.54a1.41,1.41,0,0,0-.17-.69,1.18,1.18,0,0,0-.47-.47,1.37,1.37,0,0,0-.68-.17,1.4,1.4,0,0,0-.7.18,1.19,1.19,0,0,0-.49.48,1.38,1.38,0,0,0-.2.67Z"/><path class="cls-4" d="M269.64,283.13a2.81,2.81,0,0,1-1.08-1.16,3.78,3.78,0,0,1-.37-1.72,3.65,3.65,0,0,1,.38-1.71,2.75,2.75,0,0,1,1.08-1.16,3.27,3.27,0,0,1,1.66-.41,3.31,3.31,0,0,1,1.44.3,2.42,2.42,0,0,1,1.38,2.11H272.5a1.27,1.27,0,0,0-.39-.77,1.09,1.09,0,0,0-.78-.29,1.22,1.22,0,0,0-.73.23,1.39,1.39,0,0,0-.48.66,2.59,2.59,0,0,0-.17,1,2.73,2.73,0,0,0,.17,1,1.39,1.39,0,0,0,.48.66,1.14,1.14,0,0,0,.73.23,1.12,1.12,0,0,0,.78-.28,1.27,1.27,0,0,0,.39-.77h1.63a2.47,2.47,0,0,1-.39,1.27,2.42,2.42,0,0,1-1,.86,3.29,3.29,0,0,1-1.45.3A3.21,3.21,0,0,1,269.64,283.13Z"/><path class="cls-4" d="M278.44,278.35h-1.2v3.11a.54.54,0,0,0,.6.64l.69,0v1.37a6.17,6.17,0,0,1-.94.06,2.36,2.36,0,0,1-1.53-.45,1.62,1.62,0,0,1-.55-1.34v-3.36h-.88v-1.3h.88v-1.52h1.73v1.52h1.2Z"/><path class="cls-4" d="M282.09,283.42v-8.49h3a4.5,4.5,0,0,1,2.2.51,3.34,3.34,0,0,1,1.42,1.46,4.83,4.83,0,0,1,.5,2.26,4.92,4.92,0,0,1-.5,2.28,3.38,3.38,0,0,1-1.43,1.47,4.55,4.55,0,0,1-2.22.51ZM285,281.9a2.39,2.39,0,0,0,1.84-.66,3,3,0,0,0,.62-2.08,2.92,2.92,0,0,0-.61-2.05,2.36,2.36,0,0,0-1.84-.67h-1.17v5.46Z"/><path class="cls-4" d="M291.56,283.14a2.56,2.56,0,0,1-1.09-1.14,4.13,4.13,0,0,1,0-3.46,2.85,2.85,0,0,1,1.07-1.16,3.42,3.42,0,0,1,3.15-.05,2.56,2.56,0,0,1,1.07,1.09,3.68,3.68,0,0,1,.39,1.77v.5H291.8a1.77,1.77,0,0,0,.18.82,1.21,1.21,0,0,0,.51.54,1.5,1.5,0,0,0,.78.19,1.56,1.56,0,0,0,.74-.17,1,1,0,0,0,.44-.47h1.65a2.26,2.26,0,0,1-.5,1,2.45,2.45,0,0,1-1,.67,3.7,3.7,0,0,1-1.38.24A3.3,3.3,0,0,1,291.56,283.14Zm2.95-3.54a1.41,1.41,0,0,0-.17-.69,1.16,1.16,0,0,0-.46-.47,1.4,1.4,0,0,0-.68-.17,1.38,1.38,0,0,0-.7.18,1.22,1.22,0,0,0-.5.48,1.38,1.38,0,0,0-.2.67Z"/><path class="cls-4" d="M300.47,278.35h-1.19v3.11a.57.57,0,0,0,.15.49.6.6,0,0,0,.44.15l.69,0v1.37a6.17,6.17,0,0,1-.94.06,2.36,2.36,0,0,1-1.53-.45,1.62,1.62,0,0,1-.55-1.34v-3.36h-.88v-1.3h.88v-1.52h1.74v1.52h1.19Z"/><path class="cls-4" d="M302.58,283.14A2.59,2.59,0,0,1,301.5,282a4.13,4.13,0,0,1,0-3.46,2.85,2.85,0,0,1,1.07-1.16,3.42,3.42,0,0,1,3.15-.05,2.56,2.56,0,0,1,1.07,1.09,3.68,3.68,0,0,1,.39,1.77v.5h-4.35a1.77,1.77,0,0,0,.18.82,1.21,1.21,0,0,0,.51.54,1.49,1.49,0,0,0,.77.19,1.6,1.6,0,0,0,.75-.17,1,1,0,0,0,.44-.47h1.65a2.26,2.26,0,0,1-.5,1,2.59,2.59,0,0,1-1,.67,3.77,3.77,0,0,1-1.38.24A3.34,3.34,0,0,1,302.58,283.14Zm3-3.54a1.41,1.41,0,0,0-.17-.69,1.18,1.18,0,0,0-.47-.47,1.37,1.37,0,0,0-.68-.17,1.4,1.4,0,0,0-.7.18,1.19,1.19,0,0,0-.49.48,1.38,1.38,0,0,0-.2.67Z"/><path class="cls-4" d="M309.34,283.13a2.81,2.81,0,0,1-1.08-1.16,4.11,4.11,0,0,1,0-3.43,2.75,2.75,0,0,1,1.08-1.16A3.27,3.27,0,0,1,311,277a3.31,3.31,0,0,1,1.44.3,2.35,2.35,0,0,1,1,.85,2.4,2.4,0,0,1,.39,1.26H312.2a1.31,1.31,0,0,0-.38-.77,1.13,1.13,0,0,0-.79-.29,1.22,1.22,0,0,0-.73.23,1.39,1.39,0,0,0-.48.66,2.59,2.59,0,0,0-.17,1,2.73,2.73,0,0,0,.17,1,1.39,1.39,0,0,0,.48.66,1.16,1.16,0,0,0,.73.23,1.12,1.12,0,0,0,.78-.28,1.22,1.22,0,0,0,.39-.77h1.63a2.47,2.47,0,0,1-.39,1.27,2.35,2.35,0,0,1-1,.86,3.29,3.29,0,0,1-1.45.3A3.21,3.21,0,0,1,309.34,283.13Z"/><path class="cls-4" d="M318.14,278.35H317v3.11a.57.57,0,0,0,.15.49.6.6,0,0,0,.44.15l.69,0v1.37a6.17,6.17,0,0,1-.94.06,2.36,2.36,0,0,1-1.53-.45,1.62,1.62,0,0,1-.55-1.34v-3.36h-.88v-1.3h.88v-1.52H317v1.52h1.19Z"/><path class="cls-4" d="M320.25,283.13a2.69,2.69,0,0,1-1.08-1.16,4.08,4.08,0,0,1,0-3.44,2.73,2.73,0,0,1,1.08-1.15,3.55,3.55,0,0,1,3.31,0,2.81,2.81,0,0,1,1.09,1.15,4.08,4.08,0,0,1,0,3.44,2.78,2.78,0,0,1-1.09,1.16,3.55,3.55,0,0,1-3.31,0Zm.45-1.87a1.57,1.57,0,0,0,.47.69,1.17,1.17,0,0,0,.75.25,1.15,1.15,0,0,0,.73-.25,1.58,1.58,0,0,0,.46-.68,3,3,0,0,0,.16-1,3.23,3.23,0,0,0-.16-1,1.52,1.52,0,0,0-.45-.7,1.2,1.2,0,0,0-1.49,0,1.52,1.52,0,0,0-.47.69,3.15,3.15,0,0,0-.15,1A3.11,3.11,0,0,0,320.7,281.26Z"/><path class="cls-4" d="M326,277.05h1.68v1.1h.07a1.67,1.67,0,0,1,.58-.88,1.51,1.51,0,0,1,1-.31,2.44,2.44,0,0,1,.55.06v1.54a2.12,2.12,0,0,0-.34-.06l-.4,0a1.48,1.48,0,0,0-.7.17,1.23,1.23,0,0,0-.49.47,1.4,1.4,0,0,0-.17.68v3.63H326Z"/></g></g></g></g><g id="그룹_403" data-name="그룹 403"><g id="문서_구조_분석_및_이미지_전처리_관심_영역_추출" data-name="문서 구조 분석 및 이미지 전처리 관심 영역 추출" class="cls-5"><g class="cls-5"><path class="cls-6" d="M248.63,364.77h-4.69v2.14h-1.72v-2.14h-5v-1.38h11.39Zm-10,1.06h1.73v2.23h7.06v1.4h-8.79Zm.08-8.05h8.5v4.58h-8.5Zm6.8,3.23v-1.88h-5.09V361Z"/><path class="cls-6" d="M254.25,362.35a5.48,5.48,0,0,0,1,1.93,4.24,4.24,0,0,0,1.68,1.28L255.87,367a4.86,4.86,0,0,1-1.72-1.37A6.89,6.89,0,0,1,253,363.5a7.29,7.29,0,0,1-1.15,2.22,4.9,4.9,0,0,1-1.76,1.45l-1.1-1.42a4.57,4.57,0,0,0,1.73-1.35,6.15,6.15,0,0,0,1-2,7.87,7.87,0,0,0,.35-2.33v-1.86h1.76v1.86A8.31,8.31,0,0,0,254.25,362.35Zm1.29-1.21H258v-3.91h1.72V369.7H258v-7.15h-2.45Z"/><path class="cls-6" d="M274.28,359.08c0,.81,0,1.52-.06,2.12a18.52,18.52,0,0,1-.26,2.05h1.65v1.41h-4.86v5H269v-5h-4.74v-1.41h7.93a16,16,0,0,0,.28-2c0-.59.07-1.24.07-1.93h-7V358h8.72Z"/><path class="cls-6" d="M287.61,368.23H276.22v-1.41H281V364h1.75v2.78h4.83Zm-8.73-5.77a4.44,4.44,0,0,0,1.47-1.29,3.17,3.17,0,0,0,.61-1.59h-3.8v-1.4h9.45v1.4h-3.79a3.1,3.1,0,0,0,.61,1.58,4.2,4.2,0,0,0,1.5,1.26,6.76,6.76,0,0,0,2.25.72l-.68,1.38a7.54,7.54,0,0,1-2.81-1,5.07,5.07,0,0,1-1.79-1.87,5.22,5.22,0,0,1-1.77,1.92,7.21,7.21,0,0,1-2.76,1.07l-.69-1.38A6.57,6.57,0,0,0,278.88,362.46Z"/><path class="cls-6" d="M302.64,365H298v2h-1.72v-2h-5v-1.36h11.39Zm-10.05,1h1.72v2.05h7.07v1.4h-8.79Zm.12-8.38h1.73v1.3h5v-1.3h1.73v5.11h-8.45Zm6.72,3.73v-1.13h-5v1.13Z"/><path class="cls-6" d="M308.19,360.7a3.63,3.63,0,0,0,.94,1.29,4.32,4.32,0,0,0,1.59.86l-.93,1.38a4.61,4.61,0,0,1-2.78-2.47,4.85,4.85,0,0,1-1.16,1.63,4.92,4.92,0,0,1-1.77,1.06l-.94-1.39a4.57,4.57,0,0,0,1.67-.93,3.74,3.74,0,0,0,1-1.4,4.43,4.43,0,0,0,.32-1.67v-1.18h1.77v1.29A3.61,3.61,0,0,0,308.19,360.7Zm-3,4.5h8.55v4.47H312v-3.09h-6.81Zm4.48-5.66H312v-2.31h1.74v7.41H312V361h-2.33Z"/><path class="cls-6" d="M325,363.22H318.9V358H325Zm-3.37,4.7a4.16,4.16,0,0,0,1.35-.75,1.83,1.83,0,0,0,.59-.9h-3.49V365h3.54v-1h1.75v1h3.54v1.3h-3.48a1.75,1.75,0,0,0,.58.88,4.5,4.5,0,0,0,1.34.75,8.13,8.13,0,0,0,2,.43l-.59,1.32a7.81,7.81,0,0,1-2.6-.65,4.47,4.47,0,0,1-1.7-1.27,4.32,4.32,0,0,1-1.7,1.27,8.45,8.45,0,0,1-2.62.65l-.6-1.32A7.83,7.83,0,0,0,321.61,367.92Zm1.64-6.07v-2.51h-2.63v2.51Zm3.69-4.62h1.73v7.06h-1.73Z"/></g><g class="cls-5"><path class="cls-6" d="M171.28,380.2a3.53,3.53,0,0,1,1.17-1.55,2.82,2.82,0,0,1,1.7-.54,2.76,2.76,0,0,1,1.68.54A3.69,3.69,0,0,1,177,380.2a6,6,0,0,1,.42,2.34,6.12,6.12,0,0,1-.42,2.35,3.75,3.75,0,0,1-1.17,1.55,2.76,2.76,0,0,1-1.68.54,2.82,2.82,0,0,1-1.7-.54,3.59,3.59,0,0,1-1.17-1.55,6.12,6.12,0,0,1-.42-2.35A6,6,0,0,1,171.28,380.2Zm1.46,3.89a2.15,2.15,0,0,0,.56,1,1.23,1.23,0,0,0,.85.33,1.18,1.18,0,0,0,.83-.33,2.15,2.15,0,0,0,.56-1,5.4,5.4,0,0,0,.2-1.55,5.31,5.31,0,0,0-.2-1.55,2.15,2.15,0,0,0-.56-1,1.18,1.18,0,0,0-.83-.33,1.23,1.23,0,0,0-.85.33,2.15,2.15,0,0,0-.56,1,5,5,0,0,0-.2,1.55A5.07,5.07,0,0,0,172.74,384.09Zm8.17,5.61h-1.77V377.23h1.77Z"/><path class="cls-6" d="M189.08,386.71h-6v-8.36h6Zm-1.7-1.38v-5.61h-2.57v5.61Zm3.72-8.1h1.77V389.7H191.1Z"/><path class="cls-6" d="M199.58,382.65a5.51,5.51,0,0,0,1.06,1.79,4.52,4.52,0,0,0,1.71,1.21l-.94,1.37a5,5,0,0,1-1.83-1.32,6.31,6.31,0,0,1-1.21-2,7.21,7.21,0,0,1-1.21,2.22,5.19,5.19,0,0,1-1.85,1.46l-1-1.38a4.64,4.64,0,0,0,1.71-1.3,5.91,5.91,0,0,0,1.06-1.9,6.59,6.59,0,0,0,.36-2.14v-.76H194.8v-1.42h7v1.42h-2.6v.76A6.15,6.15,0,0,0,199.58,382.65Zm3.48-5.42h1.77v12.44h-1.77Z"/><path class="cls-6" d="M211.05,382.62a3.9,3.9,0,0,0,1-1.36,4.16,4.16,0,0,0,.34-1.59v-.19h-2.5v-1.4h6.75v1.4h-2.47v.2a3.41,3.41,0,0,0,.3,1.46,3.66,3.66,0,0,0,1,1.28,4.23,4.23,0,0,0,1.59.88l-.86,1.38a4.74,4.74,0,0,1-1.72-1,4.9,4.9,0,0,1-1.14-1.5,5.21,5.21,0,0,1-1.19,1.66,4.9,4.9,0,0,1-1.83,1.06l-.88-1.42A4.35,4.35,0,0,0,211.05,382.62Zm.63,2.91h1.75v2.53h6.81v1.4h-8.56Zm8.26.79H218.2v-4.45h-2v-1.41h2v-3.21h1.74Z"/><path class="cls-6" d="M223,384.79a5.43,5.43,0,0,0,1-1.74,6.17,6.17,0,0,0,.34-1.92v-.48h-2.59v-1.39h2.59v-1.75h1.75v1.75h2.51v1.39h-2.53v.48a5.2,5.2,0,0,0,.34,1.84,5.25,5.25,0,0,0,1,1.67,4.78,4.78,0,0,0,1.67,1.18l-.93,1.34a5,5,0,0,1-1.78-1.26,6.42,6.42,0,0,1-1.18-1.93,6.35,6.35,0,0,1-1.16,2,4.74,4.74,0,0,1-1.78,1.33l-.91-1.34A4.49,4.49,0,0,0,223,384.79Zm8.94,4.91h-1.75v-6.29h-2.25V382h2.25v-4.79h1.75Z"/><path class="cls-6" d="M234,378.27H240v4.8h-4.1v2.28c1,0,1.92,0,2.76-.1s1.69-.16,2.57-.31l.15,1.41a25.65,25.65,0,0,1-2.86.35c-1,.06-2.06.09-3.31.09H234v-5.1h4.13v-2H234Zm9.77,11.43h-1.73V377.23h1.73Z"/><path class="cls-6" d="M246.78,391.3h-1.45l.69-3.9H248Z"/><path class="cls-6" d="M254,383.45V381h1.74v2.38a36.69,36.69,0,0,0,3.67-.32l.1,1.26a29.19,29.19,0,0,1-3.62.42c-1.25.07-2.6.11-4,.11l-.15-1.39Zm4.83-4.54c0,.64,0,1.24-.05,1.8a13.63,13.63,0,0,1-.24,1.85l-1.71-.16a16,16,0,0,0,.29-2.84h-4.69v-1.42h6.4Zm-5.31,6.8h1.75v2.35h7v1.4h-8.74Zm6.56-8.48h1.8V381h1.5v1.46h-1.5v4.06h-1.8Z"/><path class="cls-6" d="M265.45,381.79a3.83,3.83,0,0,0,1-1.34,3.75,3.75,0,0,0,.33-1.55v-1.2h1.82v1.2a3.28,3.28,0,0,0,.31,1.48,3.39,3.39,0,0,0,1,1.25,4.58,4.58,0,0,0,1.63.85l-.85,1.33a4.84,4.84,0,0,1-1.79-.93,4.54,4.54,0,0,1-1.18-1.47,4.89,4.89,0,0,1-1.2,1.61,5.16,5.16,0,0,1-1.86,1l-.85-1.37A4.48,4.48,0,0,0,265.45,381.79Zm.44,3h8.34v4.71h-8.34Zm6.63,3.31v-1.92h-4.91v1.92Zm1.71-3.88h-1.75v-7h1.75Z"/><path class="cls-6" d="M283.7,378.16a3,3,0,0,1,1.09.71h2.82v-1.64h1.74v7.29h-1.74V383h-2.84a3.08,3.08,0,0,1-1.08.71,3.87,3.87,0,0,1-1.37.25,3.54,3.54,0,0,1-1.69-.4,2.94,2.94,0,0,1-1.18-1.08,3,3,0,0,1,1.18-4.21,3.54,3.54,0,0,1,1.69-.4A3.72,3.72,0,0,1,283.7,378.16Zm-2.81,3.62a1.32,1.32,0,0,0,.58.54,1.84,1.84,0,0,0,.86.19,1.79,1.79,0,0,0,.84-.19,1.37,1.37,0,0,0,.58-.54A1.6,1.6,0,0,0,284,381a1.64,1.64,0,0,0-.21-.84,1.51,1.51,0,0,0-.58-.54,1.86,1.86,0,0,0-.84-.18,2,2,0,0,0-.86.18,1.44,1.44,0,0,0-.58.54,1.64,1.64,0,0,0-.21.84A1.6,1.6,0,0,0,280.89,381.78Zm.44,4.13a3.3,3.3,0,0,1,1.49-.84,9.07,9.07,0,0,1,4.55,0,3.19,3.19,0,0,1,1.49.84,1.91,1.91,0,0,1,0,2.64,3.19,3.19,0,0,1-1.49.84,9.38,9.38,0,0,1-4.55,0,3.3,3.3,0,0,1-1.49-.84,1.94,1.94,0,0,1,0-2.64Zm1.86,2.13a5,5,0,0,0,1.9.28A5.07,5.07,0,0,0,287,388a.91.91,0,0,0,.66-.81.94.94,0,0,0-.66-.84,6.72,6.72,0,0,0-3.84,0,.91.91,0,0,0-.66.84C282.52,387.59,282.74,387.86,283.19,388Zm2.42-7.09a3.23,3.23,0,0,1-.07.69h2.07v-1.39h-2.08A2.68,2.68,0,0,1,285.61,381Z"/><path class="cls-6" d="M291.4,379.38a3,3,0,0,1,1.18-1.08,3.49,3.49,0,0,1,1.69-.4,3.79,3.79,0,0,1,1.4.26,3.05,3.05,0,0,1,1.1.74h2.8v-1.67h1.74v7.36h-1.74V383h-2.8a3.12,3.12,0,0,1-1.09.75,3.55,3.55,0,0,1-1.39.27,3.51,3.51,0,0,1-1.69-.4,2.84,2.84,0,0,1-1.19-1.11,3.13,3.13,0,0,1,0-3.15Zm1.45,2.42a1.36,1.36,0,0,0,.58.56,1.84,1.84,0,0,0,.86.19,1.75,1.75,0,0,0,.83-.19,1.36,1.36,0,0,0,.58-.56,1.6,1.6,0,0,0,.22-.86,1.51,1.51,0,0,0-.22-.83,1.4,1.4,0,0,0-.58-.55,1.75,1.75,0,0,0-.83-.19,1.84,1.84,0,0,0-.86.19,1.44,1.44,0,0,0-.58.54,1.64,1.64,0,0,0-.21.84A1.69,1.69,0,0,0,292.85,381.8Zm8.46,7.87h-1.74v-3.15h-6.81v-1.37h8.55Zm-1.74-8.05v-1.31h-2.06a3.06,3.06,0,0,1,.06.63,3.14,3.14,0,0,1-.07.68Z"/><path class="cls-6" d="M317.21,386.11h-4.82v3.58h-1.73v-3.58h-4.79v-1.43h11.34Zm-8.63-4a4.4,4.4,0,0,0,1.43-.95,2.28,2.28,0,0,0,.63-1.12h-3.75v-1.37h3.77v-1.42h1.73v1.42h3.78V380h-3.73a2.25,2.25,0,0,0,.61,1.11,4.31,4.31,0,0,0,1.42,1,7.21,7.21,0,0,0,2.14.54L316,384a7.33,7.33,0,0,1-2.67-.76,5,5,0,0,1-1.77-1.47,4.82,4.82,0,0,1-1.77,1.47,7.76,7.76,0,0,1-2.7.76l-.63-1.36A7.21,7.21,0,0,0,308.58,382.11Z"/><path class="cls-6" d="M329.14,383.81h-4.78v.78h3.43v3h-6.93v.69h7.26v1.28h-9v-3.14h6.92v-.62h-6.93v-1.24h3.48v-.78h-4.77v-1.27h11.29Zm-8.05-3.36a2.27,2.27,0,0,0,1.31-1h-3.48V378.2h3.7v-1h1.73v1h3.73v1.29h-3.52a2.3,2.3,0,0,0,1.31,1,9.37,9.37,0,0,0,2.82.46l-.5,1.29a10.42,10.42,0,0,1-2.91-.51,4,4,0,0,1-1.8-1.13,3.9,3.9,0,0,1-1.79,1.13,10.5,10.5,0,0,1-2.92.51l-.48-1.29A9.17,9.17,0,0,0,321.09,380.45Z"/></g></g><g id="그룹_329-3" data-name="그룹 329-3"><line id="선_58-3" data-name="선 58-3" class="cls-7" x1="211.03" y1="406.65" x2="219.03" y2="406.65"/><g id="Image_Classifier_등_" data-name="Image Classifier 등 " class="cls-5"><g class="cls-5"><path class="cls-4" d="M225.17,410.42h-1.76v-8.49h1.76Z"/><path class="cls-4" d="M226.44,404.05h1.66v1.12h.07a1.7,1.7,0,0,1,.67-.88,1.88,1.88,0,0,1,1.1-.32,1.93,1.93,0,0,1,1.11.32,1.55,1.55,0,0,1,.62.88h.06a1.64,1.64,0,0,1,.71-.87,2.22,2.22,0,0,1,1.21-.33,2.12,2.12,0,0,1,1,.26,1.67,1.67,0,0,1,.7.74,2.52,2.52,0,0,1,.26,1.17v4.28h-1.74v-3.94a1.05,1.05,0,0,0-.27-.8,1,1,0,0,0-.72-.28.94.94,0,0,0-.76.31,1.15,1.15,0,0,0-.28.82v3.89h-1.68v-4a1,1,0,0,0-.27-.75.94.94,0,0,0-.72-.28,1,1,0,0,0-.53.15,1,1,0,0,0-.38.42,1.39,1.39,0,0,0-.13.63v3.82h-1.74Z"/><path class="cls-4" d="M237.23,407.2a3.2,3.2,0,0,1,1.7-.52c.43,0,1-.06,1.59-.08v-.52a.82.82,0,0,0-.27-.62,1.2,1.2,0,0,0-.75-.22,1.22,1.22,0,0,0-.72.19.8.8,0,0,0-.34.51h-1.65a1.85,1.85,0,0,1,.39-1,2.28,2.28,0,0,1,.94-.7,3.64,3.64,0,0,1,1.42-.26,3.9,3.9,0,0,1,1.35.23,2.15,2.15,0,0,1,1,.71,1.93,1.93,0,0,1,.37,1.22v4.29H240.6v-.88h0a1.78,1.78,0,0,1-.71.73,2.2,2.2,0,0,1-1.15.26,2.4,2.4,0,0,1-1.1-.21,1.68,1.68,0,0,1-.75-.64,1.92,1.92,0,0,1-.27-1A1.62,1.62,0,0,1,237.23,407.2Zm1.26,1.94a1.2,1.2,0,0,0,.69.2,1.41,1.41,0,0,0,.69-.16,1.19,1.19,0,0,0,.48-.43,1.14,1.14,0,0,0,.17-.61v-.46c-.53,0-1,.05-1.3.08a1.3,1.3,0,0,0-.73.25.72.72,0,0,0-.26.58A.65.65,0,0,0,238.49,409.14Z"/><path class="cls-4" d="M244.79,412.69a2.29,2.29,0,0,1-1-.7,1.81,1.81,0,0,1-.42-1.05h1.71a.8.8,0,0,0,.4.56,1.82,1.82,0,0,0,.87.18,1.56,1.56,0,0,0,1-.29,1.22,1.22,0,0,0,.36-.94v-1.16h-.09a1.63,1.63,0,0,1-.65.74,2,2,0,0,1-1.16.29,2.49,2.49,0,0,1-1.33-.34,2.32,2.32,0,0,1-.92-1.05,4,4,0,0,1-.34-1.74,4.06,4.06,0,0,1,.34-1.76,2.53,2.53,0,0,1,.94-1.09,2.38,2.38,0,0,1,1.31-.37,1.84,1.84,0,0,1,1.16.34,2,2,0,0,1,.65.81h.07v-1.07h1.73v6.44a2.22,2.22,0,0,1-.4,1.34,2.39,2.39,0,0,1-1.08.83,4.47,4.47,0,0,1-1.62.28A4.34,4.34,0,0,1,244.79,412.69Zm.54-4.16a1.27,1.27,0,0,0,2,0,2.14,2.14,0,0,0,.36-1.32,2.32,2.32,0,0,0-.36-1.37,1.17,1.17,0,0,0-1-.5,1.14,1.14,0,0,0-1,.51,2.31,2.31,0,0,0-.35,1.34A2.26,2.26,0,0,0,245.33,408.53Z"/><path class="cls-4" d="M251.83,410.14a2.67,2.67,0,0,1-1.09-1.14,4.23,4.23,0,0,1,0-3.46,2.88,2.88,0,0,1,1.08-1.16,3.14,3.14,0,0,1,1.62-.41,3.2,3.2,0,0,1,1.53.36,2.56,2.56,0,0,1,1.07,1.09,3.68,3.68,0,0,1,.39,1.77v.5h-4.35a1.77,1.77,0,0,0,.18.82,1.21,1.21,0,0,0,.51.54,1.49,1.49,0,0,0,.77.19,1.6,1.6,0,0,0,.75-.17,1,1,0,0,0,.44-.47h1.65a2.18,2.18,0,0,1-.51,1,2.5,2.5,0,0,1-1,.68,3.77,3.77,0,0,1-1.38.24A3.32,3.32,0,0,1,251.83,410.14Zm2.95-3.54a1.41,1.41,0,0,0-.16-.69,1.18,1.18,0,0,0-.47-.47,1.45,1.45,0,0,0-1.38,0,1.26,1.26,0,0,0-.49.48,1.38,1.38,0,0,0-.2.67Z"/><path class="cls-4" d="M265.14,403.78a2,2,0,0,0-1.24-.41,2,2,0,0,0-1.93,1.3,3.79,3.79,0,0,0-.27,1.5,3.87,3.87,0,0,0,.28,1.53,2.08,2.08,0,0,0,.76.95,2.15,2.15,0,0,0,1.14.33,2.1,2.1,0,0,0,1.24-.39,1.64,1.64,0,0,0,.63-1.07h1.78A3.4,3.4,0,0,1,267,409a3.25,3.25,0,0,1-1.27,1.1,3.86,3.86,0,0,1-1.83.41,4.06,4.06,0,0,1-2-.51,3.66,3.66,0,0,1-1.4-1.51,5,5,0,0,1-.51-2.34,5,5,0,0,1,.51-2.33,3.75,3.75,0,0,1,1.41-1.51,4.06,4.06,0,0,1,2-.52,4.25,4.25,0,0,1,1.77.37,3.16,3.16,0,0,1,1.29,1.05,3.52,3.52,0,0,1,.61,1.66h-1.78A1.67,1.67,0,0,0,265.14,403.78Z"/><path class="cls-4" d="M270.34,410.42H268.6v-8.49h1.74Z"/><path class="cls-4" d="M271.92,407.2a3.24,3.24,0,0,1,1.71-.52c.43,0,1-.06,1.58-.08v-.52a.75.75,0,0,0-.27-.62,1.16,1.16,0,0,0-.75-.22,1.19,1.19,0,0,0-.71.19.76.76,0,0,0-.34.51h-1.66a2,2,0,0,1,.39-1,2.35,2.35,0,0,1,.94-.7,3.69,3.69,0,0,1,1.43-.26,3.85,3.85,0,0,1,1.34.23,2.1,2.1,0,0,1,1,.71,1.93,1.93,0,0,1,.37,1.22v4.29h-1.64v-.88h0a1.87,1.87,0,0,1-.72.73,2.15,2.15,0,0,1-1.15.26,2.43,2.43,0,0,1-1.1-.21,1.79,1.79,0,0,1-.75-.64,1.92,1.92,0,0,1-.27-1A1.67,1.67,0,0,1,271.92,407.2Zm1.27,1.94a1.17,1.17,0,0,0,.68.2,1.47,1.47,0,0,0,.7-.16,1.22,1.22,0,0,0,.47-.43,1.14,1.14,0,0,0,.17-.61v-.46c-.52,0-1,.05-1.3.08a1.24,1.24,0,0,0-.72.25.69.69,0,0,0-.26.58A.63.63,0,0,0,273.19,409.14Z"/><path class="cls-4" d="M281.44,405.41a1.22,1.22,0,0,0-.71-.21,1.41,1.41,0,0,0-.71.19.54.54,0,0,0-.28.46.52.52,0,0,0,.19.39,1.44,1.44,0,0,0,.63.25l1.14.24a2.77,2.77,0,0,1,1.38.61,1.45,1.45,0,0,1,.46,1.11,1.74,1.74,0,0,1-.36,1.09,2.16,2.16,0,0,1-1,.74,3.74,3.74,0,0,1-1.47.27,4,4,0,0,1-1.47-.25,2.23,2.23,0,0,1-1-.7,2.17,2.17,0,0,1-.43-1.07h1.75a.8.8,0,0,0,.35.56,1.36,1.36,0,0,0,.78.2,1.4,1.4,0,0,0,.76-.18.56.56,0,0,0,.29-.49.48.48,0,0,0-.21-.4,1.59,1.59,0,0,0-.66-.25l-1-.21a2.66,2.66,0,0,1-1.37-.64A1.58,1.58,0,0,1,278,406a1.73,1.73,0,0,1,.33-1.05,2.07,2.07,0,0,1,.93-.69,3.88,3.88,0,0,1,1.42-.24,3.71,3.71,0,0,1,1.39.24,2.25,2.25,0,0,1,.93.68,2,2,0,0,1,.38,1.05h-1.63A.81.81,0,0,0,281.44,405.41Z"/><path class="cls-4" d="M287.78,405.41a1.19,1.19,0,0,0-.7-.21,1.38,1.38,0,0,0-.71.19.52.52,0,0,0-.28.46.49.49,0,0,0,.19.39,1.44,1.44,0,0,0,.63.25l1.14.24a2.77,2.77,0,0,1,1.38.61,1.49,1.49,0,0,1,.46,1.11,1.74,1.74,0,0,1-.36,1.09,2.16,2.16,0,0,1-1,.74,3.79,3.79,0,0,1-1.48.27,4,4,0,0,1-1.46-.25,2.1,2.1,0,0,1-1.41-1.77h1.75a.77.77,0,0,0,.35.56,1.35,1.35,0,0,0,.77.2,1.44,1.44,0,0,0,.77-.18.56.56,0,0,0,.29-.49.48.48,0,0,0-.21-.4,1.59,1.59,0,0,0-.66-.25l-1.05-.21a2.62,2.62,0,0,1-1.37-.64,1.54,1.54,0,0,1-.46-1.17,1.73,1.73,0,0,1,.33-1.05,2.07,2.07,0,0,1,.93-.69,3.88,3.88,0,0,1,1.42-.24,3.62,3.62,0,0,1,1.38.24,2.13,2.13,0,0,1,.93.68,1.92,1.92,0,0,1,.39,1.05h-1.63A.79.79,0,0,0,287.78,405.41Z"/><path class="cls-4" d="M291.23,403.1a1,1,0,0,1-.35-.32.87.87,0,0,1-.13-.44.84.84,0,0,1,.13-.44.93.93,0,0,1,.35-.33,1,1,0,0,1,.94,0,.83.83,0,0,1,.34.33.76.76,0,0,1,.13.44.78.78,0,0,1-.13.44.88.88,0,0,1-.34.32,1,1,0,0,1-.94,0Zm-.39.95h1.73v6.37h-1.73Z"/><path class="cls-4" d="M297.18,405.35h-1.26v5.07h-1.74v-5.07h-.9v-1.3h.9v-.48a2,2,0,0,1,.56-1.51,2.14,2.14,0,0,1,1.53-.53,4.58,4.58,0,0,1,1,.11V403l-.53,0a1,1,0,0,0-.64.18.7.7,0,0,0-.21.57v.38h1.26Z"/><path class="cls-4" d="M298.48,403.1a1,1,0,0,1-.35-.32.78.78,0,0,1-.13-.44.76.76,0,0,1,.13-.44.93.93,0,0,1,.35-.33.94.94,0,0,1,.47-.12,1,1,0,0,1,.47.12.9.9,0,0,1,.34.33.76.76,0,0,1,.13.44.78.78,0,0,1-.13.44,1,1,0,0,1-.34.32,1,1,0,0,1-.47.12A.94.94,0,0,1,298.48,403.1Zm-.4.95h1.74v6.37h-1.74Z"/><path class="cls-4" d="M302.25,410.14a2.59,2.59,0,0,1-1.08-1.14,4.13,4.13,0,0,1,0-3.46,2.85,2.85,0,0,1,1.07-1.16,3.42,3.42,0,0,1,3.15-.05,2.56,2.56,0,0,1,1.07,1.09,3.68,3.68,0,0,1,.39,1.77v.5H302.5a1.77,1.77,0,0,0,.18.82,1.21,1.21,0,0,0,.51.54,1.49,1.49,0,0,0,.77.19,1.6,1.6,0,0,0,.75-.17,1,1,0,0,0,.44-.47h1.65a2.26,2.26,0,0,1-.5,1,2.61,2.61,0,0,1-1,.68,3.77,3.77,0,0,1-1.38.24A3.34,3.34,0,0,1,302.25,410.14Zm3-3.54a1.41,1.41,0,0,0-.17-.69,1.18,1.18,0,0,0-.47-.47,1.37,1.37,0,0,0-.68-.17,1.4,1.4,0,0,0-.7.18,1.26,1.26,0,0,0-.49.48,1.38,1.38,0,0,0-.2.67Z"/><path class="cls-4" d="M307.82,404.05h1.67v1.1h.07a1.73,1.73,0,0,1,.58-.88,1.53,1.53,0,0,1,1-.31,2.38,2.38,0,0,1,.55.06v1.54l-.34-.06-.4,0a1.48,1.48,0,0,0-.7.17,1.23,1.23,0,0,0-.49.47,1.41,1.41,0,0,0-.17.69v3.62h-1.73Z"/><path class="cls-4" d="M324.4,406.92h-9.75v-1.21h9.75Zm-8.18,1.55a2.72,2.72,0,0,1,1.28-.67,7.83,7.83,0,0,1,2-.23,7.67,7.67,0,0,1,2,.22,2.87,2.87,0,0,1,1.28.67,1.45,1.45,0,0,1,.45,1.07,1.47,1.47,0,0,1-.45,1.07,3,3,0,0,1-1.28.67,7.67,7.67,0,0,1-2,.22,7.86,7.86,0,0,1-2-.22,2.92,2.92,0,0,1-1.28-.67,1.47,1.47,0,0,1-.45-1.07A1.41,1.41,0,0,1,316.22,408.47Zm-.38-7.36h7.39v1.21h-5.9v1.45h6V405h-7.45Zm3.67,9.25c1.47,0,2.21-.28,2.21-.83,0-.27-.19-.48-.57-.62a4.94,4.94,0,0,0-1.64-.2,5.06,5.06,0,0,0-1.67.2c-.37.14-.55.35-.55.62C317.29,410.08,318,410.36,319.51,410.36Z"/></g></g></g></g><g id="그룹_404" data-name="그룹 404"><g id="커스텀_OCR_사용_및_결과에_대한_검증_네트워크" data-name="커스텀 OCR 사용 및 결과에 대한 검증 네트워크" class="cls-5"><g class="cls-5"><path class="cls-6" d="M226,489.16a8.12,8.12,0,0,1-1.68,3.08,11.16,11.16,0,0,1-3.36,2.55l-1-1.31a11.39,11.39,0,0,0,2.41-1.65,6.91,6.91,0,0,0,1.5-1.92l-3.61.32-.23-1.47,4.39-.26a9.8,9.8,0,0,0,.28-1.68h-4v-1.4h5.74A13.85,13.85,0,0,1,226,489.16Zm.45-.14h2.39v-4.79h1.74v12.44h-1.74v-6.23h-2.39Z"/><path class="cls-6" d="M232.07,493.71h11.39v1.43H232.07Zm7.08-6a4.72,4.72,0,0,0,1.54,1.54,6.17,6.17,0,0,0,2.36.89l-.76,1.44a7,7,0,0,1-2.79-1.17,5.73,5.73,0,0,1-1.8-2.07,6,6,0,0,1-1.82,2.07,7,7,0,0,1-2.77,1.17l-.75-1.44a6.1,6.1,0,0,0,2.33-.9,4.71,4.71,0,0,0,1.53-1.55,3.45,3.45,0,0,0,.54-1.81V485h1.86v.9A3.51,3.51,0,0,0,239.15,487.7Z"/><path class="cls-6" d="M244.62,484.94h5.69v1.37h-3.95v1h3.57v1.34h-3.57v1.06c1,0,1.79,0,2.44-.07a19,19,0,0,0,2-.23l.15,1.4a19.74,19.74,0,0,1-2.3.26c-.78,0-1.78.06-3,.06h-1Zm1.53,7.11h8.37v4.49h-8.37Zm6.66,3.09v-1.69H247.9v1.69Zm1.71-3.62h-1.74v-2.9h-2.13V487.2h2.13v-3h1.74Z"/><path class="cls-6" d="M268,493.19a4.2,4.2,0,0,1-1.65,1.76,5,5,0,0,1-4.75,0,4.22,4.22,0,0,1-1.66-1.76,6.49,6.49,0,0,1,0-5.45,4.19,4.19,0,0,1,1.66-1.75,4.93,4.93,0,0,1,4.75,0,4.17,4.17,0,0,1,1.65,1.75,6.49,6.49,0,0,1,0,5.45Zm-6.25-.95a2.36,2.36,0,0,0,.88,1.11,2.4,2.4,0,0,0,1.35.38,2.36,2.36,0,0,0,1.33-.38,2.44,2.44,0,0,0,.89-1.11,5.24,5.24,0,0,0,0-3.55,2.44,2.44,0,0,0-.89-1.11,2.36,2.36,0,0,0-1.33-.38,2.4,2.4,0,0,0-1.35.38,2.36,2.36,0,0,0-.88,1.11,5.08,5.08,0,0,0,0,3.55Z"/><path class="cls-6" d="M275.86,487.68a2.21,2.21,0,0,0-1.46-.48,2.38,2.38,0,0,0-1.35.39,2.46,2.46,0,0,0-.89,1.12,5.18,5.18,0,0,0,0,3.53,2.5,2.5,0,0,0,.89,1.11,2.39,2.39,0,0,0,1.34.38,2.29,2.29,0,0,0,1.44-.45,1.91,1.91,0,0,0,.73-1.24h2.08a3.94,3.94,0,0,1-.66,1.74,4,4,0,0,1-1.48,1.28,4.59,4.59,0,0,1-2.14.48A4.64,4.64,0,0,1,272,495a4.12,4.12,0,0,1-1.64-1.76,6.49,6.49,0,0,1,0-5.45A4.17,4.17,0,0,1,272,486a4.54,4.54,0,0,1,2.36-.61,4.82,4.82,0,0,1,2.07.43,3.75,3.75,0,0,1,1.5,1.23,4.11,4.11,0,0,1,.71,1.92h-2.08A1.93,1.93,0,0,0,275.86,487.68Z"/><path class="cls-6" d="M279.94,485.52h3.88a4.34,4.34,0,0,1,1.91.39,2.76,2.76,0,0,1,1.21,1.13,3.32,3.32,0,0,1,.42,1.7,3.22,3.22,0,0,1-.45,1.74,2.75,2.75,0,0,1-1.3,1.09l2.11,3.85h-2.27l-1.9-3.52H282v3.52h-2.05Zm3.5,4.71c1.21,0,1.81-.49,1.8-1.49a1.39,1.39,0,0,0-.44-1.14,2,2,0,0,0-1.36-.4H282v3Z"/><path class="cls-6" d="M296.16,489.26a5.86,5.86,0,0,0,1,1.92,4.58,4.58,0,0,0,1.62,1.31l-1,1.4a5,5,0,0,1-1.66-1.36,6.85,6.85,0,0,1-1.09-2,7.35,7.35,0,0,1-1.15,2.19,5.18,5.18,0,0,1-1.76,1.44L291,492.71a4.62,4.62,0,0,0,1.72-1.35,6.25,6.25,0,0,0,1-2,7.83,7.83,0,0,0,.34-2.31v-1.86h1.75v1.86A7.77,7.77,0,0,0,296.16,489.26Zm3.17-5h1.75V489h1.83v1.48h-1.83v6.16h-1.75Z"/><path class="cls-6" d="M314.57,491.52H303.22v-1.39h2.56v-1.49a2.83,2.83,0,0,1-1.06-.77,1.67,1.67,0,0,1-.36-1.05,1.73,1.73,0,0,1,.55-1.29,3.74,3.74,0,0,1,1.58-.83,10.08,10.08,0,0,1,4.8,0,3.81,3.81,0,0,1,1.58.83,1.73,1.73,0,0,1,.55,1.29,1.64,1.64,0,0,1-.38,1.06,2.73,2.73,0,0,1-1.08.77v1.48h2.61ZM305,493.19a3.41,3.41,0,0,1,1.5-.76,9.48,9.48,0,0,1,2.34-.25,9.26,9.26,0,0,1,2.32.25,3.32,3.32,0,0,1,1.49.76,1.67,1.67,0,0,1,.53,1.21,1.7,1.7,0,0,1-.53,1.24,3.32,3.32,0,0,1-1.49.76,9.22,9.22,0,0,1-2.32.26,9.33,9.33,0,0,1-2.34-.26,3.41,3.41,0,0,1-1.5-.76,1.69,1.69,0,0,1-.52-1.24A1.66,1.66,0,0,1,305,493.19Zm1.82-5.61a5.69,5.69,0,0,0,2,.26,6.45,6.45,0,0,0,2.06-.25c.47-.18.71-.43.71-.77s-.24-.61-.71-.8a7.69,7.69,0,0,0-4,0c-.47.19-.7.45-.69.8S306.4,487.41,306.86,487.58Zm2,7.78a5.93,5.93,0,0,0,1.93-.24q.65-.24.66-.72c0-.6-.87-.9-2.59-.91a6.26,6.26,0,0,0-1.94.23c-.43.15-.64.38-.64.68Q306.29,495.36,308.88,495.36Zm1.34-5.23v-1.05a10.11,10.11,0,0,1-1.32.07,12,12,0,0,1-1.36-.07v1.05Z"/><path class="cls-6" d="M325,490.22H318.9V485H325Zm-3.38,4.7a4.11,4.11,0,0,0,1.36-.75,1.83,1.83,0,0,0,.59-.9h-3.49V492h3.54v-1h1.75v1h3.54v1.3h-3.48a1.69,1.69,0,0,0,.58.88,4.5,4.5,0,0,0,1.34.75,8.13,8.13,0,0,0,2,.43l-.59,1.32a7.81,7.81,0,0,1-2.6-.65,4.47,4.47,0,0,1-1.7-1.27,4.39,4.39,0,0,1-1.7,1.27,8.45,8.45,0,0,1-2.62.65l-.61-1.32A7.66,7.66,0,0,0,321.6,494.92Zm1.65-6.07v-2.51h-2.63v2.51Zm3.69-4.62h1.73v7.06h-1.73Z"/></g><g class="cls-5"><path class="cls-6" d="M199.9,510.49h-1.74v-.95h-2.84v-1.33h2.84v-1.09h-2.7a5.21,5.21,0,0,1-1.9,2.3,9.54,9.54,0,0,1-3.41,1.36l-.59-1.42a7.37,7.37,0,0,0,3.14-1.24,3.07,3.07,0,0,0,1.26-2h-3.7v-1.41h5.63a6.23,6.23,0,0,1-.08,1.08h2.35v-1.56h1.74Zm-8.27.46h8.27v3.4h-6.51v.82h6.78v1.38h-8.53v-3.49h6.51v-.75h-6.52Z"/><path class="cls-6" d="M203.55,512.71v-3.66h1.72v3.6c1.35,0,2.55-.15,3.61-.28l.11,1.3a31.34,31.34,0,0,1-3.34.36c-1.17.07-2.38.1-3.62.1h-.6l-.17-1.39C202.07,512.74,202.83,512.73,203.55,512.71Zm4.82-6.23v.18c0,.83,0,1.59-.07,2.27a23.09,23.09,0,0,1-.27,2.32l-1.72-.14c.13-.8.21-1.52.25-2.17s.07-1.33.08-2.07h-4.72v-1.39h6.45Zm1.1-2.25h1.76v5h1.7v1.45h-1.7v6h-1.76Z"/><path class="cls-6" d="M213.77,507.23a3.61,3.61,0,0,1,.95-1.57,2.16,2.16,0,0,1,2.75-.09,3,3,0,0,1,.94,1.28,6.27,6.27,0,0,1,.45,2h1v-4.43h1.64V516.1h-1.64v-5.88h-1a7,7,0,0,1-.43,2.1,3.24,3.24,0,0,1-.95,1.35,2.12,2.12,0,0,1-2.78-.08,3.55,3.55,0,0,1-.95-1.57,8.86,8.86,0,0,1,0-4.79Zm1.56,4.53c.19.48.46.71.82.7s.64-.22.84-.69a5.73,5.73,0,0,0,.29-2.1,6.11,6.11,0,0,0-.29-2.18c-.19-.48-.47-.73-.84-.73s-.63.24-.82.73a5.91,5.91,0,0,0-.27,2.13A6,6,0,0,0,215.33,511.76Zm8.79,4.91h-1.67V504.23h1.67Z"/><path class="cls-6" d="M228.73,505.67h4.64v1.41h-2.89v5.32q1,0,1.8-.09a16.83,16.83,0,0,0,1.68-.22l.12,1.43a16.73,16.73,0,0,1-2.07.26c-.68.05-1.48.07-2.41.08h-.87Zm10.41,11h-1.66v-6.24h-1.2v5.64h-1.6V504.44h1.6V509h1.2v-4.8h1.66Z"/><path class="cls-6" d="M240.34,505.55h2.83v-1.33h1.74v1.33h2.81v1.38h-7.38Zm1,3a2.63,2.63,0,0,1,1.1-.85,4,4,0,0,1,1.6-.3,4,4,0,0,1,1.59.3,2.57,2.57,0,0,1,1.08.85,2.24,2.24,0,0,1,0,2.51,2.5,2.5,0,0,1-1.09.83,4,4,0,0,1-1.59.3,4,4,0,0,1-1.6-.3,2.61,2.61,0,0,1-1.1-.84,2.06,2.06,0,0,1-.39-1.24A2.14,2.14,0,0,1,241.33,508.51Zm.81,4.31h1.74v2.24h6.78v1.4h-8.52Zm.88-2.27a1.7,1.7,0,0,0,1,.27,1.77,1.77,0,0,0,1-.27.91.91,0,0,0,.38-.78.94.94,0,0,0-.38-.79,1.7,1.7,0,0,0-1-.29,1.64,1.64,0,0,0-1,.29.9.9,0,0,0-.37.79A.87.87,0,0,0,243,510.55Zm7.19-2.49h1.68v1.42h-1.68v4h-1.75v-9.28h1.75Z"/><path class="cls-6" d="M261.18,507.86a6.25,6.25,0,0,1-1.94,2.2,9.85,9.85,0,0,1-3.1,1.42l-.69-1.35a8,8,0,0,0,3.15-1.53,3.72,3.72,0,0,0,1.37-2.25h-3.85V505h5.72A6.28,6.28,0,0,1,261.18,507.86Zm-3.55,3.84h8.24v4.82h-8.24Zm6.52,3.46v-2.1h-4.81v2.1Zm-2.23-8h2.22v-2.95h1.73v7h-1.73v-2.59h-2.22Z"/><path class="cls-6" d="M278.69,511.37H267.35V510h11.34Zm-8.89-3.62a4.17,4.17,0,0,0,1.32-.69,1.91,1.91,0,0,0,.63-.86h-3.37v-1.39h9.29v1.39h-3.4a2,2,0,0,0,.63.86,4.45,4.45,0,0,0,1.33.69,8.67,8.67,0,0,0,2,.39l-.61,1.37a7.83,7.83,0,0,1-2.9-.78,3.82,3.82,0,0,1-1.69-1.54,3.84,3.84,0,0,1-1.68,1.54,7.83,7.83,0,0,1-2.9.78l-.58-1.37A8.4,8.4,0,0,0,269.8,507.75Zm-.63,5.38a3.43,3.43,0,0,1,1.5-.79,8.85,8.85,0,0,1,2.34-.27,8.67,8.67,0,0,1,2.31.27,3.34,3.34,0,0,1,1.49.79,1.74,1.74,0,0,1,0,2.5,3.33,3.33,0,0,1-1.49.78,8.7,8.7,0,0,1-2.31.26,8.89,8.89,0,0,1-2.34-.26,3.43,3.43,0,0,1-1.5-.78,1.74,1.74,0,0,1,0-2.5Zm1.89,2a6.28,6.28,0,0,0,1.95.23c1.71,0,2.57-.31,2.58-.94s-.87-1-2.58-1a5.94,5.94,0,0,0-1.95.24c-.43.15-.64.39-.64.72S270.63,514.93,271.06,515.09Z"/><path class="cls-6" d="M284.62,512.2c.61,0,1.19,0,1.73-.1a13.71,13.71,0,0,0,1.63-.25l.24,1.46a16.2,16.2,0,0,1-2,.31c-.66,0-1.4.07-2.24.07h-1.11v-8.27h1.75Zm1.75-4h2.49v-3.7h1.65v11.66h-1.65v-6.55h-2.49Zm5.17-3.94h1.64v12.44h-1.64Z"/><path class="cls-6" d="M294.35,513.8h11.39v1.43H294.35ZM304.5,512h-8.81v-6.89h8.71v1.41h-6.93v1.31h6.64v1.37h-6.64v1.42h7Z"/><path class="cls-6" d="M310.63,510.48a36.12,36.12,0,0,0,3.73-.3l.1,1.27a31.25,31.25,0,0,1-3.32.39v4.47h-1.77v-4.38c-.82,0-1.79,0-2.9,0l-.21-1.42C307.87,510.55,309.33,510.53,310.63,510.48Zm-3.09-4.5a2.67,2.67,0,0,1,1.14-.91,4.27,4.27,0,0,1,3.29,0,2.8,2.8,0,0,1,1.14.91,2.17,2.17,0,0,1,.42,1.32,2.28,2.28,0,0,1-.41,1.33,2.73,2.73,0,0,1-1.15.89,4.07,4.07,0,0,1-1.64.32,4.16,4.16,0,0,1-1.66-.32,2.66,2.66,0,0,1-1.13-.89,2.28,2.28,0,0,1-.41-1.33A2.22,2.22,0,0,1,307.54,506Zm1.65,2.21a1.9,1.9,0,0,0,1.14.32,1.81,1.81,0,0,0,1.11-.32,1,1,0,0,0,.43-.89,1.06,1.06,0,0,0-.43-.9,1.75,1.75,0,0,0-1.11-.34,1.84,1.84,0,0,0-1.14.34,1.08,1.08,0,0,0-.42.9A1.05,1.05,0,0,0,309.19,508.19Zm7.74,8.48h-1.77v-2.74h-2.53v-1.32h2.53v-8.36h1.77Z"/><path class="cls-6" d="M318.27,513.76h11.35v1.42H318.27Zm10.19-7c0,.81,0,1.49,0,2s-.07,1.17-.15,1.87-.21,1.48-.39,2.32l-1.74-.16a22.61,22.61,0,0,0,.48-2.79l-7.22.35-.21-1.39,7.52-.28c0-.56,0-1.22,0-2v-.06h-7.18v-1.39h8.89Z"/></g></g><g id="그룹_329-4" data-name="그룹 329-4"><path id="패스_390" data-name="패스 390" class="cls-7" d="M246,533.65h8"/><g id="Gridone_OCR" data-name="Gridone OCR" class="cls-5"><g class="cls-5"><path class="cls-4" d="M263.81,530.72a2,2,0,0,0-1.15-.35,2.14,2.14,0,0,0-1.16.34,2.1,2.1,0,0,0-.77.95,3.79,3.79,0,0,0-.28,1.5,3.86,3.86,0,0,0,.27,1.52,2.13,2.13,0,0,0,.77,1,2.18,2.18,0,0,0,1.18.34,2.34,2.34,0,0,0,1-.22,1.68,1.68,0,0,0,.68-.61,2,2,0,0,0,.25-.93h-1.84v-1.33h3.53V534a3.74,3.74,0,0,1-.46,1.9,3.13,3.13,0,0,1-1.3,1.25,4.06,4.06,0,0,1-1.9.43,4,4,0,0,1-2.09-.53,3.56,3.56,0,0,1-1.41-1.51,5,5,0,0,1-.5-2.3,4.93,4.93,0,0,1,.52-2.34,3.62,3.62,0,0,1,1.41-1.51,4,4,0,0,1,2-.53,4.09,4.09,0,0,1,1.73.37,3.37,3.37,0,0,1,1.28,1,3.1,3.1,0,0,1,.61,1.47h-1.78A1.77,1.77,0,0,0,263.81,530.72Z"/><path class="cls-4" d="M267.46,531.05h1.67v1.1h.07a1.73,1.73,0,0,1,.58-.88,1.55,1.55,0,0,1,1-.31,2.38,2.38,0,0,1,.55.06v1.54l-.34-.06-.4,0a1.48,1.48,0,0,0-.7.17,1.15,1.15,0,0,0-.48.47,1.31,1.31,0,0,0-.18.69v3.62h-1.73Z"/><path class="cls-4" d="M272.41,530.1a1,1,0,0,1-.35-.32.87.87,0,0,1-.13-.44.84.84,0,0,1,.13-.44.93.93,0,0,1,.35-.33,1,1,0,0,1,.94,0,.9.9,0,0,1,.34.33.76.76,0,0,1,.13.44.78.78,0,0,1-.13.44,1,1,0,0,1-.34.32,1,1,0,0,1-.94,0Zm-.4.95h1.74v6.37H272Z"/><path class="cls-4" d="M276,537.14a2.63,2.63,0,0,1-.93-1.13,4.14,4.14,0,0,1-.34-1.77,4.2,4.2,0,0,1,.35-1.79,2.57,2.57,0,0,1,.93-1.11,2.47,2.47,0,0,1,1.31-.37,1.82,1.82,0,0,1,1.16.34,2.13,2.13,0,0,1,.65.81h.05v-3.19h1.74v8.49h-1.71v-1h-.08a2.2,2.2,0,0,1-.66.8,1.93,1.93,0,0,1-1.15.32A2.4,2.4,0,0,1,276,537.14Zm.86-1.53a1.22,1.22,0,0,0,1.73.29,1.45,1.45,0,0,0,.47-.67,2.76,2.76,0,0,0,.16-1,2.3,2.3,0,0,0-.36-1.37,1.24,1.24,0,0,0-2,0,2.37,2.37,0,0,0-.35,1.35A2.52,2.52,0,0,0,276.86,535.61Z"/><path class="cls-4" d="M283.4,537.13a2.75,2.75,0,0,1-1.09-1.15,3.83,3.83,0,0,1-.38-1.73,3.79,3.79,0,0,1,.38-1.72,2.75,2.75,0,0,1,1.09-1.15,3.26,3.26,0,0,1,1.65-.41,3.29,3.29,0,0,1,1.66.41,2.81,2.81,0,0,1,1.09,1.15,3.79,3.79,0,0,1,.38,1.72,3.83,3.83,0,0,1-.38,1.73,2.81,2.81,0,0,1-1.09,1.15,3.2,3.2,0,0,1-1.66.42A3.16,3.16,0,0,1,283.4,537.13Zm.45-1.87a1.56,1.56,0,0,0,.46.69,1.21,1.21,0,0,0,.75.25,1.18,1.18,0,0,0,.74-.25,1.61,1.61,0,0,0,.46-.68,3,3,0,0,0,.15-1,3.24,3.24,0,0,0-.15-1,1.46,1.46,0,0,0-.46-.7,1.11,1.11,0,0,0-.74-.25,1.15,1.15,0,0,0-.75.25,1.56,1.56,0,0,0-.46.69,2.89,2.89,0,0,0-.16,1A2.86,2.86,0,0,0,283.85,535.26Z"/><path class="cls-4" d="M290.89,537.42h-1.74v-6.37h1.65v1.12h.07a1.84,1.84,0,0,1,.72-.88,2.18,2.18,0,0,1,1.19-.32,2.27,2.27,0,0,1,1.16.29,1.94,1.94,0,0,1,.77.83,2.8,2.8,0,0,1,.27,1.27v4.06h-1.73v-3.75a1.29,1.29,0,0,0-.31-.93,1.08,1.08,0,0,0-.84-.33,1.17,1.17,0,0,0-.88.35,1.38,1.38,0,0,0-.33,1Z"/><path class="cls-4" d="M297.41,537.14a2.61,2.61,0,0,1-1.09-1.14,4.13,4.13,0,0,1,0-3.46,2.81,2.81,0,0,1,1.08-1.16A3.14,3.14,0,0,1,299,531a3.2,3.2,0,0,1,1.53.36,2.54,2.54,0,0,1,1.06,1.09,3.68,3.68,0,0,1,.39,1.77v.5h-4.34a1.9,1.9,0,0,0,.17.82,1.21,1.21,0,0,0,.51.54,1.5,1.5,0,0,0,.78.19,1.53,1.53,0,0,0,.74-.17,1,1,0,0,0,.44-.47H302a2.28,2.28,0,0,1-.51,1,2.5,2.5,0,0,1-1,.68,3.77,3.77,0,0,1-1.38.24A3.32,3.32,0,0,1,297.41,537.14Zm2.95-3.54a1.41,1.41,0,0,0-.16-.69,1.25,1.25,0,0,0-.47-.47,1.4,1.4,0,0,0-.68-.17,1.38,1.38,0,0,0-.7.18,1.35,1.35,0,0,0-.5.48,1.38,1.38,0,0,0-.19.67Z"/><path class="cls-4" d="M312.91,535.51a3.7,3.7,0,0,1-1.42,1.51,4.32,4.32,0,0,1-4.07,0,3.62,3.62,0,0,1-1.41-1.51,4.93,4.93,0,0,1-.52-2.34,4.86,4.86,0,0,1,.52-2.33,3.62,3.62,0,0,1,1.41-1.51,4.24,4.24,0,0,1,4.07,0,3.7,3.7,0,0,1,1.42,1.51,5.6,5.6,0,0,1,0,4.67Zm-5.36-.82a2.11,2.11,0,0,0,.76,1,2.18,2.18,0,0,0,1.15.33,2.1,2.1,0,0,0,1.15-.34,2,2,0,0,0,.75-.95,4.41,4.41,0,0,0,0-3,2.06,2.06,0,0,0-.75-.95,2.17,2.17,0,0,0-2.3,0,2.08,2.08,0,0,0-.76.95,4.41,4.41,0,0,0,0,3Z"/><path class="cls-4" d="M319.64,530.78a2,2,0,0,0-1.25-.41,2.14,2.14,0,0,0-1.16.34,2.11,2.11,0,0,0-.76,1,3.79,3.79,0,0,0-.27,1.5,3.88,3.88,0,0,0,.27,1.53,2.15,2.15,0,0,0,.76.95,2.18,2.18,0,0,0,1.15.33,2.05,2.05,0,0,0,1.23-.39,1.64,1.64,0,0,0,.63-1.07H322a3.18,3.18,0,0,1-.57,1.49,3.29,3.29,0,0,1-1.26,1.1,3.87,3.87,0,0,1-1.84.41,4,4,0,0,1-2-.51,3.62,3.62,0,0,1-1.41-1.51,5,5,0,0,1-.51-2.34,5,5,0,0,1,.52-2.33,3.62,3.62,0,0,1,1.41-1.51,4,4,0,0,1,2-.52,4.18,4.18,0,0,1,1.77.37,3.16,3.16,0,0,1,1.29,1.05,3.52,3.52,0,0,1,.61,1.66h-1.78A1.7,1.7,0,0,0,319.64,530.78Z"/><path class="cls-4" d="M323.13,528.93h3.33a3.78,3.78,0,0,1,1.64.34,2.44,2.44,0,0,1,1,1,2.85,2.85,0,0,1,.36,1.46,2.76,2.76,0,0,1-.39,1.49,2.43,2.43,0,0,1-1.11.93l1.8,3.3h-1.95l-1.62-3h-1.34v3h-1.76Zm3,4.05c1,0,1.56-.43,1.55-1.28a1.21,1.21,0,0,0-.38-1,1.77,1.77,0,0,0-1.17-.35h-1.24V533Z"/></g></g></g></g></g></g></svg>