<svg xmlns="http://www.w3.org/2000/svg" xmlns:xlink="http://www.w3.org/1999/xlink" viewBox="0 0 428 522"><defs><style>.cls-1,.cls-11,.cls-12,.cls-13,.cls-15{fill:none;}.cls-2{fill:#f7f7f7;}.cls-3{clip-path:url(#clip-path);}.cls-4{opacity:0.13;}.cls-5{fill:#040000;}.cls-6{fill:url(#무제_그라디언트_3);}.cls-7{fill:#fff;}.cls-8{fill:#e6e6e5;}.cls-9{fill:#ccc;}.cls-10{fill:#555ea9;}.cls-11{stroke:#658dc9;}.cls-12{stroke:#784296;}.cls-13{stroke:#26863a;}.cls-14{isolation:isolate;}.cls-15{stroke:#e1dedd;stroke-linecap:round;stroke-linejoin:round;stroke-width:3px;}</style><clipPath id="clip-path"><rect class="cls-1" x="49" y="14" width="328" height="495"/></clipPath><linearGradient id="무제_그라디언트_3" x1="340.85" y1="120.28" x2="341.85" y2="121.28" gradientTransform="matrix(428, 0, 0, -3, -145884.62, 622.84)" gradientUnits="userSpaceOnUse"><stop offset="0" stop-color="#040000" stop-opacity="0.25"/><stop offset="0.51" stop-color="#040000" stop-opacity="0.75"/><stop offset="1" stop-color="#040000" stop-opacity="0.25"/></linearGradient></defs><g id="레이어_2" data-name="레이어 2"><g id="레이어_1-2" data-name="레이어 1"><rect id="사각형_78" data-name="사각형 78" class="cls-2" width="428" height="522"/><g class="cls-3"><g id="반복_그리드_11" data-name="반복 그리드 11" class="cls-4"><circle id="타원_57" data-name="타원 57" class="cls-5" cx="53" cy="18" r="4"/><circle id="타원_57-2" data-name="타원 57-2" class="cls-5" cx="85" cy="18" r="4"/><circle id="타원_57-3" data-name="타원 57-3" class="cls-5" cx="117" cy="18" r="4"/><circle id="타원_57-4" data-name="타원 57-4" class="cls-5" cx="149" cy="18" r="4"/><circle id="타원_57-5" data-name="타원 57-5" class="cls-5" cx="181" cy="18" r="4"/><circle id="타원_57-6" data-name="타원 57-6" class="cls-5" cx="213" cy="18" r="4"/><circle id="타원_57-7" data-name="타원 57-7" class="cls-5" cx="245" cy="18" r="4"/><circle id="타원_57-8" data-name="타원 57-8" class="cls-5" cx="277" cy="18" r="4"/><circle id="타원_57-9" data-name="타원 57-9" class="cls-5" cx="309" cy="18" r="4"/><circle id="타원_57-10" data-name="타원 57-10" class="cls-5" cx="341" cy="18" r="4"/><circle id="타원_57-11" data-name="타원 57-11" class="cls-5" cx="373" cy="18" r="4"/><circle id="타원_57-12" data-name="타원 57-12" class="cls-5" cx="53" cy="50" r="4"/><circle id="타원_57-13" data-name="타원 57-13" class="cls-5" cx="85" cy="50" r="4"/><circle id="타원_57-14" data-name="타원 57-14" class="cls-5" cx="117" cy="50" r="4"/><circle id="타원_57-15" data-name="타원 57-15" class="cls-5" cx="149" cy="50" r="4"/><circle id="타원_57-16" data-name="타원 57-16" class="cls-5" cx="181" cy="50" r="4"/><circle id="타원_57-17" data-name="타원 57-17" class="cls-5" cx="213" cy="50" r="4"/><circle id="타원_57-18" data-name="타원 57-18" class="cls-5" cx="245" cy="50" r="4"/><circle id="타원_57-19" data-name="타원 57-19" class="cls-5" cx="277" cy="50" r="4"/><circle id="타원_57-20" data-name="타원 57-20" class="cls-5" cx="309" cy="50" r="4"/><circle id="타원_57-21" data-name="타원 57-21" class="cls-5" cx="341" cy="50" r="4"/><circle id="타원_57-22" data-name="타원 57-22" class="cls-5" cx="373" cy="50" r="4"/><circle id="타원_57-23" data-name="타원 57-23" class="cls-5" cx="53" cy="82" r="4"/><circle id="타원_57-24" data-name="타원 57-24" class="cls-5" cx="85" cy="82" r="4"/><circle id="타원_57-25" data-name="타원 57-25" class="cls-5" cx="117" cy="82" r="4"/><circle id="타원_57-26" data-name="타원 57-26" class="cls-5" cx="149" cy="82" r="4"/><circle id="타원_57-27" data-name="타원 57-27" class="cls-5" cx="181" cy="82" r="4"/><circle id="타원_57-28" data-name="타원 57-28" class="cls-5" cx="213" cy="82" r="4"/><circle id="타원_57-29" data-name="타원 57-29" class="cls-5" cx="245" cy="82" r="4"/><circle id="타원_57-30" data-name="타원 57-30" class="cls-5" cx="277" cy="82" r="4"/><circle id="타원_57-31" data-name="타원 57-31" class="cls-5" cx="309" cy="82" r="4"/><circle id="타원_57-32" data-name="타원 57-32" class="cls-5" cx="341" cy="82" r="4"/><circle id="타원_57-33" data-name="타원 57-33" class="cls-5" cx="373" cy="82" r="4"/><circle id="타원_57-34" data-name="타원 57-34" class="cls-5" cx="53" cy="114" r="4"/><circle id="타원_57-35" data-name="타원 57-35" class="cls-5" cx="85" cy="114" r="4"/><circle id="타원_57-36" data-name="타원 57-36" class="cls-5" cx="117" cy="114" r="4"/><circle id="타원_57-37" data-name="타원 57-37" class="cls-5" cx="149" cy="114" r="4"/><circle id="타원_57-38" data-name="타원 57-38" class="cls-5" cx="181" cy="114" r="4"/><circle id="타원_57-39" data-name="타원 57-39" class="cls-5" cx="213" cy="114" r="4"/><circle id="타원_57-40" data-name="타원 57-40" class="cls-5" cx="245" cy="114" r="4"/><circle id="타원_57-41" data-name="타원 57-41" class="cls-5" cx="277" cy="114" r="4"/><circle id="타원_57-42" data-name="타원 57-42" class="cls-5" cx="309" cy="114" r="4"/><circle id="타원_57-43" data-name="타원 57-43" class="cls-5" cx="341" cy="114" r="4"/><circle id="타원_57-44" data-name="타원 57-44" class="cls-5" cx="373" cy="114" r="4"/><circle id="타원_57-45" data-name="타원 57-45" class="cls-5" cx="53" cy="146" r="4"/><circle id="타원_57-46" data-name="타원 57-46" class="cls-5" cx="85" cy="146" r="4"/><circle id="타원_57-47" data-name="타원 57-47" class="cls-5" cx="117" cy="146" r="4"/><circle id="타원_57-48" data-name="타원 57-48" class="cls-5" cx="149" cy="146" r="4"/><circle id="타원_57-49" data-name="타원 57-49" class="cls-5" cx="181" cy="146" r="4"/><circle id="타원_57-50" data-name="타원 57-50" class="cls-5" cx="213" cy="146" r="4"/><circle id="타원_57-51" data-name="타원 57-51" class="cls-5" cx="245" cy="146" r="4"/><circle id="타원_57-52" data-name="타원 57-52" class="cls-5" cx="277" cy="146" r="4"/><circle id="타원_57-53" data-name="타원 57-53" class="cls-5" cx="309" cy="146" r="4"/><circle id="타원_57-54" data-name="타원 57-54" class="cls-5" cx="341" cy="146" r="4"/><circle id="타원_57-55" data-name="타원 57-55" class="cls-5" cx="373" cy="146" r="4"/><circle id="타원_57-56" data-name="타원 57-56" class="cls-5" cx="53" cy="178" r="4"/><circle id="타원_57-57" data-name="타원 57-57" class="cls-5" cx="85" cy="178" r="4"/><circle id="타원_57-58" data-name="타원 57-58" class="cls-5" cx="117" cy="178" r="4"/><circle id="타원_57-59" data-name="타원 57-59" class="cls-5" cx="149" cy="178" r="4"/><circle id="타원_57-60" data-name="타원 57-60" class="cls-5" cx="181" cy="178" r="4"/><circle id="타원_57-61" data-name="타원 57-61" class="cls-5" cx="213" cy="178" r="4"/><circle id="타원_57-62" data-name="타원 57-62" class="cls-5" cx="245" cy="178" r="4"/><circle id="타원_57-63" data-name="타원 57-63" class="cls-5" cx="277" cy="178" r="4"/><circle id="타원_57-64" data-name="타원 57-64" class="cls-5" cx="309" cy="178" r="4"/><circle id="타원_57-65" data-name="타원 57-65" class="cls-5" cx="341" cy="178" r="4"/><circle id="타원_57-66" data-name="타원 57-66" class="cls-5" cx="373" cy="178" r="4"/><circle id="타원_57-67" data-name="타원 57-67" class="cls-5" cx="53" cy="210" r="4"/><circle id="타원_57-68" data-name="타원 57-68" class="cls-5" cx="85" cy="210" r="4"/><circle id="타원_57-69" data-name="타원 57-69" class="cls-5" cx="117" cy="210" r="4"/><circle id="타원_57-70" data-name="타원 57-70" class="cls-5" cx="149" cy="210" r="4"/><circle id="타원_57-71" data-name="타원 57-71" class="cls-5" cx="181" cy="210" r="4"/><circle id="타원_57-72" data-name="타원 57-72" class="cls-5" cx="213" cy="210" r="4"/><circle id="타원_57-73" data-name="타원 57-73" class="cls-5" cx="245" cy="210" r="4"/><circle id="타원_57-74" data-name="타원 57-74" class="cls-5" cx="277" cy="210" r="4"/><circle id="타원_57-75" data-name="타원 57-75" class="cls-5" cx="309" cy="210" r="4"/><circle id="타원_57-76" data-name="타원 57-76" class="cls-5" cx="341" cy="210" r="4"/><circle id="타원_57-77" data-name="타원 57-77" class="cls-5" cx="373" cy="210" r="4"/><circle id="타원_57-78" data-name="타원 57-78" class="cls-5" cx="53" cy="242" r="4"/><circle id="타원_57-79" data-name="타원 57-79" class="cls-5" cx="85" cy="242" r="4"/><circle id="타원_57-80" data-name="타원 57-80" class="cls-5" cx="117" cy="242" r="4"/><circle id="타원_57-81" data-name="타원 57-81" class="cls-5" cx="149" cy="242" r="4"/><circle id="타원_57-82" data-name="타원 57-82" class="cls-5" cx="181" cy="242" r="4"/><circle id="타원_57-83" data-name="타원 57-83" class="cls-5" cx="213" cy="242" r="4"/><circle id="타원_57-84" data-name="타원 57-84" class="cls-5" cx="245" cy="242" r="4"/><circle id="타원_57-85" data-name="타원 57-85" class="cls-5" cx="277" cy="242" r="4"/><circle id="타원_57-86" data-name="타원 57-86" class="cls-5" cx="309" cy="242" r="4"/><circle id="타원_57-87" data-name="타원 57-87" class="cls-5" cx="341" cy="242" r="4"/><circle id="타원_57-88" data-name="타원 57-88" class="cls-5" cx="373" cy="242" r="4"/><circle id="타원_57-89" data-name="타원 57-89" class="cls-5" cx="53" cy="274" r="4"/><circle id="타원_57-90" data-name="타원 57-90" class="cls-5" cx="85" cy="274" r="4"/><circle id="타원_57-91" data-name="타원 57-91" class="cls-5" cx="117" cy="274" r="4"/><circle id="타원_57-92" data-name="타원 57-92" class="cls-5" cx="149" cy="274" r="4"/><circle id="타원_57-93" data-name="타원 57-93" class="cls-5" cx="181" cy="274" r="4"/><circle id="타원_57-94" data-name="타원 57-94" class="cls-5" cx="213" cy="274" r="4"/><circle id="타원_57-95" data-name="타원 57-95" class="cls-5" cx="245" cy="274" r="4"/><circle id="타원_57-96" data-name="타원 57-96" class="cls-5" cx="277" cy="274" r="4"/><circle id="타원_57-97" data-name="타원 57-97" class="cls-5" cx="309" cy="274" r="4"/><circle id="타원_57-98" data-name="타원 57-98" class="cls-5" cx="341" cy="274" r="4"/><circle id="타원_57-99" data-name="타원 57-99" class="cls-5" cx="373" cy="274" r="4"/><circle id="타원_57-100" data-name="타원 57-100" class="cls-5" cx="53" cy="306" r="4"/><circle id="타원_57-101" data-name="타원 57-101" class="cls-5" cx="85" cy="306" r="4"/><circle id="타원_57-102" data-name="타원 57-102" class="cls-5" cx="117" cy="306" r="4"/><circle id="타원_57-103" data-name="타원 57-103" class="cls-5" cx="149" cy="306" r="4"/><circle id="타원_57-104" data-name="타원 57-104" class="cls-5" cx="181" cy="306" r="4"/><circle id="타원_57-105" data-name="타원 57-105" class="cls-5" cx="213" cy="306" r="4"/><circle id="타원_57-106" data-name="타원 57-106" class="cls-5" cx="245" cy="306" r="4"/><circle id="타원_57-107" data-name="타원 57-107" class="cls-5" cx="277" cy="306" r="4"/><circle id="타원_57-108" data-name="타원 57-108" class="cls-5" cx="309" cy="306" r="4"/><circle id="타원_57-109" data-name="타원 57-109" class="cls-5" cx="341" cy="306" r="4"/><circle id="타원_57-110" data-name="타원 57-110" class="cls-5" cx="373" cy="306" r="4"/><circle id="타원_57-111" data-name="타원 57-111" class="cls-5" cx="53" cy="338" r="4"/><circle id="타원_57-112" data-name="타원 57-112" class="cls-5" cx="85" cy="338" r="4"/><circle id="타원_57-113" data-name="타원 57-113" class="cls-5" cx="117" cy="338" r="4"/><circle id="타원_57-114" data-name="타원 57-114" class="cls-5" cx="149" cy="338" r="4"/><circle id="타원_57-115" data-name="타원 57-115" class="cls-5" cx="181" cy="338" r="4"/><circle id="타원_57-116" data-name="타원 57-116" class="cls-5" cx="213" cy="338" r="4"/><circle id="타원_57-117" data-name="타원 57-117" class="cls-5" cx="245" cy="338" r="4"/><circle id="타원_57-118" data-name="타원 57-118" class="cls-5" cx="277" cy="338" r="4"/><circle id="타원_57-119" data-name="타원 57-119" class="cls-5" cx="309" cy="338" r="4"/><circle id="타원_57-120" data-name="타원 57-120" class="cls-5" cx="341" cy="338" r="4"/><circle id="타원_57-121" data-name="타원 57-121" class="cls-5" cx="373" cy="338" r="4"/><circle id="타원_57-122" data-name="타원 57-122" class="cls-5" cx="53" cy="370" r="4"/><circle id="타원_57-123" data-name="타원 57-123" class="cls-5" cx="85" cy="370" r="4"/><circle id="타원_57-124" data-name="타원 57-124" class="cls-5" cx="117" cy="370" r="4"/><circle id="타원_57-125" data-name="타원 57-125" class="cls-5" cx="149" cy="370" r="4"/><circle id="타원_57-126" data-name="타원 57-126" class="cls-5" cx="181" cy="370" r="4"/><circle id="타원_57-127" data-name="타원 57-127" class="cls-5" cx="213" cy="370" r="4"/><circle id="타원_57-128" data-name="타원 57-128" class="cls-5" cx="245" cy="370" r="4"/><circle id="타원_57-129" data-name="타원 57-129" class="cls-5" cx="277" cy="370" r="4"/><circle id="타원_57-130" data-name="타원 57-130" class="cls-5" cx="309" cy="370" r="4"/><circle id="타원_57-131" data-name="타원 57-131" class="cls-5" cx="341" cy="370" r="4"/><circle id="타원_57-132" data-name="타원 57-132" class="cls-5" cx="373" cy="370" r="4"/><circle id="타원_57-133" data-name="타원 57-133" class="cls-5" cx="53" cy="402" r="4"/><circle id="타원_57-134" data-name="타원 57-134" class="cls-5" cx="85" cy="402" r="4"/><circle id="타원_57-135" data-name="타원 57-135" class="cls-5" cx="117" cy="402" r="4"/><circle id="타원_57-136" data-name="타원 57-136" class="cls-5" cx="149" cy="402" r="4"/><circle id="타원_57-137" data-name="타원 57-137" class="cls-5" cx="181" cy="402" r="4"/><circle id="타원_57-138" data-name="타원 57-138" class="cls-5" cx="213" cy="402" r="4"/><circle id="타원_57-139" data-name="타원 57-139" class="cls-5" cx="245" cy="402" r="4"/><circle id="타원_57-140" data-name="타원 57-140" class="cls-5" cx="277" cy="402" r="4"/><circle id="타원_57-141" data-name="타원 57-141" class="cls-5" cx="309" cy="402" r="4"/><circle id="타원_57-142" data-name="타원 57-142" class="cls-5" cx="341" cy="402" r="4"/><circle id="타원_57-143" data-name="타원 57-143" class="cls-5" cx="373" cy="402" r="4"/><circle id="타원_57-144" data-name="타원 57-144" class="cls-5" cx="53" cy="434" r="4"/><circle id="타원_57-145" data-name="타원 57-145" class="cls-5" cx="85" cy="434" r="4"/><circle id="타원_57-146" data-name="타원 57-146" class="cls-5" cx="117" cy="434" r="4"/><circle id="타원_57-147" data-name="타원 57-147" class="cls-5" cx="149" cy="434" r="4"/><circle id="타원_57-148" data-name="타원 57-148" class="cls-5" cx="181" cy="434" r="4"/><circle id="타원_57-149" data-name="타원 57-149" class="cls-5" cx="213" cy="434" r="4"/><circle id="타원_57-150" data-name="타원 57-150" class="cls-5" cx="245" cy="434" r="4"/><circle id="타원_57-151" data-name="타원 57-151" class="cls-5" cx="277" cy="434" r="4"/><circle id="타원_57-152" data-name="타원 57-152" class="cls-5" cx="309" cy="434" r="4"/><circle id="타원_57-153" data-name="타원 57-153" class="cls-5" cx="341" cy="434" r="4"/><circle id="타원_57-154" data-name="타원 57-154" class="cls-5" cx="373" cy="434" r="4"/><circle id="타원_57-155" data-name="타원 57-155" class="cls-5" cx="53" cy="466" r="4"/><circle id="타원_57-156" data-name="타원 57-156" class="cls-5" cx="85" cy="466" r="4"/><circle id="타원_57-157" data-name="타원 57-157" class="cls-5" cx="117" cy="466" r="4"/><circle id="타원_57-158" data-name="타원 57-158" class="cls-5" cx="149" cy="466" r="4"/><circle id="타원_57-159" data-name="타원 57-159" class="cls-5" cx="181" cy="466" r="4"/><circle id="타원_57-160" data-name="타원 57-160" class="cls-5" cx="213" cy="466" r="4"/><circle id="타원_57-161" data-name="타원 57-161" class="cls-5" cx="245" cy="466" r="4"/><circle id="타원_57-162" data-name="타원 57-162" class="cls-5" cx="277" cy="466" r="4"/><circle id="타원_57-163" data-name="타원 57-163" class="cls-5" cx="309" cy="466" r="4"/><circle id="타원_57-164" data-name="타원 57-164" class="cls-5" cx="341" cy="466" r="4"/><circle id="타원_57-165" data-name="타원 57-165" class="cls-5" cx="373" cy="466" r="4"/><circle id="타원_57-166" data-name="타원 57-166" class="cls-5" cx="53" cy="498" r="4"/><circle id="타원_57-167" data-name="타원 57-167" class="cls-5" cx="85" cy="498" r="4"/><circle id="타원_57-168" data-name="타원 57-168" class="cls-5" cx="117" cy="498" r="4"/><circle id="타원_57-169" data-name="타원 57-169" class="cls-5" cx="149" cy="498" r="4"/><circle id="타원_57-170" data-name="타원 57-170" class="cls-5" cx="181" cy="498" r="4"/><circle id="타원_57-171" data-name="타원 57-171" class="cls-5" cx="213" cy="498" r="4"/><circle id="타원_57-172" data-name="타원 57-172" class="cls-5" cx="245" cy="498" r="4"/><circle id="타원_57-173" data-name="타원 57-173" class="cls-5" cx="277" cy="498" r="4"/><circle id="타원_57-174" data-name="타원 57-174" class="cls-5" cx="309" cy="498" r="4"/><circle id="타원_57-175" data-name="타원 57-175" class="cls-5" cx="341" cy="498" r="4"/><circle id="타원_57-176" data-name="타원 57-176" class="cls-5" cx="373" cy="498" r="4"/></g></g><rect id="사각형_198" data-name="사각형 198" class="cls-6" y="259" width="428" height="3"/><g id="그룹_346" data-name="그룹 346"><rect id="사각형_201" data-name="사각형 201" class="cls-7" x="82" y="116" width="265" height="306" rx="10"/><path id="패스_377" data-name="패스 377" class="cls-8" d="M278.72,276.14H185.28a3.94,3.94,0,1,1,0-7.87h93.45a3.94,3.94,0,1,1,0,7.87"/><path id="패스_378" data-name="패스 378" class="cls-8" d="M295,289.43H185.28a3.94,3.94,0,0,1,0-7.88H295a3.94,3.94,0,0,1,0,7.88"/><path id="패스_379" data-name="패스 379" class="cls-8" d="M278.72,335.67H185.28a3.94,3.94,0,0,1,0-7.88h93.44a3.94,3.94,0,0,1,0,7.88"/><path id="패스_380" data-name="패스 380" class="cls-8" d="M295,349H185.28a3.94,3.94,0,1,1,0-7.87H295a3.94,3.94,0,0,1,0,7.87"/><path id="패스_381" data-name="패스 381" class="cls-8" d="M164.34,295.45H131.27a1.88,1.88,0,0,1-1.88-1.88V264.13a1.89,1.89,0,0,1,1.88-1.89h33.07a1.9,1.9,0,0,1,1.89,1.89v29.44a1.9,1.9,0,0,1-1.89,1.89"/><path id="패스_382" data-name="패스 382" class="cls-8" d="M164.34,355H131.27a1.89,1.89,0,0,1-1.88-1.89V323.65a1.88,1.88,0,0,1,1.88-1.88h33.07a1.89,1.89,0,0,1,1.89,1.88v29.44a1.89,1.89,0,0,1-1.89,1.89"/><path id="패스_383" data-name="패스 383" class="cls-9" d="M278.83,209.88h-68.9a3.94,3.94,0,1,1,0-7.87h68.9a3.94,3.94,0,0,1,0,7.87"/><path id="패스_384" data-name="패스 384" class="cls-9" d="M295.06,223.16H209.93a3.94,3.94,0,0,1,0-7.87h85.13a3.94,3.94,0,1,1,0,7.87Z"/><path id="패스_385" data-name="패스 385" class="cls-10" d="M194.68,239.26H131.17a1.89,1.89,0,0,1-1.89-1.89V187.81a1.89,1.89,0,0,1,1.89-1.89h63.51a1.89,1.89,0,0,1,1.89,1.89v49.57a1.89,1.89,0,0,1-1.89,1.89"/><g id="사각형_208" data-name="사각형 208"><rect class="cls-1" x="180" y="266" width="104" height="12"/><rect class="cls-11" x="180.5" y="266.5" width="103" height="11"/></g><g id="사각형_209" data-name="사각형 209"><rect class="cls-1" x="205" y="200" width="79" height="12"/><rect class="cls-12" x="205.5" y="200.5" width="78" height="11"/></g><g id="사각형_210" data-name="사각형 210"><rect class="cls-1" x="128" y="260" width="40" height="37"/><rect class="cls-13" x="128.5" y="260.5" width="39" height="36"/></g><g id="사각형_211" data-name="사각형 211"><rect class="cls-7" x="179" y="265" width="3" height="3"/><rect class="cls-11" x="179.5" y="265.5" width="2" height="2"/></g><g id="사각형_212" data-name="사각형 212"><rect class="cls-7" x="203" y="198" width="4" height="4"/><rect class="cls-12" x="203.5" y="198.5" width="3" height="3"/></g><g id="사각형_213" data-name="사각형 213"><rect class="cls-7" x="127" y="259" width="3" height="3"/><rect class="cls-13" x="127.5" y="259.5" width="2" height="2"/></g><g id="사각형_214" data-name="사각형 214"><rect class="cls-7" x="127" y="295" width="3" height="4"/><rect class="cls-13" x="127.5" y="295.5" width="2" height="3"/></g><g id="사각형_215" data-name="사각형 215"><rect class="cls-7" x="166" y="295" width="3" height="4"/><rect class="cls-13" x="166.5" y="295.5" width="2" height="3"/></g><g id="사각형_216" data-name="사각형 216"><rect class="cls-7" x="166" y="259" width="3" height="3"/><rect class="cls-13" x="166.5" y="259.5" width="2" height="2"/></g><g id="사각형_217" data-name="사각형 217"><rect class="cls-7" x="282" y="265" width="4" height="3"/><rect class="cls-11" x="282.5" y="265.5" width="3" height="2"/></g><g id="사각형_218" data-name="사각형 218"><rect class="cls-7" x="282" y="198" width="4" height="4"/><rect class="cls-12" x="282.5" y="198.5" width="3" height="3"/></g><g id="사각형_219" data-name="사각형 219"><rect class="cls-7" x="179" y="276" width="3" height="4"/><rect class="cls-11" x="179.5" y="276.5" width="2" height="3"/></g><g id="사각형_220" data-name="사각형 220"><rect class="cls-7" x="203" y="210" width="4" height="3"/><rect class="cls-12" x="203.5" y="210.5" width="3" height="2"/></g><g id="사각형_221" data-name="사각형 221"><rect class="cls-7" x="282" y="276" width="4" height="4"/><rect class="cls-11" x="282.5" y="276.5" width="3" height="3"/></g><g id="사각형_222" data-name="사각형 222"><rect class="cls-7" x="282" y="210" width="4" height="3"/><rect class="cls-12" x="282.5" y="210.5" width="3" height="2"/></g><g id="그룹_278" data-name="그룹 278"><rect id="사각형_193" data-name="사각형 193" class="cls-5" x="203" y="193" width="6" height="5"/><g id="_1" data-name=" 1" class="cls-14"><g class="cls-14"><path class="cls-7" d="M205.25,196H205v-1.14h0l-.33.21v-.26l.35-.22h.28Z"/></g></g></g><g id="그룹_279" data-name="그룹 279"><rect id="사각형_193-2" data-name="사각형 193-2" class="cls-5" x="127" y="254" width="5" height="5"/><g id="_2" data-name=" 2" class="cls-14"><g class="cls-14"><path class="cls-7" d="M128.75,255.89l.25-.23s.05,0,.06-.06,0,0,0,0a.07.07,0,0,0,0-.1l0,0H129a.11.11,0,0,0-.08,0,.1.1,0,0,0,0,.08h-.14a.16.16,0,0,1,0-.12l.08-.08a.31.31,0,0,1,.13,0,.32.32,0,0,1,.14,0l.09.07a.2.2,0,0,1,0,.11.19.19,0,0,1,0,.08.24.24,0,0,1-.06.09.56.56,0,0,1-.11.11l-.11.1h.31V256h-.51Z"/></g></g></g><g id="그룹_280" data-name="그룹 280"><rect id="사각형_193-3" data-name="사각형 193-3" class="cls-5" x="179" y="260" width="5" height="5"/><g id="_3" data-name=" 3" class="cls-14"><g class="cls-14"><path class="cls-7" d="M180.86,261a.22.22,0,0,1-.09-.07.15.15,0,0,1,0-.11h.15a.06.06,0,0,0,0,.05l0,0h.12a.1.1,0,0,0,.05,0,.07.07,0,0,0,0,0s0,0,0-.05,0,0,0,0l-.07,0h-.07v-.11h.13l0,0a.13.13,0,0,0,0-.1l0,0h-.12l0,0a.09.09,0,0,0,0,.05h-.15a.21.21,0,0,1,0-.11.22.22,0,0,1,.09-.07.3.3,0,0,1,.26,0,.22.22,0,0,1,.09.07.17.17,0,0,1,0,.1.14.14,0,0,1,0,.07l0,.05a.09.09,0,0,1-.07,0h0a.17.17,0,0,1,.12.05.15.15,0,0,1,0,.11.2.2,0,0,1,0,.11.26.26,0,0,1-.1.07.34.34,0,0,1-.28,0Z"/></g></g></g></g><g id="그룹_347" data-name="그룹 347"><circle id="타원_58" data-name="타원 58" class="cls-7" cx="383" cy="259" r="16"/><g id="icon"><path id="Path" class="cls-15" d="M382.43,252.69v5.74h-5.74v1.15h5.74v5.74h1.15v-5.74h5.74v-1.15h-5.74v-5.74Z"/></g></g></g></g></svg>