<svg xmlns="http://www.w3.org/2000/svg" viewBox="0 0 362.41 296"><defs><style>.cls-1{fill:#85ccc9;}.cls-2{fill:#eeb73f;}.cls-3{fill:#5a56a4;}.cls-4{fill:#1e1e24;}.cls-5{fill:#ed7257;}</style></defs><g id="레이어_2" data-name="레이어 2"><g id="레이어_1-2" data-name="레이어 1"><g id="그룹_205" data-name="그룹 205"><g id="Limitless_Segmentation" data-name="Limitless Segmentation"><g id="그룹_161" data-name="그룹 161"><path id="패스_281" data-name="패스 281" class="cls-1" d="M94.45,220.75,71.61,184.38l1.67-1.07L94.45,217l21.1-33.69,1.74,1.07Z"/></g><g id="그룹_162" data-name="그룹 162"><path id="패스_282" data-name="패스 282" class="cls-2" d="M94.49,290.38h0a1.14,1.14,0,0,1-.87-.47l-11-17.48a1,1,0,0,1,0-1.08l11-17.48a1,1,0,0,1,1.44-.29,1.18,1.18,0,0,1,.3.29l11,17.48a1,1,0,0,1,0,1.08l-11,17.48A1,1,0,0,1,94.49,290.38Zm-9.85-18.49,9.78,15.61,9.78-15.61-9.78-15.6Z"/></g><g id="그룹_163" data-name="그룹 163"><rect id="사각형_147" data-name="사각형 147" class="cls-2" x="173.73" y="271" width="41.52" height="2.01" transform="translate(-139.25 292.73) rotate(-57.99)"/></g><g id="그룹_164" data-name="그룹 164"><path id="패스_283" data-name="패스 283" class="cls-2" d="M271.66,290.31H94.84a1.14,1.14,0,0,1-.87-.47l-21.9-35a1,1,0,0,1,.33-1.41,1,1,0,0,1,1.41.34L95.44,288.3H271.72a1,1,0,0,1,1,1A1,1,0,0,1,271.66,290.31Z"/></g><g id="그룹_165" data-name="그룹 165"><rect id="사각형_148" data-name="사각형 148" class="cls-2" x="129.76" y="271.01" width="41.18" height="2.01" transform="translate(-159.98 254.91) rotate(-57.92)"/></g><g id="그룹_166" data-name="그룹 166"><rect id="사각형_149" data-name="사각형 149" class="cls-2" x="217.99" y="271" width="41.18" height="2.01" transform="translate(-118.61 329.67) rotate(-57.92)"/></g><g id="그룹_167" data-name="그룹 167"><rect id="사각형_150" data-name="사각형 150" class="cls-2" x="106.58" y="270.74" width="41.73" height="2.01" transform="translate(-170.46 235.13) rotate(-57.87)"/></g><g id="그룹_168" data-name="그룹 168"><path id="패스_284" data-name="패스 284" class="cls-2" d="M95,290.17a1.43,1.43,0,0,1-.54-.13,1.06,1.06,0,0,1-.33-1.41l21.9-35a1,1,0,1,1,1.74,1.07h0l-21.9,35A1.1,1.1,0,0,1,95,290.17Z"/></g><g id="그룹_169" data-name="그룹 169"><rect id="사각형_151" data-name="사각형 151" class="cls-2" x="151.39" y="270.78" width="41.73" height="2.01" transform="translate(-149.51 273.1) rotate(-57.87)"/></g><g id="그룹_170" data-name="그룹 170"><rect id="사각형_152" data-name="사각형 152" class="cls-2" x="196.24" y="270.75" width="41.73" height="2.01" transform="translate(-128.5 311.07) rotate(-57.87)"/></g><g id="그룹_171" data-name="그룹 171"><rect id="사각형_153" data-name="사각형 153" class="cls-2" x="240.42" y="270.75" width="41.73" height="2.01" transform="translate(-107.81 348.47) rotate(-57.87)"/></g><g id="그룹_172" data-name="그룹 172"><path id="패스_285" data-name="패스 285" class="cls-2" d="M272.39,290.44a1.64,1.64,0,0,1-.54-.13,1.06,1.06,0,0,1-.33-1.41l22.17-35.36a1,1,0,0,1,1.4-.34,1,1,0,0,1,.34,1.41L273.26,290A1,1,0,0,1,272.39,290.44Z"/></g><g id="그룹_173" data-name="그룹 173"><path id="패스_286" data-name="패스 286" class="cls-2" d="M282.48,273H105.79a1,1,0,0,1,0-2H282.41a1,1,0,0,1,1,1A1,1,0,0,1,282.48,273Z"/></g><g id="그룹_174" data-name="그룹 174"><circle id="타원_34" data-name="타원 34" class="cls-3" cx="105.84" cy="271.89" r="5.02"/><path id="패스_287" data-name="패스 287" class="cls-4" d="M105.84,277.92a6,6,0,1,1,.06,0Zm0-10.05a4,4,0,1,0,4,4A4,4,0,0,0,105.84,267.87Z"/></g><g id="그룹_175" data-name="그룹 175"><circle id="타원_35" data-name="타원 35" class="cls-5" cx="273.1" cy="289.3" r="5.02"/><path id="패스_288" data-name="패스 288" class="cls-4" d="M273.1,295.33a6,6,0,1,1,6-6h0a6,6,0,0,1-6,6Zm0-10.05a4,4,0,1,0,4,4h0A4,4,0,0,0,273.1,285.28Z"/></g><g id="그룹_176" data-name="그룹 176"><rect id="사각형_154" data-name="사각형 154" class="cls-1" x="168.26" y="284.95" width="10.05" height="10.05"/><path id="패스_289" data-name="패스 289" class="cls-4" d="M178.31,296H168.26a1,1,0,0,1-1-1V284.94a1,1,0,0,1,1-1h10a1,1,0,0,1,1,1V295a1,1,0,0,1-1,1Zm-9.05-2h8v-8h-8Z"/></g><g id="그룹_177" data-name="그룹 177"><path id="패스_290" data-name="패스 290" class="cls-1" d="M294.64,255.15H118.55a1,1,0,0,1,0-2H294.1l21.9-34a1,1,0,1,1,1.74,1.08h0l-22.17,34.49A1.18,1.18,0,0,1,294.64,255.15Z"/></g><g id="그룹_178" data-name="그룹 178"><path id="패스_291" data-name="패스 291" class="cls-1" d="M72.2,255.81a1,1,0,0,1-.87-.47L49.16,220a1,1,0,0,1,.33-1.4,1,1,0,0,1,1.41.33l22.17,35.3a1.07,1.07,0,0,1-.34,1.41A1.19,1.19,0,0,1,72.2,255.81Z"/></g><g id="그룹_179" data-name="그룹 179"><path id="패스_292" data-name="패스 292" class="cls-3" d="M49.91,218a1,1,0,0,1-.87-.46L4.49,147.21a1,1,0,0,1,0-1.07L93.59,5.49A1.18,1.18,0,0,1,94.46,5H272.65a1.18,1.18,0,0,1,.88.47l44.55,70.33a1.06,1.06,0,0,1-.34,1.4,1.09,1.09,0,0,1-1.42-.33L272.11,7h-177L6.58,146.68l44.21,69.78a1.06,1.06,0,0,1-.34,1.41A1.23,1.23,0,0,1,49.91,218Z"/></g><g id="그룹_180" data-name="그룹 180"><path id="패스_293" data-name="패스 293" class="cls-3" d="M138.75,77.43a1,1,0,0,1-.87-.47L93.68,6.57A1,1,0,0,1,94,5.16a1,1,0,0,1,1.4.34l44.2,70.39a1.06,1.06,0,0,1-.33,1.4A1.44,1.44,0,0,1,138.75,77.43Z"/></g><g id="그룹_181" data-name="그룹 181"><path id="패스_294" data-name="패스 294" class="cls-5" d="M95,148.76a1.71,1.71,0,0,1-.54-.13,1.06,1.06,0,0,1-.33-1.41l44.2-70.39a1,1,0,0,1,1.41-.33,1,1,0,0,1,.33,1.4h0l-44.2,70.39A1,1,0,0,1,95,148.76Z"/></g><g id="그룹_182" data-name="그룹 182"><path id="패스_295" data-name="패스 295" class="cls-5" d="M138.55,219.78a1,1,0,0,1-.87-.47l-44-70.06a1,1,0,0,1,.33-1.4,1,1,0,0,1,1.41.33l44,70.06a1.09,1.09,0,0,1-.33,1.41A1.26,1.26,0,0,1,138.55,219.78Z"/></g><g id="그룹_183" data-name="그룹 183"><path id="패스_296" data-name="패스 296" class="cls-2" d="M72.37,255.48a1.65,1.65,0,0,1-.53-.13,1.05,1.05,0,0,1-.34-1.41l22-35A1,1,0,1,1,95.21,220h0l-22,35A.94.94,0,0,1,72.37,255.48Z"/></g><g id="그룹_184" data-name="그룹 184"><path id="패스_297" data-name="패스 297" class="cls-2" d="M94.49,255.48h0a1.11,1.11,0,0,1-.87-.47l-11-17.48a1,1,0,0,1,0-1.07l11-17.48a1,1,0,0,1,1.74,1.07L84.71,237l9.78,15.6,10.11-16.14a1,1,0,0,1,1.41-.33,1,1,0,0,1,.33,1.4h0L95.36,255A1.11,1.11,0,0,1,94.49,255.48Z"/></g><g id="그룹_185" data-name="그룹 185"><path id="패스_298" data-name="패스 298" class="cls-5" d="M228,219.26a1.64,1.64,0,0,1-.54-.13,1.06,1.06,0,0,1-.33-1.41l43.67-69.85L227.11,78.28a1,1,0,0,1,.33-1.41,1,1,0,0,1,1.41.34h0l43.93,70.12a1,1,0,0,1,0,1.07l-44,70.39A1,1,0,0,1,228,219.26Z"/></g><g id="그룹_186" data-name="그룹 186"><rect id="사각형_155" data-name="사각형 155" class="cls-1" x="151.82" y="236.11" width="41.18" height="2.01" transform="translate(-120.07 257.24) rotate(-57.92)"/></g><g id="그룹_187" data-name="그룹 187"><path id="패스_299" data-name="패스 299" class="cls-1" d="M249.38,255.55a1.67,1.67,0,0,1-.53-.14,1,1,0,0,1-.34-1.4l21.9-34.9a1,1,0,0,1,1.41-.33,1,1,0,0,1,.33,1.4h0l-21.9,34.9A1,1,0,0,1,249.38,255.55Z"/></g><g id="그룹_188" data-name="그룹 188"><rect id="사각형_156" data-name="사각형 156" class="cls-1" x="195.93" y="236.11" width="41.18" height="2.01" transform="translate(-99.39 294.62) rotate(-57.92)"/></g><g id="그룹_189" data-name="그룹 189"><path id="패스_300" data-name="패스 300" class="cls-1" d="M117,255.15a1.66,1.66,0,0,1-.54-.14,1,1,0,0,1-.33-1.4l21.63-34.5a1,1,0,1,1,1.74,1.08h0L117.9,254.68A1.18,1.18,0,0,1,117,255.15Z"/></g><g id="그룹_190" data-name="그룹 190"><path id="패스_301" data-name="패스 301" class="cls-5" d="M317.14,220.14H140.39a1,1,0,1,1,0-2H317.14a1,1,0,0,1,1,1,1,1,0,0,1-1,1Z"/></g><g id="그룹_191" data-name="그룹 191"><path id="패스_302" data-name="패스 302" class="cls-5" d="M361.41,149.07H184.66a1,1,0,1,1,0-2H361.41a1,1,0,0,1,1,1,1,1,0,0,1-.89,1A.4.4,0,0,1,361.41,149.07Z"/></g><g id="그룹_192" data-name="그룹 192"><circle id="타원_36" data-name="타원 36" class="cls-3" cx="272.42" cy="6.03" r="5.02"/><path id="패스_303" data-name="패스 303" class="cls-4" d="M272.42,12.06a6,6,0,1,1,6-6h0a6,6,0,0,1-6,6Zm0-10a4,4,0,1,0,4,4A4,4,0,0,0,272.42,2Z"/></g><g id="그룹_193" data-name="그룹 193"><circle id="타원_37" data-name="타원 37" class="cls-3" cx="321.22" cy="147.66" r="5.02"/><path id="패스_304" data-name="패스 304" class="cls-4" d="M321.22,153.69a6,6,0,1,1,6-6h0a6,6,0,0,1-6,6Zm0-10.05a4,4,0,1,0,4,4A4,4,0,0,0,321.22,143.64Z"/></g><g id="그룹_194" data-name="그룹 194"><circle id="타원_38" data-name="타원 38" class="cls-2" cx="303.14" cy="147.66" r="5.02"/><path id="패스_305" data-name="패스 305" class="cls-4" d="M303.14,153.69a6,6,0,1,1,6-6h0a6,6,0,0,1-6,6Zm0-10.05a4,4,0,1,0,4,4A4,4,0,0,0,303.14,143.64Z"/></g><g id="그룹_195" data-name="그룹 195"><circle id="타원_39" data-name="타원 39" class="cls-2" cx="6.03" cy="147.66" r="5.02"/><path id="패스_306" data-name="패스 306" class="cls-4" d="M6,153.69a6,6,0,1,1,6-6,6,6,0,0,1-6,6Zm0-10.05a4,4,0,1,0,4,4A4,4,0,0,0,6,143.64Z"/></g><g id="그룹_196" data-name="그룹 196"><path id="패스_307" data-name="패스 307" class="cls-1" d="M72.64,184.44a1.44,1.44,0,0,1-.53-.14,1,1,0,0,1-.34-1.4l22.1-35.16a1,1,0,0,1,1.41-.34,1,1,0,0,1,.33,1.41h0L73.51,184A1.14,1.14,0,0,1,72.64,184.44Z"/></g><g id="그룹_197" data-name="그룹 197"><path id="패스_308" data-name="패스 308" class="cls-1" d="M50.09,219.74a1.67,1.67,0,0,1-.53-.14,1.05,1.05,0,0,1-.34-1.4L71.32,183a1,1,0,0,1,1.74,1.08h0L51,219.27A1,1,0,0,1,50.09,219.74Z"/></g><g id="그룹_198" data-name="그룹 198"><circle id="타원_40" data-name="타원 40" class="cls-1" cx="95.05" cy="148.34" r="5.02"/><path id="패스_309" data-name="패스 309" class="cls-4" d="M95.05,154.36a6,6,0,1,1,.06,0Zm0-10a4,4,0,1,0,4,4A4,4,0,0,0,95.05,144.32Z"/></g><g id="그룹_199" data-name="그룹 199"><rect id="사각형_157" data-name="사각형 157" class="cls-3" x="90.03" y="1.01" width="10.05" height="10.05"/><path id="패스_310" data-name="패스 310" class="cls-4" d="M100.07,12.06H90a1,1,0,0,1-1-1V1a1,1,0,0,1,1-1h10a1,1,0,0,1,1,1V11.05a1,1,0,0,1-1,1Zm-9-2h8V2H91Z"/></g><g id="그룹_200" data-name="그룹 200"><rect id="사각형_158" data-name="사각형 158" class="cls-2" x="197.93" y="214.13" width="10.05" height="10.05"/><path id="패스_311" data-name="패스 311" class="cls-4" d="M208,225.18h-10a1,1,0,0,1-1-1V214.13a1,1,0,0,1,1-1h10a1,1,0,0,1,1,1v10a1,1,0,0,1-1,1Zm-9-2h8v-8h-8Z"/></g><g id="그룹_201" data-name="그룹 201"><path id="패스_312" data-name="패스 312" class="cls-5" d="M317.27,219.13a1.67,1.67,0,0,1-.53-.14,1.05,1.05,0,0,1-.34-1.4l43.87-69.86L317,78.68H142.61l42.86,68.51a1,1,0,0,1,0,1.08l-44.2,70.39a1,1,0,0,1-1.74-1.08h0l43.86-69.85L139.86,78.21a.91.91,0,0,1,0-1,1,1,0,0,1,.87-.53H317.47a1.12,1.12,0,0,1,.88.47l43.86,70a1,1,0,0,1,0,1.07L318,218.66A.68.68,0,0,1,317.27,219.13Z"/></g><g id="그룹_202" data-name="그룹 202"><circle id="타원_41" data-name="타원 41" class="cls-1" cx="227.91" cy="77.52" r="5.02"/><path id="패스_313" data-name="패스 313" class="cls-4" d="M227.91,83.55a6,6,0,1,1,6-6h0a6,6,0,0,1-6,6Zm0-10a4,4,0,1,0,4,4,4,4,0,0,0-4-4Z"/></g><g id="그룹_203" data-name="그룹 203"><circle id="타원_42" data-name="타원 42" class="cls-5" cx="183.4" cy="147.66" r="5.02"/><path id="패스_314" data-name="패스 314" class="cls-4" d="M183.4,153.69a6,6,0,1,1,6-6h0a6,6,0,0,1-6,6Zm0-10.05a4,4,0,1,0,4,4A4,4,0,0,0,183.4,143.64Z"/></g><g id="그룹_204" data-name="그룹 204"><path id="패스_315" data-name="패스 315" class="cls-1" d="M116.54,254.81a1,1,0,0,1-.87-.46L93.7,220a1,1,0,0,1,.33-1.41,1,1,0,0,1,1.41.34l22,34.35a1.07,1.07,0,0,1-.33,1.41A1.79,1.79,0,0,1,116.54,254.81Z"/></g></g></g></g></g></svg>